<?xml version="1.0" encoding="utf-8"?>
<!-- Generator: Adobe Illustrator 21.0.2, SVG Export Plug-In . SVG Version: 6.00 Build 0)  -->
<svg version="1.1" id="图层_1" xmlns="http://www.w3.org/2000/svg" xmlns:xlink="http://www.w3.org/1999/xlink" x="0px" y="0px"
	 width="500px" height="310px" viewBox="0 0 500 310" style="enable-background:new 0 0 500 310;" xml:space="preserve">
<style type="text/css">
	
		.st0{opacity:0.72;fill:none;stroke:#303030;stroke-width:21;stroke-linecap:round;stroke-linejoin:round;stroke-miterlimit:10;enable-background:new    ;}
</style>
<path class="st0" d="M133.7,63c-5.3,6-7.5,12.1-12.8,18.2c11.8-8.7,18-12.3,31.5-18.2c-10.9,12.2-23.3,24.3-33.6,36.9
	C137.1,86.5,152,73.2,172.3,63c-19.3,18.7-31.5,37.6-50.5,56.5c23.9-19.9,41.8-38.4,69.2-53.4c-0.1,3.9-42.8,43.4-62.9,62.8
	c21.4-18.4,41.9-31.6,65.8-46.5c-24.1,22.1-22.6,26.6-46.8,48.8c23.6-16.3,29.4-18.7,45.4-25.4c-15,16-17.9,18.5-22.9,25.4l21.3-9.2
	"/>
</svg>
