<?xml version="1.0" encoding="utf-8"?>
<!-- Generator: Adobe Illustrator 21.0.2, SVG Export Plug-In . SVG Version: 6.00 Build 0)  -->
<svg version="1.1" id="图层_1" xmlns="http://www.w3.org/2000/svg" xmlns:xlink="http://www.w3.org/1999/xlink" x="0px" y="0px"
	 width="400px" height="250px" viewBox="0 0 400 250" style="enable-background:new 0 0 400 250;" xml:space="preserve">
<style type="text/css">
	.st0{opacity:0.72;fill:none;stroke:#303030;stroke-width:21;stroke-linecap:round;stroke-linejoin:round;stroke-miterlimit:10;}
</style>
<path class="st0" d="M245.3,49.9c-4.3,4.8-6,9.7-10.3,14.6c9.5-7,14.5-9.9,25.3-14.6c-8.8,9.8-18.7,19.5-27,29.7
	c14.7-10.8,26.7-21.5,43-29.7c-15.5,15-25.3,30.2-40.6,45.4c19.2-16,33.6-30.9,55.6-42.9c-0.1,3.1-34.4,34.9-50.6,50.5
	c17.2-14.8,33.7-25.4,52.9-37.4c-19.4,17.8-18.2,21.4-37.6,39.2c19-13.1,23.6-15,36.5-20.4c-12.1,12.9-14.4,14.9-18.4,20.4l17.1-7.4
	"/>
</svg>
