<?xml version="1.0" encoding="utf-8"?>
<!-- Generator: Adobe Illustrator 21.0.2, SVG Export Plug-In . SVG Version: 6.00 Build 0)  -->
<svg version="1.1" id="图层_1" xmlns="http://www.w3.org/2000/svg" xmlns:xlink="http://www.w3.org/1999/xlink" x="0px" y="0px"
	 width="66.6px" height="65.9px" viewBox="0 0 66.6 65.9" style="enable-background:new 0 0 66.6 65.9;" xml:space="preserve">
<style type="text/css">
	.st0{fill:#FFFFFF;stroke:#263248;stroke-linecap:round;stroke-linejoin:round;stroke-miterlimit:10;}
</style>
<path class="st0" d="M58.9,22.6l6.1-3.1l-4.4,14.9l-13-5.4l5.5-3.4c0,0-1.7-6.9-6.9-9.2c-4.6-2-10.1-0.7-10.1-0.7L35,8.5
	c0,0,9.4-2.6,17.3,4.7C57.5,18,58.9,22.6,58.9,22.6z"/>
<path class="st0" d="M30.8,8.4L30.7,2l11.6,10.3l-10.4,9.5l-0.7-6.5c0,0-6.9-1.5-11.3,2.3c-3.8,3.3-3.7,7.8-3.7,7.8l-6.5-1.1
	c0,0-0.6-7.8,9.1-13.1C24.5,8,30.8,8.4,30.8,8.4z"/>
<path class="st0" d="M8.1,30.7l-6.5,0l11.3-11.1l8.8,10.8l-6.9,0c0,0-0.5,5.2,0.5,9.5c1.1,4.9,7.1,8.2,7.1,8.2L17,52.9
	c0,0-6.2-4.6-8.1-10.8C7.1,36,8.1,30.7,8.1,30.7z"/>
<path class="st0" d="M23.6,57l-2.4,6.9L14,50.1l13.5-5.7l-1.9,6.4c0,0,5.6,3.1,11.3,2.3c5.5-0.7,8.3-2.8,8.3-2.8l2.8,5.6
	c1.1,1.2-6.5,3.7-13.1,3.7C28.2,59.7,23.6,57,23.6,57z"/>
<path class="st0" d="M52.5,53.1l4.8,4.5H41.7l0.8-14.3l5.1,4.4c0,0,6.5-3.2,7.3-8.9c0.7-5-0.4-6.8-0.4-6.8l6.2,2.6l0.7-2.3
	c0,0,1.1,5.6-1.6,11.5C57,49.4,52.5,53.1,52.5,53.1z"/>
</svg>
