<?xml version="1.0" encoding="utf-8"?>
<!-- Generator: Adobe Illustrator 21.0.2, SVG Export Plug-In . SVG Version: 6.00 Build 0)  -->
<svg version="1.1" id="图层_1" xmlns="http://www.w3.org/2000/svg" xmlns:xlink="http://www.w3.org/1999/xlink" x="0px" y="0px"
	 width="500px" height="310px" viewBox="0 0 500 310" style="enable-background:new 0 0 500 310;" xml:space="preserve">
<style type="text/css">
	.st0{fill:none;stroke:#263248;stroke-width:3;stroke-linecap:round;stroke-linejoin:round;stroke-miterlimit:10;}
	.st1{fill:#FFFFFF;}
	.st2{enable-background:new    ;}
	.st3{fill:#263248;}
	.st4{fill:none;stroke:#263248;stroke-width:0.5;stroke-miterlimit:10;}
</style>
<g>
	<g>
		<path class="st0" d="M35.6,66.2c0,73.4-3,230.7,2.7,236.2c7.7,7.3,278.2,7.8,404.3,2.7"/>
		<path class="st0" d="M37.8,62c51.2-7,407.4-9.9,412,4.1c2.9,8.7,0.2,174.4-4.2,236.2"/>
		<path class="st0" d="M34.7,231.3c133.6-1.4,280.6-1.4,414.3-0.1"/>
		<path class="st0" d="M199.9,58.9c-1.4,16.4-2.7,134.1,0,171.3"/>
		<path class="st0" d="M285.8,57.9c-2.1,57.3-1.6,115,1.2,172.3"/>
		<path class="st0" d="M113.3,58.9c-1.5,58.2-1.9,113.1-0.9,171.4"/>
		<path class="st0" d="M372.3,57.9c1.7,24.4-0.5,139.8,0.6,172.9"/>
		<path class="st0" d="M238.6,230.8c-0.5,28.5-0.4,49.1,0.2,77.6"/>
		<path class="st0" d="M112.2,138c26.9-1,59.2-0.5,86.1,1"/>
		<path class="st0" d="M284.6,139.3c29.1,0,59.1,0,87.8,0"/>
	</g>
</g>
<rect x="3.5" y="98.9" class="st1" width="66.4" height="24.3"/>
<g>
	<g class="st2">
		<path class="st3" d="M7.7,111.2l0.1-0.6c0.1,0,0.3-0.2,0.4-0.7c0-0.1,0.1-0.2,0.1-0.3c0.1-0.2,0.1-0.4,0.1-0.4
			c0.1-0.3,0.3-0.7,0.5-1.2c0.4-1.3,0.7-2.3,1-3c0-0.1,0.1-0.2,0.2-0.4c0.1-0.1,0.1-0.2,0.1-0.3c0-0.1,0-0.1,0.1-0.2
			c0-0.1,0-0.2,0-0.2c-0.1,0-0.1-0.2-0.1-0.5c0-0.3,0.1-0.5,0.3-0.6c0.3-0.3,1-0.5,2-0.4c0.1,0,0.5,0,1.2,0c0.1,0,0.2,0.1,0.4,0.2
			c0.4,0.2,0.6,0.3,0.6,0.3c0,0.1,0.1,0.2,0.2,0.2c0.2,0,0.4,0.2,0.7,0.5c0.8,0.7,1.1,1.5,1,2.3c0,0.5-0.1,0.8-0.2,0.9
			c-0.2,0.1-0.3,0.3-0.3,0.4c0,0.1-0.2,0.4-0.5,1c-0.6,1-1.3,1.7-2,2.2c-0.5,0.2-1.1,0.4-1.7,0.6s-1.1,0.2-1.4,0.2
			c0,0-0.2,0-0.4,0.1c-0.2,0-0.4,0.1-0.4,0.2c-0.2,0.5-0.3,0.9-0.3,1c-0.1,0.1-0.2,0.5-0.4,1.2c-0.2,0.7-0.4,1.2-0.5,1.5
			c0,0.2-0.1,0.3-0.3,0.4s-0.3,0.1-0.4,0.1c-0.1,0-0.2-0.1-0.3-0.2C7.1,115.2,7,115.1,7,115c-0.1-0.1-0.1-0.4,0-0.8
			c0-0.4,0.2-0.9,0.4-1.5c0.1-0.3,0.1-0.5,0.2-0.7C7.6,111.5,7.7,111.3,7.7,111.2z M10.1,109.1l0,0.4c0,0,0,0.1,0,0.1s0.2,0,0.5,0
			c0.7-0.1,1.5-0.4,2.4-1c0.3-0.2,0.6-0.5,0.9-1c0.7-1.1,0.9-1.9,0.8-2.4c-0.1-0.6-0.5-1-1-1.2c-0.5-0.1-0.9-0.1-1.2-0.1
			c-0.2,0.1-0.3,0.1-0.4,0.2c-0.1,0.1-0.2,0.3-0.3,0.7c-0.4,0.7-0.6,1.3-0.8,1.6c-0.3,0.9-0.5,1.6-0.6,2S10.1,109.1,10.1,109.1z"/>
		<path class="st3" d="M14.9,113.6c0-0.1-0.1-0.3-0.2-0.5c-0.2-0.2,0.2-1.1,1.1-2.8c0.1-0.1,0.2-0.2,0.3-0.4
			c0.1-0.2,0.2-0.3,0.2-0.3c0,0,0-0.1,0.1-0.1s0.1-0.1,0.1-0.1l0.1-0.3c0-0.1,0.3-0.4,0.7-0.8c0.4-0.4,0.8-0.7,1-0.8
			c0.3-0.2,0.5-0.2,0.8-0.2c0.3,0,0.5,0.1,0.7,0.3c0,0,0.1,0.1,0.2,0.2c0.2,0.2,0.7,0.6,1.5,1.3l-0.3,0.9c-0.3,0.8-0.2,1.5,0.2,2.2
			c0.1,0.3,0.3,0.4,0.6,0.5s0.4,0.2,0.4,0.4c0,0.5-0.2,0.8-0.5,0.8c-0.9,0.1-1.6-0.3-2.1-1.2c-0.2-0.2-0.3-0.5-0.3-0.8
			c-0.1,0.1-0.2,0.3-0.4,0.5c-1.6,1.7-2.9,2.2-3.7,1.7c0-0.1-0.1-0.2-0.3-0.3C15,113.7,14.9,113.7,14.9,113.6z M19.1,108.9
			c-0.4,0-1.2,0.9-2.2,2.6c-0.2,0.3-0.3,0.7-0.5,1.1c0.2,0,0.6-0.2,1.1-0.6c0.1-0.1,0.3-0.2,0.4-0.4c0.2-0.2,0.3-0.3,0.4-0.3
			s0.2-0.2,0.3-0.3c0.2-0.2,0.4-0.5,0.6-0.7l0.4-0.6C19.6,109.2,19.3,108.9,19.1,108.9z"/>
		<path class="st3" d="M25.3,107.3c0.3,0,0.4,0,0.5,0.1c0.3,0.2,0.1,1-0.6,2.2c-0.2,0.4-0.3,0.6-0.2,0.6c0.1-0.2,0.5-0.5,1-0.9
			s0.8-0.6,1-0.7c0.1-0.1,0.3-0.1,0.4-0.2c0.1-0.1,0.2-0.1,0.3-0.1c0.3-0.1,0.6-0.2,0.9-0.2c0.3,0,0.5,0.1,0.6,0.3
			c0,0.1,0.1,0.2,0.2,0.3l0.1,0.1c0,0.1-0.1,0.2-0.3,0.4c-0.2,0.2-0.3,0.2-0.5,0.2c-0.2,0-0.4,0.1-0.6,0.2c-0.2,0.1-0.5,0.2-0.7,0.4
			s-0.4,0.2-0.5,0.3c-0.1,0.1-0.3,0.2-0.4,0.3c-0.3,0.2-0.6,0.5-0.9,0.8c-0.3,0.3-0.5,0.5-0.6,0.6c-0.1,0.1-0.2,0.3-0.3,0.7
			c-0.1,0.4-0.1,0.6-0.1,0.7c0,0.2-0.1,0.4-0.3,0.5c-0.1,0.2-0.3,0.3-0.4,0.3c-0.1,0-0.3,0-0.5-0.2c-0.4-0.3-0.5-0.6-0.5-0.9
			c0-0.3,0.2-0.9,0.4-1.8c0-0.3,0.2-1,0.6-1.9c0.3-1,0.6-1.6,0.9-1.9C24.8,107.4,25,107.3,25.3,107.3z"/>
		<path class="st3" d="M29.9,107.9c-0.1-0.1-0.1-0.1-0.1-0.2s0.1-0.2,0.2-0.4c0.1-0.2,0.2-0.3,0.3-0.3c0.1,0,0.3,0,0.5,0
			c0.3,0,0.5,0,0.6-0.1s0.2-0.1,0.2-0.2c0-0.1,0.2-0.4,0.4-0.7c0.4-0.8,0.7-1.3,0.9-1.4s0.4-0.2,0.6-0.2c0.2,0,0.4,0,0.6,0.2
			c0.2,0.3,0.2,0.5,0,0.8c-0.1,0.1-0.2,0.3-0.3,0.6c-0.2,0.2-0.3,0.4-0.3,0.5c-0.2,0.3-0.2,0.4-0.1,0.5s0.5,0,1.1-0.1
			c0.6-0.1,0.9,0.1,1,0.6c0,0.3,0,0.5-0.1,0.5c-0.1,0.1-0.4,0.1-0.8,0.1c-0.4,0.1-0.7,0.1-1.1,0.1c-0.3,0-0.5,0-0.6,0
			c-0.1,0-0.3,0.2-0.3,0.3c0,0-0.1,0.1-0.1,0.2c-0.1,0.1-0.2,0.4-0.5,0.8c-0.3,0.9-0.6,1.9-0.7,2.8c0,0.2,0,0.4,0,0.5
			c0.1,0.1,0.3,0.2,0.6,0.2c0.6,0.1,1.2-0.1,1.9-0.5l0.5-0.3c0.1-0.1,0.2-0.1,0.4,0.2c0,0.1,0.1,0.1,0.1,0.2c0,0.5-0.3,0.8-0.8,1.1
			c-0.5,0.3-1,0.5-1.5,0.6c-0.5,0.1-0.9,0.1-1.2,0.1c-0.3-0.1-0.5-0.2-0.8-0.5c-0.2-0.3-0.4-0.5-0.5-0.7l-0.1-0.1
			c-0.1-0.1-0.1-0.4-0.1-0.9c0-0.6,0.1-1,0.1-1.2c0.1-0.3,0.3-0.9,0.6-1.8l0.5-1l-0.7-0.2C30,108.1,29.9,108,29.9,107.9z"/>
		<path class="st3" d="M40.5,112.8l0.1-1.2v-0.3c0-0.2-0.1-0.4-0.2-0.4c-0.2,0-0.6,0.2-1.2,0.6c-1.1,0.8-1.8,1.5-2.4,2.2
			c-0.1,0.1-0.2,0.2-0.3,0.2c-0.1,0-0.2,0-0.3,0c-0.1,0-0.3-0.1-0.5-0.4c-0.2-0.2-0.4-0.4-0.4-0.6c0-0.5,0.2-1.2,0.7-2.1
			c0.1-0.2,0.2-0.6,0.5-1.3c0.3-0.6,0.4-1.1,0.5-1.5l0,0c0-0.1,0.1-0.2,0.2-0.2c0,0,0.1-0.1,0.4-0.1c0.2,0,0.4,0.1,0.7,0.3
			s0.3,0.4,0.3,0.7s-0.2,0.8-0.5,1.4c-0.3,0.6-0.5,0.9-0.5,1c0.2-0.1,0.6-0.4,1.1-0.8c1.2-1,2-1.5,2.3-1.5c0.2,0,0.4,0.1,0.7,0.3
			s0.4,0.3,0.5,0.5l-0.1,0.8l0,1c0,0.4,0,0.7-0.1,0.8l0.1,0.1c0,0,0,0.2,0.1,0.5c0.1,0.3,0.2,0.5,0.2,0.6s-0.1,0.2-0.3,0.4
			c-0.2,0.2-0.3,0.3-0.5,0.3C40.9,114.1,40.5,113.6,40.5,112.8z"/>
		<path class="st3" d="M47.4,107.4c0.7,0,1.2,0.2,1.5,0.5s0.5,0.7,0.5,1v0.1c0,0.3-0.2,0.7-0.5,1.2c-0.2,0.3-0.4,0.6-0.8,0.8
			c-0.3,0.2-0.7,0.4-1,0.4c-0.3,0-0.7,0-1-0.1c-0.3-0.1-0.5-0.1-0.6-0.1c-0.1,0-0.1,0-0.2,0.1c-0.1,0.1-0.1,0.4-0.1,0.7
			c0,0.3,0.1,0.6,0.3,0.7c0.1,0.1,0.3,0.2,0.5,0.2c0.2,0,0.4,0,0.6-0.1c0.2-0.1,0.4-0.2,0.7-0.5c0.3-0.2,0.5-0.3,0.6-0.3
			s0.3,0.1,0.4,0.2c0.1,0.1,0.2,0.3,0.2,0.4c0,0.3-0.3,0.6-0.8,1.1c-0.5,0.5-1.1,0.7-1.8,0.7s-1.2-0.2-1.6-0.6
			c-0.4-0.4-0.6-0.9-0.6-1.6c0-0.3,0-0.6,0-0.9c0-0.3,0.1-0.7,0.3-1.2c0.2-0.5,0.5-0.9,0.9-1.5s0.8-0.9,1.3-1.1
			C46.7,107.5,47.1,107.4,47.4,107.4z M47.3,108.7c-0.2,0-0.4,0.1-0.7,0.4c-0.3,0.3-0.5,0.6-0.8,0.9c0,0.1,0.2,0.2,0.6,0.2
			s0.6,0,0.7-0.1s0.3-0.2,0.5-0.5s0.4-0.4,0.4-0.5c0-0.3-0.2-0.4-0.6-0.5H47.3z"/>
		<path class="st3" d="M52,107.3c0.3,0,0.4,0,0.5,0.1c0.3,0.2,0.1,1-0.6,2.2c-0.2,0.4-0.3,0.6-0.2,0.6c0.1-0.2,0.5-0.5,1-0.9
			s0.8-0.6,1-0.7c0.1-0.1,0.3-0.1,0.4-0.2c0.1-0.1,0.2-0.1,0.3-0.1c0.3-0.1,0.6-0.2,0.9-0.2c0.3,0,0.5,0.1,0.6,0.3
			c0,0.1,0.1,0.2,0.2,0.3l0.1,0.1c0,0.1-0.1,0.2-0.3,0.4c-0.2,0.2-0.3,0.2-0.5,0.2c-0.2,0-0.4,0.1-0.6,0.2c-0.2,0.1-0.5,0.2-0.7,0.4
			s-0.4,0.2-0.5,0.3c-0.1,0.1-0.3,0.2-0.4,0.3c-0.3,0.2-0.6,0.5-0.9,0.8c-0.3,0.3-0.5,0.5-0.6,0.6c-0.1,0.1-0.2,0.3-0.3,0.7
			c-0.1,0.4-0.1,0.6-0.1,0.7c0,0.2-0.1,0.4-0.3,0.5c-0.1,0.2-0.3,0.3-0.4,0.3c-0.1,0-0.3,0-0.5-0.2c-0.4-0.3-0.5-0.6-0.5-0.9
			c0-0.3,0.2-0.9,0.4-1.8c0-0.3,0.2-1,0.6-1.9c0.3-1,0.6-1.6,0.9-1.9C51.5,107.4,51.7,107.3,52,107.3z"/>
		<path class="st3" d="M59.9,107c0.2-0.1,0.4-0.1,0.7-0.1s0.5,0,0.6,0.1c0.1,0,0.1,0,0.1,0c0.1,0,0.3,0.1,0.6,0.4s0.4,0.4,0.4,0.6
			c0,0.9-0.1,1.3-0.2,1.3c-0.1,0-0.1,0-0.1,0.1c0,0.2-0.1,0.4-0.4,0.6c-0.3,0.2-0.6,0.3-0.8,0.3c-0.1,0-0.3-0.1-0.4-0.2
			s-0.2-0.3-0.2-0.4c0,0,0.1-0.2,0.4-0.5c0.2-0.3,0.4-0.5,0.4-0.8c0-0.1-0.1-0.1-0.3-0.1c-0.7,0.3-1.1,0.6-1.4,0.8
			c-0.1,0.1-0.1,0.2-0.2,0.2c0,0,0,0,0,0c0,0-0.1,0.1-0.2,0.2s-0.2,0.3-0.4,0.5c-0.1,0.2-0.2,0.4-0.2,0.5l0,0.1v0.1c0,0,0,0.1,0,0.1
			c0,0.2,0.3,0.5,0.8,0.9s0.9,0.7,1.1,0.9c0.2,0.2,0.3,0.4,0.4,0.5c0.1,0.2,0.2,0.4,0.2,0.6c0,0.4-0.2,0.7-0.6,0.9
			c-0.4,0.2-0.9,0.3-1.5,0.3s-1.1-0.1-1.5-0.4c-0.4-0.3-0.7-0.5-0.7-0.7c0-0.2,0.1-0.3,0.2-0.3c0.1-0.1,0.3-0.1,0.5-0.1
			c0.3,0,0.6,0.1,0.9,0.1c0.2,0,0.5,0,0.7-0.1s0.3-0.1,0.3-0.1s0-0.1-0.1-0.2s-0.2-0.1-0.3-0.1c0,0-0.2-0.2-0.7-0.6
			c-0.5-0.4-0.7-0.6-0.7-0.7c0,0,0,0,0,0v-0.1c-0.1,0-0.2-0.1-0.2-0.3c-0.1-0.2-0.1-0.5-0.1-0.7c0-0.6,0.4-1.3,1.1-2
			C58.4,107.7,59.2,107.2,59.9,107z"/>
	</g>
	<g class="st2">
		<path class="st4" d="M7.7,111.2l0.1-0.6c0.1,0,0.3-0.2,0.4-0.7c0-0.1,0.1-0.2,0.1-0.3c0.1-0.2,0.1-0.4,0.1-0.4
			c0.1-0.3,0.3-0.7,0.5-1.2c0.4-1.3,0.7-2.3,1-3c0-0.1,0.1-0.2,0.2-0.4c0.1-0.1,0.1-0.2,0.1-0.3c0-0.1,0-0.1,0.1-0.2
			c0-0.1,0-0.2,0-0.2c-0.1,0-0.1-0.2-0.1-0.5c0-0.3,0.1-0.5,0.3-0.6c0.3-0.3,1-0.5,2-0.4c0.1,0,0.5,0,1.2,0c0.1,0,0.2,0.1,0.4,0.2
			c0.4,0.2,0.6,0.3,0.6,0.3c0,0.1,0.1,0.2,0.2,0.2c0.2,0,0.4,0.2,0.7,0.5c0.8,0.7,1.1,1.5,1,2.3c0,0.5-0.1,0.8-0.2,0.9
			c-0.2,0.1-0.3,0.3-0.3,0.4c0,0.1-0.2,0.4-0.5,1c-0.6,1-1.3,1.7-2,2.2c-0.5,0.2-1.1,0.4-1.7,0.6s-1.1,0.2-1.4,0.2
			c0,0-0.2,0-0.4,0.1c-0.2,0-0.4,0.1-0.4,0.2c-0.2,0.5-0.3,0.9-0.3,1c-0.1,0.1-0.2,0.5-0.4,1.2c-0.2,0.7-0.4,1.2-0.5,1.5
			c0,0.2-0.1,0.3-0.3,0.4s-0.3,0.1-0.4,0.1c-0.1,0-0.2-0.1-0.3-0.2C7.1,115.2,7,115.1,7,115c-0.1-0.1-0.1-0.4,0-0.8
			c0-0.4,0.2-0.9,0.4-1.5c0.1-0.3,0.1-0.5,0.2-0.7C7.6,111.5,7.7,111.3,7.7,111.2z M10.1,109.1l0,0.4c0,0,0,0.1,0,0.1s0.2,0,0.5,0
			c0.7-0.1,1.5-0.4,2.4-1c0.3-0.2,0.6-0.5,0.9-1c0.7-1.1,0.9-1.9,0.8-2.4c-0.1-0.6-0.5-1-1-1.2c-0.5-0.1-0.9-0.1-1.2-0.1
			c-0.2,0.1-0.3,0.1-0.4,0.2c-0.1,0.1-0.2,0.3-0.3,0.7c-0.4,0.7-0.6,1.3-0.8,1.6c-0.3,0.9-0.5,1.6-0.6,2S10.1,109.1,10.1,109.1z"/>
		<path class="st4" d="M14.9,113.6c0-0.1-0.1-0.3-0.2-0.5c-0.2-0.2,0.2-1.1,1.1-2.8c0.1-0.1,0.2-0.2,0.3-0.4
			c0.1-0.2,0.2-0.3,0.2-0.3c0,0,0-0.1,0.1-0.1s0.1-0.1,0.1-0.1l0.1-0.3c0-0.1,0.3-0.4,0.7-0.8c0.4-0.4,0.8-0.7,1-0.8
			c0.3-0.2,0.5-0.2,0.8-0.2c0.3,0,0.5,0.1,0.7,0.3c0,0,0.1,0.1,0.2,0.2c0.2,0.2,0.7,0.6,1.5,1.3l-0.3,0.9c-0.3,0.8-0.2,1.5,0.2,2.2
			c0.1,0.3,0.3,0.4,0.6,0.5s0.4,0.2,0.4,0.4c0,0.5-0.2,0.8-0.5,0.8c-0.9,0.1-1.6-0.3-2.1-1.2c-0.2-0.2-0.3-0.5-0.3-0.8
			c-0.1,0.1-0.2,0.3-0.4,0.5c-1.6,1.7-2.9,2.2-3.7,1.7c0-0.1-0.1-0.2-0.3-0.3C15,113.7,14.9,113.7,14.9,113.6z M19.1,108.9
			c-0.4,0-1.2,0.9-2.2,2.6c-0.2,0.3-0.3,0.7-0.5,1.1c0.2,0,0.6-0.2,1.1-0.6c0.1-0.1,0.3-0.2,0.4-0.4c0.2-0.2,0.3-0.3,0.4-0.3
			s0.2-0.2,0.3-0.3c0.2-0.2,0.4-0.5,0.6-0.7l0.4-0.6C19.6,109.2,19.3,108.9,19.1,108.9z"/>
		<path class="st4" d="M25.3,107.3c0.3,0,0.4,0,0.5,0.1c0.3,0.2,0.1,1-0.6,2.2c-0.2,0.4-0.3,0.6-0.2,0.6c0.1-0.2,0.5-0.5,1-0.9
			s0.8-0.6,1-0.7c0.1-0.1,0.3-0.1,0.4-0.2c0.1-0.1,0.2-0.1,0.3-0.1c0.3-0.1,0.6-0.2,0.9-0.2c0.3,0,0.5,0.1,0.6,0.3
			c0,0.1,0.1,0.2,0.2,0.3l0.1,0.1c0,0.1-0.1,0.2-0.3,0.4c-0.2,0.2-0.3,0.2-0.5,0.2c-0.2,0-0.4,0.1-0.6,0.2c-0.2,0.1-0.5,0.2-0.7,0.4
			s-0.4,0.2-0.5,0.3c-0.1,0.1-0.3,0.2-0.4,0.3c-0.3,0.2-0.6,0.5-0.9,0.8c-0.3,0.3-0.5,0.5-0.6,0.6c-0.1,0.1-0.2,0.3-0.3,0.7
			c-0.1,0.4-0.1,0.6-0.1,0.7c0,0.2-0.1,0.4-0.3,0.5c-0.1,0.2-0.3,0.3-0.4,0.3c-0.1,0-0.3,0-0.5-0.2c-0.4-0.3-0.5-0.6-0.5-0.9
			c0-0.3,0.2-0.9,0.4-1.8c0-0.3,0.2-1,0.6-1.9c0.3-1,0.6-1.6,0.9-1.9C24.8,107.4,25,107.3,25.3,107.3z"/>
		<path class="st4" d="M29.9,107.9c-0.1-0.1-0.1-0.1-0.1-0.2s0.1-0.2,0.2-0.4c0.1-0.2,0.2-0.3,0.3-0.3c0.1,0,0.3,0,0.5,0
			c0.3,0,0.5,0,0.6-0.1s0.2-0.1,0.2-0.2c0-0.1,0.2-0.4,0.4-0.7c0.4-0.8,0.7-1.3,0.9-1.4s0.4-0.2,0.6-0.2c0.2,0,0.4,0,0.6,0.2
			c0.2,0.3,0.2,0.5,0,0.8c-0.1,0.1-0.2,0.3-0.3,0.6c-0.2,0.2-0.3,0.4-0.3,0.5c-0.2,0.3-0.2,0.4-0.1,0.5s0.5,0,1.1-0.1
			c0.6-0.1,0.9,0.1,1,0.6c0,0.3,0,0.5-0.1,0.5c-0.1,0.1-0.4,0.1-0.8,0.1c-0.4,0.1-0.7,0.1-1.1,0.1c-0.3,0-0.5,0-0.6,0
			c-0.1,0-0.3,0.2-0.3,0.3c0,0-0.1,0.1-0.1,0.2c-0.1,0.1-0.2,0.4-0.5,0.8c-0.3,0.9-0.6,1.9-0.7,2.8c0,0.2,0,0.4,0,0.5
			c0.1,0.1,0.3,0.2,0.6,0.2c0.6,0.1,1.2-0.1,1.9-0.5l0.5-0.3c0.1-0.1,0.2-0.1,0.4,0.2c0,0.1,0.1,0.1,0.1,0.2c0,0.5-0.3,0.8-0.8,1.1
			c-0.5,0.3-1,0.5-1.5,0.6c-0.5,0.1-0.9,0.1-1.2,0.1c-0.3-0.1-0.5-0.2-0.8-0.5c-0.2-0.3-0.4-0.5-0.5-0.7l-0.1-0.1
			c-0.1-0.1-0.1-0.4-0.1-0.9c0-0.6,0.1-1,0.1-1.2c0.1-0.3,0.3-0.9,0.6-1.8l0.5-1l-0.7-0.2C30,108.1,29.9,108,29.9,107.9z"/>
		<path class="st4" d="M40.5,112.8l0.1-1.2v-0.3c0-0.2-0.1-0.4-0.2-0.4c-0.2,0-0.6,0.2-1.2,0.6c-1.1,0.8-1.8,1.5-2.4,2.2
			c-0.1,0.1-0.2,0.2-0.3,0.2c-0.1,0-0.2,0-0.3,0c-0.1,0-0.3-0.1-0.5-0.4c-0.2-0.2-0.4-0.4-0.4-0.6c0-0.5,0.2-1.2,0.7-2.1
			c0.1-0.2,0.2-0.6,0.5-1.3c0.3-0.6,0.4-1.1,0.5-1.5l0,0c0-0.1,0.1-0.2,0.2-0.2c0,0,0.1-0.1,0.4-0.1c0.2,0,0.4,0.1,0.7,0.3
			s0.3,0.4,0.3,0.7s-0.2,0.8-0.5,1.4c-0.3,0.6-0.5,0.9-0.5,1c0.2-0.1,0.6-0.4,1.1-0.8c1.2-1,2-1.5,2.3-1.5c0.2,0,0.4,0.1,0.7,0.3
			s0.4,0.3,0.5,0.5l-0.1,0.8l0,1c0,0.4,0,0.7-0.1,0.8l0.1,0.1c0,0,0,0.2,0.1,0.5c0.1,0.3,0.2,0.5,0.2,0.6s-0.1,0.2-0.3,0.4
			c-0.2,0.2-0.3,0.3-0.5,0.3C40.9,114.1,40.5,113.6,40.5,112.8z"/>
		<path class="st4" d="M47.4,107.4c0.7,0,1.2,0.2,1.5,0.5s0.5,0.7,0.5,1v0.1c0,0.3-0.2,0.7-0.5,1.2c-0.2,0.3-0.4,0.6-0.8,0.8
			c-0.3,0.2-0.7,0.4-1,0.4c-0.3,0-0.7,0-1-0.1c-0.3-0.1-0.5-0.1-0.6-0.1c-0.1,0-0.1,0-0.2,0.1c-0.1,0.1-0.1,0.4-0.1,0.7
			c0,0.3,0.1,0.6,0.3,0.7c0.1,0.1,0.3,0.2,0.5,0.2c0.2,0,0.4,0,0.6-0.1c0.2-0.1,0.4-0.2,0.7-0.5c0.3-0.2,0.5-0.3,0.6-0.3
			s0.3,0.1,0.4,0.2c0.1,0.1,0.2,0.3,0.2,0.4c0,0.3-0.3,0.6-0.8,1.1c-0.5,0.5-1.1,0.7-1.8,0.7s-1.2-0.2-1.6-0.6
			c-0.4-0.4-0.6-0.9-0.6-1.6c0-0.3,0-0.6,0-0.9c0-0.3,0.1-0.7,0.3-1.2c0.2-0.5,0.5-0.9,0.9-1.5s0.8-0.9,1.3-1.1
			C46.7,107.5,47.1,107.4,47.4,107.4z M47.3,108.7c-0.2,0-0.4,0.1-0.7,0.4c-0.3,0.3-0.5,0.6-0.8,0.9c0,0.1,0.2,0.2,0.6,0.2
			s0.6,0,0.7-0.1s0.3-0.2,0.5-0.5s0.4-0.4,0.4-0.5c0-0.3-0.2-0.4-0.6-0.5H47.3z"/>
		<path class="st4" d="M52,107.3c0.3,0,0.4,0,0.5,0.1c0.3,0.2,0.1,1-0.6,2.2c-0.2,0.4-0.3,0.6-0.2,0.6c0.1-0.2,0.5-0.5,1-0.9
			s0.8-0.6,1-0.7c0.1-0.1,0.3-0.1,0.4-0.2c0.1-0.1,0.2-0.1,0.3-0.1c0.3-0.1,0.6-0.2,0.9-0.2c0.3,0,0.5,0.1,0.6,0.3
			c0,0.1,0.1,0.2,0.2,0.3l0.1,0.1c0,0.1-0.1,0.2-0.3,0.4c-0.2,0.2-0.3,0.2-0.5,0.2c-0.2,0-0.4,0.1-0.6,0.2c-0.2,0.1-0.5,0.2-0.7,0.4
			s-0.4,0.2-0.5,0.3c-0.1,0.1-0.3,0.2-0.4,0.3c-0.3,0.2-0.6,0.5-0.9,0.8c-0.3,0.3-0.5,0.5-0.6,0.6c-0.1,0.1-0.2,0.3-0.3,0.7
			c-0.1,0.4-0.1,0.6-0.1,0.7c0,0.2-0.1,0.4-0.3,0.5c-0.1,0.2-0.3,0.3-0.4,0.3c-0.1,0-0.3,0-0.5-0.2c-0.4-0.3-0.5-0.6-0.5-0.9
			c0-0.3,0.2-0.9,0.4-1.8c0-0.3,0.2-1,0.6-1.9c0.3-1,0.6-1.6,0.9-1.9C51.5,107.4,51.7,107.3,52,107.3z"/>
		<path class="st4" d="M59.9,107c0.2-0.1,0.4-0.1,0.7-0.1s0.5,0,0.6,0.1c0.1,0,0.1,0,0.1,0c0.1,0,0.3,0.1,0.6,0.4s0.4,0.4,0.4,0.6
			c0,0.9-0.1,1.3-0.2,1.3c-0.1,0-0.1,0-0.1,0.1c0,0.2-0.1,0.4-0.4,0.6c-0.3,0.2-0.6,0.3-0.8,0.3c-0.1,0-0.3-0.1-0.4-0.2
			s-0.2-0.3-0.2-0.4c0,0,0.1-0.2,0.4-0.5c0.2-0.3,0.4-0.5,0.4-0.8c0-0.1-0.1-0.1-0.3-0.1c-0.7,0.3-1.1,0.6-1.4,0.8
			c-0.1,0.1-0.1,0.2-0.2,0.2c0,0,0,0,0,0c0,0-0.1,0.1-0.2,0.2s-0.2,0.3-0.4,0.5c-0.1,0.2-0.2,0.4-0.2,0.5l0,0.1v0.1c0,0,0,0.1,0,0.1
			c0,0.2,0.3,0.5,0.8,0.9s0.9,0.7,1.1,0.9c0.2,0.2,0.3,0.4,0.4,0.5c0.1,0.2,0.2,0.4,0.2,0.6c0,0.4-0.2,0.7-0.6,0.9
			c-0.4,0.2-0.9,0.3-1.5,0.3s-1.1-0.1-1.5-0.4c-0.4-0.3-0.7-0.5-0.7-0.7c0-0.2,0.1-0.3,0.2-0.3c0.1-0.1,0.3-0.1,0.5-0.1
			c0.3,0,0.6,0.1,0.9,0.1c0.2,0,0.5,0,0.7-0.1s0.3-0.1,0.3-0.1s0-0.1-0.1-0.2s-0.2-0.1-0.3-0.1c0,0-0.2-0.2-0.7-0.6
			c-0.5-0.4-0.7-0.6-0.7-0.7c0,0,0,0,0,0v-0.1c-0.1,0-0.2-0.1-0.2-0.3c-0.1-0.2-0.1-0.5-0.1-0.7c0-0.6,0.4-1.3,1.1-2
			C58.4,107.7,59.2,107.2,59.9,107z"/>
	</g>
</g>
<path class="st0" d="M25.4,120.3c9.3-0.6,34.2-1.1,37.1,0.1c4.5,2,9.5,7.6,12.1,10.8"/>
</svg>
