<?xml version="1.0" encoding="utf-8"?>
<!-- Generator: Adobe Illustrator 21.0.2, SVG Export Plug-In . SVG Version: 6.00 Build 0)  -->
<svg version="1.1" id="图层_1" xmlns="http://www.w3.org/2000/svg" xmlns:xlink="http://www.w3.org/1999/xlink" x="0px" y="0px"
	 width="500px" height="310px" viewBox="0 0 500 310" style="enable-background:new 0 0 500 310;" xml:space="preserve">
<style type="text/css">
	.st0{fill:none;stroke:#263248;stroke-width:2;stroke-linecap:round;stroke-linejoin:round;stroke-miterlimit:10;}
	.st1{enable-background:new    ;}
	.st2{fill:#263248;}
	.st3{fill:none;stroke:#263248;stroke-width:0.5;stroke-miterlimit:10;}
	.st4{fill:none;stroke:#263248;stroke-width:3;stroke-linecap:round;stroke-linejoin:round;stroke-miterlimit:10;}
</style>
<g>
	<g>
		<path class="st0" d="M35.6,66.2c0,73.4-3,230.7,2.7,236.2c7.7,7.3,278.2,7.8,404.3,2.7"/>
		<path class="st0" d="M37.8,62c51.2-7,407.4-9.9,412,4.1c2.9,8.7,0.2,174.4-4.2,236.2"/>
		<path class="st0" d="M34.7,231.3c133.6-1.4,280.6-1.4,414.3-0.1"/>
		<path class="st0" d="M199.9,58.9c-1.4,16.4-2.7,134.1,0,171.3"/>
		<path class="st0" d="M285.8,57.9c-2.1,57.3-1.6,115,1.2,172.3"/>
		<path class="st0" d="M113.3,58.9c-1.5,58.2-1.9,113.1-0.9,171.4"/>
		<path class="st0" d="M372.3,57.9c1.7,24.4-0.5,139.8,0.6,172.9"/>
		<path class="st0" d="M238.6,230.8c-0.5,28.5-0.4,49.1,0.2,77.6"/>
		<path class="st0" d="M112.2,138c26.9-1,59.2-0.5,86.1,1"/>
		<path class="st0" d="M284.6,139.3c29.1,0,59.1,0,87.8,0"/>
	</g>
</g>
<g class="st1">
	<path class="st2" d="M195.1,7.1c-0.1-0.7,0.1-1.1,0.6-1.3c0.2-0.1,0.4-0.1,0.6,0c0.3,0.1,0.4,0.4,0.4,0.9c0,0.2,0.1,0.6,0,1.2
		c0,0.6-0.1,1.3-0.2,1.9c-0.1,0.7-0.2,1.4-0.3,2.2c0,0.8-0.1,1.6-0.1,2.3c-0.1,0.9-0.1,1.6-0.1,2c0,0.4,0.1,0.5,0.2,0.5
		c0.1,0,0.1-0.1,0.2-0.3c0.1-0.2,0.1-0.4,0.2-0.5c0.4-0.8,0.7-1.4,0.9-2c0.2-0.3,0.4-0.8,0.7-1.3c0.3-0.5,0.5-0.9,0.6-1.3
		c0.1-0.3,0.4-0.9,0.9-1.8c0.6-0.9,1-1.6,1.2-2.1c0.7-1.1,1.2-1.7,1.6-1.7c0.3,0,0.5,0,0.6,0.2c0.4,0.3,0.2,1.1-0.6,2.2
		s-1.5,2.3-2.1,3.5c-0.2,0.4-0.3,0.7-0.4,0.8c-0.2,0.1-0.5,0.8-1.1,1.9l-1.3,3c0,0.2-0.1,0.3-0.2,0.5s-0.2,0.3-0.2,0.3
		c-0.1,0.2-0.4,0.4-0.8,0.6s-0.6,0.3-0.7,0.2c-0.1,0-0.2-0.1-0.2-0.3c0-0.2-0.1-0.3-0.1-0.4c-0.1-0.1-0.2-0.1-0.4-0.2
		c-0.2-0.2-0.4-0.5-0.5-0.9s-0.2-1.1-0.2-2.2c0.1-1.6,0.2-2.8,0.3-3.8c0-0.2,0-0.5,0-0.9c0-0.4,0.1-0.7,0-0.8
		c0.1-0.2,0.1-0.5,0.2-0.9c0.1-0.4,0.1-0.7,0.2-0.9C195.1,7.5,195.1,7.1,195.1,7.1z"/>
	<path class="st2" d="M200.5,17.3c0-0.1-0.1-0.3-0.2-0.5c-0.2-0.2,0.2-1.1,1.1-2.8c0.1-0.1,0.2-0.2,0.3-0.4c0.1-0.2,0.2-0.3,0.2-0.3
		c0,0,0-0.1,0.1-0.1s0.1-0.1,0.1-0.1l0.1-0.3c0-0.1,0.3-0.4,0.7-0.8c0.4-0.4,0.8-0.7,1-0.8c0.3-0.2,0.5-0.2,0.8-0.2
		c0.3,0,0.5,0.1,0.7,0.3c0,0,0.1,0.1,0.2,0.2c0.2,0.2,0.7,0.6,1.5,1.3l-0.3,0.9c-0.3,0.8-0.2,1.5,0.2,2.2c0.1,0.3,0.3,0.4,0.6,0.5
		s0.4,0.2,0.4,0.4c0,0.5-0.2,0.8-0.5,0.8c-0.9,0.1-1.6-0.3-2.1-1.2c-0.2-0.2-0.3-0.5-0.3-0.8c-0.1,0.1-0.2,0.3-0.4,0.5
		c-1.6,1.7-2.9,2.2-3.7,1.7c0-0.1-0.1-0.2-0.3-0.3C200.6,17.4,200.5,17.3,200.5,17.3z M204.7,12.6c-0.4,0-1.2,0.9-2.2,2.6
		c-0.2,0.3-0.3,0.7-0.5,1.1c0.2,0,0.6-0.2,1.1-0.6c0.1-0.1,0.3-0.2,0.4-0.4c0.2-0.2,0.3-0.3,0.4-0.3s0.2-0.2,0.3-0.3
		c0.2-0.2,0.4-0.5,0.6-0.7l0.4-0.6C205.1,12.8,204.9,12.6,204.7,12.6z"/>
	<path class="st2" d="M209.8,12.2l0.2-0.7c0.2-0.4,0.5-1.2,1-2.5s0.7-2,0.7-2.1s0-0.2,0.1-0.3c0.1-0.1,0.2-0.1,0.3-0.1
		c0.1-0.1,0.2-0.1,0.5-0.1l0.3,0.3c0.3,0.3,0.4,0.5,0.4,0.7s0,0.4-0.1,0.6c-0.1,0.2-0.3,0.7-0.7,1.5c0,0.1-0.1,0.3-0.2,0.5
		s-0.1,0.3-0.2,0.4c0,0.1-0.1,0.2-0.1,0.2c0,0,0,0.1,0,0.1c0,0.1,0,0.1-0.1,0.2s-0.1,0.2-0.1,0.3c-0.5,1.1-0.7,1.6-0.7,1.8
		s0,0.2-0.1,0.3c-0.1,0-0.1,0-0.1,0.1v0.1c0,0.1-0.1,0.4-0.3,1c-0.5,1.7-0.8,2.8-0.8,3.3s-0.1,0.7-0.4,0.9c-0.3,0.1-0.6-0.1-0.8-0.5
		c-0.2-0.5-0.3-1-0.1-1.7c0.1-0.3,0.2-0.6,0.2-0.8c0-0.2,0.2-0.6,0.4-1.2c0.2-0.6,0.3-1,0.4-1.1c0.1,0,0.2-0.1,0.2-0.4
		C209.6,12.4,209.7,12.3,209.8,12.2z"/>
	<path class="st2" d="M215.6,16.6v-0.3c-0.1,0.3-0.3,0.5-0.4,0.6c-0.3,0.3-0.6,0.5-0.8,0.6c-0.8,0.5-1.4,0.5-1.9-0.1
		c-0.5-0.4-0.7-0.9-0.5-1.5c0-0.8,0.3-1.8,0.8-2.8c0.5-1.1,0.8-1.6,0.8-1.6c0.2-0.1,0.4-0.1,0.7,0s0.4,0.2,0.4,0.4
		c0.1,0.1,0.1,0.4,0,0.7c-0.1,0.3-0.2,0.7-0.4,1.1c-0.5,1.2-0.7,1.9-0.7,2.2c0,0.3,0.1,0.4,0.2,0.5c0.1,0.1,0.3,0.1,0.5,0
		c0.2-0.1,0.4-0.3,0.7-0.7c0.3-0.4,0.6-0.9,0.8-1.4c0.2-0.6,0.4-1.1,0.4-1.5c0-0.1,0-0.3,0.1-0.4c0.1-0.2,0.2-0.3,0.4-0.4
		c0-0.1,0.1-0.1,0.2-0.2s0.1,0,0.2,0l0.3,0c0,0,0.1,0.1,0.2,0.2s0.1,0.2,0.2,0.2c0.3,0.3,0.3,1-0.3,2.2c-0.7,1.4-0.8,2.4-0.2,2.9
		c0.2,0.1,0.3,0.4,0.2,0.9c0,0.2-0.2,0.3-0.5,0.3c-0.3,0-0.5,0-0.7-0.2c-0.2-0.2-0.3-0.6-0.5-1.2C215.6,16.8,215.6,16.7,215.6,16.6z
		"/>
	<path class="st2" d="M222.1,11c0.7,0,1.2,0.2,1.5,0.5s0.5,0.7,0.5,1v0.1c0,0.3-0.2,0.7-0.5,1.2c-0.2,0.3-0.4,0.6-0.8,0.8
		c-0.3,0.2-0.7,0.4-1,0.4c-0.3,0-0.7,0-1-0.1c-0.3-0.1-0.5-0.1-0.6-0.1c-0.1,0-0.1,0-0.2,0.1c-0.1,0.1-0.1,0.4-0.1,0.7
		c0,0.3,0.1,0.6,0.3,0.7c0.1,0.1,0.3,0.2,0.5,0.2c0.2,0,0.4,0,0.6-0.1c0.2-0.1,0.4-0.2,0.7-0.5c0.3-0.2,0.5-0.3,0.6-0.3
		s0.3,0.1,0.4,0.2c0.1,0.1,0.2,0.3,0.2,0.4c0,0.3-0.3,0.6-0.8,1.1c-0.5,0.5-1.1,0.7-1.8,0.7s-1.2-0.2-1.6-0.6
		c-0.4-0.4-0.6-0.9-0.6-1.6c0-0.3,0-0.6,0-0.9c0-0.3,0.1-0.7,0.3-1.2c0.2-0.5,0.5-0.9,0.9-1.5s0.8-0.9,1.3-1.1
		C221.4,11.1,221.8,11,222.1,11z M222,12.3c-0.2,0-0.4,0.1-0.7,0.4c-0.3,0.3-0.5,0.6-0.8,0.9c0,0.1,0.2,0.2,0.6,0.2s0.6,0,0.7-0.1
		s0.3-0.2,0.5-0.5s0.4-0.4,0.4-0.5c0-0.3-0.2-0.4-0.6-0.5H222z"/>
</g>
<g class="st1">
	<path class="st3" d="M195.1,7.1c-0.1-0.7,0.1-1.1,0.6-1.3c0.2-0.1,0.4-0.1,0.6,0c0.3,0.1,0.4,0.4,0.4,0.9c0,0.2,0.1,0.6,0,1.2
		c0,0.6-0.1,1.3-0.2,1.9c-0.1,0.7-0.2,1.4-0.3,2.2c0,0.8-0.1,1.6-0.1,2.3c-0.1,0.9-0.1,1.6-0.1,2c0,0.4,0.1,0.5,0.2,0.5
		c0.1,0,0.1-0.1,0.2-0.3c0.1-0.2,0.1-0.4,0.2-0.5c0.4-0.8,0.7-1.4,0.9-2c0.2-0.3,0.4-0.8,0.7-1.3c0.3-0.5,0.5-0.9,0.6-1.3
		c0.1-0.3,0.4-0.9,0.9-1.8c0.6-0.9,1-1.6,1.2-2.1c0.7-1.1,1.2-1.7,1.6-1.7c0.3,0,0.5,0,0.6,0.2c0.4,0.3,0.2,1.1-0.6,2.2
		s-1.5,2.3-2.1,3.5c-0.2,0.4-0.3,0.7-0.4,0.8c-0.2,0.1-0.5,0.8-1.1,1.9l-1.3,3c0,0.2-0.1,0.3-0.2,0.5s-0.2,0.3-0.2,0.3
		c-0.1,0.2-0.4,0.4-0.8,0.6s-0.6,0.3-0.7,0.2c-0.1,0-0.2-0.1-0.2-0.3c0-0.2-0.1-0.3-0.1-0.4c-0.1-0.1-0.2-0.1-0.4-0.2
		c-0.2-0.2-0.4-0.5-0.5-0.9s-0.2-1.1-0.2-2.2c0.1-1.6,0.2-2.8,0.3-3.8c0-0.2,0-0.5,0-0.9c0-0.4,0.1-0.7,0-0.8
		c0.1-0.2,0.1-0.5,0.2-0.9c0.1-0.4,0.1-0.7,0.2-0.9C195.1,7.5,195.1,7.1,195.1,7.1z"/>
	<path class="st3" d="M200.5,17.3c0-0.1-0.1-0.3-0.2-0.5c-0.2-0.2,0.2-1.1,1.1-2.8c0.1-0.1,0.2-0.2,0.3-0.4c0.1-0.2,0.2-0.3,0.2-0.3
		c0,0,0-0.1,0.1-0.1s0.1-0.1,0.1-0.1l0.1-0.3c0-0.1,0.3-0.4,0.7-0.8c0.4-0.4,0.8-0.7,1-0.8c0.3-0.2,0.5-0.2,0.8-0.2
		c0.3,0,0.5,0.1,0.7,0.3c0,0,0.1,0.1,0.2,0.2c0.2,0.2,0.7,0.6,1.5,1.3l-0.3,0.9c-0.3,0.8-0.2,1.5,0.2,2.2c0.1,0.3,0.3,0.4,0.6,0.5
		s0.4,0.2,0.4,0.4c0,0.5-0.2,0.8-0.5,0.8c-0.9,0.1-1.6-0.3-2.1-1.2c-0.2-0.2-0.3-0.5-0.3-0.8c-0.1,0.1-0.2,0.3-0.4,0.5
		c-1.6,1.7-2.9,2.2-3.7,1.7c0-0.1-0.1-0.2-0.3-0.3C200.6,17.4,200.5,17.3,200.5,17.3z M204.7,12.6c-0.4,0-1.2,0.9-2.2,2.6
		c-0.2,0.3-0.3,0.7-0.5,1.1c0.2,0,0.6-0.2,1.1-0.6c0.1-0.1,0.3-0.2,0.4-0.4c0.2-0.2,0.3-0.3,0.4-0.3s0.2-0.2,0.3-0.3
		c0.2-0.2,0.4-0.5,0.6-0.7l0.4-0.6C205.1,12.8,204.9,12.6,204.7,12.6z"/>
	<path class="st3" d="M209.8,12.2l0.2-0.7c0.2-0.4,0.5-1.2,1-2.5s0.7-2,0.7-2.1s0-0.2,0.1-0.3c0.1-0.1,0.2-0.1,0.3-0.1
		c0.1-0.1,0.2-0.1,0.5-0.1l0.3,0.3c0.3,0.3,0.4,0.5,0.4,0.7s0,0.4-0.1,0.6c-0.1,0.2-0.3,0.7-0.7,1.5c0,0.1-0.1,0.3-0.2,0.5
		s-0.1,0.3-0.2,0.4c0,0.1-0.1,0.2-0.1,0.2c0,0,0,0.1,0,0.1c0,0.1,0,0.1-0.1,0.2s-0.1,0.2-0.1,0.3c-0.5,1.1-0.7,1.6-0.7,1.8
		s0,0.2-0.1,0.3c-0.1,0-0.1,0-0.1,0.1v0.1c0,0.1-0.1,0.4-0.3,1c-0.5,1.7-0.8,2.8-0.8,3.3s-0.1,0.7-0.4,0.9c-0.3,0.1-0.6-0.1-0.8-0.5
		c-0.2-0.5-0.3-1-0.1-1.7c0.1-0.3,0.2-0.6,0.2-0.8c0-0.2,0.2-0.6,0.4-1.2c0.2-0.6,0.3-1,0.4-1.1c0.1,0,0.2-0.1,0.2-0.4
		C209.6,12.4,209.7,12.3,209.8,12.2z"/>
	<path class="st3" d="M215.6,16.6v-0.3c-0.1,0.3-0.3,0.5-0.4,0.6c-0.3,0.3-0.6,0.5-0.8,0.6c-0.8,0.5-1.4,0.5-1.9-0.1
		c-0.5-0.4-0.7-0.9-0.5-1.5c0-0.8,0.3-1.8,0.8-2.8c0.5-1.1,0.8-1.6,0.8-1.6c0.2-0.1,0.4-0.1,0.7,0s0.4,0.2,0.4,0.4
		c0.1,0.1,0.1,0.4,0,0.7c-0.1,0.3-0.2,0.7-0.4,1.1c-0.5,1.2-0.7,1.9-0.7,2.2c0,0.3,0.1,0.4,0.2,0.5c0.1,0.1,0.3,0.1,0.5,0
		c0.2-0.1,0.4-0.3,0.7-0.7c0.3-0.4,0.6-0.9,0.8-1.4c0.2-0.6,0.4-1.1,0.4-1.5c0-0.1,0-0.3,0.1-0.4c0.1-0.2,0.2-0.3,0.4-0.4
		c0-0.1,0.1-0.1,0.2-0.2s0.1,0,0.2,0l0.3,0c0,0,0.1,0.1,0.2,0.2s0.1,0.2,0.2,0.2c0.3,0.3,0.3,1-0.3,2.2c-0.7,1.4-0.8,2.4-0.2,2.9
		c0.2,0.1,0.3,0.4,0.2,0.9c0,0.2-0.2,0.3-0.5,0.3c-0.3,0-0.5,0-0.7-0.2c-0.2-0.2-0.3-0.6-0.5-1.2C215.6,16.8,215.6,16.7,215.6,16.6z
		"/>
	<path class="st3" d="M222.1,11c0.7,0,1.2,0.2,1.5,0.5s0.5,0.7,0.5,1v0.1c0,0.3-0.2,0.7-0.5,1.2c-0.2,0.3-0.4,0.6-0.8,0.8
		c-0.3,0.2-0.7,0.4-1,0.4c-0.3,0-0.7,0-1-0.1c-0.3-0.1-0.5-0.1-0.6-0.1c-0.1,0-0.1,0-0.2,0.1c-0.1,0.1-0.1,0.4-0.1,0.7
		c0,0.3,0.1,0.6,0.3,0.7c0.1,0.1,0.3,0.2,0.5,0.2c0.2,0,0.4,0,0.6-0.1c0.2-0.1,0.4-0.2,0.7-0.5c0.3-0.2,0.5-0.3,0.6-0.3
		s0.3,0.1,0.4,0.2c0.1,0.1,0.2,0.3,0.2,0.4c0,0.3-0.3,0.6-0.8,1.1c-0.5,0.5-1.1,0.7-1.8,0.7s-1.2-0.2-1.6-0.6
		c-0.4-0.4-0.6-0.9-0.6-1.6c0-0.3,0-0.6,0-0.9c0-0.3,0.1-0.7,0.3-1.2c0.2-0.5,0.5-0.9,0.9-1.5s0.8-0.9,1.3-1.1
		C221.4,11.1,221.8,11,222.1,11z M222,12.3c-0.2,0-0.4,0.1-0.7,0.4c-0.3,0.3-0.5,0.6-0.8,0.9c0,0.1,0.2,0.2,0.6,0.2s0.6,0,0.7-0.1
		s0.3-0.2,0.5-0.5s0.4-0.4,0.4-0.5c0-0.3-0.2-0.4-0.6-0.5H222z"/>
</g>
<g class="st1">
	<path class="st3" d="M195.1,7.1c-0.1-0.7,0.1-1.1,0.6-1.3c0.2-0.1,0.4-0.1,0.6,0c0.3,0.1,0.4,0.4,0.4,0.9c0,0.2,0.1,0.6,0,1.2
		c0,0.6-0.1,1.3-0.2,1.9c-0.1,0.7-0.2,1.4-0.3,2.2c0,0.8-0.1,1.6-0.1,2.3c-0.1,0.9-0.1,1.6-0.1,2c0,0.4,0.1,0.5,0.2,0.5
		c0.1,0,0.1-0.1,0.2-0.3c0.1-0.2,0.1-0.4,0.2-0.5c0.4-0.8,0.7-1.4,0.9-2c0.2-0.3,0.4-0.8,0.7-1.3c0.3-0.5,0.5-0.9,0.6-1.3
		c0.1-0.3,0.4-0.9,0.9-1.8c0.6-0.9,1-1.6,1.2-2.1c0.7-1.1,1.2-1.7,1.6-1.7c0.3,0,0.5,0,0.6,0.2c0.4,0.3,0.2,1.1-0.6,2.2
		s-1.5,2.3-2.1,3.5c-0.2,0.4-0.3,0.7-0.4,0.8c-0.2,0.1-0.5,0.8-1.1,1.9l-1.3,3c0,0.2-0.1,0.3-0.2,0.5s-0.2,0.3-0.2,0.3
		c-0.1,0.2-0.4,0.4-0.8,0.6s-0.6,0.3-0.7,0.2c-0.1,0-0.2-0.1-0.2-0.3c0-0.2-0.1-0.3-0.1-0.4c-0.1-0.1-0.2-0.1-0.4-0.2
		c-0.2-0.2-0.4-0.5-0.5-0.9s-0.2-1.1-0.2-2.2c0.1-1.6,0.2-2.8,0.3-3.8c0-0.2,0-0.5,0-0.9c0-0.4,0.1-0.7,0-0.8
		c0.1-0.2,0.1-0.5,0.2-0.9c0.1-0.4,0.1-0.7,0.2-0.9C195.1,7.5,195.1,7.1,195.1,7.1z"/>
	<path class="st3" d="M200.5,17.3c0-0.1-0.1-0.3-0.2-0.5c-0.2-0.2,0.2-1.1,1.1-2.8c0.1-0.1,0.2-0.2,0.3-0.4c0.1-0.2,0.2-0.3,0.2-0.3
		c0,0,0-0.1,0.1-0.1s0.1-0.1,0.1-0.1l0.1-0.3c0-0.1,0.3-0.4,0.7-0.8c0.4-0.4,0.8-0.7,1-0.8c0.3-0.2,0.5-0.2,0.8-0.2
		c0.3,0,0.5,0.1,0.7,0.3c0,0,0.1,0.1,0.2,0.2c0.2,0.2,0.7,0.6,1.5,1.3l-0.3,0.9c-0.3,0.8-0.2,1.5,0.2,2.2c0.1,0.3,0.3,0.4,0.6,0.5
		s0.4,0.2,0.4,0.4c0,0.5-0.2,0.8-0.5,0.8c-0.9,0.1-1.6-0.3-2.1-1.2c-0.2-0.2-0.3-0.5-0.3-0.8c-0.1,0.1-0.2,0.3-0.4,0.5
		c-1.6,1.7-2.9,2.2-3.7,1.7c0-0.1-0.1-0.2-0.3-0.3C200.6,17.4,200.5,17.3,200.5,17.3z M204.7,12.6c-0.4,0-1.2,0.9-2.2,2.6
		c-0.2,0.3-0.3,0.7-0.5,1.1c0.2,0,0.6-0.2,1.1-0.6c0.1-0.1,0.3-0.2,0.4-0.4c0.2-0.2,0.3-0.3,0.4-0.3s0.2-0.2,0.3-0.3
		c0.2-0.2,0.4-0.5,0.6-0.7l0.4-0.6C205.1,12.8,204.9,12.6,204.7,12.6z"/>
	<path class="st3" d="M209.8,12.2l0.2-0.7c0.2-0.4,0.5-1.2,1-2.5s0.7-2,0.7-2.1s0-0.2,0.1-0.3c0.1-0.1,0.2-0.1,0.3-0.1
		c0.1-0.1,0.2-0.1,0.5-0.1l0.3,0.3c0.3,0.3,0.4,0.5,0.4,0.7s0,0.4-0.1,0.6c-0.1,0.2-0.3,0.7-0.7,1.5c0,0.1-0.1,0.3-0.2,0.5
		s-0.1,0.3-0.2,0.4c0,0.1-0.1,0.2-0.1,0.2c0,0,0,0.1,0,0.1c0,0.1,0,0.1-0.1,0.2s-0.1,0.2-0.1,0.3c-0.5,1.1-0.7,1.6-0.7,1.8
		s0,0.2-0.1,0.3c-0.1,0-0.1,0-0.1,0.1v0.1c0,0.1-0.1,0.4-0.3,1c-0.5,1.7-0.8,2.8-0.8,3.3s-0.1,0.7-0.4,0.9c-0.3,0.1-0.6-0.1-0.8-0.5
		c-0.2-0.5-0.3-1-0.1-1.7c0.1-0.3,0.2-0.6,0.2-0.8c0-0.2,0.2-0.6,0.4-1.2c0.2-0.6,0.3-1,0.4-1.1c0.1,0,0.2-0.1,0.2-0.4
		C209.6,12.4,209.7,12.3,209.8,12.2z"/>
	<path class="st3" d="M215.6,16.6v-0.3c-0.1,0.3-0.3,0.5-0.4,0.6c-0.3,0.3-0.6,0.5-0.8,0.6c-0.8,0.5-1.4,0.5-1.9-0.1
		c-0.5-0.4-0.7-0.9-0.5-1.5c0-0.8,0.3-1.8,0.8-2.8c0.5-1.1,0.8-1.6,0.8-1.6c0.2-0.1,0.4-0.1,0.7,0s0.4,0.2,0.4,0.4
		c0.1,0.1,0.1,0.4,0,0.7c-0.1,0.3-0.2,0.7-0.4,1.1c-0.5,1.2-0.7,1.9-0.7,2.2c0,0.3,0.1,0.4,0.2,0.5c0.1,0.1,0.3,0.1,0.5,0
		c0.2-0.1,0.4-0.3,0.7-0.7c0.3-0.4,0.6-0.9,0.8-1.4c0.2-0.6,0.4-1.1,0.4-1.5c0-0.1,0-0.3,0.1-0.4c0.1-0.2,0.2-0.3,0.4-0.4
		c0-0.1,0.1-0.1,0.2-0.2s0.1,0,0.2,0l0.3,0c0,0,0.1,0.1,0.2,0.2s0.1,0.2,0.2,0.2c0.3,0.3,0.3,1-0.3,2.2c-0.7,1.4-0.8,2.4-0.2,2.9
		c0.2,0.1,0.3,0.4,0.2,0.9c0,0.2-0.2,0.3-0.5,0.3c-0.3,0-0.5,0-0.7-0.2c-0.2-0.2-0.3-0.6-0.5-1.2C215.6,16.8,215.6,16.7,215.6,16.6z
		"/>
	<path class="st3" d="M222.1,11c0.7,0,1.2,0.2,1.5,0.5s0.5,0.7,0.5,1v0.1c0,0.3-0.2,0.7-0.5,1.2c-0.2,0.3-0.4,0.6-0.8,0.8
		c-0.3,0.2-0.7,0.4-1,0.4c-0.3,0-0.7,0-1-0.1c-0.3-0.1-0.5-0.1-0.6-0.1c-0.1,0-0.1,0-0.2,0.1c-0.1,0.1-0.1,0.4-0.1,0.7
		c0,0.3,0.1,0.6,0.3,0.7c0.1,0.1,0.3,0.2,0.5,0.2c0.2,0,0.4,0,0.6-0.1c0.2-0.1,0.4-0.2,0.7-0.5c0.3-0.2,0.5-0.3,0.6-0.3
		s0.3,0.1,0.4,0.2c0.1,0.1,0.2,0.3,0.2,0.4c0,0.3-0.3,0.6-0.8,1.1c-0.5,0.5-1.1,0.7-1.8,0.7s-1.2-0.2-1.6-0.6
		c-0.4-0.4-0.6-0.9-0.6-1.6c0-0.3,0-0.6,0-0.9c0-0.3,0.1-0.7,0.3-1.2c0.2-0.5,0.5-0.9,0.9-1.5s0.8-0.9,1.3-1.1
		C221.4,11.1,221.8,11,222.1,11z M222,12.3c-0.2,0-0.4,0.1-0.7,0.4c-0.3,0.3-0.5,0.6-0.8,0.9c0,0.1,0.2,0.2,0.6,0.2s0.6,0,0.7-0.1
		s0.3-0.2,0.5-0.5s0.4-0.4,0.4-0.5c0-0.3-0.2-0.4-0.6-0.5H222z"/>
</g>
<g class="st1">
	<path class="st2" d="M193.1,36.5l0.1-0.6c0.1,0,0.3-0.2,0.4-0.7c0-0.1,0.1-0.2,0.1-0.3c0.1-0.2,0.1-0.4,0.1-0.4
		c0.1-0.3,0.3-0.7,0.5-1.2c0.4-1.3,0.7-2.3,1-3c0-0.1,0.1-0.2,0.2-0.4c0.1-0.1,0.1-0.2,0.1-0.3c0-0.1,0-0.1,0.1-0.2
		c0-0.1,0-0.2,0-0.2c-0.1,0-0.1-0.2-0.1-0.5c0-0.3,0.1-0.5,0.3-0.6c0.3-0.3,1-0.5,2-0.4c0.1,0,0.5,0,1.2,0c0.1,0,0.2,0.1,0.4,0.2
		c0.4,0.2,0.6,0.3,0.6,0.3c0,0.1,0.1,0.2,0.2,0.2c0.2,0,0.4,0.2,0.7,0.5c0.8,0.7,1.1,1.5,1,2.3c0,0.5-0.1,0.8-0.2,0.9
		c-0.2,0.1-0.3,0.3-0.3,0.4c0,0.1-0.2,0.4-0.5,1c-0.6,1-1.3,1.7-2,2.2c-0.5,0.2-1.1,0.4-1.7,0.6s-1.1,0.2-1.4,0.2c0,0-0.2,0-0.4,0.1
		c-0.2,0-0.4,0.1-0.4,0.2c-0.2,0.5-0.3,0.9-0.3,1c-0.1,0.1-0.2,0.5-0.4,1.2c-0.2,0.7-0.4,1.2-0.5,1.5c0,0.2-0.1,0.3-0.3,0.4
		s-0.3,0.1-0.4,0.1c-0.1,0-0.2-0.1-0.3-0.2c-0.1-0.1-0.2-0.2-0.3-0.3c-0.1-0.1-0.1-0.4,0-0.8c0-0.4,0.2-0.9,0.4-1.5
		c0.1-0.3,0.1-0.5,0.2-0.7C193.1,36.8,193.1,36.6,193.1,36.5z M195.6,34.4l0,0.4c0,0,0,0.1,0,0.1s0.2,0,0.5,0c0.7-0.1,1.5-0.4,2.4-1
		c0.3-0.2,0.6-0.5,0.9-1c0.7-1.1,0.9-1.9,0.8-2.4c-0.1-0.6-0.5-1-1-1.2c-0.5-0.1-0.9-0.1-1.2-0.1c-0.2,0.1-0.3,0.1-0.4,0.2
		c-0.1,0.1-0.2,0.3-0.3,0.7c-0.4,0.7-0.6,1.3-0.8,1.6c-0.3,0.9-0.5,1.6-0.6,2S195.6,34.4,195.6,34.4z"/>
	<path class="st2" d="M203.4,32.6c0.3,0,0.4,0,0.5,0.1c0.3,0.2,0.1,1-0.6,2.2c-0.2,0.4-0.3,0.6-0.2,0.6c0.1-0.2,0.5-0.5,1-0.9
		s0.8-0.6,1-0.7c0.1-0.1,0.3-0.1,0.4-0.2c0.1-0.1,0.2-0.1,0.3-0.1c0.3-0.1,0.6-0.2,0.9-0.2c0.3,0,0.5,0.1,0.6,0.3
		c0,0.1,0.1,0.2,0.2,0.3l0.1,0.1c0,0.1-0.1,0.2-0.3,0.4c-0.2,0.2-0.3,0.2-0.5,0.2c-0.2,0-0.4,0.1-0.6,0.2c-0.2,0.1-0.5,0.2-0.7,0.4
		s-0.4,0.2-0.5,0.3c-0.1,0.1-0.3,0.2-0.4,0.3c-0.3,0.2-0.6,0.5-0.9,0.8c-0.3,0.3-0.5,0.5-0.6,0.6c-0.1,0.1-0.2,0.3-0.3,0.7
		c-0.1,0.4-0.1,0.6-0.1,0.7c0,0.2-0.1,0.4-0.3,0.5c-0.1,0.2-0.3,0.3-0.4,0.3c-0.1,0-0.3,0-0.5-0.2c-0.4-0.3-0.5-0.6-0.5-0.9
		c0-0.3,0.2-0.9,0.4-1.8c0-0.3,0.2-1,0.6-1.9c0.3-1,0.6-1.6,0.9-1.9C202.9,32.7,203.1,32.6,203.4,32.6z"/>
	<path class="st2" d="M209.4,34c0.6-0.5,1.1-0.8,1.6-0.9c0.7-0.2,1.2-0.1,1.5,0.2c0.5,0.2,0.7,0.6,0.8,1.3c0.1,1-0.2,2-1,3.1
		c-0.4,0.6-1.1,1.2-1.8,1.7c-0.3,0.2-0.9,0.3-1.7,0.4c-0.2,0-0.4-0.1-0.7-0.3c-0.5-0.6-0.8-1.1-0.7-1.5l0-0.4
		c-0.1-0.1-0.1-0.1,0-0.1c0,0,0.1-0.1,0.1-0.1c0.1,0,0.1-0.1,0.1-0.2s0-0.3,0.1-0.7c0.1-0.3,0.2-0.6,0.4-0.9
		C208.6,34.8,209,34.3,209.4,34z M211.5,36.3c0,0,0.1-0.1,0.1-0.3c0-0.1,0.1-0.2,0.1-0.3s0.1-0.3,0.1-0.5c0-0.3,0-0.5-0.1-0.5
		c-0.1-0.1-0.2-0.1-0.3-0.1c-0.1,0-0.2,0.1-0.4,0.2c-0.9,0.8-1.5,1.6-1.6,2.5c0,0.3,0,0.5,0.1,0.7c0.1,0.1,0.3,0.2,0.5,0.1
		c0.2-0.1,0.5-0.2,0.6-0.4c0.2-0.2,0.3-0.3,0.4-0.4c0.1-0.1,0.1-0.1,0.2-0.2c0,0,0.1-0.1,0.1-0.2c0-0.1,0.1-0.2,0.1-0.2
		c0,0,0.1-0.1,0.1-0.2C211.4,36.4,211.5,36.3,211.5,36.3z"/>
	<path class="st2" d="M213.5,39.9l0.1-0.6c0.1-0.3,0.3-1.1,0.7-2.3c0.4-1.2,0.8-2.2,1-2.9c0.3-0.8,0.5-1.3,0.5-1.5
		c0-0.1,0.1-0.2,0.2-0.3c0.1-0.1,0.3-0.2,0.5-0.1c0.2,0,0.4,0.1,0.5,0.2c0.2,0.3,0.3,0.6,0.2,1c0,0.2-0.1,0.6-0.4,0.9c0,0,0,0,0,0
		c0.7-0.4,1.3-0.6,1.8-0.5c0.5,0.1,0.9,0.3,1.2,0.6c0.3,0.4,0.4,0.8,0.4,1.3c0,0.2-0.1,0.5-0.3,0.9s-0.3,0.7-0.5,0.8
		c-0.1,0-0.2,0.1-0.3,0.4c-0.1,0.2-0.4,0.4-0.8,0.6s-0.7,0.3-0.8,0.2c-0.1,0-0.1,0.1-0.1,0.2c0,0.1-0.2,0.2-0.6,0.3
		c-0.4,0.1-0.7,0.2-0.9,0.2c-0.2,0-0.4,0-0.5-0.1c-0.1,0.1-0.1,0.2-0.1,0.3c0,0.1-0.1,0.3-0.2,0.5s-0.2,0.4-0.3,0.4
		c-0.1,0.1-0.1,0.1,0,0.2c0,0.3,0,0.4-0.1,0.6c0,0.3-0.1,0.6-0.2,0.9c0,0.1,0,0.3-0.1,0.4c0,0.1-0.1,0.2-0.1,0.2
		c-0.1,0-0.1,0.2-0.1,0.5c0,0.3-0.1,0.6-0.3,0.8c-0.2,0.2-0.3,0.3-0.5,0.3c-0.2,0-0.4,0-0.4-0.1c-0.3-0.4-0.3-0.7-0.3-1.1
		c0.1-0.5,0.2-0.9,0.2-1l0.1-0.6c0.1-0.2,0.2-0.5,0.2-0.8C213.3,40.2,213.3,40.1,213.5,39.9z M215.8,37.7c0.2,0,0.5-0.1,0.9-0.3
		s0.8-0.4,1-0.5c0.2-0.2,0.4-0.3,0.5-0.4c0.1-0.1,0.2-0.2,0.3-0.4c0.2-0.3,0.2-0.6,0-0.9c-0.3-0.4-1-0.2-1.9,0.7
		c-0.4,0.4-0.6,0.8-0.7,1.2C215.7,37.5,215.7,37.7,215.8,37.7z"/>
	<path class="st2" d="M222.8,34c0.6-0.5,1.1-0.8,1.6-0.9c0.7-0.2,1.2-0.1,1.5,0.2c0.5,0.2,0.7,0.6,0.8,1.3c0.1,1-0.2,2-1,3.1
		c-0.4,0.6-1.1,1.2-1.8,1.7c-0.3,0.2-0.9,0.3-1.7,0.4c-0.2,0-0.4-0.1-0.7-0.3c-0.5-0.6-0.8-1.1-0.7-1.5l0-0.4
		c-0.1-0.1-0.1-0.1,0-0.1c0,0,0.1-0.1,0.1-0.1c0.1,0,0.1-0.1,0.1-0.2s0-0.3,0.1-0.7c0.1-0.3,0.2-0.6,0.4-0.9
		C221.9,34.8,222.3,34.3,222.8,34z M224.8,36.3c0,0,0.1-0.1,0.1-0.3c0-0.1,0.1-0.2,0.1-0.3s0.1-0.3,0.1-0.5c0-0.3,0-0.5-0.1-0.5
		c-0.1-0.1-0.2-0.1-0.3-0.1c-0.1,0-0.2,0.1-0.4,0.2c-0.9,0.8-1.5,1.6-1.6,2.5c0,0.3,0,0.5,0.1,0.7c0.1,0.1,0.3,0.2,0.5,0.1
		c0.2-0.1,0.5-0.2,0.6-0.4c0.2-0.2,0.3-0.3,0.4-0.4c0.1-0.1,0.1-0.1,0.2-0.2c0,0,0.1-0.1,0.1-0.2c0-0.1,0.1-0.2,0.1-0.2
		c0,0,0.1-0.1,0.1-0.2C224.7,36.4,224.8,36.3,224.8,36.3z"/>
	<path class="st2" d="M231.2,32.3c0.2-0.1,0.4-0.1,0.7-0.1s0.5,0,0.6,0.1c0.1,0,0.1,0,0.1,0c0.1,0,0.3,0.1,0.6,0.4s0.4,0.4,0.4,0.6
		c0,0.9-0.1,1.3-0.2,1.3c-0.1,0-0.1,0-0.1,0.1c0,0.2-0.1,0.4-0.4,0.6c-0.3,0.2-0.6,0.3-0.8,0.3c-0.1,0-0.3-0.1-0.4-0.2
		s-0.2-0.3-0.2-0.4c0,0,0.1-0.2,0.4-0.5c0.2-0.3,0.4-0.5,0.4-0.8c0-0.1-0.1-0.1-0.3-0.1c-0.7,0.3-1.1,0.6-1.4,0.8
		c-0.1,0.1-0.1,0.2-0.2,0.2c0,0,0,0,0,0c0,0-0.1,0.1-0.2,0.2s-0.2,0.3-0.4,0.5c-0.1,0.2-0.2,0.4-0.2,0.5l0,0.1v0.1c0,0,0,0.1,0,0.1
		c0,0.2,0.3,0.5,0.8,0.9s0.9,0.7,1.1,0.9c0.2,0.2,0.3,0.4,0.4,0.5c0.1,0.2,0.2,0.4,0.2,0.6c0,0.4-0.2,0.7-0.6,0.9
		c-0.4,0.2-0.9,0.3-1.5,0.3s-1.1-0.1-1.5-0.4c-0.4-0.3-0.7-0.5-0.7-0.7c0-0.2,0.1-0.3,0.2-0.3c0.1-0.1,0.3-0.1,0.5-0.1
		c0.3,0,0.6,0.1,0.9,0.1c0.2,0,0.5,0,0.7-0.1s0.3-0.1,0.3-0.1s0-0.1-0.1-0.2s-0.2-0.1-0.3-0.1c0,0-0.2-0.2-0.7-0.6
		c-0.5-0.4-0.7-0.6-0.7-0.7c0,0,0,0,0,0v-0.1c-0.1,0-0.2-0.1-0.2-0.3c-0.1-0.2-0.1-0.5-0.1-0.7c0-0.6,0.4-1.3,1.1-2
		C229.6,33,230.4,32.6,231.2,32.3z"/>
	<path class="st2" d="M233.7,38.1l0.1-0.4c0-0.1,0-0.3,0.1-0.6c0.3-0.6,0.6-1.6,1-2.9c0-0.1,0.1-0.2,0.3-0.2c0.1,0,0.3,0,0.5,0.2
		s0.4,0.3,0.5,0.5c0.2,0.2,0.1,0.4,0,0.9s-0.3,0.8-0.4,1.2c-0.1,0.3-0.2,0.6-0.3,0.7c0,0.2-0.1,0.4-0.2,0.7
		c-0.1,0.3-0.1,0.6-0.2,0.7c-0.1,0.5-0.3,0.8-0.6,0.9c-0.3,0.1-0.5,0-0.7-0.2c-0.1-0.1-0.2-0.4-0.2-0.7
		C233.6,38.5,233.6,38.2,233.7,38.1z M235.5,31.9c-0.1-0.2-0.1-0.3-0.1-0.4c0-0.1,0-0.2,0.1-0.3c0.1-0.1,0.1-0.3,0.3-0.5
		c0.3-0.5,0.4-0.8,0.5-0.8c0.1-0.1,0.3-0.1,0.6,0c0.3,0.1,0.4,0.3,0.6,0.5c0.2,0.5,0.1,1-0.3,1.5c-0.2,0.2-0.4,0.4-0.7,0.5
		c-0.3,0.1-0.5,0-0.6-0.1C235.7,32.2,235.6,32.1,235.5,31.9z"/>
	<path class="st2" d="M237.7,33.3c-0.1-0.1-0.1-0.1-0.1-0.2s0.1-0.2,0.2-0.4c0.1-0.2,0.2-0.3,0.3-0.3c0.1,0,0.3,0,0.5,0
		c0.3,0,0.5,0,0.6-0.1s0.2-0.1,0.2-0.2c0-0.1,0.2-0.4,0.4-0.7c0.4-0.8,0.7-1.3,0.9-1.4s0.4-0.2,0.6-0.2c0.2,0,0.4,0,0.6,0.2
		c0.2,0.3,0.2,0.5,0,0.8c-0.1,0.1-0.2,0.3-0.3,0.6c-0.2,0.2-0.3,0.4-0.3,0.5c-0.2,0.3-0.2,0.4-0.1,0.5s0.5,0,1.1-0.1
		c0.6-0.1,0.9,0.1,1,0.6c0,0.3,0,0.5-0.1,0.5c-0.1,0.1-0.4,0.1-0.8,0.1c-0.4,0.1-0.7,0.1-1.1,0.1c-0.3,0-0.5,0-0.6,0
		c-0.1,0-0.3,0.2-0.3,0.3c0,0-0.1,0.1-0.1,0.2c-0.1,0.1-0.2,0.4-0.5,0.8c-0.3,0.9-0.6,1.9-0.7,2.8c0,0.2,0,0.4,0,0.5
		c0.1,0.1,0.3,0.2,0.6,0.2c0.6,0.1,1.2-0.1,1.9-0.5l0.5-0.3c0.1-0.1,0.2-0.1,0.4,0.2c0,0.1,0.1,0.1,0.1,0.2c0,0.5-0.3,0.8-0.8,1.1
		c-0.5,0.3-1,0.5-1.5,0.6c-0.5,0.1-0.9,0.1-1.2,0.1c-0.3-0.1-0.5-0.2-0.8-0.5c-0.2-0.3-0.4-0.5-0.5-0.7l-0.1-0.1
		c-0.1-0.1-0.1-0.4-0.1-0.9c0-0.6,0.1-1,0.1-1.2c0.1-0.3,0.3-0.9,0.6-1.8l0.5-1l-0.7-0.2C237.8,33.4,237.7,33.3,237.7,33.3z"/>
	<path class="st2" d="M243.3,38.1l0.1-0.4c0-0.1,0-0.3,0.1-0.6c0.3-0.6,0.6-1.6,1-2.9c0-0.1,0.1-0.2,0.3-0.2c0.1,0,0.3,0,0.5,0.2
		s0.4,0.3,0.5,0.5c0.2,0.2,0.1,0.4,0,0.9s-0.3,0.8-0.4,1.2c-0.1,0.3-0.2,0.6-0.3,0.7c0,0.2-0.1,0.4-0.2,0.7
		c-0.1,0.3-0.1,0.6-0.2,0.7c-0.1,0.5-0.3,0.8-0.6,0.9c-0.3,0.1-0.5,0-0.7-0.2c-0.1-0.1-0.2-0.4-0.2-0.7
		C243.2,38.5,243.2,38.2,243.3,38.1z M245.1,31.9c-0.1-0.2-0.1-0.3-0.1-0.4c0-0.1,0-0.2,0.1-0.3c0.1-0.1,0.1-0.3,0.3-0.5
		c0.3-0.5,0.4-0.8,0.5-0.8c0.1-0.1,0.3-0.1,0.6,0c0.3,0.1,0.4,0.3,0.6,0.5c0.2,0.5,0.1,1-0.3,1.5c-0.2,0.2-0.4,0.4-0.7,0.5
		c-0.3,0.1-0.5,0-0.6-0.1C245.3,32.2,245.2,32.1,245.1,31.9z"/>
	<path class="st2" d="M248.7,34c0.6-0.5,1.1-0.8,1.6-0.9c0.7-0.2,1.2-0.1,1.5,0.2c0.5,0.2,0.7,0.6,0.8,1.3c0.1,1-0.2,2-1,3.1
		c-0.4,0.6-1.1,1.2-1.8,1.7c-0.3,0.2-0.9,0.3-1.7,0.4c-0.2,0-0.4-0.1-0.7-0.3c-0.5-0.6-0.8-1.1-0.7-1.5l0-0.4
		c-0.1-0.1-0.1-0.1,0-0.1c0,0,0.1-0.1,0.1-0.1c0.1,0,0.1-0.1,0.1-0.2s0-0.3,0.1-0.7c0.1-0.3,0.2-0.6,0.4-0.9
		C247.8,34.8,248.2,34.3,248.7,34z M250.7,36.3c0,0,0.1-0.1,0.1-0.3c0-0.1,0.1-0.2,0.1-0.3s0.1-0.3,0.1-0.5c0-0.3,0-0.5-0.1-0.5
		c-0.1-0.1-0.2-0.1-0.3-0.1c-0.1,0-0.2,0.1-0.4,0.2c-0.9,0.8-1.5,1.6-1.6,2.5c0,0.3,0,0.5,0.1,0.7c0.1,0.1,0.3,0.2,0.5,0.1
		c0.2-0.1,0.5-0.2,0.6-0.4c0.2-0.2,0.3-0.3,0.4-0.4c0.1-0.1,0.1-0.1,0.2-0.2c0,0,0.1-0.1,0.1-0.2c0-0.1,0.1-0.2,0.1-0.2
		c0,0,0.1-0.1,0.1-0.2C250.7,36.4,250.7,36.3,250.7,36.3z"/>
	<path class="st2" d="M258.5,38.1l0.1-1.2v-0.3c0-0.2-0.1-0.4-0.2-0.4c-0.2,0-0.6,0.2-1.2,0.6c-1.1,0.8-1.8,1.5-2.4,2.2
		c-0.1,0.1-0.2,0.2-0.3,0.2c-0.1,0-0.2,0-0.3,0s-0.3-0.1-0.5-0.4c-0.2-0.2-0.4-0.4-0.4-0.6c0-0.5,0.2-1.2,0.7-2.1
		c0.1-0.2,0.2-0.6,0.5-1.3c0.3-0.6,0.4-1.1,0.5-1.5l0,0c0-0.1,0.1-0.2,0.2-0.2c0,0,0.1-0.1,0.4-0.1c0.2,0,0.4,0.1,0.7,0.3
		c0.2,0.2,0.3,0.4,0.3,0.7s-0.2,0.8-0.5,1.4c-0.3,0.6-0.5,0.9-0.5,1c0.2-0.1,0.6-0.4,1.1-0.8c1.2-1,2-1.5,2.3-1.5
		c0.2,0,0.4,0.1,0.7,0.3s0.4,0.3,0.5,0.5l-0.1,0.8l0,1c0,0.4,0,0.7-0.1,0.8l0.1,0.1c0,0,0,0.2,0.1,0.5c0.1,0.3,0.2,0.5,0.2,0.6
		s-0.1,0.2-0.3,0.4s-0.3,0.3-0.5,0.3C258.8,39.4,258.5,38.9,258.5,38.1z"/>
</g>
<g class="st1">
	<path class="st3" d="M193.1,36.5l0.1-0.6c0.1,0,0.3-0.2,0.4-0.7c0-0.1,0.1-0.2,0.1-0.3c0.1-0.2,0.1-0.4,0.1-0.4
		c0.1-0.3,0.3-0.7,0.5-1.2c0.4-1.3,0.7-2.3,1-3c0-0.1,0.1-0.2,0.2-0.4c0.1-0.1,0.1-0.2,0.1-0.3c0-0.1,0-0.1,0.1-0.2
		c0-0.1,0-0.2,0-0.2c-0.1,0-0.1-0.2-0.1-0.5c0-0.3,0.1-0.5,0.3-0.6c0.3-0.3,1-0.5,2-0.4c0.1,0,0.5,0,1.2,0c0.1,0,0.2,0.1,0.4,0.2
		c0.4,0.2,0.6,0.3,0.6,0.3c0,0.1,0.1,0.2,0.2,0.2c0.2,0,0.4,0.2,0.7,0.5c0.8,0.7,1.1,1.5,1,2.3c0,0.5-0.1,0.8-0.2,0.9
		c-0.2,0.1-0.3,0.3-0.3,0.4c0,0.1-0.2,0.4-0.5,1c-0.6,1-1.3,1.7-2,2.2c-0.5,0.2-1.1,0.4-1.7,0.6s-1.1,0.2-1.4,0.2c0,0-0.2,0-0.4,0.1
		c-0.2,0-0.4,0.1-0.4,0.2c-0.2,0.5-0.3,0.9-0.3,1c-0.1,0.1-0.2,0.5-0.4,1.2c-0.2,0.7-0.4,1.2-0.5,1.5c0,0.2-0.1,0.3-0.3,0.4
		s-0.3,0.1-0.4,0.1c-0.1,0-0.2-0.1-0.3-0.2c-0.1-0.1-0.2-0.2-0.3-0.3c-0.1-0.1-0.1-0.4,0-0.8c0-0.4,0.2-0.9,0.4-1.5
		c0.1-0.3,0.1-0.5,0.2-0.7C193.1,36.8,193.1,36.6,193.1,36.5z M195.6,34.4l0,0.4c0,0,0,0.1,0,0.1s0.2,0,0.5,0c0.7-0.1,1.5-0.4,2.4-1
		c0.3-0.2,0.6-0.5,0.9-1c0.7-1.1,0.9-1.9,0.8-2.4c-0.1-0.6-0.5-1-1-1.2c-0.5-0.1-0.9-0.1-1.2-0.1c-0.2,0.1-0.3,0.1-0.4,0.2
		c-0.1,0.1-0.2,0.3-0.3,0.7c-0.4,0.7-0.6,1.3-0.8,1.6c-0.3,0.9-0.5,1.6-0.6,2S195.6,34.4,195.6,34.4z"/>
	<path class="st3" d="M203.4,32.6c0.3,0,0.4,0,0.5,0.1c0.3,0.2,0.1,1-0.6,2.2c-0.2,0.4-0.3,0.6-0.2,0.6c0.1-0.2,0.5-0.5,1-0.9
		s0.8-0.6,1-0.7c0.1-0.1,0.3-0.1,0.4-0.2c0.1-0.1,0.2-0.1,0.3-0.1c0.3-0.1,0.6-0.2,0.9-0.2c0.3,0,0.5,0.1,0.6,0.3
		c0,0.1,0.1,0.2,0.2,0.3l0.1,0.1c0,0.1-0.1,0.2-0.3,0.4c-0.2,0.2-0.3,0.2-0.5,0.2c-0.2,0-0.4,0.1-0.6,0.2c-0.2,0.1-0.5,0.2-0.7,0.4
		s-0.4,0.2-0.5,0.3c-0.1,0.1-0.3,0.2-0.4,0.3c-0.3,0.2-0.6,0.5-0.9,0.8c-0.3,0.3-0.5,0.5-0.6,0.6c-0.1,0.1-0.2,0.3-0.3,0.7
		c-0.1,0.4-0.1,0.6-0.1,0.7c0,0.2-0.1,0.4-0.3,0.5c-0.1,0.2-0.3,0.3-0.4,0.3c-0.1,0-0.3,0-0.5-0.2c-0.4-0.3-0.5-0.6-0.5-0.9
		c0-0.3,0.2-0.9,0.4-1.8c0-0.3,0.2-1,0.6-1.9c0.3-1,0.6-1.6,0.9-1.9C202.9,32.7,203.1,32.6,203.4,32.6z"/>
	<path class="st3" d="M209.4,34c0.6-0.5,1.1-0.8,1.6-0.9c0.7-0.2,1.2-0.1,1.5,0.2c0.5,0.2,0.7,0.6,0.8,1.3c0.1,1-0.2,2-1,3.1
		c-0.4,0.6-1.1,1.2-1.8,1.7c-0.3,0.2-0.9,0.3-1.7,0.4c-0.2,0-0.4-0.1-0.7-0.3c-0.5-0.6-0.8-1.1-0.7-1.5l0-0.4
		c-0.1-0.1-0.1-0.1,0-0.1c0,0,0.1-0.1,0.1-0.1c0.1,0,0.1-0.1,0.1-0.2s0-0.3,0.1-0.7c0.1-0.3,0.2-0.6,0.4-0.9
		C208.6,34.8,209,34.3,209.4,34z M211.5,36.3c0,0,0.1-0.1,0.1-0.3c0-0.1,0.1-0.2,0.1-0.3s0.1-0.3,0.1-0.5c0-0.3,0-0.5-0.1-0.5
		c-0.1-0.1-0.2-0.1-0.3-0.1c-0.1,0-0.2,0.1-0.4,0.2c-0.9,0.8-1.5,1.6-1.6,2.5c0,0.3,0,0.5,0.1,0.7c0.1,0.1,0.3,0.2,0.5,0.1
		c0.2-0.1,0.5-0.2,0.6-0.4c0.2-0.2,0.3-0.3,0.4-0.4c0.1-0.1,0.1-0.1,0.2-0.2c0,0,0.1-0.1,0.1-0.2c0-0.1,0.1-0.2,0.1-0.2
		c0,0,0.1-0.1,0.1-0.2C211.4,36.4,211.5,36.3,211.5,36.3z"/>
	<path class="st3" d="M213.5,39.9l0.1-0.6c0.1-0.3,0.3-1.1,0.7-2.3c0.4-1.2,0.8-2.2,1-2.9c0.3-0.8,0.5-1.3,0.5-1.5
		c0-0.1,0.1-0.2,0.2-0.3c0.1-0.1,0.3-0.2,0.5-0.1c0.2,0,0.4,0.1,0.5,0.2c0.2,0.3,0.3,0.6,0.2,1c0,0.2-0.1,0.6-0.4,0.9c0,0,0,0,0,0
		c0.7-0.4,1.3-0.6,1.8-0.5c0.5,0.1,0.9,0.3,1.2,0.6c0.3,0.4,0.4,0.8,0.4,1.3c0,0.2-0.1,0.5-0.3,0.9s-0.3,0.7-0.5,0.8
		c-0.1,0-0.2,0.1-0.3,0.4c-0.1,0.2-0.4,0.4-0.8,0.6s-0.7,0.3-0.8,0.2c-0.1,0-0.1,0.1-0.1,0.2c0,0.1-0.2,0.2-0.6,0.3
		c-0.4,0.1-0.7,0.2-0.9,0.2c-0.2,0-0.4,0-0.5-0.1c-0.1,0.1-0.1,0.2-0.1,0.3c0,0.1-0.1,0.3-0.2,0.5s-0.2,0.4-0.3,0.4
		c-0.1,0.1-0.1,0.1,0,0.2c0,0.3,0,0.4-0.1,0.6c0,0.3-0.1,0.6-0.2,0.9c0,0.1,0,0.3-0.1,0.4c0,0.1-0.1,0.2-0.1,0.2
		c-0.1,0-0.1,0.2-0.1,0.5c0,0.3-0.1,0.6-0.3,0.8c-0.2,0.2-0.3,0.3-0.5,0.3c-0.2,0-0.4,0-0.4-0.1c-0.3-0.4-0.3-0.7-0.3-1.1
		c0.1-0.5,0.2-0.9,0.2-1l0.1-0.6c0.1-0.2,0.2-0.5,0.2-0.8C213.3,40.2,213.3,40.1,213.5,39.9z M215.8,37.7c0.2,0,0.5-0.1,0.9-0.3
		s0.8-0.4,1-0.5c0.2-0.2,0.4-0.3,0.5-0.4c0.1-0.1,0.2-0.2,0.3-0.4c0.2-0.3,0.2-0.6,0-0.9c-0.3-0.4-1-0.2-1.9,0.7
		c-0.4,0.4-0.6,0.8-0.7,1.2C215.7,37.5,215.7,37.7,215.8,37.7z"/>
	<path class="st3" d="M222.8,34c0.6-0.5,1.1-0.8,1.6-0.9c0.7-0.2,1.2-0.1,1.5,0.2c0.5,0.2,0.7,0.6,0.8,1.3c0.1,1-0.2,2-1,3.1
		c-0.4,0.6-1.1,1.2-1.8,1.7c-0.3,0.2-0.9,0.3-1.7,0.4c-0.2,0-0.4-0.1-0.7-0.3c-0.5-0.6-0.8-1.1-0.7-1.5l0-0.4
		c-0.1-0.1-0.1-0.1,0-0.1c0,0,0.1-0.1,0.1-0.1c0.1,0,0.1-0.1,0.1-0.2s0-0.3,0.1-0.7c0.1-0.3,0.2-0.6,0.4-0.9
		C221.9,34.8,222.3,34.3,222.8,34z M224.8,36.3c0,0,0.1-0.1,0.1-0.3c0-0.1,0.1-0.2,0.1-0.3s0.1-0.3,0.1-0.5c0-0.3,0-0.5-0.1-0.5
		c-0.1-0.1-0.2-0.1-0.3-0.1c-0.1,0-0.2,0.1-0.4,0.2c-0.9,0.8-1.5,1.6-1.6,2.5c0,0.3,0,0.5,0.1,0.7c0.1,0.1,0.3,0.2,0.5,0.1
		c0.2-0.1,0.5-0.2,0.6-0.4c0.2-0.2,0.3-0.3,0.4-0.4c0.1-0.1,0.1-0.1,0.2-0.2c0,0,0.1-0.1,0.1-0.2c0-0.1,0.1-0.2,0.1-0.2
		c0,0,0.1-0.1,0.1-0.2C224.7,36.4,224.8,36.3,224.8,36.3z"/>
	<path class="st3" d="M231.2,32.3c0.2-0.1,0.4-0.1,0.7-0.1s0.5,0,0.6,0.1c0.1,0,0.1,0,0.1,0c0.1,0,0.3,0.1,0.6,0.4s0.4,0.4,0.4,0.6
		c0,0.9-0.1,1.3-0.2,1.3c-0.1,0-0.1,0-0.1,0.1c0,0.2-0.1,0.4-0.4,0.6c-0.3,0.2-0.6,0.3-0.8,0.3c-0.1,0-0.3-0.1-0.4-0.2
		s-0.2-0.3-0.2-0.4c0,0,0.1-0.2,0.4-0.5c0.2-0.3,0.4-0.5,0.4-0.8c0-0.1-0.1-0.1-0.3-0.1c-0.7,0.3-1.1,0.6-1.4,0.8
		c-0.1,0.1-0.1,0.2-0.2,0.2c0,0,0,0,0,0c0,0-0.1,0.1-0.2,0.2s-0.2,0.3-0.4,0.5c-0.1,0.2-0.2,0.4-0.2,0.5l0,0.1v0.1c0,0,0,0.1,0,0.1
		c0,0.2,0.3,0.5,0.8,0.9s0.9,0.7,1.1,0.9c0.2,0.2,0.3,0.4,0.4,0.5c0.1,0.2,0.2,0.4,0.2,0.6c0,0.4-0.2,0.7-0.6,0.9
		c-0.4,0.2-0.9,0.3-1.5,0.3s-1.1-0.1-1.5-0.4c-0.4-0.3-0.7-0.5-0.7-0.7c0-0.2,0.1-0.3,0.2-0.3c0.1-0.1,0.3-0.1,0.5-0.1
		c0.3,0,0.6,0.1,0.9,0.1c0.2,0,0.5,0,0.7-0.1s0.3-0.1,0.3-0.1s0-0.1-0.1-0.2s-0.2-0.1-0.3-0.1c0,0-0.2-0.2-0.7-0.6
		c-0.5-0.4-0.7-0.6-0.7-0.7c0,0,0,0,0,0v-0.1c-0.1,0-0.2-0.1-0.2-0.3c-0.1-0.2-0.1-0.5-0.1-0.7c0-0.6,0.4-1.3,1.1-2
		C229.6,33,230.4,32.6,231.2,32.3z"/>
	<path class="st3" d="M233.7,38.1l0.1-0.4c0-0.1,0-0.3,0.1-0.6c0.3-0.6,0.6-1.6,1-2.9c0-0.1,0.1-0.2,0.3-0.2c0.1,0,0.3,0,0.5,0.2
		s0.4,0.3,0.5,0.5c0.2,0.2,0.1,0.4,0,0.9s-0.3,0.8-0.4,1.2c-0.1,0.3-0.2,0.6-0.3,0.7c0,0.2-0.1,0.4-0.2,0.7
		c-0.1,0.3-0.1,0.6-0.2,0.7c-0.1,0.5-0.3,0.8-0.6,0.9c-0.3,0.1-0.5,0-0.7-0.2c-0.1-0.1-0.2-0.4-0.2-0.7
		C233.6,38.5,233.6,38.2,233.7,38.1z M235.5,31.9c-0.1-0.2-0.1-0.3-0.1-0.4c0-0.1,0-0.2,0.1-0.3c0.1-0.1,0.1-0.3,0.3-0.5
		c0.3-0.5,0.4-0.8,0.5-0.8c0.1-0.1,0.3-0.1,0.6,0c0.3,0.1,0.4,0.3,0.6,0.5c0.2,0.5,0.1,1-0.3,1.5c-0.2,0.2-0.4,0.4-0.7,0.5
		c-0.3,0.1-0.5,0-0.6-0.1C235.7,32.2,235.6,32.1,235.5,31.9z"/>
	<path class="st3" d="M237.7,33.3c-0.1-0.1-0.1-0.1-0.1-0.2s0.1-0.2,0.2-0.4c0.1-0.2,0.2-0.3,0.3-0.3c0.1,0,0.3,0,0.5,0
		c0.3,0,0.5,0,0.6-0.1s0.2-0.1,0.2-0.2c0-0.1,0.2-0.4,0.4-0.7c0.4-0.8,0.7-1.3,0.9-1.4s0.4-0.2,0.6-0.2c0.2,0,0.4,0,0.6,0.2
		c0.2,0.3,0.2,0.5,0,0.8c-0.1,0.1-0.2,0.3-0.3,0.6c-0.2,0.2-0.3,0.4-0.3,0.5c-0.2,0.3-0.2,0.4-0.1,0.5s0.5,0,1.1-0.1
		c0.6-0.1,0.9,0.1,1,0.6c0,0.3,0,0.5-0.1,0.5c-0.1,0.1-0.4,0.1-0.8,0.1c-0.4,0.1-0.7,0.1-1.1,0.1c-0.3,0-0.5,0-0.6,0
		c-0.1,0-0.3,0.2-0.3,0.3c0,0-0.1,0.1-0.1,0.2c-0.1,0.1-0.2,0.4-0.5,0.8c-0.3,0.9-0.6,1.9-0.7,2.8c0,0.2,0,0.4,0,0.5
		c0.1,0.1,0.3,0.2,0.6,0.2c0.6,0.1,1.2-0.1,1.9-0.5l0.5-0.3c0.1-0.1,0.2-0.1,0.4,0.2c0,0.1,0.1,0.1,0.1,0.2c0,0.5-0.3,0.8-0.8,1.1
		c-0.5,0.3-1,0.5-1.5,0.6c-0.5,0.1-0.9,0.1-1.2,0.1c-0.3-0.1-0.5-0.2-0.8-0.5c-0.2-0.3-0.4-0.5-0.5-0.7l-0.1-0.1
		c-0.1-0.1-0.1-0.4-0.1-0.9c0-0.6,0.1-1,0.1-1.2c0.1-0.3,0.3-0.9,0.6-1.8l0.5-1l-0.7-0.2C237.8,33.4,237.7,33.3,237.7,33.3z"/>
	<path class="st3" d="M243.3,38.1l0.1-0.4c0-0.1,0-0.3,0.1-0.6c0.3-0.6,0.6-1.6,1-2.9c0-0.1,0.1-0.2,0.3-0.2c0.1,0,0.3,0,0.5,0.2
		s0.4,0.3,0.5,0.5c0.2,0.2,0.1,0.4,0,0.9s-0.3,0.8-0.4,1.2c-0.1,0.3-0.2,0.6-0.3,0.7c0,0.2-0.1,0.4-0.2,0.7
		c-0.1,0.3-0.1,0.6-0.2,0.7c-0.1,0.5-0.3,0.8-0.6,0.9c-0.3,0.1-0.5,0-0.7-0.2c-0.1-0.1-0.2-0.4-0.2-0.7
		C243.2,38.5,243.2,38.2,243.3,38.1z M245.1,31.9c-0.1-0.2-0.1-0.3-0.1-0.4c0-0.1,0-0.2,0.1-0.3c0.1-0.1,0.1-0.3,0.3-0.5
		c0.3-0.5,0.4-0.8,0.5-0.8c0.1-0.1,0.3-0.1,0.6,0c0.3,0.1,0.4,0.3,0.6,0.5c0.2,0.5,0.1,1-0.3,1.5c-0.2,0.2-0.4,0.4-0.7,0.5
		c-0.3,0.1-0.5,0-0.6-0.1C245.3,32.2,245.2,32.1,245.1,31.9z"/>
	<path class="st3" d="M248.7,34c0.6-0.5,1.1-0.8,1.6-0.9c0.7-0.2,1.2-0.1,1.5,0.2c0.5,0.2,0.7,0.6,0.8,1.3c0.1,1-0.2,2-1,3.1
		c-0.4,0.6-1.1,1.2-1.8,1.7c-0.3,0.2-0.9,0.3-1.7,0.4c-0.2,0-0.4-0.1-0.7-0.3c-0.5-0.6-0.8-1.1-0.7-1.5l0-0.4
		c-0.1-0.1-0.1-0.1,0-0.1c0,0,0.1-0.1,0.1-0.1c0.1,0,0.1-0.1,0.1-0.2s0-0.3,0.1-0.7c0.1-0.3,0.2-0.6,0.4-0.9
		C247.8,34.8,248.2,34.3,248.7,34z M250.7,36.3c0,0,0.1-0.1,0.1-0.3c0-0.1,0.1-0.2,0.1-0.3s0.1-0.3,0.1-0.5c0-0.3,0-0.5-0.1-0.5
		c-0.1-0.1-0.2-0.1-0.3-0.1c-0.1,0-0.2,0.1-0.4,0.2c-0.9,0.8-1.5,1.6-1.6,2.5c0,0.3,0,0.5,0.1,0.7c0.1,0.1,0.3,0.2,0.5,0.1
		c0.2-0.1,0.5-0.2,0.6-0.4c0.2-0.2,0.3-0.3,0.4-0.4c0.1-0.1,0.1-0.1,0.2-0.2c0,0,0.1-0.1,0.1-0.2c0-0.1,0.1-0.2,0.1-0.2
		c0,0,0.1-0.1,0.1-0.2C250.7,36.4,250.7,36.3,250.7,36.3z"/>
	<path class="st3" d="M258.5,38.1l0.1-1.2v-0.3c0-0.2-0.1-0.4-0.2-0.4c-0.2,0-0.6,0.2-1.2,0.6c-1.1,0.8-1.8,1.5-2.4,2.2
		c-0.1,0.1-0.2,0.2-0.3,0.2c-0.1,0-0.2,0-0.3,0s-0.3-0.1-0.5-0.4c-0.2-0.2-0.4-0.4-0.4-0.6c0-0.5,0.2-1.2,0.7-2.1
		c0.1-0.2,0.2-0.6,0.5-1.3c0.3-0.6,0.4-1.1,0.5-1.5l0,0c0-0.1,0.1-0.2,0.2-0.2c0,0,0.1-0.1,0.4-0.1c0.2,0,0.4,0.1,0.7,0.3
		c0.2,0.2,0.3,0.4,0.3,0.7s-0.2,0.8-0.5,1.4c-0.3,0.6-0.5,0.9-0.5,1c0.2-0.1,0.6-0.4,1.1-0.8c1.2-1,2-1.5,2.3-1.5
		c0.2,0,0.4,0.1,0.7,0.3s0.4,0.3,0.5,0.5l-0.1,0.8l0,1c0,0.4,0,0.7-0.1,0.8l0.1,0.1c0,0,0,0.2,0.1,0.5c0.1,0.3,0.2,0.5,0.2,0.6
		s-0.1,0.2-0.3,0.4s-0.3,0.3-0.5,0.3C258.8,39.4,258.5,38.9,258.5,38.1z"/>
</g>
<path class="st4" d="M232.1,45.6c7.6-1,29.6-1.7,32.2,1c3.1,3.2-11.3,32.6-17.3,45.3"/>
</svg>
