<?xml version="1.0" encoding="utf-8"?>
<!-- Generator: Adobe Illustrator 21.0.2, SVG Export Plug-In . SVG Version: 6.00 Build 0)  -->
<svg version="1.1" id="图层_1" xmlns="http://www.w3.org/2000/svg" xmlns:xlink="http://www.w3.org/1999/xlink" x="0px" y="0px"
	 width="500px" height="310px" viewBox="0 0 500 310" style="enable-background:new 0 0 500 310;" xml:space="preserve">
<style type="text/css">
	
		.st0{opacity:0.72;fill:none;stroke:#303030;stroke-width:21;stroke-linecap:round;stroke-linejoin:round;stroke-miterlimit:10;enable-background:new    ;}
</style>
<path class="st0" d="M260.7,237.2c-8.2,8.5-6.7,14.8-14.9,23.1c14.9-11.3,17.7-17,35.7-21.9c-14.4,16.2-18.7,27.6-33.1,43.8
	c22.6-16.4,35.4-33.6,60.9-45c-21.9,21.9-33.6,38.7-55.5,60.7c22-18.5,73.3-57.2,86.3-60.7c-21.6,24.9-39.7,38.9-65,61.6
	c42.5-28.4,49.5-41.8,95.9-59.6c-32.7,25.6-37.7,34-70.4,59.6c40.4-27.6,57.5-37.2,101.1-59.2c-26.7,25.5-46,34.2-73.4,59.2
	c32.8-22.1,72.8-44.5,109.1-61.6c-27.7,19.7-53.6,40.5-80.3,61.6c25.2-17.4,52.2-31.7,81.2-41.9c-17.5,16-34.9,24.6-50.1,41
	c19.4-7.6,29.6-20.1,48.6-28.2c-9.3,12.1-10.4,22.4-14.9,29.1c9.3-5.5,14.7-7.1,18.5-12.3"/>
</svg>
