<?xml version="1.0" encoding="utf-8"?>
<!-- Generator: Adobe Illustrator 21.0.2, SVG Export Plug-In . SVG Version: 6.00 Build 0)  -->
<svg version="1.1" id="图层_1" xmlns="http://www.w3.org/2000/svg" xmlns:xlink="http://www.w3.org/1999/xlink" x="0px" y="0px"
	 width="500px" height="310px" viewBox="0 0 500 310" style="enable-background:new 0 0 500 310;" xml:space="preserve">
<style type="text/css">
	.st0{fill:none;stroke:#263248;stroke-width:2;stroke-linecap:round;stroke-linejoin:round;stroke-miterlimit:10;}
	.st1{enable-background:new    ;}
	.st2{fill:#263248;}
	.st3{fill:none;stroke:#263248;stroke-width:0.5;stroke-miterlimit:10;}
</style>
<g>
	<g>
		<path class="st0" d="M35.6,66.2c0,73.4-3,230.7,2.7,236.2c7.7,7.3,278.2,7.8,404.3,2.7"/>
		<path class="st0" d="M37.8,62c51.2-7,407.4-9.9,412,4.1c2.9,8.7,0.2,174.4-4.2,236.2"/>
		<path class="st0" d="M34.7,231.3c133.6-1.4,280.6-1.4,414.3-0.1"/>
		<path class="st0" d="M199.9,58.9c-1.4,16.4-2.7,134.1,0,171.3"/>
		<path class="st0" d="M285.8,57.9c-2.1,57.3-1.6,115,1.2,172.3"/>
		<path class="st0" d="M113.3,58.9c-1.5,58.2-1.9,113.1-0.9,171.4"/>
		<path class="st0" d="M372.3,57.9c1.7,24.4-0.5,139.8,0.6,172.9"/>
		<path class="st0" d="M238.6,230.8c-0.5,28.5-0.4,49.1,0.2,77.6"/>
		<path class="st0" d="M112.2,138c26.9-1,59.2-0.5,86.1,1"/>
		<path class="st0" d="M284.6,139.3c29.1,0,59.1,0,87.8,0"/>
	</g>
</g>
<g>
	<g class="st1">
		<path class="st2" d="M281.2,260.9c1.3-0.3,2.4-0.2,3.4,0.4c0.5,0.3,1,0.7,1.3,1.1c0.3,0.4,0.4,0.8,0.5,1.2c0,0.4,0,0.8-0.2,1.1
			c-0.2,0.5-0.7,1-1.5,1.7s-1.5,1.1-2.2,1.4c-1,0.5-1.8,0.8-2.4,0.9c0.6,1.1,1.5,2.2,2.8,3.3c0.6,0.6,1.2,1,1.7,1.2
			c0.1,0.1,0.1,0.3,0,0.6c-0.1,0.3-0.2,0.5-0.3,0.5c-0.4,0.1-0.8,0-1.2-0.3c-1.1-0.7-2.3-1.7-3.4-2.9c-0.2-0.2-0.3-0.4-0.4-0.6
			c-0.1-0.2-0.2-0.3-0.2-0.4c-0.1-0.2-0.2-0.5-0.3-0.8c-0.4,1.2-0.9,2.8-1.6,4.6c0,0.1-0.2,0.2-0.5,0.2s-0.5-0.1-0.7-0.2
			c-0.2-0.2-0.3-0.3-0.3-0.4c0-0.1,0.2-0.5,0.5-1.3c0.1-0.4,0.2-0.9,0.5-1.5c0.1-0.2,0.5-1.4,1.4-3.5c0.9-2.2,1.5-3.6,1.9-4.4
			c0-0.1,0-0.3-0.1-0.4s-0.2-0.2-0.4-0.2c-0.1-0.1-0.2-0.3-0.2-0.4c0-0.1,0.1-0.2,0.2-0.3L281.2,260.9z M283.7,262.4
			c-0.7-0.2-1.2-0.2-1.4-0.2s-0.4,0.2-0.5,0.6c0,0,0,0.1-0.1,0.3c-0.3,0.6-0.6,1.2-0.8,1.7c-0.7,1.4-1.1,2.2-1.1,2.3s0,0.1,0,0.2
			c0.3,0,1-0.2,2-0.6c2-0.9,2.9-1.9,2.8-2.9c0-0.2-0.1-0.5-0.3-0.8C284.1,262.7,283.9,262.5,283.7,262.4z"/>
		<path class="st2" d="M289.4,265.8c0.7,0,1.2,0.2,1.5,0.5s0.5,0.7,0.5,1v0.1c0,0.3-0.2,0.7-0.5,1.2c-0.2,0.3-0.4,0.6-0.8,0.8
			c-0.3,0.2-0.7,0.4-1,0.4c-0.3,0-0.7,0-1-0.1c-0.3-0.1-0.5-0.1-0.6-0.1c-0.1,0-0.1,0-0.2,0.1c-0.1,0.1-0.1,0.4-0.1,0.7
			c0,0.3,0.1,0.6,0.3,0.7s0.3,0.2,0.5,0.2c0.2,0,0.4,0,0.6-0.1c0.2-0.1,0.4-0.2,0.7-0.5c0.3-0.2,0.5-0.3,0.6-0.3
			c0.1,0,0.3,0.1,0.4,0.2c0.1,0.1,0.2,0.3,0.2,0.4c0,0.3-0.3,0.6-0.8,1.1c-0.5,0.5-1.1,0.7-1.8,0.7s-1.2-0.2-1.6-0.6
			c-0.4-0.4-0.6-0.9-0.6-1.6c0-0.3,0-0.6,0-0.9c0-0.3,0.1-0.7,0.3-1.2c0.2-0.5,0.5-0.9,0.9-1.5c0.4-0.5,0.8-0.9,1.3-1.1
			C288.7,265.9,289.1,265.8,289.4,265.8z M289.3,267.1c-0.2,0-0.4,0.1-0.7,0.4c-0.3,0.3-0.5,0.6-0.8,0.9c0,0.1,0.2,0.2,0.6,0.2
			s0.6,0,0.7-0.1c0.1-0.1,0.3-0.2,0.5-0.5s0.4-0.4,0.4-0.5c0-0.3-0.2-0.4-0.6-0.5H289.3z"/>
		<path class="st2" d="M292.3,266.5c0,0,0.2-0.1,0.3-0.1s0.3,0,0.3,0c0.3,0.1,0.5,0.8,0.7,2.2c0,0.2,0,0.4,0.1,0.6
			c0.1,0.3,0.1,0.5,0.1,0.5c0,0,0,0.1,0.1,0.3c0,0.1,0.1,0.2,0.1,0.2c0.1,0,0.6-0.5,1.3-1.6c0.4-0.6,0.8-1,1-1.3
			c0.3-0.3,0.5-0.4,0.6-0.5c0.3,0,0.5,0.1,0.5,0.3c0.1,0.3,0,0.6-0.3,0.9c-0.1,0.1-0.1,0.2-0.2,0.4s-0.2,0.3-0.2,0.5
			c-0.1,0.1-0.3,0.5-0.6,0.9c-0.4,0.5-0.6,0.8-0.6,0.8c-0.1,0.1-0.1,0.1-0.2,0.2c-0.3,0.3-0.5,0.5-0.6,0.6c-0.3,0.3-0.6,0.4-0.8,0.5
			c-0.3,0.1-0.5,0-0.6-0.1c-0.1-0.1-0.3-0.5-0.5-1.2c-0.2-0.7-0.4-1.3-0.5-1.7c-0.1-0.4-0.2-0.9-0.3-1.3c-0.1-0.2,0-0.4,0.1-0.7
			C292.1,266.8,292.2,266.6,292.3,266.5z"/>
		<path class="st2" d="M301.4,265.8c0.7,0,1.2,0.2,1.5,0.5s0.5,0.7,0.5,1v0.1c0,0.3-0.2,0.7-0.5,1.2c-0.2,0.3-0.4,0.6-0.8,0.8
			c-0.3,0.2-0.7,0.4-1,0.4c-0.3,0-0.7,0-1-0.1c-0.3-0.1-0.5-0.1-0.6-0.1c-0.1,0-0.1,0-0.2,0.1c-0.1,0.1-0.1,0.4-0.1,0.7
			c0,0.3,0.1,0.6,0.3,0.7s0.3,0.2,0.5,0.2c0.2,0,0.4,0,0.6-0.1c0.2-0.1,0.4-0.2,0.7-0.5c0.3-0.2,0.5-0.3,0.6-0.3
			c0.1,0,0.3,0.1,0.4,0.2c0.1,0.1,0.2,0.3,0.2,0.4c0,0.3-0.3,0.6-0.8,1.1c-0.5,0.5-1.1,0.7-1.8,0.7s-1.2-0.2-1.6-0.6
			c-0.4-0.4-0.6-0.9-0.6-1.6c0-0.3,0-0.6,0-0.9c0-0.3,0.1-0.7,0.3-1.2c0.2-0.5,0.5-0.9,0.9-1.5c0.4-0.5,0.8-0.9,1.3-1.1
			C300.6,265.9,301,265.8,301.4,265.8z M301.2,267.1c-0.2,0-0.4,0.1-0.7,0.4c-0.3,0.3-0.5,0.6-0.8,0.9c0,0.1,0.2,0.2,0.6,0.2
			s0.6,0,0.7-0.1c0.1-0.1,0.3-0.2,0.5-0.5s0.4-0.4,0.4-0.5c0-0.3-0.2-0.4-0.6-0.5H301.2z"/>
		<path class="st2" d="M308.8,271.2l0.1-1.2v-0.3c0-0.2-0.1-0.4-0.2-0.4c-0.2,0-0.6,0.2-1.2,0.6c-1.1,0.8-1.8,1.5-2.4,2.2
			c-0.1,0.1-0.2,0.2-0.3,0.2c-0.1,0-0.2,0-0.3,0s-0.3-0.1-0.5-0.4c-0.2-0.2-0.4-0.4-0.4-0.6c0-0.5,0.2-1.2,0.7-2.1
			c0.1-0.2,0.2-0.6,0.5-1.3c0.3-0.6,0.4-1.1,0.5-1.5l0,0c0-0.1,0.1-0.2,0.2-0.2c0,0,0.1-0.1,0.4-0.1c0.2,0,0.4,0.1,0.7,0.3
			c0.2,0.2,0.3,0.4,0.3,0.7s-0.2,0.8-0.5,1.4c-0.3,0.6-0.5,0.9-0.5,1c0.2-0.1,0.6-0.4,1.1-0.8c1.2-1,2-1.5,2.3-1.5
			c0.2,0,0.4,0.1,0.7,0.3s0.4,0.3,0.5,0.5l-0.1,0.8l0,1c0,0.4,0,0.7-0.1,0.8l0.1,0.1c0,0,0,0.2,0.1,0.5c0.1,0.3,0.2,0.5,0.2,0.6
			s-0.1,0.2-0.3,0.4s-0.3,0.3-0.5,0.3C309.2,272.5,308.8,272,308.8,271.2z"/>
		<path class="st2" d="M315.6,271.3V271c-0.1,0.3-0.3,0.5-0.4,0.6c-0.3,0.3-0.6,0.5-0.8,0.6c-0.8,0.5-1.4,0.5-1.9-0.1
			c-0.5-0.4-0.7-0.9-0.5-1.5c0-0.8,0.3-1.8,0.8-2.8c0.5-1.1,0.8-1.6,0.8-1.6c0.2-0.1,0.4-0.1,0.7,0c0.3,0.1,0.4,0.2,0.4,0.4
			c0.1,0.1,0.1,0.4,0,0.7c-0.1,0.3-0.2,0.7-0.4,1.1c-0.5,1.2-0.7,1.9-0.7,2.2c0,0.3,0.1,0.4,0.2,0.5c0.1,0.1,0.3,0.1,0.5,0
			c0.2-0.1,0.4-0.3,0.7-0.7c0.3-0.4,0.6-0.9,0.8-1.4c0.2-0.6,0.4-1.1,0.4-1.5c0-0.1,0-0.3,0.1-0.4c0.1-0.2,0.2-0.3,0.4-0.4
			c0-0.1,0.1-0.1,0.2-0.2s0.1,0,0.2,0l0.3,0c0,0,0.1,0.1,0.2,0.2s0.1,0.2,0.2,0.2c0.3,0.3,0.3,1-0.3,2.2c-0.7,1.4-0.8,2.4-0.2,2.9
			c0.2,0.1,0.3,0.4,0.2,0.9c0,0.2-0.2,0.3-0.5,0.3c-0.3,0-0.5,0-0.7-0.2c-0.2-0.2-0.3-0.6-0.5-1.2
			C315.6,271.6,315.6,271.5,315.6,271.3z"/>
		<path class="st2" d="M322.1,265.8c0.7,0,1.2,0.2,1.5,0.5s0.5,0.7,0.5,1v0.1c0,0.3-0.2,0.7-0.5,1.2c-0.2,0.3-0.4,0.6-0.8,0.8
			c-0.3,0.2-0.7,0.4-1,0.4c-0.3,0-0.7,0-1-0.1c-0.3-0.1-0.5-0.1-0.6-0.1s-0.1,0-0.2,0.1c-0.1,0.1-0.1,0.4-0.1,0.7
			c0,0.3,0.1,0.6,0.3,0.7c0.1,0.1,0.3,0.2,0.5,0.2s0.4,0,0.6-0.1c0.2-0.1,0.4-0.2,0.7-0.5c0.3-0.2,0.5-0.3,0.6-0.3
			c0.1,0,0.3,0.1,0.4,0.2c0.1,0.1,0.2,0.3,0.2,0.4c0,0.3-0.3,0.6-0.8,1.1s-1.1,0.7-1.8,0.7s-1.2-0.2-1.6-0.6
			c-0.4-0.4-0.6-0.9-0.6-1.6c0-0.3,0-0.6,0-0.9c0-0.3,0.1-0.7,0.3-1.2c0.2-0.5,0.5-0.9,0.9-1.5c0.4-0.5,0.8-0.9,1.3-1.1
			S321.8,265.8,322.1,265.8z M322,267.1c-0.2,0-0.4,0.1-0.7,0.4c-0.3,0.3-0.5,0.6-0.8,0.9c0,0.1,0.2,0.2,0.6,0.2s0.6,0,0.7-0.1
			c0.1-0.1,0.3-0.2,0.5-0.5s0.4-0.4,0.4-0.5c0-0.3-0.2-0.4-0.6-0.5H322z"/>
	</g>
	<g class="st1">
		<path class="st3" d="M281.2,260.9c1.3-0.3,2.4-0.2,3.4,0.4c0.5,0.3,1,0.7,1.3,1.1c0.3,0.4,0.4,0.8,0.5,1.2c0,0.4,0,0.8-0.2,1.1
			c-0.2,0.5-0.7,1-1.5,1.7s-1.5,1.1-2.2,1.4c-1,0.5-1.8,0.8-2.4,0.9c0.6,1.1,1.5,2.2,2.8,3.3c0.6,0.6,1.2,1,1.7,1.2
			c0.1,0.1,0.1,0.3,0,0.6c-0.1,0.3-0.2,0.5-0.3,0.5c-0.4,0.1-0.8,0-1.2-0.3c-1.1-0.7-2.3-1.7-3.4-2.9c-0.2-0.2-0.3-0.4-0.4-0.6
			c-0.1-0.2-0.2-0.3-0.2-0.4c-0.1-0.2-0.2-0.5-0.3-0.8c-0.4,1.2-0.9,2.8-1.6,4.6c0,0.1-0.2,0.2-0.5,0.2s-0.5-0.1-0.7-0.2
			c-0.2-0.2-0.3-0.3-0.3-0.4c0-0.1,0.2-0.5,0.5-1.3c0.1-0.4,0.2-0.9,0.5-1.5c0.1-0.2,0.5-1.4,1.4-3.5c0.9-2.2,1.5-3.6,1.9-4.4
			c0-0.1,0-0.3-0.1-0.4s-0.2-0.2-0.4-0.2c-0.1-0.1-0.2-0.3-0.2-0.4c0-0.1,0.1-0.2,0.2-0.3L281.2,260.9z M283.7,262.4
			c-0.7-0.2-1.2-0.2-1.4-0.2s-0.4,0.2-0.5,0.6c0,0,0,0.1-0.1,0.3c-0.3,0.6-0.6,1.2-0.8,1.7c-0.7,1.4-1.1,2.2-1.1,2.3s0,0.1,0,0.2
			c0.3,0,1-0.2,2-0.6c2-0.9,2.9-1.9,2.8-2.9c0-0.2-0.1-0.5-0.3-0.8C284.1,262.7,283.9,262.5,283.7,262.4z"/>
		<path class="st3" d="M289.4,265.8c0.7,0,1.2,0.2,1.5,0.5s0.5,0.7,0.5,1v0.1c0,0.3-0.2,0.7-0.5,1.2c-0.2,0.3-0.4,0.6-0.8,0.8
			c-0.3,0.2-0.7,0.4-1,0.4c-0.3,0-0.7,0-1-0.1c-0.3-0.1-0.5-0.1-0.6-0.1c-0.1,0-0.1,0-0.2,0.1c-0.1,0.1-0.1,0.4-0.1,0.7
			c0,0.3,0.1,0.6,0.3,0.7s0.3,0.2,0.5,0.2c0.2,0,0.4,0,0.6-0.1c0.2-0.1,0.4-0.2,0.7-0.5c0.3-0.2,0.5-0.3,0.6-0.3
			c0.1,0,0.3,0.1,0.4,0.2c0.1,0.1,0.2,0.3,0.2,0.4c0,0.3-0.3,0.6-0.8,1.1c-0.5,0.5-1.1,0.7-1.8,0.7s-1.2-0.2-1.6-0.6
			c-0.4-0.4-0.6-0.9-0.6-1.6c0-0.3,0-0.6,0-0.9c0-0.3,0.1-0.7,0.3-1.2c0.2-0.5,0.5-0.9,0.9-1.5c0.4-0.5,0.8-0.9,1.3-1.1
			C288.7,265.9,289.1,265.8,289.4,265.8z M289.3,267.1c-0.2,0-0.4,0.1-0.7,0.4c-0.3,0.3-0.5,0.6-0.8,0.9c0,0.1,0.2,0.2,0.6,0.2
			s0.6,0,0.7-0.1c0.1-0.1,0.3-0.2,0.5-0.5s0.4-0.4,0.4-0.5c0-0.3-0.2-0.4-0.6-0.5H289.3z"/>
		<path class="st3" d="M292.3,266.5c0,0,0.2-0.1,0.3-0.1s0.3,0,0.3,0c0.3,0.1,0.5,0.8,0.7,2.2c0,0.2,0,0.4,0.1,0.6
			c0.1,0.3,0.1,0.5,0.1,0.5c0,0,0,0.1,0.1,0.3c0,0.1,0.1,0.2,0.1,0.2c0.1,0,0.6-0.5,1.3-1.6c0.4-0.6,0.8-1,1-1.3
			c0.3-0.3,0.5-0.4,0.6-0.5c0.3,0,0.5,0.1,0.5,0.3c0.1,0.3,0,0.6-0.3,0.9c-0.1,0.1-0.1,0.2-0.2,0.4s-0.2,0.3-0.2,0.5
			c-0.1,0.1-0.3,0.5-0.6,0.9c-0.4,0.5-0.6,0.8-0.6,0.8c-0.1,0.1-0.1,0.1-0.2,0.2c-0.3,0.3-0.5,0.5-0.6,0.6c-0.3,0.3-0.6,0.4-0.8,0.5
			c-0.3,0.1-0.5,0-0.6-0.1c-0.1-0.1-0.3-0.5-0.5-1.2c-0.2-0.7-0.4-1.3-0.5-1.7c-0.1-0.4-0.2-0.9-0.3-1.3c-0.1-0.2,0-0.4,0.1-0.7
			C292.1,266.8,292.2,266.6,292.3,266.5z"/>
		<path class="st3" d="M301.4,265.8c0.7,0,1.2,0.2,1.5,0.5s0.5,0.7,0.5,1v0.1c0,0.3-0.2,0.7-0.5,1.2c-0.2,0.3-0.4,0.6-0.8,0.8
			c-0.3,0.2-0.7,0.4-1,0.4c-0.3,0-0.7,0-1-0.1c-0.3-0.1-0.5-0.1-0.6-0.1c-0.1,0-0.1,0-0.2,0.1c-0.1,0.1-0.1,0.4-0.1,0.7
			c0,0.3,0.1,0.6,0.3,0.7s0.3,0.2,0.5,0.2c0.2,0,0.4,0,0.6-0.1c0.2-0.1,0.4-0.2,0.7-0.5c0.3-0.2,0.5-0.3,0.6-0.3
			c0.1,0,0.3,0.1,0.4,0.2c0.1,0.1,0.2,0.3,0.2,0.4c0,0.3-0.3,0.6-0.8,1.1c-0.5,0.5-1.1,0.7-1.8,0.7s-1.2-0.2-1.6-0.6
			c-0.4-0.4-0.6-0.9-0.6-1.6c0-0.3,0-0.6,0-0.9c0-0.3,0.1-0.7,0.3-1.2c0.2-0.5,0.5-0.9,0.9-1.5c0.4-0.5,0.8-0.9,1.3-1.1
			C300.6,265.9,301,265.8,301.4,265.8z M301.2,267.1c-0.2,0-0.4,0.1-0.7,0.4c-0.3,0.3-0.5,0.6-0.8,0.9c0,0.1,0.2,0.2,0.6,0.2
			s0.6,0,0.7-0.1c0.1-0.1,0.3-0.2,0.5-0.5s0.4-0.4,0.4-0.5c0-0.3-0.2-0.4-0.6-0.5H301.2z"/>
		<path class="st3" d="M308.8,271.2l0.1-1.2v-0.3c0-0.2-0.1-0.4-0.2-0.4c-0.2,0-0.6,0.2-1.2,0.6c-1.1,0.8-1.8,1.5-2.4,2.2
			c-0.1,0.1-0.2,0.2-0.3,0.2c-0.1,0-0.2,0-0.3,0s-0.3-0.1-0.5-0.4c-0.2-0.2-0.4-0.4-0.4-0.6c0-0.5,0.2-1.2,0.7-2.1
			c0.1-0.2,0.2-0.6,0.5-1.3c0.3-0.6,0.4-1.1,0.5-1.5l0,0c0-0.1,0.1-0.2,0.2-0.2c0,0,0.1-0.1,0.4-0.1c0.2,0,0.4,0.1,0.7,0.3
			c0.2,0.2,0.3,0.4,0.3,0.7s-0.2,0.8-0.5,1.4c-0.3,0.6-0.5,0.9-0.5,1c0.2-0.1,0.6-0.4,1.1-0.8c1.2-1,2-1.5,2.3-1.5
			c0.2,0,0.4,0.1,0.7,0.3s0.4,0.3,0.5,0.5l-0.1,0.8l0,1c0,0.4,0,0.7-0.1,0.8l0.1,0.1c0,0,0,0.2,0.1,0.5c0.1,0.3,0.2,0.5,0.2,0.6
			s-0.1,0.2-0.3,0.4s-0.3,0.3-0.5,0.3C309.2,272.5,308.8,272,308.8,271.2z"/>
		<path class="st3" d="M315.6,271.3V271c-0.1,0.3-0.3,0.5-0.4,0.6c-0.3,0.3-0.6,0.5-0.8,0.6c-0.8,0.5-1.4,0.5-1.9-0.1
			c-0.5-0.4-0.7-0.9-0.5-1.5c0-0.8,0.3-1.8,0.8-2.8c0.5-1.1,0.8-1.6,0.8-1.6c0.2-0.1,0.4-0.1,0.7,0c0.3,0.1,0.4,0.2,0.4,0.4
			c0.1,0.1,0.1,0.4,0,0.7c-0.1,0.3-0.2,0.7-0.4,1.1c-0.5,1.2-0.7,1.9-0.7,2.2c0,0.3,0.1,0.4,0.2,0.5c0.1,0.1,0.3,0.1,0.5,0
			c0.2-0.1,0.4-0.3,0.7-0.7c0.3-0.4,0.6-0.9,0.8-1.4c0.2-0.6,0.4-1.1,0.4-1.5c0-0.1,0-0.3,0.1-0.4c0.1-0.2,0.2-0.3,0.4-0.4
			c0-0.1,0.1-0.1,0.2-0.2s0.1,0,0.2,0l0.3,0c0,0,0.1,0.1,0.2,0.2s0.1,0.2,0.2,0.2c0.3,0.3,0.3,1-0.3,2.2c-0.7,1.4-0.8,2.4-0.2,2.9
			c0.2,0.1,0.3,0.4,0.2,0.9c0,0.2-0.2,0.3-0.5,0.3c-0.3,0-0.5,0-0.7-0.2c-0.2-0.2-0.3-0.6-0.5-1.2
			C315.6,271.6,315.6,271.5,315.6,271.3z"/>
		<path class="st3" d="M322.1,265.8c0.7,0,1.2,0.2,1.5,0.5s0.5,0.7,0.5,1v0.1c0,0.3-0.2,0.7-0.5,1.2c-0.2,0.3-0.4,0.6-0.8,0.8
			c-0.3,0.2-0.7,0.4-1,0.4c-0.3,0-0.7,0-1-0.1c-0.3-0.1-0.5-0.1-0.6-0.1s-0.1,0-0.2,0.1c-0.1,0.1-0.1,0.4-0.1,0.7
			c0,0.3,0.1,0.6,0.3,0.7c0.1,0.1,0.3,0.2,0.5,0.2s0.4,0,0.6-0.1c0.2-0.1,0.4-0.2,0.7-0.5c0.3-0.2,0.5-0.3,0.6-0.3
			c0.1,0,0.3,0.1,0.4,0.2c0.1,0.1,0.2,0.3,0.2,0.4c0,0.3-0.3,0.6-0.8,1.1s-1.1,0.7-1.8,0.7s-1.2-0.2-1.6-0.6
			c-0.4-0.4-0.6-0.9-0.6-1.6c0-0.3,0-0.6,0-0.9c0-0.3,0.1-0.7,0.3-1.2c0.2-0.5,0.5-0.9,0.9-1.5c0.4-0.5,0.8-0.9,1.3-1.1
			S321.8,265.8,322.1,265.8z M322,267.1c-0.2,0-0.4,0.1-0.7,0.4c-0.3,0.3-0.5,0.6-0.8,0.9c0,0.1,0.2,0.2,0.6,0.2s0.6,0,0.7-0.1
			c0.1-0.1,0.3-0.2,0.5-0.5s0.4-0.4,0.4-0.5c0-0.3-0.2-0.4-0.6-0.5H322z"/>
	</g>
</g>
</svg>
