<?xml version="1.0" encoding="utf-8"?>
<!-- Generator: Adobe Illustrator 21.0.2, SVG Export Plug-In . SVG Version: 6.00 Build 0)  -->
<svg version="1.1" id="图层_1" xmlns="http://www.w3.org/2000/svg" xmlns:xlink="http://www.w3.org/1999/xlink" x="0px" y="0px"
	 width="500px" height="310px" viewBox="0 0 500 310" style="enable-background:new 0 0 500 310;" xml:space="preserve">
<style type="text/css">
	.st0{fill:none;stroke:#263248;stroke-width:3;stroke-linecap:round;stroke-linejoin:round;stroke-miterlimit:10;}
	.st1{fill:#263248;stroke:#263248;stroke-width:0.5;stroke-miterlimit:10;}
</style>
<g>
	<path class="st0" d="M152.8,69.5c26.9-0.6,41.7,24.8,41.7,39.6c0,21.1-25.8,33.1-39.5,34c-21.7,1.5-38.2-7.7-39.5-37.8
		C114.5,82.2,137.3,69.9,152.8,69.5z"/>
	<path class="st0" d="M154,142.6c5.7-0.1,8.9,4.7,8.9,7.5c0,4-3.8,6.4-8.4,6.4c-4.6,0-8.1-1.5-8.4-7.2
		C145.8,145,150.7,142.7,154,142.6z"/>
	<path class="st0" d="M126.3,134.9c-13.8,29-26.1,103.7-12.6,121.3c11.3,14.8,77.7,11,82.8-2.8c11.4-30.8-1.5-95.6-11.9-123.7"/>
	<path class="st0" d="M150.4,158.3c-0.8,7.2-4.3,20.2-4.3,27.5c0,7.9,8.4,27.4,11.2,34.7c4.6-10,8.2-29.7,8.2-35.2
		c0-6.3-4.5-20.1-6.4-28.8"/>
</g>
<g>
	<path class="st1" d="M266.7,108.7c0.6,0,1.3,0.3,1.8,0.7c1.2,0.9,1.3,2.1,0.4,3.7c-0.5,0.9-1.1,1.5-1.7,1.9
		c-0.5,0.2-0.9,0.2-1.2,0.1c-0.3-0.1-0.5-0.4-0.5-0.7c0-0.3,0.3-0.8,0.9-1.5c0.9-1.3,1.1-2.1,0.5-2.2c-0.3,0-0.8,0-1.6,0.2
		c-0.8,0.2-1.2,0.3-1.2,0.4l-0.1,0.1c-0.1,0-0.5,0.3-1.4,0.8s-1.3,0.9-1.4,1c0,0.2-0.2,0.3-0.6,0.5c-0.3,0.2-0.6,0.4-0.8,0.7
		s-0.6,0.8-0.9,1.5c-0.3,0.4-0.5,0.8-0.6,1.2c-0.2,0.7,0,1.3,0.6,1.8s1.1,0.8,1.7,1c0.8,0.5,1.6,1,2.3,1.5c0.7,0.5,1.1,1,1.2,1.3
		c0.5,0.7,0.5,1.6,0.2,2.9c-0.1,0.3-0.3,0.6-0.6,0.9c-0.2,0.3-0.4,0.4-0.6,0.4c-0.1,0-0.3,0.1-0.5,0.2s-0.3,0.2-0.4,0.2
		c-0.1,0.1-0.6,0.2-1.4,0.3c-0.8,0.1-1.5,0.2-2.1,0.2l-1-0.3c0-0.1,0-0.2,0-0.2s-0.2-0.1-0.3-0.1c-0.3-0.2-0.7-0.6-1.1-1.1
		s-0.6-0.9-0.7-1.1c-0.1-0.2-0.1-0.3-0.1-0.4s0-0.1,0-0.2l0.1-0.1c0,0,0.1,0,0.2-0.1c0.1,0,0.2-0.1,0.2-0.1c0.5-0.4,0.9-0.4,1.1,0
		c0.3,0.6,0.9,1,1.7,1.3c0.8,0.2,1.7,0.2,2.6-0.1c0.8-0.3,0.9-1,0.3-1.9c-0.1-0.2-0.2-0.4-0.5-0.6s-0.6-0.5-0.8-0.7
		c-0.4-0.2-0.8-0.4-1.3-0.6s-1-0.6-1.5-1s-0.9-0.8-1.1-1.2c-0.4-0.4-0.6-1-0.5-1.7c0-0.7,0.2-1.4,0.5-2.1c0.2-0.4,0.7-1.1,1.4-2.1
		s1.3-1.5,1.7-1.7l0.8-0.7c0,0,0.1-0.1,0.3-0.1c0.4-0.2,0.8-0.4,1.2-0.8C263.9,109.2,265.5,108.7,266.7,108.7z"/>
	<path class="st1" d="M271.5,116.3c1,0,1.7,0.2,2.1,0.7s0.7,0.9,0.7,1.3v0.2c0,0.3-0.2,0.9-0.7,1.7c-0.2,0.4-0.6,0.8-1.1,1.1
		c-0.5,0.3-1,0.5-1.4,0.5c-0.5,0-0.9,0-1.4-0.1s-0.7-0.1-0.8-0.1s-0.2,0.1-0.3,0.2c-0.1,0.2-0.2,0.5-0.2,1s0.2,0.8,0.4,1
		c0.2,0.2,0.5,0.3,0.8,0.3s0.6-0.1,0.8-0.2c0.3-0.1,0.6-0.3,0.9-0.6c0.4-0.3,0.6-0.4,0.8-0.4s0.4,0.1,0.6,0.3
		c0.2,0.2,0.3,0.4,0.3,0.6c0,0.4-0.4,0.9-1.2,1.5c-0.7,0.6-1.5,0.9-2.5,0.9c-0.9,0-1.7-0.3-2.2-0.8c-0.6-0.5-0.9-1.3-0.9-2.3
		c0-0.4,0-0.8,0.1-1.2c0-0.4,0.2-1,0.4-1.6c0.2-0.6,0.6-1.3,1.2-2c0.5-0.7,1.1-1.2,1.8-1.5S271,116.3,271.5,116.3z M271.3,118.1
		c-0.2,0-0.5,0.2-0.9,0.5s-0.8,0.8-1.1,1.2c0,0.2,0.3,0.3,0.8,0.3s0.8,0,1-0.1s0.4-0.3,0.7-0.6s0.5-0.6,0.5-0.7
		c0-0.4-0.3-0.6-0.8-0.6C271.5,118.1,271.3,118.1,271.3,118.1z"/>
	<path class="st1" d="M281.8,123.8l0.1-1.7v-0.4c0-0.3-0.2-0.5-0.3-0.5c-0.3,0-0.9,0.3-1.7,0.9c-1.5,1-2.6,2-3.3,3
		c-0.1,0.2-0.3,0.3-0.4,0.3s-0.2,0-0.4,0c-0.2,0-0.4-0.2-0.7-0.5c-0.3-0.3-0.5-0.6-0.6-0.8c0-0.7,0.3-1.6,1-2.9
		c0.1-0.3,0.3-0.8,0.7-1.7c0.4-0.9,0.6-1.6,0.6-2.1l0,0c0-0.2,0.1-0.2,0.2-0.2c0,0,0.2-0.1,0.5-0.1s0.6,0.1,0.9,0.3
		c0.3,0.2,0.5,0.6,0.5,1s-0.2,1.1-0.6,1.9c-0.4,0.9-0.6,1.3-0.6,1.3c0.3-0.2,0.8-0.6,1.5-1.1c1.7-1.4,2.8-2.1,3.2-2.1
		c0.2,0,0.5,0.1,0.9,0.4s0.6,0.5,0.7,0.7l-0.1,1.1v1.4c0,0.5,0,0.9-0.1,1.1l0.1,0.1c-0.1,0.1,0,0.3,0.2,0.7s0.3,0.7,0.3,0.8
		c0,0.1-0.1,0.3-0.4,0.5s-0.5,0.4-0.7,0.4C282.3,125.5,281.8,125,281.8,123.8z"/>
	<path class="st1" d="M291.2,115.8c0.2-0.1,0.6-0.2,1-0.2s0.7,0,0.8,0.1c0.1,0,0.2,0,0.2,0c0.2,0,0.5,0.2,0.8,0.5s0.5,0.6,0.6,0.8
		c0,1.2-0.1,1.8-0.3,1.8c-0.1,0-0.1,0-0.1,0.1c0,0.2-0.2,0.5-0.6,0.8s-0.8,0.4-1.1,0.4c-0.2,0-0.4-0.2-0.5-0.3
		c-0.2-0.2-0.3-0.4-0.3-0.5c0,0,0.2-0.2,0.5-0.6s0.5-0.8,0.5-1.1c0-0.1-0.1-0.2-0.4-0.2c-0.9,0.4-1.6,0.8-2,1.2
		c-0.1,0.2-0.2,0.3-0.3,0.3l0,0c0,0-0.1,0.1-0.3,0.2c-0.2,0.2-0.3,0.4-0.5,0.7s-0.3,0.5-0.3,0.7v0.1v0.1c0,0,0,0.1,0,0.2
		c0,0.3,0.4,0.7,1.1,1.2s1.2,0.9,1.5,1.2s0.4,0.5,0.5,0.7c0.1,0.3,0.2,0.6,0.2,0.8c0,0.6-0.3,1-0.9,1.3s-1.3,0.5-2.1,0.5
		s-1.5-0.2-2.1-0.5s-0.9-0.7-0.9-0.9c0-0.3,0.1-0.4,0.3-0.5c0.2-0.1,0.4-0.2,0.7-0.1c0.3,0.1,0.8,0.1,1.3,0.2c0.3,0,0.6,0,0.9-0.1
		s0.4-0.1,0.4-0.2s-0.1-0.2-0.2-0.3c-0.1-0.1-0.3-0.2-0.4-0.2c0-0.1-0.3-0.3-1-0.8s-1-0.8-1-1l0,0V122c-0.1,0-0.2-0.2-0.3-0.5
		s-0.1-0.6-0.1-0.9c0-0.9,0.5-1.8,1.6-2.8C289,116.8,290.1,116.1,291.2,115.8z"/>
	<path class="st1" d="M294.7,123.8l0.1-0.5c0-0.1,0-0.4,0.2-0.8c0.4-0.8,0.8-2.2,1.4-4.1c0-0.2,0.1-0.3,0.4-0.3
		c0.2-0.1,0.4,0,0.7,0.2c0.3,0.2,0.5,0.5,0.7,0.8c0.2,0.2,0.2,0.6-0.1,1.2c-0.3,0.6-0.4,1.1-0.5,1.7c-0.2,0.4-0.3,0.8-0.4,1
		s-0.1,0.5-0.2,1s-0.2,0.8-0.3,0.9c-0.1,0.6-0.4,1-0.8,1.2c-0.4,0.1-0.7,0-1-0.3c-0.2-0.2-0.3-0.5-0.3-1
		C294.5,124.3,294.5,124,294.7,123.8z M297.2,115.3c-0.1-0.2-0.2-0.4-0.2-0.5s0-0.2,0.1-0.3c0.1-0.1,0.2-0.3,0.4-0.7
		c0.4-0.7,0.6-1.1,0.7-1.1c0.2-0.1,0.5-0.1,0.8,0c0.4,0.1,0.6,0.4,0.8,0.6c0.3,0.7,0.2,1.3-0.4,2c-0.2,0.3-0.6,0.5-0.9,0.6
		c-0.4,0.1-0.7,0.1-0.9-0.1C297.4,115.7,297.3,115.5,297.2,115.3z"/>
	<path class="st1" d="M306.6,123.8l0.1-1.7v-0.4c0-0.3-0.2-0.5-0.3-0.5c-0.3,0-0.9,0.3-1.7,0.9c-1.5,1-2.6,2-3.3,3
		c-0.1,0.2-0.3,0.3-0.4,0.3s-0.2,0-0.4,0c-0.2,0-0.4-0.2-0.7-0.5c-0.3-0.3-0.5-0.6-0.6-0.8c0-0.7,0.3-1.6,1-2.9
		c0.1-0.3,0.3-0.8,0.7-1.7c0.4-0.9,0.6-1.6,0.6-2.1l0,0c0-0.2,0.1-0.2,0.2-0.2c0,0,0.2-0.1,0.5-0.1s0.6,0.1,0.9,0.3
		c0.3,0.2,0.5,0.6,0.5,1s-0.2,1.1-0.6,1.9c-0.4,0.9-0.6,1.3-0.6,1.3c0.3-0.2,0.8-0.6,1.5-1.1c1.7-1.4,2.8-2.1,3.2-2.1
		c0.2,0,0.5,0.1,0.9,0.4s0.6,0.5,0.7,0.7l-0.1,1.1v1.4c0,0.5,0,0.9-0.1,1.1l0.1,0.1c-0.1,0.1,0,0.3,0.2,0.7s0.3,0.7,0.3,0.8
		c0,0.1-0.1,0.3-0.4,0.5s-0.5,0.4-0.7,0.4C307.1,125.5,306.6,125,306.6,123.8z"/>
	<path class="st1" d="M314.7,116.6c0.6-0.3,1.2-0.4,1.6-0.2c0.4,0,0.9,0.3,1.4,0.7c0.8,0.8,1.3,1.4,1.4,1.7c0.2,0.5,0.1,1-0.3,1.6
		c-0.2,0.2-0.4,0.5-0.6,0.8s-0.3,0.6-0.3,0.9s-0.2,0.8-0.5,1.6c-0.3,0.9-0.6,1.9-0.9,3.2c-0.4,1.3-0.8,2.2-1.3,2.9s-0.9,1.1-1.3,1.4
		c-0.4,0.2-0.9,0.2-1.4-0.1c-0.5-0.2-1-0.6-1.3-1.1c-0.2-0.2-0.4-0.7-0.7-1.4s-0.4-1.1-0.3-1.1c0.1-0.2,0.4-0.4,0.8-0.3
		c0.4,0,0.7,0.1,0.7,0.3c0.1,0.4,0.3,0.8,0.5,1c0.2,0.3,0.4,0.5,0.6,0.6s0.4,0.1,0.5,0c0.3-0.2,0.5-0.4,0.6-0.7s0.3-0.8,0.6-1.6
		c0.6-2,1-3.2,1.1-3.5c-0.1,0.1-0.3,0.2-0.5,0.4c-0.5,0.4-0.8,0.6-1.1,0.7c-0.1,0.1-0.3,0.2-0.7,0.2c-0.8,0-1.5-0.2-1.8-0.7
		c-0.1-0.2-0.3-0.5-0.4-0.8c-0.3-0.7-0.1-1.7,0.4-3.1c0.3-0.6,0.8-1.3,1.5-2.1C313.6,117.2,314.2,116.7,314.7,116.6z M316.4,118.9
		c0-0.5-0.3-0.7-0.8-0.6s-1.1,0.5-1.7,1.3c-0.2,0.3-0.5,0.7-0.6,1.2c-0.3,1-0.3,1.6,0.1,1.7c0.5,0,0.9-0.1,1.2-0.3
		c0.3-0.2,0.6-0.6,1-1.2C316.2,120.4,316.5,119.6,316.4,118.9z"/>
	<path class="st1" d="M333.2,122.8c0.5-0.7,0.7-1.1,0.7-1.2s0.1-0.3,0.3-0.5c0.3-0.3,1-1.7,2.2-4.1c1-3.2,1.6-5.1,1.7-5.6
		s0.2-1,0.4-1.5c0.2-0.2,0.4-0.2,0.6-0.1s0.4,0.2,0.5,0.2s0.2,0.1,0.4,0.2c0.1,0.1,0.2,0.1,0.2,0.1c0.1,0.2,0.2,0.5,0.1,0.8
		c-0.4,2-0.8,3.4-1.1,4.2c-0.3,0.8-0.5,1.4-0.7,1.9s-0.4,0.9-0.5,1.1c-0.1,0.3-0.3,0.7-0.5,1.3c-0.3,0.6-0.4,1-0.5,1.2v0.1
		c-0.2,0.1-0.4,0.3-0.5,0.6c-0.2,0.3-0.3,0.5-0.3,0.5l-0.2,0.6c0,0.1-0.1,0.2-0.3,0.3s-0.3,0.2-0.3,0.3c0,0.1-0.1,0.2-0.1,0.2
		c-0.6,0.8-1.3,1.7-2.2,2.4c-0.9,0.8-1.6,1.3-2.2,1.5s-1.1,0.3-1.5,0.2c-1.3-0.3-2.1-1.2-2.5-2.5s-0.3-3.3,0.2-5.9
		c0.2-1.2,0.7-2.7,1.3-4.3c0.6-1.7,1.2-3.1,1.9-4.3c0.7-1.2,1.3-1.7,1.8-1.6c0.6,0.1,0.9,0.4,1.1,0.9s0.1,0.9-0.4,1.1
		c-0.2,0.2-0.5,0.7-0.8,1.4c-0.4,0.7-0.6,1.2-0.7,1.4c-1,3-1.7,5.2-1.9,6.7c-0.3,1.4-0.5,2.2-0.5,2.4c0,0.3-0.1,0.6-0.1,1.1
		c0,0.1,0.1,0.1,0.1,0.2c0.1,0.1,0.1,0.2,0.1,0.2c0,0.1,0.1,0.1,0.1,0.2s0.1,0.1,0.3,0.2c0.6,0.3,1.2,0.2,1.8-0.1
		c0.1-0.2,0.3-0.3,0.5-0.4c0,0.1,0.1,0.1,0.1,0.1s0.1-0.1,0.1-0.2s0.1-0.2,0.2-0.4C332.4,123.9,332.8,123.5,333.2,122.8z"/>
	<path class="st1" d="M343.5,115.8c0.2-0.1,0.6-0.2,1-0.2s0.7,0,0.8,0.1c0.1,0,0.2,0,0.2,0c0.2,0,0.5,0.2,0.8,0.5s0.5,0.6,0.6,0.8
		c0,1.2-0.1,1.8-0.3,1.8c-0.1,0-0.1,0-0.1,0.1c0,0.2-0.2,0.5-0.6,0.8s-0.8,0.4-1.1,0.4c-0.2,0-0.4-0.2-0.5-0.3
		c-0.2-0.2-0.3-0.4-0.3-0.5c0,0,0.2-0.2,0.5-0.6s0.5-0.8,0.5-1.1c0-0.1-0.1-0.2-0.4-0.2c-0.9,0.4-1.6,0.8-2,1.2
		c-0.1,0.2-0.2,0.3-0.3,0.3l0,0c0,0-0.1,0.1-0.3,0.2c-0.2,0.2-0.3,0.4-0.5,0.7s-0.3,0.5-0.3,0.7v0.1v0.1c0,0,0,0.1,0,0.2
		c0,0.3,0.4,0.7,1.1,1.2s1.2,0.9,1.5,1.2s0.4,0.5,0.5,0.7c0.1,0.3,0.2,0.6,0.2,0.8c0,0.6-0.3,1-0.9,1.3s-1.3,0.5-2.1,0.5
		s-1.5-0.2-2.1-0.5s-0.9-0.7-0.9-0.9c0-0.3,0.1-0.4,0.3-0.5c0.2-0.1,0.4-0.2,0.7-0.1c0.3,0.1,0.8,0.1,1.3,0.2c0.3,0,0.6,0,0.9-0.1
		s0.4-0.1,0.4-0.2s-0.1-0.2-0.2-0.3c-0.1-0.1-0.3-0.2-0.4-0.2c0-0.1-0.3-0.3-1-0.8s-1-0.8-1-1l0,0V122c-0.1,0-0.2-0.2-0.3-0.5
		s-0.1-0.6-0.1-0.9c0-0.9,0.5-1.8,1.6-2.8C341.3,116.8,342.4,116.1,343.5,115.8z"/>
	<path class="st1" d="M352.1,116.3c1,0,1.7,0.2,2.1,0.7s0.7,0.9,0.7,1.3v0.2c0,0.3-0.2,0.9-0.7,1.7c-0.2,0.4-0.6,0.8-1.1,1.1
		c-0.5,0.3-1,0.5-1.4,0.5c-0.5,0-0.9,0-1.4-0.1s-0.7-0.1-0.8-0.1s-0.2,0.1-0.3,0.2c-0.1,0.2-0.2,0.5-0.2,1s0.2,0.8,0.4,1
		c0.2,0.2,0.5,0.3,0.8,0.3s0.6-0.1,0.8-0.2c0.3-0.1,0.6-0.3,0.9-0.6c0.4-0.3,0.6-0.4,0.8-0.4s0.4,0.1,0.6,0.3
		c0.2,0.2,0.3,0.4,0.3,0.6c0,0.4-0.4,0.9-1.2,1.5c-0.7,0.6-1.5,0.9-2.5,0.9c-0.9,0-1.7-0.3-2.2-0.8c-0.6-0.5-0.9-1.3-0.9-2.3
		c0-0.4,0-0.8,0.1-1.2c0-0.4,0.2-1,0.4-1.6c0.2-0.6,0.6-1.3,1.2-2c0.5-0.7,1.1-1.2,1.8-1.5S351.6,116.3,352.1,116.3z M351.9,118.1
		c-0.2,0-0.5,0.2-0.9,0.5s-0.8,0.8-1.1,1.2c0,0.2,0.3,0.3,0.8,0.3s0.8,0,1-0.1s0.4-0.3,0.7-0.6s0.5-0.6,0.5-0.7
		c0-0.4-0.3-0.6-0.8-0.6C352.1,118.1,351.9,118.1,351.9,118.1z"/>
	<path class="st1" d="M358.5,116.2c0.4,0,0.6,0.1,0.7,0.2c0.4,0.3,0.1,1.3-0.8,3c-0.3,0.6-0.4,0.8-0.3,0.8c0.2-0.3,0.6-0.7,1.3-1.3
		c0.7-0.5,1.1-0.9,1.3-1c0.2-0.1,0.4-0.2,0.6-0.3c0.2-0.1,0.3-0.1,0.4-0.1c0.4-0.2,0.8-0.3,1.2-0.2s0.7,0.2,0.8,0.4
		c0,0.2,0.1,0.3,0.3,0.4l0.1,0.1c0,0.1-0.1,0.3-0.3,0.5c-0.2,0.2-0.5,0.3-0.7,0.3s-0.5,0.1-0.9,0.3c-0.3,0.2-0.7,0.3-1,0.5
		s-0.6,0.3-0.7,0.4c-0.2,0.1-0.4,0.2-0.6,0.4c-0.5,0.3-0.9,0.7-1.2,1.1c-0.4,0.4-0.7,0.7-0.8,0.9c-0.1,0.1-0.2,0.4-0.4,0.9
		c-0.1,0.5-0.2,0.8-0.2,0.9c-0.1,0.3-0.2,0.5-0.4,0.8c-0.2,0.2-0.4,0.4-0.5,0.4s-0.4,0-0.7-0.3c-0.5-0.4-0.7-0.8-0.7-1.2
		c0.1-0.4,0.2-1.3,0.5-2.4c0-0.4,0.3-1.3,0.8-2.6c0.5-1.3,0.9-2.2,1.2-2.7C357.8,116.3,358.1,116.2,358.5,116.2z"/>
	<path class="st1" d="M379.4,124.6c0.4,0,1.3-2.4,2.4-7.1c0.3-0.9,0.5-2,0.6-3.3c0.5-2,0.8-3.1,0.8-3.3v-0.5c0.1,0,0.1-0.1,0.2-0.3
		c0.1-0.2,0.1-0.5,0.1-0.8s0.1-0.6,0.3-0.8c0.3-0.4,0.6-0.6,1.1-0.4c0.5,0.1,0.8,0.4,0.8,0.8s-0.2,1.7-0.7,3.8
		c0,0.2-0.1,0.8-0.3,1.7c-0.2,0.9-0.3,1.5-0.4,1.9c-0.2,1.1-0.3,1.6-0.4,1.6c-0.7,2.9-1.5,5.6-2.6,8c-0.4,0.9-0.9,1.5-1.5,1.8
		c-0.6,0.2-1.2,0-1.7-0.6s-0.9-1.3-1.1-2s-0.4-1.6-0.6-2.9c-0.3-2.2-0.5-4.1-0.5-5.7s0-2.4-0.2-2.4c-0.1,0-0.4,0.4-0.7,1.3
		c-0.3,0.8-0.6,1.8-1.1,2.8s-0.6,1.6-0.7,1.7c-0.3,0.6-0.5,1.2-0.7,1.8c-0.7,1.8-1.1,3.2-1.4,4.3c-0.3,1.1-0.5,1.9-0.6,2.2
		c-0.1,0.3-0.2,0.5-0.4,0.6s-0.4,0-0.8-0.2s-0.7-0.6-0.8-1c-0.1-0.4,0-0.9,0.1-1.4c0.1-0.4,0.3-1,0.6-1.8c0.3-0.8,0.5-1.5,0.7-2.2
		c0.6-1.3,1-2.5,1.4-3.6c0-0.1,0.4-1,1.2-2.8c0.6-1.8,1.4-3.4,2.4-4.9c0.3-0.5,0.8-0.7,1.4-0.6s1,0.3,1.2,0.8
		c0.3,0.8,0.5,2.4,0.5,4.9c0,0.7,0,1.2,0,1.5s0,0.7,0.1,1.2c0,0.8,0.1,1.6,0.3,2.3c0,0.2,0.1,0.7,0.2,1.4
		C379.1,123.8,379.3,124.6,379.4,124.6z"/>
	<path class="st1" d="M389.9,116.3c1,0,1.7,0.2,2.1,0.7s0.7,0.9,0.7,1.3v0.2c0,0.3-0.2,0.9-0.7,1.7c-0.2,0.4-0.6,0.8-1.1,1.1
		c-0.5,0.3-1,0.5-1.4,0.5c-0.5,0-0.9,0-1.4-0.1s-0.7-0.1-0.8-0.1s-0.2,0.1-0.3,0.2c-0.1,0.2-0.2,0.5-0.2,1s0.2,0.8,0.4,1
		c0.2,0.2,0.5,0.3,0.8,0.3s0.6-0.1,0.8-0.2c0.3-0.1,0.6-0.3,0.9-0.6c0.4-0.3,0.6-0.4,0.8-0.4s0.4,0.1,0.6,0.3
		c0.2,0.2,0.3,0.4,0.3,0.6c0,0.4-0.4,0.9-1.2,1.5c-0.7,0.6-1.5,0.9-2.5,0.9c-0.9,0-1.7-0.3-2.2-0.8c-0.6-0.5-0.9-1.3-0.9-2.3
		c0-0.4,0-0.8,0.1-1.2c0-0.4,0.2-1,0.4-1.6c0.2-0.6,0.6-1.3,1.2-2c0.5-0.7,1.1-1.2,1.8-1.5S389.5,116.3,389.9,116.3z M389.7,118.1
		c-0.2,0-0.5,0.2-0.9,0.5s-0.8,0.8-1.1,1.2c0,0.2,0.3,0.3,0.8,0.3s0.8,0,1-0.1s0.4-0.3,0.7-0.6s0.5-0.6,0.5-0.7
		c0-0.4-0.3-0.6-0.8-0.6C389.9,118.1,389.7,118.1,389.7,118.1z"/>
	<path class="st1" d="M398.2,116.3c1,0,1.7,0.2,2.1,0.7s0.7,0.9,0.7,1.3v0.2c0,0.3-0.2,0.9-0.7,1.7c-0.2,0.4-0.6,0.8-1.1,1.1
		c-0.5,0.3-1,0.5-1.4,0.5c-0.5,0-0.9,0-1.4-0.1s-0.7-0.1-0.8-0.1s-0.2,0.1-0.3,0.2c-0.1,0.2-0.2,0.5-0.2,1s0.2,0.8,0.4,1
		c0.2,0.2,0.5,0.3,0.8,0.3s0.6-0.1,0.8-0.2c0.3-0.1,0.6-0.3,0.9-0.6c0.4-0.3,0.6-0.4,0.8-0.4s0.4,0.1,0.6,0.3
		c0.2,0.2,0.3,0.4,0.3,0.6c0,0.4-0.4,0.9-1.2,1.5c-0.7,0.6-1.5,0.9-2.5,0.9c-0.9,0-1.7-0.3-2.2-0.8c-0.6-0.5-0.9-1.3-0.9-2.3
		c0-0.4,0-0.8,0.1-1.2c0-0.4,0.2-1,0.4-1.6c0.2-0.6,0.6-1.3,1.2-2c0.5-0.7,1.1-1.2,1.8-1.5S397.8,116.3,398.2,116.3z M398,118.1
		c-0.2,0-0.5,0.2-0.9,0.5s-0.8,0.8-1.1,1.2c0,0.2,0.3,0.3,0.8,0.3s0.8,0,1-0.1s0.4-0.3,0.7-0.6s0.5-0.6,0.5-0.7
		c0-0.4-0.3-0.6-0.8-0.6C398.2,118.1,398,118.1,398,118.1z"/>
	<path class="st1" d="M409.2,126.4c-0.1,0.1-0.3,0.1-0.4,0.2c-0.1,0-0.3,0.1-0.4,0.1c-0.2,0-0.4,0-0.6-0.2c-0.2-0.1-0.3-0.3-0.4-0.5
		c-0.1-0.4-0.2-1.2-0.3-2.4l-1,0.9c-1,1-2,1.5-2.9,1.5c-0.3,0-0.6-0.3-1-0.7s-0.7-0.7-0.8-1c-0.2-0.5-0.1-1.3,0.2-2.4
		c0.3-1.1,0.8-2,1.4-2.7c0.5-0.8,1.2-1.3,2-1.6c0.8-0.2,1.6-0.2,2.2,0.2c0.5,0.3,0.8,0.2,0.9-0.1c0-0.1,0.2-0.8,0.7-2.1
		c0.4-1.4,1-2.9,1.8-4.5c0.3-0.7,0.7-1,1-1c0.2,0,0.5,0.1,0.7,0.2c0.3,0.1,0.4,0.3,0.5,0.6c0.1,0.3,0.1,0.6-0.1,0.9
		c-0.4,0.7-1,2-1.6,3.7s-1.1,3-1.3,4c-0.3,1-0.4,2.1-0.5,3.6c-0.1,1.4,0,2.2,0.1,2.4c0,0.3,0,0.5,0,0.6
		C409.4,126.2,409.3,126.3,409.2,126.4z M403.6,123.7c0.1,0.1,0.4,0,0.7-0.1c0.3-0.1,0.8-0.4,1.2-0.7c0.5-0.4,0.8-0.7,1.1-1
		c0.2-0.3,0.4-0.6,0.5-1.1c0.1-0.4,0-0.8-0.4-1.2c-0.5-0.4-1-0.2-1.7,0.3c-0.8,0.8-1.4,1.9-1.7,3.3
		C403.4,123.5,403.4,123.7,403.6,123.7z"/>
</g>
<path class="st0" d="M217.6,119.6c3.9-0.5,10.2-1.2,15-1"/>
<path class="st0" d="M224.5,110c1.3,5.3,1.1,14.2,1,17.7"/>
</svg>
