<?xml version="1.0" encoding="utf-8"?>
<!-- Generator: Adobe Illustrator 21.0.2, SVG Export Plug-In . SVG Version: 6.00 Build 0)  -->
<svg version="1.1" id="图层_1" xmlns="http://www.w3.org/2000/svg" xmlns:xlink="http://www.w3.org/1999/xlink" x="0px" y="0px"
	 width="500px" height="310px" viewBox="0 0 500 310" style="enable-background:new 0 0 500 310;" xml:space="preserve">
<style type="text/css">
	.st0{fill:none;stroke:#303030;stroke-width:3;stroke-linecap:round;stroke-linejoin:round;stroke-miterlimit:10;}
	.st1{fill:#303030;stroke:#303030;stroke-width:0.5;stroke-miterlimit:10;}
	.st2{fill:#303030;}
</style>
<g>
	<path class="st0" d="M152.8,69.5c26.9-0.6,41.7,24.8,41.7,39.6c0,21.1-25.8,33.1-39.5,34c-21.7,1.5-38.2-7.7-39.5-37.8
		C114.5,82.2,137.3,69.9,152.8,69.5z"/>
	<path class="st0" d="M154,142.6c5.7-0.1,8.9,4.7,8.9,7.5c0,4-3.8,6.4-8.4,6.4c-4.6,0-8.1-1.5-8.4-7.2
		C145.8,145,150.7,142.7,154,142.6z"/>
	<path class="st0" d="M126.3,134.9c-13.8,29-26.1,103.7-12.6,121.3c11.3,14.8,77.7,11,82.8-2.8c11.4-30.8-1.5-95.6-11.9-123.7"/>
	<path class="st0" d="M150.4,158.3c-0.8,7.2-4.3,20.2-4.3,27.5c0,7.9,8.4,27.4,11.2,34.7c4.6-10,8.2-29.7,8.2-35.2
		c0-6.3-4.5-20.1-6.4-28.8"/>
</g>
<g>
	<path class="st1" d="M266.7,108.7c0.6,0,1.3,0.3,1.8,0.7c1.2,0.9,1.3,2.1,0.4,3.7c-0.5,0.9-1.1,1.5-1.7,1.9
		c-0.5,0.2-0.9,0.2-1.2,0.1c-0.3-0.1-0.5-0.4-0.5-0.7c0-0.3,0.3-0.8,0.9-1.5c0.9-1.3,1.1-2.1,0.5-2.2c-0.3,0-0.8,0-1.6,0.2
		c-0.8,0.2-1.2,0.3-1.2,0.4l-0.1,0.1c-0.1,0-0.5,0.3-1.4,0.8s-1.3,0.9-1.4,1c0,0.2-0.2,0.3-0.6,0.5c-0.3,0.2-0.6,0.4-0.8,0.7
		s-0.6,0.8-0.9,1.5c-0.3,0.4-0.5,0.8-0.6,1.2c-0.2,0.7,0,1.3,0.6,1.8s1.1,0.8,1.7,1c0.8,0.5,1.6,1,2.3,1.5c0.7,0.5,1.1,1,1.2,1.3
		c0.5,0.7,0.5,1.6,0.2,2.9c-0.1,0.3-0.3,0.6-0.6,0.9c-0.2,0.3-0.4,0.4-0.6,0.4c-0.1,0-0.3,0.1-0.5,0.2c-0.2,0.1-0.3,0.2-0.4,0.2
		c-0.1,0.1-0.6,0.2-1.4,0.3c-0.8,0.1-1.5,0.2-2.1,0.2l-1-0.3c0-0.1,0-0.2,0-0.2s-0.2-0.1-0.3-0.1c-0.3-0.2-0.7-0.6-1.1-1.1
		c-0.4-0.5-0.6-0.9-0.7-1.1c-0.1-0.2-0.1-0.3-0.1-0.4c0-0.1,0-0.1,0-0.2c0,0,0.1-0.1,0.1-0.1c0,0,0.1,0,0.2-0.1
		c0.1,0,0.2-0.1,0.2-0.1c0.5-0.4,0.9-0.4,1.1,0c0.3,0.6,0.9,1,1.7,1.3c0.8,0.2,1.7,0.2,2.6-0.1c0.8-0.3,0.9-1,0.3-1.9
		c-0.1-0.2-0.2-0.4-0.5-0.6c-0.3-0.2-0.6-0.5-0.8-0.7c-0.4-0.2-0.8-0.4-1.3-0.6c-0.5-0.2-1-0.6-1.5-1c-0.5-0.4-0.9-0.8-1.1-1.2
		c-0.4-0.4-0.6-1-0.5-1.7c0-0.7,0.2-1.4,0.5-2.1c0.2-0.4,0.7-1.1,1.4-2.1s1.3-1.5,1.7-1.7l0.8-0.7c0,0,0.1-0.1,0.3-0.1
		c0.4-0.2,0.8-0.4,1.2-0.8C263.9,109.2,265.5,108.7,266.7,108.7z"/>
	<path class="st1" d="M271.5,116.3c1,0,1.7,0.2,2.1,0.7c0.4,0.5,0.7,0.9,0.7,1.3v0.2c0,0.3-0.2,0.9-0.7,1.7
		c-0.2,0.4-0.6,0.8-1.1,1.1c-0.5,0.3-1,0.5-1.4,0.5c-0.5,0-0.9,0-1.4-0.1s-0.7-0.1-0.8-0.1s-0.2,0.1-0.3,0.2c-0.1,0.2-0.2,0.5-0.2,1
		c0,0.5,0.2,0.8,0.4,1c0.2,0.2,0.5,0.3,0.8,0.3c0.3,0,0.6-0.1,0.8-0.2c0.3-0.1,0.6-0.3,0.9-0.6c0.4-0.3,0.6-0.4,0.8-0.4
		s0.4,0.1,0.6,0.3c0.2,0.2,0.3,0.4,0.3,0.6c0,0.4-0.4,0.9-1.2,1.5c-0.7,0.6-1.5,0.9-2.5,0.9c-0.9,0-1.7-0.3-2.2-0.8
		c-0.6-0.5-0.9-1.3-0.9-2.3c0-0.4,0-0.8,0.1-1.2c0-0.4,0.2-1,0.4-1.6c0.2-0.6,0.6-1.3,1.2-2c0.5-0.7,1.1-1.2,1.8-1.5
		S271,116.3,271.5,116.3z M271.3,118.1c-0.2,0-0.5,0.2-0.9,0.5s-0.8,0.8-1.1,1.2c0,0.2,0.3,0.3,0.8,0.3s0.8,0,1-0.1s0.4-0.3,0.7-0.6
		s0.5-0.6,0.5-0.7c0-0.4-0.3-0.6-0.8-0.6H271.3z"/>
	<path class="st1" d="M281.8,123.8l0.1-1.7v-0.4c0-0.3-0.2-0.5-0.3-0.5c-0.3,0-0.9,0.3-1.7,0.9c-1.5,1-2.6,2-3.3,3
		c-0.1,0.2-0.3,0.3-0.4,0.3s-0.2,0-0.4,0c-0.2,0-0.4-0.2-0.7-0.5c-0.3-0.3-0.5-0.6-0.6-0.8c0-0.7,0.3-1.6,1-2.9
		c0.1-0.3,0.3-0.8,0.7-1.7c0.4-0.9,0.6-1.6,0.6-2.1l0,0c0-0.2,0.1-0.2,0.2-0.2c0,0,0.2-0.1,0.5-0.1c0.3,0,0.6,0.1,0.9,0.3
		c0.3,0.2,0.5,0.6,0.5,1c0,0.4-0.2,1.1-0.6,1.9c-0.4,0.9-0.6,1.3-0.6,1.3c0.3-0.2,0.8-0.6,1.5-1.1c1.7-1.4,2.8-2.1,3.2-2.1
		c0.2,0,0.5,0.1,0.9,0.4s0.6,0.5,0.7,0.7l-0.1,1.1l0,1.4c0,0.5,0,0.9-0.1,1.1l0.1,0.1c-0.1,0.1,0,0.3,0.2,0.7s0.3,0.7,0.3,0.8
		c0,0.1-0.1,0.3-0.4,0.5s-0.5,0.4-0.7,0.4C282.3,125.5,281.8,125,281.8,123.8z"/>
	<path class="st1" d="M291.2,115.8c0.2-0.1,0.6-0.2,1-0.2c0.4,0,0.7,0,0.8,0.1c0.1,0,0.2,0,0.2,0c0.2,0,0.5,0.2,0.8,0.5
		c0.3,0.3,0.5,0.6,0.6,0.8c0,1.2-0.1,1.8-0.3,1.8c-0.1,0-0.1,0-0.1,0.1c0,0.2-0.2,0.5-0.6,0.8c-0.4,0.3-0.8,0.4-1.1,0.4
		c-0.2,0-0.4-0.2-0.5-0.3c-0.2-0.2-0.3-0.4-0.3-0.5c0,0,0.2-0.2,0.5-0.6c0.3-0.4,0.5-0.8,0.5-1.1c0-0.1-0.1-0.2-0.4-0.2
		c-0.9,0.4-1.6,0.8-2,1.2c-0.1,0.2-0.2,0.3-0.3,0.3c0,0,0,0,0,0c0,0-0.1,0.1-0.3,0.2c-0.2,0.2-0.3,0.4-0.5,0.7s-0.3,0.5-0.3,0.7
		l0,0.1v0.1c0,0,0,0.1,0,0.2c0,0.3,0.4,0.7,1.1,1.2c0.7,0.5,1.2,0.9,1.5,1.2s0.4,0.5,0.5,0.7c0.1,0.3,0.2,0.6,0.2,0.8
		c0,0.6-0.3,1-0.9,1.3s-1.3,0.5-2.1,0.5s-1.5-0.2-2.1-0.5c-0.6-0.3-0.9-0.7-0.9-0.9c0-0.3,0.1-0.4,0.3-0.5c0.2-0.1,0.4-0.2,0.7-0.1
		c0.3,0.1,0.8,0.1,1.3,0.2c0.3,0,0.6,0,0.9-0.1c0.3-0.1,0.4-0.1,0.4-0.2c0-0.1-0.1-0.2-0.2-0.3c-0.1-0.1-0.3-0.2-0.4-0.2
		c0-0.1-0.3-0.3-1-0.8c-0.7-0.5-1-0.8-1-1c0,0,0,0,0,0V122c-0.1,0-0.2-0.2-0.3-0.5s-0.1-0.6-0.1-0.9c0-0.9,0.5-1.8,1.6-2.8
		C289,116.8,290.1,116.1,291.2,115.8z"/>
	<path class="st1" d="M294.7,123.8l0.1-0.5c0-0.1,0-0.4,0.2-0.8c0.4-0.8,0.8-2.2,1.4-4.1c0-0.2,0.1-0.3,0.4-0.3
		c0.2-0.1,0.4,0,0.7,0.2c0.3,0.2,0.5,0.5,0.7,0.8c0.2,0.2,0.2,0.6-0.1,1.2c-0.3,0.6-0.4,1.1-0.5,1.7c-0.2,0.4-0.3,0.8-0.4,1
		c-0.1,0.2-0.1,0.5-0.2,1c-0.1,0.5-0.2,0.8-0.3,0.9c-0.1,0.6-0.4,1-0.8,1.2c-0.4,0.1-0.7,0-1-0.3c-0.2-0.2-0.3-0.5-0.3-1
		C294.5,124.3,294.5,124,294.7,123.8z M297.2,115.3c-0.1-0.2-0.2-0.4-0.2-0.5c0-0.1,0-0.2,0.1-0.3c0.1-0.1,0.2-0.3,0.4-0.7
		c0.4-0.7,0.6-1.1,0.7-1.1c0.2-0.1,0.5-0.1,0.8,0c0.4,0.1,0.6,0.4,0.8,0.6c0.3,0.7,0.2,1.3-0.4,2c-0.2,0.3-0.6,0.5-0.9,0.6
		c-0.4,0.1-0.7,0.1-0.9-0.1C297.4,115.7,297.3,115.5,297.2,115.3z"/>
	<path class="st1" d="M306.6,123.8l0.1-1.7v-0.4c0-0.3-0.2-0.5-0.3-0.5c-0.3,0-0.9,0.3-1.7,0.9c-1.5,1-2.6,2-3.3,3
		c-0.1,0.2-0.3,0.3-0.4,0.3s-0.2,0-0.4,0c-0.2,0-0.4-0.2-0.7-0.5c-0.3-0.3-0.5-0.6-0.6-0.8c0-0.7,0.3-1.6,1-2.9
		c0.1-0.3,0.3-0.8,0.7-1.7c0.4-0.9,0.6-1.6,0.6-2.1l0,0c0-0.2,0.1-0.2,0.2-0.2c0,0,0.2-0.1,0.5-0.1c0.3,0,0.6,0.1,0.9,0.3
		c0.3,0.2,0.5,0.6,0.5,1c0,0.4-0.2,1.1-0.6,1.9c-0.4,0.9-0.6,1.3-0.6,1.3c0.3-0.2,0.8-0.6,1.5-1.1c1.7-1.4,2.8-2.1,3.2-2.1
		c0.2,0,0.5,0.1,0.9,0.4s0.6,0.5,0.7,0.7l-0.1,1.1l0,1.4c0,0.5,0,0.9-0.1,1.1l0.1,0.1c-0.1,0.1,0,0.3,0.2,0.7s0.3,0.7,0.3,0.8
		c0,0.1-0.1,0.3-0.4,0.5s-0.5,0.4-0.7,0.4C307.1,125.5,306.6,125,306.6,123.8z"/>
	<path class="st1" d="M314.7,116.6c0.6-0.3,1.2-0.4,1.6-0.2c0.4,0,0.9,0.3,1.4,0.7c0.8,0.8,1.3,1.4,1.4,1.7c0.2,0.5,0.1,1-0.3,1.6
		c-0.2,0.2-0.4,0.5-0.6,0.8c-0.2,0.3-0.3,0.6-0.3,0.9s-0.2,0.8-0.5,1.6c-0.3,0.9-0.6,1.9-0.9,3.2c-0.4,1.3-0.8,2.2-1.3,2.9
		c-0.5,0.7-0.9,1.1-1.3,1.4c-0.4,0.2-0.9,0.2-1.4-0.1c-0.5-0.2-1-0.6-1.3-1.1c-0.2-0.2-0.4-0.7-0.7-1.4s-0.4-1.1-0.3-1.1
		c0.1-0.2,0.4-0.4,0.8-0.3c0.4,0,0.7,0.1,0.7,0.3c0.1,0.4,0.3,0.8,0.5,1c0.2,0.3,0.4,0.5,0.6,0.6s0.4,0.1,0.5,0
		c0.3-0.2,0.5-0.4,0.6-0.7c0.1-0.3,0.3-0.8,0.6-1.6c0.6-2,1-3.2,1.1-3.5c-0.1,0.1-0.3,0.2-0.5,0.4c-0.5,0.4-0.8,0.6-1.1,0.7
		c-0.1,0.1-0.3,0.2-0.7,0.2c-0.8,0-1.5-0.2-1.8-0.7c-0.1-0.2-0.3-0.5-0.4-0.8c-0.3-0.7-0.1-1.7,0.4-3.1c0.3-0.6,0.8-1.3,1.5-2.1
		C313.6,117.2,314.2,116.7,314.7,116.6z M316.4,118.9c0-0.5-0.3-0.7-0.8-0.6c-0.5,0.1-1.1,0.5-1.7,1.3c-0.2,0.3-0.5,0.7-0.6,1.2
		c-0.3,1-0.3,1.6,0.1,1.7c0.5,0,0.9-0.1,1.2-0.3c0.3-0.2,0.6-0.6,1-1.2C316.2,120.4,316.5,119.6,316.4,118.9z"/>
	<path class="st1" d="M333.2,122.8c0.5-0.7,0.7-1.1,0.7-1.2c0-0.1,0.1-0.3,0.3-0.5c0.3-0.3,1-1.7,2.2-4.1c1-3.2,1.6-5.1,1.7-5.6
		c0.1-0.5,0.2-1,0.4-1.5c0.2-0.2,0.4-0.2,0.6-0.1c0.2,0.1,0.4,0.2,0.5,0.2s0.2,0.1,0.4,0.2c0.1,0.1,0.2,0.1,0.2,0.1
		c0.1,0.2,0.2,0.5,0.1,0.8c-0.4,2-0.8,3.4-1.1,4.2c-0.3,0.8-0.5,1.4-0.7,1.9c-0.2,0.5-0.4,0.9-0.5,1.1c-0.1,0.3-0.3,0.7-0.5,1.3
		c-0.3,0.6-0.4,1-0.5,1.2v0.1c-0.2,0.1-0.4,0.3-0.5,0.6c-0.2,0.3-0.3,0.5-0.3,0.5l-0.2,0.6c0,0.1-0.1,0.2-0.3,0.3s-0.3,0.2-0.3,0.3
		c0,0.1-0.1,0.2-0.1,0.2c-0.6,0.8-1.3,1.7-2.2,2.4c-0.9,0.8-1.6,1.3-2.2,1.5c-0.6,0.2-1.1,0.3-1.5,0.2c-1.3-0.3-2.1-1.2-2.5-2.5
		c-0.4-1.3-0.3-3.3,0.2-5.9c0.2-1.2,0.7-2.7,1.3-4.3c0.6-1.7,1.2-3.1,1.9-4.3c0.7-1.2,1.3-1.7,1.8-1.6c0.6,0.1,0.9,0.4,1.1,0.9
		c0.2,0.5,0.1,0.9-0.4,1.1c-0.2,0.2-0.5,0.7-0.8,1.4c-0.4,0.7-0.6,1.2-0.7,1.4c-1,3-1.7,5.2-1.9,6.7c-0.3,1.4-0.5,2.2-0.5,2.4
		c0,0.3-0.1,0.6-0.1,1.1c0,0.1,0.1,0.1,0.1,0.2c0.1,0.1,0.1,0.2,0.1,0.2c0,0.1,0.1,0.1,0.1,0.2c0,0.1,0.1,0.1,0.3,0.2
		c0.6,0.3,1.2,0.2,1.8-0.1c0.1-0.2,0.3-0.3,0.5-0.4c0,0.1,0.1,0.1,0.1,0.1c0,0,0.1-0.1,0.1-0.2c0-0.1,0.1-0.2,0.2-0.4
		C332.4,123.9,332.8,123.5,333.2,122.8z"/>
	<path class="st1" d="M343.5,115.8c0.2-0.1,0.6-0.2,1-0.2c0.4,0,0.7,0,0.8,0.1c0.1,0,0.2,0,0.2,0c0.2,0,0.5,0.2,0.8,0.5
		c0.3,0.3,0.5,0.6,0.6,0.8c0,1.2-0.1,1.8-0.3,1.8c-0.1,0-0.1,0-0.1,0.1c0,0.2-0.2,0.5-0.6,0.8c-0.4,0.3-0.8,0.4-1.1,0.4
		c-0.2,0-0.4-0.2-0.5-0.3c-0.2-0.2-0.3-0.4-0.3-0.5c0,0,0.2-0.2,0.5-0.6c0.3-0.4,0.5-0.8,0.5-1.1c0-0.1-0.1-0.2-0.4-0.2
		c-0.9,0.4-1.6,0.8-2,1.2c-0.1,0.2-0.2,0.3-0.3,0.3c0,0,0,0,0,0c0,0-0.1,0.1-0.3,0.2c-0.2,0.2-0.3,0.4-0.5,0.7s-0.3,0.5-0.3,0.7
		l0,0.1v0.1c0,0,0,0.1,0,0.2c0,0.3,0.4,0.7,1.1,1.2c0.7,0.5,1.2,0.9,1.5,1.2s0.4,0.5,0.5,0.7c0.1,0.3,0.2,0.6,0.2,0.8
		c0,0.6-0.3,1-0.9,1.3s-1.3,0.5-2.1,0.5s-1.5-0.2-2.1-0.5c-0.6-0.3-0.9-0.7-0.9-0.9c0-0.3,0.1-0.4,0.3-0.5c0.2-0.1,0.4-0.2,0.7-0.1
		c0.3,0.1,0.8,0.1,1.3,0.2c0.3,0,0.6,0,0.9-0.1c0.3-0.1,0.4-0.1,0.4-0.2c0-0.1-0.1-0.2-0.2-0.3c-0.1-0.1-0.3-0.2-0.4-0.2
		c0-0.1-0.3-0.3-1-0.8c-0.7-0.5-1-0.8-1-1c0,0,0,0,0,0V122c-0.1,0-0.2-0.2-0.3-0.5s-0.1-0.6-0.1-0.9c0-0.9,0.5-1.8,1.6-2.8
		C341.3,116.8,342.4,116.1,343.5,115.8z"/>
	<path class="st1" d="M352.1,116.3c1,0,1.7,0.2,2.1,0.7c0.4,0.5,0.7,0.9,0.7,1.3v0.2c0,0.3-0.2,0.9-0.7,1.7
		c-0.2,0.4-0.6,0.8-1.1,1.1c-0.5,0.3-1,0.5-1.4,0.5c-0.5,0-0.9,0-1.4-0.1s-0.7-0.1-0.8-0.1s-0.2,0.1-0.3,0.2c-0.1,0.2-0.2,0.5-0.2,1
		c0,0.5,0.2,0.8,0.4,1c0.2,0.2,0.5,0.3,0.8,0.3c0.3,0,0.6-0.1,0.8-0.2c0.3-0.1,0.6-0.3,0.9-0.6c0.4-0.3,0.6-0.4,0.8-0.4
		s0.4,0.1,0.6,0.3c0.2,0.2,0.3,0.4,0.3,0.6c0,0.4-0.4,0.9-1.2,1.5c-0.7,0.6-1.5,0.9-2.5,0.9c-0.9,0-1.7-0.3-2.2-0.8
		c-0.6-0.5-0.9-1.3-0.9-2.3c0-0.4,0-0.8,0.1-1.2c0-0.4,0.2-1,0.4-1.6c0.2-0.6,0.6-1.3,1.2-2c0.5-0.7,1.1-1.2,1.8-1.5
		S351.6,116.3,352.1,116.3z M351.9,118.1c-0.2,0-0.5,0.2-0.9,0.5s-0.8,0.8-1.1,1.2c0,0.2,0.3,0.3,0.8,0.3s0.8,0,1-0.1
		s0.4-0.3,0.7-0.6s0.5-0.6,0.5-0.7c0-0.4-0.3-0.6-0.8-0.6H351.9z"/>
	<path class="st1" d="M358.5,116.2c0.4,0,0.6,0.1,0.7,0.2c0.4,0.3,0.1,1.3-0.8,3c-0.3,0.6-0.4,0.8-0.3,0.8c0.2-0.3,0.6-0.7,1.3-1.3
		c0.7-0.5,1.1-0.9,1.3-1c0.2-0.1,0.4-0.2,0.6-0.3c0.2-0.1,0.3-0.1,0.4-0.1c0.4-0.2,0.8-0.3,1.2-0.2s0.7,0.2,0.8,0.4
		c0,0.2,0.1,0.3,0.3,0.4l0.1,0.1c0,0.1-0.1,0.3-0.3,0.5c-0.2,0.2-0.5,0.3-0.7,0.3s-0.5,0.1-0.9,0.3c-0.3,0.2-0.7,0.3-1,0.5
		c-0.3,0.2-0.6,0.3-0.7,0.4c-0.2,0.1-0.4,0.2-0.6,0.4c-0.5,0.3-0.9,0.7-1.2,1.1c-0.4,0.4-0.7,0.7-0.8,0.9c-0.1,0.1-0.2,0.4-0.4,0.9
		c-0.1,0.5-0.2,0.8-0.2,0.9c-0.1,0.3-0.2,0.5-0.4,0.8c-0.2,0.2-0.4,0.4-0.5,0.4s-0.4,0-0.7-0.3c-0.5-0.4-0.7-0.8-0.7-1.2
		c0.1-0.4,0.2-1.3,0.5-2.4c0-0.4,0.3-1.3,0.8-2.6c0.5-1.3,0.9-2.2,1.2-2.7C357.8,116.3,358.1,116.2,358.5,116.2z"/>
	<path class="st1" d="M379.4,124.6c0.4,0,1.3-2.4,2.4-7.1c0.3-0.9,0.5-2,0.6-3.3c0.5-2,0.8-3.1,0.8-3.3v-0.5c0.1,0,0.1-0.1,0.2-0.3
		c0.1-0.2,0.1-0.5,0.1-0.8s0.1-0.6,0.3-0.8c0.3-0.4,0.6-0.6,1.1-0.4c0.5,0.1,0.8,0.4,0.8,0.8s-0.2,1.7-0.7,3.8
		c0,0.2-0.1,0.8-0.3,1.7c-0.2,0.9-0.3,1.5-0.4,1.9c-0.2,1.1-0.3,1.6-0.4,1.6c-0.7,2.9-1.5,5.6-2.6,8c-0.4,0.9-0.9,1.5-1.5,1.8
		c-0.6,0.2-1.2,0-1.7-0.6c-0.5-0.6-0.9-1.3-1.1-2s-0.4-1.6-0.6-2.9c-0.3-2.2-0.5-4.1-0.5-5.7c0-1.6,0-2.4-0.2-2.4
		c-0.1,0-0.4,0.4-0.7,1.3c-0.3,0.8-0.6,1.8-1.1,2.8s-0.6,1.6-0.7,1.7c-0.3,0.6-0.5,1.2-0.7,1.8c-0.7,1.8-1.1,3.2-1.4,4.3
		c-0.3,1.1-0.5,1.9-0.6,2.2c-0.1,0.3-0.2,0.5-0.4,0.6s-0.4,0-0.8-0.2c-0.4-0.2-0.7-0.6-0.8-1c-0.1-0.4,0-0.9,0.1-1.4
		c0.1-0.4,0.3-1,0.6-1.8c0.3-0.8,0.5-1.5,0.7-2.2c0.6-1.3,1-2.5,1.4-3.6c0-0.1,0.4-1,1.2-2.8c0.6-1.8,1.4-3.4,2.4-4.9
		c0.3-0.5,0.8-0.7,1.4-0.6c0.6,0.1,1,0.3,1.2,0.8c0.3,0.8,0.5,2.4,0.5,4.9c0,0.7,0,1.2,0,1.5s0,0.7,0.1,1.2c0,0.8,0.1,1.6,0.3,2.3
		c0,0.2,0.1,0.7,0.2,1.4C379.1,123.8,379.3,124.6,379.4,124.6z"/>
	<path class="st1" d="M389.9,116.3c1,0,1.7,0.2,2.1,0.7c0.4,0.5,0.7,0.9,0.7,1.3v0.2c0,0.3-0.2,0.9-0.7,1.7
		c-0.2,0.4-0.6,0.8-1.1,1.1c-0.5,0.3-1,0.5-1.4,0.5c-0.5,0-0.9,0-1.4-0.1s-0.7-0.1-0.8-0.1s-0.2,0.1-0.3,0.2c-0.1,0.2-0.2,0.5-0.2,1
		c0,0.5,0.2,0.8,0.4,1c0.2,0.2,0.5,0.3,0.8,0.3c0.3,0,0.6-0.1,0.8-0.2c0.3-0.1,0.6-0.3,0.9-0.6c0.4-0.3,0.6-0.4,0.8-0.4
		s0.4,0.1,0.6,0.3c0.2,0.2,0.3,0.4,0.3,0.6c0,0.4-0.4,0.9-1.2,1.5c-0.7,0.6-1.5,0.9-2.5,0.9c-0.9,0-1.7-0.3-2.2-0.8
		c-0.6-0.5-0.9-1.3-0.9-2.3c0-0.4,0-0.8,0.1-1.2c0-0.4,0.2-1,0.4-1.6c0.2-0.6,0.6-1.3,1.2-2c0.5-0.7,1.1-1.2,1.8-1.5
		S389.5,116.3,389.9,116.3z M389.7,118.1c-0.2,0-0.5,0.2-0.9,0.5s-0.8,0.8-1.1,1.2c0,0.2,0.3,0.3,0.8,0.3s0.8,0,1-0.1
		s0.4-0.3,0.7-0.6s0.5-0.6,0.5-0.7c0-0.4-0.3-0.6-0.8-0.6H389.7z"/>
	<path class="st1" d="M398.2,116.3c1,0,1.7,0.2,2.1,0.7c0.4,0.5,0.7,0.9,0.7,1.3v0.2c0,0.3-0.2,0.9-0.7,1.7
		c-0.2,0.4-0.6,0.8-1.1,1.1c-0.5,0.3-1,0.5-1.4,0.5c-0.5,0-0.9,0-1.4-0.1s-0.7-0.1-0.8-0.1s-0.2,0.1-0.3,0.2c-0.1,0.2-0.2,0.5-0.2,1
		c0,0.5,0.2,0.8,0.4,1c0.2,0.2,0.5,0.3,0.8,0.3c0.3,0,0.6-0.1,0.8-0.2c0.3-0.1,0.6-0.3,0.9-0.6c0.4-0.3,0.6-0.4,0.8-0.4
		s0.4,0.1,0.6,0.3c0.2,0.2,0.3,0.4,0.3,0.6c0,0.4-0.4,0.9-1.2,1.5c-0.7,0.6-1.5,0.9-2.5,0.9c-0.9,0-1.7-0.3-2.2-0.8
		c-0.6-0.5-0.9-1.3-0.9-2.3c0-0.4,0-0.8,0.1-1.2c0-0.4,0.2-1,0.4-1.6c0.2-0.6,0.6-1.3,1.2-2c0.5-0.7,1.1-1.2,1.8-1.5
		S397.8,116.3,398.2,116.3z M398,118.1c-0.2,0-0.5,0.2-0.9,0.5s-0.8,0.8-1.1,1.2c0,0.2,0.3,0.3,0.8,0.3s0.8,0,1-0.1s0.4-0.3,0.7-0.6
		s0.5-0.6,0.5-0.7c0-0.4-0.3-0.6-0.8-0.6H398z"/>
	<path class="st1" d="M409.2,126.4c-0.1,0.1-0.3,0.1-0.4,0.2c-0.1,0-0.3,0.1-0.4,0.1c-0.2,0-0.4,0-0.6-0.2c-0.2-0.1-0.3-0.3-0.4-0.5
		c-0.1-0.4-0.2-1.2-0.3-2.4l-1,0.9c-1,1-2,1.5-2.9,1.5c-0.3,0-0.6-0.3-1-0.7s-0.7-0.7-0.8-1c-0.2-0.5-0.1-1.3,0.2-2.4
		c0.3-1.1,0.8-2,1.4-2.7c0.5-0.8,1.2-1.3,2-1.6c0.8-0.2,1.6-0.2,2.2,0.2c0.5,0.3,0.8,0.2,0.9-0.1c0-0.1,0.2-0.8,0.7-2.1
		c0.4-1.4,1-2.9,1.8-4.5c0.3-0.7,0.7-1,1-1c0.2,0,0.5,0.1,0.7,0.2c0.3,0.1,0.4,0.3,0.5,0.6c0.1,0.3,0.1,0.6-0.1,0.9
		c-0.4,0.7-1,2-1.6,3.7c-0.6,1.7-1.1,3-1.3,4c-0.3,1-0.4,2.1-0.5,3.6c-0.1,1.4,0,2.2,0.1,2.4c0,0.3,0,0.5,0,0.6
		C409.4,126.2,409.3,126.3,409.2,126.4z M403.6,123.7c0.1,0.1,0.4,0,0.7-0.1c0.3-0.1,0.8-0.4,1.2-0.7c0.5-0.4,0.8-0.7,1.1-1
		c0.2-0.3,0.4-0.6,0.5-1.1c0.1-0.4,0-0.8-0.4-1.2c-0.5-0.4-1-0.2-1.7,0.3c-0.8,0.8-1.4,1.9-1.7,3.3
		C403.4,123.5,403.4,123.7,403.6,123.7z"/>
</g>
<g>
	<path class="st1" d="M262.2,151.3c0.8-0.5,1.3-0.6,1.6-0.5c2,0.4,3.3,1.7,3.7,3.9c0.3,1.4,0.3,2.6,0.1,3.7
		c-0.2,1.1-0.9,2.5-1.9,4.3c-1.3,2.6-2.8,4.3-4.5,5.4s-3.1,1.1-4.2,0.3c-1.3-1-2-1.8-2-2.4c-0.1-0.9,0-2.2,0.3-3.9
		c0.1-0.1,0.1-0.2,0.1-0.4c0-0.2,0-0.3,0-0.5s0.1-0.4,0.2-0.7c0.1-0.3,0.2-0.7,0.2-1c0.7-2.3,1.7-4.1,2.8-5.5
		C259.7,152.8,260.9,151.9,262.2,151.3z M258,166.5c0.3,0.2,0.7,0.2,1.1,0.2c0.4-0.1,0.7-0.2,1-0.4c0.3-0.2,0.8-0.8,1.7-1.8
		c0.9-1,1.4-1.8,1.8-2.3c0.3-0.6,0.7-1.5,1-2.7c0.3-1.2,0.5-1.9,0.5-2.1s0-0.9,0-2c0-0.8-0.2-1.3-0.4-1.6c-0.5-0.6-1.2-0.8-1.9-0.5
		c-0.5,0.2-1.2,0.8-2.1,1.9c-0.9,1.1-1.4,1.8-1.4,2.1c0,0.1,0,0.3-0.1,0.4c-0.4,0.5-0.9,1.4-1.3,2.9c-0.6,1.9-0.8,3.4-0.7,4.6
		C257.1,165.7,257.4,166.2,258,166.5z"/>
	<path class="st1" d="M270.3,157.5c0.4,0,0.6,0.1,0.7,0.2c0.4,0.3,0.1,1.3-0.8,3c-0.3,0.6-0.4,0.8-0.3,0.8c0.2-0.3,0.6-0.7,1.3-1.3
		s1.1-0.9,1.3-1c0.2-0.1,0.4-0.2,0.6-0.3s0.3-0.1,0.4-0.1c0.4-0.2,0.8-0.3,1.2-0.2c0.5,0,0.7,0.2,0.8,0.4c0,0.2,0.1,0.3,0.3,0.4
		l0.1,0.1c0,0.1-0.1,0.3-0.3,0.5s-0.5,0.3-0.7,0.3s-0.5,0.1-0.9,0.3c-0.3,0.2-0.7,0.3-1,0.5c-0.3,0.2-0.6,0.3-0.7,0.4
		c-0.2,0.1-0.4,0.2-0.6,0.4c-0.5,0.3-0.9,0.7-1.2,1.1c-0.4,0.4-0.7,0.7-0.8,0.9c-0.1,0.1-0.2,0.4-0.4,0.9c-0.1,0.5-0.2,0.8-0.2,0.9
		c-0.1,0.3-0.2,0.5-0.4,0.8c-0.2,0.2-0.4,0.4-0.5,0.4s-0.4,0-0.7-0.3c-0.5-0.4-0.7-0.8-0.7-1.2c0.1-0.4,0.2-1.3,0.5-2.5
		c0-0.4,0.3-1.3,0.8-2.6s0.9-2.2,1.2-2.7C269.7,157.6,269.9,157.5,270.3,157.5z"/>
	<path class="st1" d="M283.1,161.4c-0.2,0.3-0.4,0.4-0.5,0.4c-0.2,0-0.2,0-0.2,0.1c0,0.1-0.1,0.1-0.3,0.1c-0.2,0-0.4,0-0.5-0.1
		s-0.3-0.2-0.3-0.3c0-0.1,0.1-0.4,0.2-0.9c0.1-0.5,0.1-0.9,0-1c-0.1-0.2-0.3-0.2-0.6,0c-0.6,0.3-1.1,0.8-1.4,1.4s-0.6,1.3-0.8,2.1
		c-0.2,0.9-0.3,1.4-0.3,1.6c0,0.3,0.1,0.5,0.2,0.6c0.5,0.1,0.9,0.1,1.3-0.1c0.4-0.2,0.9-0.5,1.5-1c0,0,0.1-0.1,0.2-0.3
		c0.1-0.2,0.2-0.3,0.3-0.3c0.1-0.2,0.3-0.3,0.6-0.3h0.5c0.3,0.1,0.5,0.3,0.7,0.6c0.1,0.1,0.1,0.2,0,0.3l-0.1,0.1
		c0.1,0.1-0.2,0.5-0.9,1.2c-0.6,0.7-1.1,1-1.2,1s-0.3,0-0.3,0.1c0,0.1-0.3,0.2-0.8,0.5s-0.9,0.4-1.2,0.5c-0.8,0.1-1.5,0-2.1-0.5
		c-0.6-0.4-1-1.1-1-1.8c-0.1-0.8,0.1-1.7,0.4-2.9c0.4-1.1,0.8-2.1,1.4-2.8c0.8-1,1.5-1.6,2-1.8c0.5-0.2,1-0.3,1.5-0.3
		c0.9,0.2,1.4,0.5,1.4,0.8l0.1,0.1c0.1,0,0.3,0.3,0.5,0.8s0.2,0.9,0.1,1.1C283.4,160.8,283.3,161.1,283.1,161.4z"/>
	<path class="st1" d="M292.1,164.6l0.1-1.9c0-0.4-0.1-0.5-0.3-0.5c-0.3,0-0.9,0.3-1.7,0.9c-0.8,0.6-1.7,1.4-2.5,2.3
		c-0.5,0.8-1,1.2-1.5,1.2c-0.3,0-0.6-0.2-0.8-0.5c-0.2-0.3-0.4-0.6-0.4-1c0-0.4,0.2-1.4,0.7-3c0-0.4,0.2-0.8,0.4-1.3
		c0.2-0.5,0.4-0.9,0.5-1.4c0.1-0.4,0.4-1.3,0.9-2.7c0.5-1.3,0.8-2.3,1-2.8s0.3-0.9,0.4-1.2c0.1-0.3,0.3-0.7,0.4-1
		c0-0.1,0.1-0.3,0.3-0.4s0.4-0.2,0.6-0.2c0.2,0,0.4,0.2,0.7,0.5c0.4,0.6,0.5,1.2,0.2,1.8c-0.3,0.6-0.7,1.8-1.4,3.7
		c-0.6,1.9-1.1,3-1.3,3.5l-0.3,0.5l-0.4,1.5c0,0,0,0.1,0,0.1c0.8-0.8,1.4-1.4,2-1.8c0.6-0.4,0.9-0.7,1-0.8c0.1-0.1,0.3-0.3,0.7-0.5
		s0.9-0.4,1.5-0.4c0.3,0,0.6,0.2,1,0.6c0.4,0.4,0.5,0.9,0.5,1.4v0.4c0,0.4-0.2,1.3-0.5,2.8c0.1,0,0.2,0,0.4,0c0.3,0,0.6,0.1,0.8,0.2
		c0.2,0.1,0.3,0.2,0.3,0.2c0,0,0,0.1,0,0.1c0,0.4-0.2,0.7-0.6,1c-0.4,0.3-0.8,0.4-1.2,0.5c-0.5,0-0.8-0.2-1.1-0.5
		C292.2,165.5,292.1,165.1,292.1,164.6z"/>
	<path class="st1" d="M302,157.6c1,0,1.7,0.2,2.1,0.7c0.4,0.5,0.7,0.9,0.7,1.3v0.2c0,0.3-0.2,0.9-0.7,1.7c-0.2,0.4-0.6,0.8-1.1,1.1
		c-0.5,0.3-1,0.5-1.4,0.5c-0.5,0-0.9,0-1.4-0.1c-0.4-0.1-0.7-0.1-0.8-0.1s-0.2,0.1-0.3,0.2c-0.1,0.2-0.2,0.5-0.2,1
		c0,0.5,0.2,0.8,0.4,1c0.2,0.2,0.5,0.3,0.8,0.3c0.3,0,0.6-0.1,0.8-0.2c0.3-0.1,0.6-0.3,0.9-0.6c0.4-0.3,0.6-0.4,0.8-0.4
		s0.4,0.1,0.6,0.3c0.2,0.2,0.3,0.4,0.3,0.6c0,0.4-0.4,0.9-1.2,1.5c-0.7,0.6-1.5,0.9-2.5,0.9c-0.9,0-1.7-0.3-2.2-0.8
		c-0.6-0.5-0.9-1.3-0.9-2.3c0-0.4,0-0.8,0.1-1.2c0-0.4,0.2-1,0.4-1.6c0.2-0.6,0.6-1.3,1.2-2c0.5-0.7,1.1-1.2,1.8-1.5
		S301.5,157.6,302,157.6z M301.8,159.4c-0.2,0-0.5,0.2-0.9,0.5s-0.8,0.8-1.1,1.2c0,0.2,0.3,0.3,0.8,0.3s0.8,0,1-0.1
		c0.1-0.1,0.4-0.3,0.7-0.6s0.5-0.6,0.5-0.7c0-0.4-0.3-0.6-0.8-0.6H301.8z"/>
	<path class="st1" d="M310.4,157.1c0.2-0.1,0.6-0.2,1-0.2c0.4,0,0.7,0,0.8,0.1c0.1,0,0.2,0,0.2,0c0.2,0,0.5,0.2,0.8,0.5
		c0.3,0.3,0.5,0.6,0.6,0.8c0,1.2-0.1,1.8-0.3,1.8c-0.1,0-0.1,0-0.1,0.1c0,0.2-0.2,0.5-0.6,0.8s-0.8,0.4-1.1,0.4
		c-0.2,0-0.4-0.2-0.5-0.3c-0.2-0.2-0.3-0.4-0.3-0.5c0,0,0.2-0.2,0.5-0.6c0.3-0.4,0.5-0.8,0.5-1.1c0-0.1-0.1-0.2-0.4-0.2
		c-0.9,0.4-1.6,0.8-2,1.2c-0.1,0.2-0.2,0.3-0.3,0.3c0,0,0,0,0,0c0,0-0.1,0.1-0.3,0.2c-0.2,0.2-0.3,0.4-0.5,0.7s-0.3,0.5-0.3,0.7
		l0,0.1v0.1c0,0,0,0.1,0,0.2c0,0.3,0.4,0.7,1.1,1.2c0.7,0.5,1.2,0.9,1.5,1.2s0.4,0.5,0.5,0.7c0.1,0.3,0.2,0.6,0.2,0.8
		c0,0.6-0.3,1-0.9,1.3s-1.3,0.5-2.1,0.5s-1.5-0.2-2.1-0.5c-0.6-0.3-0.9-0.7-0.9-0.9c0-0.3,0.1-0.4,0.3-0.5c0.2-0.1,0.4-0.2,0.7-0.1
		c0.3,0.1,0.8,0.1,1.3,0.2c0.3,0,0.6,0,0.9-0.1s0.4-0.1,0.4-0.2s-0.1-0.2-0.2-0.3c-0.1-0.1-0.3-0.2-0.4-0.2c0-0.1-0.3-0.3-1-0.8
		c-0.7-0.5-1-0.8-1-1c0,0,0,0,0,0v-0.1c-0.1,0-0.2-0.2-0.3-0.5c-0.1-0.3-0.1-0.6-0.1-0.9c0-0.9,0.5-1.8,1.6-2.8
		C308.3,158.1,309.3,157.4,310.4,157.1z"/>
	<path class="st1" d="M314.7,158.4c-0.1-0.1-0.1-0.2-0.1-0.3c0-0.1,0.1-0.3,0.2-0.5c0.1-0.2,0.3-0.4,0.4-0.4c0.1,0,0.4,0,0.7,0
		c0.4,0,0.7,0,0.8-0.1c0.1,0,0.2-0.2,0.3-0.3c0.1-0.2,0.2-0.5,0.5-0.9c0.6-1.1,1-1.8,1.2-2c0.2-0.2,0.5-0.3,0.8-0.3s0.6,0,0.9,0.2
		c0.2,0.3,0.3,0.7,0,1c-0.1,0.2-0.3,0.5-0.5,0.8c-0.2,0.3-0.4,0.6-0.5,0.7c-0.3,0.4-0.3,0.6-0.1,0.6s0.7,0,1.5-0.1s1.2,0.2,1.3,0.9
		c0,0.4,0,0.6-0.1,0.7c-0.1,0.1-0.5,0.1-1.1,0.1c-0.5,0.1-1,0.1-1.5,0.1c-0.5,0-0.8,0-0.9,0.1c-0.2,0-0.4,0.2-0.5,0.5
		c0,0-0.1,0.1-0.2,0.3c-0.1,0.2-0.3,0.6-0.6,1.2c-0.4,1.3-0.8,2.6-1,3.9c0,0.3,0,0.6,0,0.7s0.3,0.2,0.8,0.3c0.8,0.1,1.7-0.2,2.6-0.7
		l0.7-0.4c0.1-0.2,0.3-0.1,0.5,0.3c0.1,0.1,0.1,0.2,0.1,0.3c0,0.6-0.3,1.2-1,1.6c-0.7,0.4-1.4,0.7-2.1,0.8c-0.7,0.1-1.3,0.1-1.7,0.1
		c-0.4-0.1-0.7-0.3-1.1-0.7s-0.5-0.7-0.6-1l-0.1-0.2c-0.1-0.1-0.1-0.5-0.1-1.3c0-0.8,0.1-1.3,0.2-1.6c0.1-0.4,0.4-1.2,0.8-2.5
		l0.7-1.4l-1-0.3C314.9,158.5,314.8,158.5,314.7,158.4z"/>
	<path class="st1" d="M325.6,157.5c0.4,0,0.6,0.1,0.7,0.2c0.4,0.3,0.1,1.3-0.8,3c-0.3,0.6-0.4,0.8-0.3,0.8c0.2-0.3,0.6-0.7,1.3-1.3
		s1.1-0.9,1.3-1c0.2-0.1,0.4-0.2,0.6-0.3s0.3-0.1,0.4-0.1c0.4-0.2,0.8-0.3,1.2-0.2c0.5,0,0.7,0.2,0.8,0.4c0,0.2,0.1,0.3,0.3,0.4
		l0.1,0.1c0,0.1-0.1,0.3-0.3,0.5s-0.5,0.3-0.7,0.3s-0.5,0.1-0.9,0.3c-0.3,0.2-0.7,0.3-1,0.5c-0.3,0.2-0.6,0.3-0.7,0.4
		c-0.2,0.1-0.4,0.2-0.6,0.4c-0.5,0.3-0.9,0.7-1.2,1.1c-0.4,0.4-0.7,0.7-0.8,0.9c-0.1,0.1-0.2,0.4-0.4,0.9c-0.1,0.5-0.2,0.8-0.2,0.9
		c-0.1,0.3-0.2,0.5-0.4,0.8c-0.2,0.2-0.4,0.4-0.5,0.4s-0.4,0-0.7-0.3c-0.5-0.4-0.7-0.8-0.7-1.2c0.1-0.4,0.2-1.3,0.5-2.5
		c0-0.4,0.3-1.3,0.8-2.6s0.9-2.2,1.2-2.7C324.9,157.6,325.2,157.5,325.6,157.5z"/>
	<path class="st1" d="M331.2,166.2c0-0.1-0.1-0.4-0.3-0.6c-0.2-0.2,0.3-1.5,1.5-3.9c0.1-0.1,0.2-0.3,0.4-0.5
		c0.2-0.2,0.3-0.4,0.3-0.4c0-0.1,0-0.1,0.1-0.2c0-0.1,0.1-0.1,0.2-0.1l0.2-0.4c0.1-0.1,0.4-0.5,1-1.1s1-1,1.4-1.2
		c0.3-0.2,0.7-0.3,1.1-0.3c0.4,0,0.7,0.1,0.9,0.3c0,0,0.1,0.1,0.3,0.3c0.3,0.2,1,0.9,2.1,1.8l-0.4,1.2c-0.4,1.1-0.3,2.1,0.3,3
		c0.2,0.3,0.4,0.6,0.8,0.6c0.4,0.1,0.6,0.2,0.6,0.5c0,0.7-0.2,1.1-0.7,1.2c-1.3,0.2-2.3-0.3-2.9-1.6c-0.2-0.3-0.4-0.7-0.4-1.1
		c-0.1,0.2-0.3,0.4-0.6,0.6c-2.3,2.3-4,3.1-5.1,2.3c0-0.1-0.2-0.2-0.4-0.4S331.2,166.3,331.2,166.2z M337,159.8
		c-0.6,0-1.6,1.2-3,3.6c-0.2,0.4-0.5,0.9-0.7,1.6c0.3,0,0.8-0.3,1.5-0.9c0.1-0.1,0.4-0.3,0.6-0.5c0.3-0.2,0.4-0.4,0.6-0.5
		c0.1-0.1,0.3-0.2,0.4-0.4c0.3-0.3,0.6-0.7,0.8-1l0.5-0.9C337.6,160.1,337.3,159.8,337,159.8z"/>
	<path class="st1" d="M342.9,158.4c-0.1-0.1-0.1-0.2-0.1-0.3c0-0.1,0.1-0.3,0.2-0.5c0.1-0.2,0.3-0.4,0.4-0.4c0.1,0,0.4,0,0.7,0
		c0.4,0,0.7,0,0.8-0.1c0.1,0,0.2-0.2,0.3-0.3c0.1-0.2,0.2-0.5,0.5-0.9c0.6-1.1,1-1.8,1.2-2c0.2-0.2,0.5-0.3,0.8-0.3s0.6,0,0.9,0.2
		c0.2,0.3,0.3,0.7,0,1c-0.1,0.2-0.3,0.5-0.5,0.8c-0.2,0.3-0.4,0.6-0.5,0.7c-0.3,0.4-0.3,0.6-0.1,0.6s0.7,0,1.5-0.1s1.2,0.2,1.3,0.9
		c0,0.4,0,0.6-0.1,0.7c-0.1,0.1-0.5,0.1-1.1,0.1c-0.5,0.1-1,0.1-1.5,0.1c-0.5,0-0.8,0-0.9,0.1c-0.2,0-0.4,0.2-0.5,0.5
		c0,0-0.1,0.1-0.2,0.3c-0.1,0.2-0.3,0.6-0.6,1.2c-0.4,1.3-0.8,2.6-1,3.9c0,0.3,0,0.6,0,0.7s0.3,0.2,0.8,0.3c0.8,0.1,1.7-0.2,2.6-0.7
		l0.7-0.4c0.1-0.2,0.3-0.1,0.5,0.3c0.1,0.1,0.1,0.2,0.1,0.3c0,0.6-0.3,1.2-1,1.6c-0.7,0.4-1.4,0.7-2.1,0.8c-0.7,0.1-1.3,0.1-1.7,0.1
		c-0.4-0.1-0.7-0.3-1.1-0.7s-0.5-0.7-0.6-1l-0.1-0.2c-0.1-0.1-0.1-0.5-0.1-1.3c0-0.8,0.1-1.3,0.2-1.6c0.1-0.4,0.4-1.2,0.8-2.5
		l0.7-1.4l-1-0.3C343,158.5,342.9,158.5,342.9,158.4z"/>
	<path class="st1" d="M350.6,165.1l0.1-0.5c0-0.1,0-0.4,0.2-0.8c0.4-0.8,0.8-2.2,1.4-4.1c0-0.2,0.1-0.3,0.4-0.3
		c0.2-0.1,0.4,0,0.7,0.2c0.3,0.2,0.5,0.5,0.7,0.8c0.2,0.2,0.2,0.6-0.1,1.2c-0.3,0.6-0.4,1.1-0.5,1.7c-0.2,0.4-0.3,0.8-0.4,1
		c-0.1,0.2-0.1,0.5-0.2,1c-0.1,0.5-0.2,0.8-0.3,0.9c-0.1,0.6-0.4,1-0.8,1.2s-0.7,0-1-0.3c-0.2-0.2-0.3-0.5-0.3-1
		C350.5,165.6,350.5,165.3,350.6,165.1z M353.1,156.6c-0.1-0.2-0.2-0.4-0.2-0.5c0-0.1,0-0.2,0.1-0.3c0.1-0.1,0.2-0.3,0.4-0.7
		c0.4-0.7,0.6-1.1,0.7-1.1c0.2-0.1,0.5-0.1,0.8,0c0.4,0.1,0.6,0.4,0.8,0.6c0.3,0.7,0.2,1.3-0.4,2c-0.2,0.3-0.6,0.5-0.9,0.6
		c-0.4,0.1-0.7,0.1-0.9-0.1C353.4,157,353.3,156.8,353.1,156.6z"/>
	<path class="st1" d="M362.6,165.1l0.1-1.7V163c0-0.3-0.2-0.5-0.3-0.5c-0.3,0-0.9,0.3-1.7,0.9c-1.5,1-2.6,2-3.3,3
		c-0.1,0.2-0.3,0.3-0.4,0.3c-0.1,0-0.2,0-0.4,0c-0.2,0-0.4-0.2-0.7-0.5c-0.3-0.3-0.5-0.6-0.6-0.8c0-0.7,0.3-1.6,1-2.9
		c0.1-0.3,0.3-0.8,0.7-1.7s0.6-1.6,0.6-2.1l0,0c0-0.2,0.1-0.2,0.2-0.2c0,0,0.2-0.1,0.5-0.1c0.3,0,0.6,0.1,0.9,0.3
		c0.3,0.2,0.5,0.6,0.5,1s-0.2,1.1-0.6,1.9c-0.4,0.9-0.6,1.3-0.6,1.3c0.3-0.2,0.8-0.6,1.5-1.1c1.7-1.4,2.8-2.1,3.2-2.1
		c0.2,0,0.5,0.1,0.9,0.4s0.6,0.5,0.7,0.7l-0.1,1.1l0,1.4c0,0.5,0,0.9-0.1,1.1l0.1,0.1c-0.1,0.1,0,0.3,0.2,0.7
		c0.2,0.4,0.3,0.7,0.3,0.8c0,0.1-0.1,0.3-0.4,0.5s-0.5,0.4-0.7,0.4C363.1,166.8,362.6,166.2,362.6,165.1z"/>
	<path class="st1" d="M370.7,157.9c0.6-0.3,1.2-0.4,1.6-0.2c0.4,0,0.9,0.3,1.4,0.7c0.8,0.8,1.3,1.4,1.4,1.7c0.2,0.5,0.1,1-0.3,1.6
		c-0.2,0.2-0.4,0.5-0.6,0.8c-0.2,0.3-0.3,0.6-0.3,0.9c0,0.3-0.2,0.8-0.5,1.6c-0.3,0.9-0.6,1.9-0.9,3.2c-0.4,1.3-0.8,2.2-1.3,2.9
		c-0.5,0.7-0.9,1.1-1.3,1.4c-0.4,0.2-0.9,0.2-1.4-0.1s-1-0.6-1.3-1.1c-0.2-0.2-0.4-0.7-0.7-1.4c-0.3-0.7-0.4-1.1-0.3-1.1
		c0.1-0.2,0.4-0.4,0.8-0.3c0.4,0,0.7,0.1,0.7,0.3c0.1,0.4,0.3,0.8,0.5,1c0.2,0.3,0.4,0.5,0.6,0.6c0.2,0.1,0.4,0.1,0.5,0
		c0.3-0.2,0.5-0.4,0.6-0.7c0.1-0.3,0.3-0.8,0.6-1.6c0.6-2,1-3.2,1.1-3.5c-0.1,0.1-0.3,0.2-0.5,0.4c-0.5,0.4-0.8,0.6-1.1,0.7
		c-0.1,0.1-0.3,0.2-0.7,0.2c-0.8,0-1.5-0.2-1.8-0.7c-0.1-0.2-0.3-0.5-0.4-0.8c-0.3-0.7-0.1-1.7,0.4-3.1c0.3-0.6,0.8-1.3,1.5-2.1
		S370.2,158,370.7,157.9z M372.4,160.2c0-0.5-0.3-0.7-0.8-0.6c-0.5,0.1-1.1,0.5-1.7,1.3c-0.2,0.3-0.5,0.7-0.6,1.2
		c-0.3,1-0.3,1.6,0.1,1.7c0.5,0,0.9-0.1,1.2-0.3c0.3-0.2,0.6-0.6,1-1.2C372.2,161.7,372.5,160.9,372.4,160.2z"/>
</g>
<g>
	<path class="st1" d="M258.7,212.4c0.1,0,0.2,0,0.3,0c0.1,0,0.2,0,0.3-0.1s0.3-0.1,0.4-0.1c0.1,0,0.3-0.1,0.4-0.1
		c0.2-0.1,0.3-0.1,0.4-0.2s0.3-0.1,0.5-0.2c1.2-0.5,1.9-0.9,2.3-1.3c0.4-0.3,0.8-0.5,1-0.5c0.2-0.1,0.4,0,0.5,0.2
		c0.1,0.2,0.2,0.4,0.2,0.7s-0.2,0.6-0.5,0.9c-0.3,0.3-0.7,0.6-1.1,0.9c-0.2,0.2-0.6,0.4-1.2,0.6c-0.6,0.4-1.3,0.8-2.2,1.1
		c-0.8,0.3-1.5,0.4-2.1,0.3c-1.3-0.5-2.1-1.2-2.5-2c-0.3-0.9-0.5-1.9-0.4-3.1c0-1.5,0.3-2.9,0.8-4.2c0,0,0.1-0.3,0.3-0.8
		s0.4-0.9,0.4-1c0.3-0.6,0.8-1.5,1.5-2.5c0.9-1.4,1.6-2.4,2.2-2.9c0.5-0.5,1.3-1.2,2.4-2c0.4-0.3,0.8-0.5,1.4-0.5
		c0.6-0.1,1.1,0,1.7,0.3c0.6,0.3,1,0.7,1.2,1.3c0.4,0.7,0.3,1.6,0,2.9c-0.4,1.3-0.9,2.3-1.6,2.9c-0.5,0.3-1.1,0.2-1.7-0.4
		c-0.2-0.4-0.3-0.6-0.2-0.6s0.1,0,0.1,0c0.1-0.2,0.4-0.5,0.7-1.1s0.5-0.9,0.5-1.1c0.1-0.2,0.1-0.4,0.2-0.6c0-0.2,0.1-0.3,0.1-0.4
		s0-0.2,0-0.3c0-0.1,0-0.2,0-0.2c0,0,0-0.1,0-0.2c0-0.1-0.1-0.2-0.2-0.3c-0.1-0.1-0.4,0-0.9,0.2c-0.8,0.3-1.8,1.3-2.9,2.8
		c-1.4,1.9-2.3,3.4-2.7,4.4l-0.3,0.6c0,0.3,0,0.6-0.3,1.1c-0.3,1.2-0.4,2.2-0.3,3.2c0.1,1.2,0.4,1.9,0.9,2.1
		C258.5,212.4,258.6,212.4,258.7,212.4z"/>
	<path class="st1" d="M269.3,204.9c0.8-0.7,1.6-1.1,2.2-1.3c1-0.2,1.7-0.1,2.1,0.3c0.6,0.3,1,0.9,1.1,1.8c0.1,1.4-0.3,2.8-1.4,4.3
		c-0.6,0.9-1.5,1.7-2.5,2.3c-0.4,0.3-1.2,0.5-2.3,0.5c-0.3,0-0.6-0.2-1-0.5c-0.7-0.8-1.1-1.5-1-2.1l0-0.6c-0.1-0.1-0.1-0.1-0.1-0.2
		c0,0,0.1-0.1,0.1-0.1c0.1,0,0.1-0.1,0.1-0.2c0-0.2,0-0.5,0.2-0.9s0.3-0.9,0.6-1.2C268.1,206.1,268.7,205.4,269.3,204.9z
		 M272.2,208.1c0-0.1,0.1-0.2,0.1-0.4s0.1-0.3,0.2-0.4c0.1-0.1,0.1-0.4,0.1-0.8c0-0.4-0.1-0.7-0.2-0.7c-0.2-0.1-0.3-0.1-0.4-0.1
		c-0.1,0-0.3,0.1-0.6,0.3c-1.3,1.1-2,2.2-2.3,3.4c0,0.4,0,0.7,0.1,0.9c0.1,0.2,0.4,0.3,0.7,0.2c0.3-0.1,0.6-0.3,0.9-0.5
		s0.4-0.4,0.5-0.5s0.2-0.2,0.2-0.2c0.1-0.1,0.1-0.2,0.2-0.3c0.1-0.1,0.1-0.2,0.1-0.3c0-0.1,0.1-0.2,0.1-0.3
		C272.1,208.3,272.1,208.2,272.2,208.1z"/>
	<path class="st1" d="M282.8,210.6l0.1-1.7v-0.4c0-0.3-0.2-0.5-0.3-0.5c-0.3,0-0.9,0.3-1.7,0.9c-1.5,1-2.6,2-3.3,3
		c-0.1,0.2-0.3,0.3-0.4,0.3c-0.1,0-0.2,0-0.4,0c-0.2,0-0.4-0.2-0.7-0.5c-0.3-0.3-0.5-0.6-0.6-0.8c0-0.7,0.3-1.6,1-2.9
		c0.1-0.3,0.3-0.8,0.7-1.7c0.4-0.9,0.6-1.6,0.6-2.1l0,0c0-0.2,0.1-0.2,0.2-0.2c0,0,0.2-0.1,0.5-0.1c0.3,0,0.6,0.1,0.9,0.3
		c0.3,0.2,0.5,0.6,0.5,1c0,0.4-0.2,1.1-0.6,1.9c-0.4,0.9-0.6,1.3-0.6,1.3c0.3-0.2,0.8-0.6,1.5-1.1c1.7-1.4,2.8-2.1,3.2-2.1
		c0.2,0,0.5,0.1,0.9,0.4s0.6,0.5,0.7,0.7l-0.1,1.1l0,1.4c0,0.5,0,0.9-0.1,1.1l0.1,0.1c-0.1,0.1,0,0.3,0.2,0.7
		c0.2,0.4,0.3,0.7,0.3,0.8c0,0.1-0.1,0.3-0.4,0.5s-0.5,0.4-0.7,0.4C283.4,212.4,282.8,211.8,282.8,210.6z"/>
	<path class="st1" d="M294.2,206.9c-0.2,0.3-0.4,0.4-0.5,0.4c-0.2,0-0.2,0-0.2,0.1s-0.1,0.1-0.3,0.1c-0.2,0-0.4,0-0.5-0.1
		s-0.3-0.2-0.3-0.3c0-0.1,0.1-0.4,0.2-0.9c0.1-0.5,0.1-0.9,0-1c-0.1-0.2-0.3-0.2-0.6,0c-0.6,0.3-1.1,0.8-1.4,1.4
		c-0.3,0.6-0.6,1.3-0.8,2.1c-0.2,0.9-0.3,1.4-0.3,1.6c0,0.3,0.1,0.5,0.2,0.6c0.5,0.1,0.9,0.1,1.3-0.1c0.4-0.2,0.9-0.5,1.5-1
		c0,0,0.1-0.1,0.2-0.3s0.2-0.3,0.3-0.3c0.1-0.2,0.3-0.3,0.6-0.3h0.5c0.3,0.1,0.5,0.3,0.7,0.6c0.1,0.1,0.1,0.2,0,0.3l-0.1,0.1
		c0.1,0.1-0.2,0.5-0.9,1.2c-0.6,0.7-1.1,1-1.2,1s-0.3,0-0.3,0.1c0,0.1-0.3,0.2-0.8,0.5s-0.9,0.4-1.2,0.5c-0.8,0.1-1.5,0-2.1-0.5
		c-0.6-0.4-1-1.1-1-1.8c-0.1-0.8,0.1-1.7,0.4-2.9c0.4-1.1,0.8-2.1,1.4-2.8c0.8-1,1.5-1.6,2-1.8c0.5-0.2,1-0.3,1.5-0.3
		c0.9,0.2,1.4,0.5,1.4,0.8l0.1,0.1c0.1,0,0.3,0.3,0.5,0.8c0.2,0.5,0.2,0.9,0.1,1.1C294.5,206.3,294.4,206.6,294.2,206.9z"/>
	<path class="st1" d="M301.3,203.1c1,0,1.7,0.2,2.1,0.7c0.4,0.5,0.7,0.9,0.7,1.3v0.2c0,0.3-0.2,0.9-0.7,1.7
		c-0.2,0.4-0.6,0.8-1.1,1.1c-0.5,0.3-1,0.5-1.4,0.5c-0.5,0-0.9,0-1.4-0.1c-0.4-0.1-0.7-0.1-0.8-0.1s-0.2,0.1-0.3,0.2
		c-0.1,0.2-0.2,0.5-0.2,1c0,0.5,0.2,0.8,0.4,1s0.5,0.3,0.8,0.3c0.3,0,0.6-0.1,0.8-0.2c0.3-0.1,0.6-0.3,0.9-0.6
		c0.4-0.3,0.6-0.4,0.8-0.4s0.4,0.1,0.6,0.3c0.2,0.2,0.3,0.4,0.3,0.6c0,0.4-0.4,0.9-1.2,1.5c-0.7,0.6-1.5,0.9-2.5,0.9
		c-0.9,0-1.7-0.3-2.2-0.8c-0.6-0.5-0.9-1.3-0.9-2.3c0-0.4,0-0.8,0.1-1.2c0-0.4,0.2-1,0.4-1.6c0.2-0.6,0.6-1.3,1.2-2
		c0.5-0.7,1.1-1.2,1.8-1.5S300.9,203.1,301.3,203.1z M301.2,205c-0.2,0-0.5,0.2-0.9,0.5s-0.8,0.8-1.1,1.2c0,0.2,0.3,0.3,0.8,0.3
		s0.8,0,1-0.1c0.1-0.1,0.4-0.3,0.7-0.6s0.5-0.6,0.5-0.7c0-0.4-0.3-0.6-0.8-0.6H301.2z"/>
	<path class="st1" d="M303.7,213.2l0.2-0.9c0.1-0.4,0.4-1.5,1-3.2s1-3,1.4-4.1c0.5-1.1,0.7-1.8,0.7-2.1c0-0.1,0.1-0.2,0.3-0.4
		c0.2-0.1,0.4-0.2,0.7-0.2c0.3,0,0.5,0.1,0.7,0.3c0.3,0.4,0.4,0.9,0.3,1.4c0,0.3-0.2,0.8-0.5,1.3c0,0,0,0.1,0,0
		c1-0.6,1.8-0.8,2.5-0.7s1.2,0.4,1.6,0.9c0.4,0.5,0.6,1.1,0.6,1.7c0,0.3-0.1,0.7-0.4,1.3c-0.3,0.6-0.5,0.9-0.6,1.1
		c-0.1,0-0.2,0.2-0.4,0.5c-0.2,0.3-0.6,0.5-1.1,0.8s-0.9,0.4-1.1,0.3c-0.1,0-0.1,0.1-0.1,0.2c0,0.1-0.3,0.2-0.8,0.4
		c-0.6,0.1-1,0.2-1.3,0.2c-0.3,0-0.5-0.1-0.7-0.2c-0.1,0.1-0.2,0.2-0.2,0.4s-0.1,0.4-0.2,0.7c-0.2,0.4-0.3,0.5-0.4,0.5
		c-0.1,0.1-0.1,0.2,0,0.3c0,0.3,0,0.6-0.1,0.8c0,0.4-0.1,0.8-0.2,1.2c0,0.2,0,0.4-0.1,0.6c-0.1,0.2-0.1,0.3-0.2,0.3
		c-0.1,0-0.2,0.3-0.2,0.7c0,0.4-0.1,0.8-0.4,1.1s-0.5,0.5-0.7,0.5c-0.3,0-0.5,0-0.6-0.2c-0.3-0.5-0.5-1-0.4-1.5
		c0.2-0.7,0.3-1.2,0.3-1.4l0.1-0.8c0.2-0.3,0.3-0.7,0.3-1.2C303.4,213.5,303.5,213.3,303.7,213.2z M306.9,210.1
		c0.2,0,0.7-0.1,1.3-0.4c0.6-0.3,1.1-0.5,1.4-0.7c0.3-0.2,0.5-0.4,0.6-0.6c0.1-0.2,0.3-0.3,0.4-0.5c0.2-0.4,0.2-0.8,0-1.2
		c-0.5-0.6-1.4-0.2-2.7,1c-0.5,0.6-0.9,1.1-1,1.7C306.7,209.8,306.7,210.1,306.9,210.1z"/>
	<path class="st1" d="M314.5,203.9c-0.1-0.1-0.1-0.2-0.1-0.3s0.1-0.3,0.2-0.5c0.1-0.2,0.3-0.4,0.4-0.4c0.1,0,0.4,0,0.7,0
		c0.4,0,0.7,0,0.8-0.1c0.1,0,0.2-0.2,0.3-0.3c0.1-0.2,0.2-0.5,0.5-0.9c0.6-1.1,1-1.8,1.2-2c0.2-0.2,0.5-0.3,0.8-0.3
		c0.3,0,0.6,0,0.9,0.2c0.2,0.3,0.3,0.7,0,1c-0.1,0.2-0.3,0.5-0.5,0.8c-0.2,0.3-0.4,0.6-0.5,0.7c-0.3,0.4-0.3,0.6-0.1,0.6
		s0.7,0,1.5-0.1c0.8-0.1,1.2,0.2,1.3,0.9c0,0.4,0,0.6-0.1,0.7s-0.5,0.1-1.1,0.1c-0.5,0.1-1,0.1-1.5,0.1c-0.5,0-0.8,0-0.9,0.1
		c-0.2,0-0.4,0.2-0.5,0.5c0,0-0.1,0.1-0.2,0.3c-0.1,0.2-0.3,0.6-0.6,1.2c-0.4,1.3-0.8,2.6-1,3.9c0,0.3,0,0.6,0,0.7s0.3,0.2,0.8,0.3
		c0.8,0.1,1.7-0.2,2.6-0.7l0.7-0.4c0.1-0.2,0.3-0.1,0.5,0.3c0.1,0.1,0.1,0.2,0.1,0.3c0,0.6-0.3,1.2-1,1.6c-0.7,0.4-1.4,0.7-2.1,0.8
		c-0.7,0.1-1.3,0.1-1.7,0.1c-0.4-0.1-0.7-0.3-1.1-0.7s-0.5-0.7-0.6-1l-0.1-0.2c-0.1-0.1-0.1-0.5-0.1-1.3c0-0.8,0.1-1.3,0.2-1.6
		c0.1-0.4,0.4-1.2,0.8-2.5l0.7-1.4l-1-0.3C314.7,204.1,314.6,204,314.5,203.9z"/>
	<path class="st1" d="M327.4,210.8v-0.4c-0.2,0.4-0.3,0.7-0.5,0.8c-0.4,0.4-0.8,0.7-1.1,0.8c-1.1,0.7-1.9,0.6-2.6-0.1
		c-0.7-0.5-0.9-1.2-0.7-2c0-1.2,0.4-2.5,1.1-3.9c0.7-1.5,1.1-2.2,1.1-2.3c0.3-0.1,0.6-0.1,0.9,0c0.4,0.1,0.6,0.3,0.6,0.5
		c0.1,0.2,0.1,0.5,0,1c-0.1,0.5-0.3,1-0.6,1.5c-0.7,1.6-1,2.6-1,3c0,0.4,0.1,0.6,0.3,0.7c0.2,0.1,0.4,0.1,0.7,0s0.6-0.4,1-1
		c0.4-0.6,0.8-1.2,1.1-2s0.5-1.5,0.6-2.1c0-0.2,0-0.4,0.1-0.6c0.1-0.2,0.3-0.4,0.5-0.5c0.1-0.1,0.2-0.2,0.3-0.2
		c0.1-0.1,0.2-0.1,0.2,0l0.4,0c0,0,0.1,0.1,0.2,0.2c0.1,0.2,0.2,0.3,0.2,0.3c0.5,0.4,0.3,1.4-0.3,3.1c-0.9,2-1,3.3-0.3,4
		c0.3,0.2,0.4,0.6,0.3,1.3c-0.1,0.2-0.3,0.4-0.7,0.4c-0.4,0-0.8-0.1-1-0.2c-0.2-0.2-0.5-0.8-0.7-1.7
		C327.5,211.2,327.4,211,327.4,210.8z"/>
	<path class="st1" d="M331.3,211.8c0-0.1-0.1-0.4-0.3-0.6c-0.2-0.2,0.3-1.5,1.5-3.9c0.1-0.1,0.2-0.3,0.4-0.5
		c0.2-0.2,0.3-0.4,0.3-0.4c0-0.1,0-0.1,0.1-0.2c0-0.1,0.1-0.1,0.2-0.1l0.2-0.4c0.1-0.1,0.4-0.5,1-1.1s1-1,1.4-1.2
		c0.3-0.2,0.7-0.3,1.1-0.3c0.4,0,0.7,0.1,0.9,0.3c0,0,0.1,0.1,0.3,0.3c0.3,0.2,1,0.9,2.1,1.8l-0.4,1.2c-0.4,1.1-0.3,2.1,0.3,3
		c0.2,0.3,0.4,0.6,0.8,0.6c0.4,0.1,0.6,0.2,0.6,0.5c0,0.7-0.2,1.1-0.7,1.2c-1.3,0.2-2.3-0.3-2.9-1.6c-0.2-0.3-0.4-0.7-0.4-1.1
		c-0.1,0.2-0.3,0.4-0.6,0.6c-2.3,2.3-4,3.1-5.1,2.3c0-0.1-0.2-0.2-0.4-0.4S331.3,211.8,331.3,211.8z M337.2,205.3
		c-0.6,0-1.6,1.2-3,3.6c-0.2,0.4-0.5,0.9-0.7,1.6c0.3,0,0.8-0.3,1.5-0.9c0.1-0.1,0.4-0.3,0.6-0.5c0.3-0.2,0.4-0.4,0.6-0.5
		c0.1-0.1,0.3-0.2,0.4-0.4c0.3-0.3,0.6-0.7,0.8-1l0.5-0.9C337.8,205.6,337.5,205.3,337.2,205.3z"/>
	<path class="st1" d="M344.2,204.7l0.2-0.9c0.3-0.5,0.7-1.7,1.4-3.5c0.7-1.8,1-2.8,1-2.9c0-0.2,0-0.3,0.1-0.4s0.2-0.2,0.3-0.2
		c0.1-0.1,0.3-0.1,0.7-0.1l0.4,0.4c0.4,0.3,0.6,0.7,0.6,0.9s-0.1,0.6-0.2,0.9c-0.1,0.3-0.4,1-0.9,2.1c-0.1,0.2-0.2,0.4-0.3,0.6
		c-0.1,0.2-0.2,0.4-0.3,0.6c-0.1,0.1-0.1,0.2-0.1,0.3s0,0.1,0,0.2c0,0.1-0.1,0.2-0.1,0.3c0,0.1-0.1,0.3-0.2,0.5
		c-0.7,1.5-1,2.3-1,2.4s0,0.3-0.1,0.4c-0.1,0-0.1,0.1-0.1,0.2v0.1c0,0.2-0.1,0.6-0.4,1.3c-0.7,2.4-1.1,3.9-1.1,4.5
		c0,0.6-0.2,1-0.6,1.2c-0.5,0.1-0.9-0.1-1.2-0.7c-0.3-0.6-0.3-1.4-0.1-2.3c0.2-0.5,0.3-0.8,0.3-1c0-0.3,0.2-0.9,0.5-1.7
		c0.3-0.8,0.5-1.3,0.6-1.5c0.2,0,0.2-0.2,0.2-0.5C343.9,205.1,344,204.8,344.2,204.7z"/>
	<path class="st1" d="M346.9,210.6l0.1-0.5c0-0.1,0-0.4,0.2-0.8c0.4-0.8,0.8-2.2,1.4-4.1c0-0.2,0.1-0.3,0.4-0.3
		c0.2-0.1,0.4,0,0.7,0.2c0.3,0.2,0.5,0.5,0.7,0.8c0.2,0.2,0.2,0.6-0.1,1.2c-0.3,0.6-0.4,1.1-0.5,1.7c-0.2,0.4-0.3,0.8-0.4,1
		c-0.1,0.2-0.1,0.5-0.2,1c-0.1,0.5-0.2,0.8-0.3,0.9c-0.1,0.6-0.4,1-0.8,1.2c-0.4,0.1-0.7,0-1-0.3c-0.2-0.2-0.3-0.5-0.3-1
		C346.7,211.1,346.8,210.8,346.9,210.6z M349.4,202.1c-0.1-0.2-0.2-0.4-0.2-0.5s0-0.2,0.1-0.3c0.1-0.1,0.2-0.3,0.4-0.7
		c0.4-0.7,0.6-1.1,0.7-1.1c0.2-0.1,0.5-0.1,0.8,0s0.6,0.4,0.8,0.6c0.3,0.7,0.2,1.3-0.4,2c-0.2,0.3-0.6,0.5-0.9,0.6
		c-0.4,0.1-0.7,0.1-0.9-0.1C349.6,202.5,349.5,202.3,349.4,202.1z"/>
	<path class="st1" d="M355.8,210.7c1.2,0,2-0.1,2.4-0.1c0.5,0,0.9,0,1,0.1c0.2,0.1,0.3,0.3,0.3,0.6c0.1,0.4,0.1,0.6,0,0.7
		c0,0-0.2,0-0.4,0c-0.4,0.1-0.9,0.1-1.4,0.1c-0.5,0-1.7,0.1-3.6,0.4c-1.8,0.2-2.9,0.3-3.1,0.3c-0.3,0-0.5-0.1-0.7-0.3
		c-0.2-0.1-0.3-0.3-0.4-0.5c0-0.2,0-0.4,0.1-0.7c0.1-0.3,0.3-0.6,0.6-0.9c0.6-0.8,1.1-1.3,1.5-1.6c0.4-0.3,1.3-1,2.7-1.9
		c0.1-0.1,0.6-0.4,1.3-1c-0.8-0.1-1.5-0.1-1.9-0.1c-0.4,0-0.7,0-0.9-0.1h-0.4c-0.1,0-0.4-0.1-0.7-0.4c-0.3-0.2-0.5-0.5-0.5-0.6
		c0.2-0.2,0.3-0.3,0.4-0.4c0.3-0.2,0.5-0.2,0.5-0.2c0.7,0,1.3-0.1,1.8-0.1c1.4,0,2.3,0.1,2.7,0.2c0.4,0.1,0.8,0.3,1.1,0.6
		c0.3,0.3,0.4,0.6,0.5,0.9c0.1,0.3,0,0.6-0.1,0.8s-0.3,0.3-0.3,0.3c-0.6,0.4-1.2,0.8-1.6,1c-0.7,0.4-1.1,0.7-1.1,0.7
		c-0.3,0.2-0.6,0.3-0.8,0.5c-0.2,0.3-0.5,0.5-0.9,0.8l-1.1,1.1C354,210.7,354.9,210.7,355.8,210.7z"/>
	<path class="st1" d="M359.8,210.6l0.1-0.5c0-0.1,0-0.4,0.2-0.8c0.4-0.8,0.8-2.2,1.4-4.1c0-0.2,0.1-0.3,0.4-0.3
		c0.2-0.1,0.4,0,0.7,0.2c0.3,0.2,0.5,0.5,0.7,0.8c0.2,0.2,0.2,0.6-0.1,1.2c-0.3,0.6-0.4,1.1-0.5,1.7c-0.2,0.4-0.3,0.8-0.4,1
		c-0.1,0.2-0.1,0.5-0.2,1c-0.1,0.5-0.2,0.8-0.3,0.9c-0.1,0.6-0.4,1-0.8,1.2c-0.4,0.1-0.7,0-1-0.3c-0.2-0.2-0.3-0.5-0.3-1
		C359.7,211.1,359.7,210.8,359.8,210.6z M362.3,202.1c-0.1-0.2-0.2-0.4-0.2-0.5s0-0.2,0.1-0.3c0.1-0.1,0.2-0.3,0.4-0.7
		c0.4-0.7,0.6-1.1,0.7-1.1c0.2-0.1,0.5-0.1,0.8,0s0.6,0.4,0.8,0.6c0.3,0.7,0.2,1.3-0.4,2c-0.2,0.3-0.6,0.5-0.9,0.6
		c-0.4,0.1-0.7,0.1-0.9-0.1C362.6,202.5,362.5,202.3,362.3,202.1z"/>
	<path class="st1" d="M371.8,210.6l0.1-1.7v-0.4c0-0.3-0.2-0.5-0.3-0.5c-0.3,0-0.9,0.3-1.7,0.9c-1.5,1-2.6,2-3.3,3
		c-0.1,0.2-0.3,0.3-0.4,0.3c-0.1,0-0.2,0-0.4,0c-0.2,0-0.4-0.2-0.7-0.5c-0.3-0.3-0.5-0.6-0.6-0.8c0-0.7,0.3-1.6,1-2.9
		c0.1-0.3,0.3-0.8,0.7-1.7c0.4-0.9,0.6-1.6,0.6-2.1l0,0c0-0.2,0.1-0.2,0.2-0.2c0,0,0.2-0.1,0.5-0.1c0.3,0,0.6,0.1,0.9,0.3
		c0.3,0.2,0.5,0.6,0.5,1c0,0.4-0.2,1.1-0.6,1.9c-0.4,0.9-0.6,1.3-0.6,1.3c0.3-0.2,0.8-0.6,1.5-1.1c1.7-1.4,2.8-2.1,3.2-2.1
		c0.2,0,0.5,0.1,0.9,0.4s0.6,0.5,0.7,0.7l-0.1,1.1l0,1.4c0,0.5,0,0.9-0.1,1.1l0.1,0.1c-0.1,0.1,0,0.3,0.2,0.7
		c0.2,0.4,0.3,0.7,0.3,0.8c0,0.1-0.1,0.3-0.4,0.5s-0.5,0.4-0.7,0.4C372.3,212.4,371.8,211.8,371.8,210.6z"/>
	<path class="st1" d="M379.9,203.4c0.6-0.3,1.2-0.4,1.6-0.2c0.4,0,0.9,0.3,1.4,0.7c0.8,0.8,1.3,1.4,1.4,1.7c0.2,0.5,0.1,1-0.3,1.6
		c-0.2,0.2-0.4,0.5-0.6,0.8c-0.2,0.3-0.3,0.6-0.3,0.9c0,0.3-0.2,0.8-0.5,1.6c-0.3,0.9-0.6,1.9-0.9,3.2c-0.4,1.3-0.8,2.2-1.3,2.9
		c-0.5,0.7-0.9,1.1-1.3,1.4c-0.4,0.2-0.9,0.2-1.4-0.1s-1-0.6-1.3-1.1c-0.2-0.2-0.4-0.7-0.7-1.4c-0.3-0.7-0.4-1.1-0.3-1.1
		c0.1-0.2,0.4-0.4,0.8-0.3c0.4,0,0.7,0.1,0.7,0.3c0.1,0.4,0.3,0.8,0.5,1c0.2,0.3,0.4,0.5,0.6,0.6c0.2,0.1,0.4,0.1,0.5,0
		c0.3-0.2,0.5-0.4,0.6-0.7c0.1-0.3,0.3-0.8,0.6-1.6c0.6-2,1-3.2,1.1-3.5c-0.1,0.1-0.3,0.2-0.5,0.4c-0.5,0.4-0.8,0.6-1.1,0.7
		c-0.1,0.1-0.3,0.2-0.7,0.2c-0.8,0-1.5-0.2-1.8-0.7c-0.1-0.2-0.3-0.5-0.4-0.8c-0.3-0.7-0.1-1.7,0.4-3.1c0.3-0.6,0.8-1.3,1.5-2.1
		S379.4,203.6,379.9,203.4z M381.6,205.7c0-0.5-0.3-0.7-0.8-0.6s-1.1,0.5-1.7,1.3c-0.2,0.3-0.5,0.7-0.6,1.2c-0.3,1-0.3,1.6,0.1,1.7
		c0.5,0,0.9-0.1,1.2-0.3c0.3-0.2,0.6-0.6,1-1.2C381.4,207.2,381.7,206.5,381.6,205.7z"/>
</g>
<g>
	<path class="st1" d="M264.5,239.7c0.6,0,1.3,0.3,1.8,0.7c1.2,0.9,1.3,2.1,0.4,3.7c-0.5,0.9-1.1,1.5-1.7,1.9
		c-0.5,0.2-0.9,0.2-1.2,0.1c-0.3-0.1-0.5-0.4-0.5-0.7c0-0.3,0.3-0.8,0.9-1.5c0.9-1.3,1.1-2.1,0.5-2.2c-0.3,0-0.8,0-1.6,0.2
		c-0.8,0.2-1.2,0.3-1.2,0.4l-0.1,0.1c-0.1,0-0.5,0.3-1.4,0.8s-1.3,0.9-1.4,1c0,0.2-0.2,0.3-0.6,0.5c-0.3,0.2-0.6,0.4-0.8,0.7
		c-0.2,0.3-0.6,0.8-0.9,1.5c-0.3,0.4-0.5,0.8-0.6,1.2c-0.2,0.7,0,1.3,0.6,1.8c0.6,0.4,1.1,0.8,1.7,1c0.8,0.5,1.6,1,2.3,1.5
		c0.7,0.5,1.1,1,1.2,1.3c0.5,0.7,0.5,1.6,0.2,2.9c-0.1,0.3-0.3,0.6-0.6,0.9s-0.4,0.4-0.6,0.4c-0.1,0-0.3,0.1-0.5,0.2
		c-0.2,0.1-0.3,0.2-0.4,0.2c-0.1,0.1-0.6,0.2-1.4,0.3c-0.8,0.1-1.5,0.2-2.1,0.2l-1-0.3c0-0.1,0-0.2,0-0.2c-0.1-0.1-0.2-0.1-0.3-0.1
		c-0.3-0.2-0.7-0.6-1.1-1.1c-0.4-0.5-0.6-0.9-0.7-1.1c-0.1-0.2-0.1-0.3-0.1-0.4c0-0.1,0-0.1,0-0.2c0,0,0.1-0.1,0.1-0.1
		c0,0,0.1,0,0.2-0.1c0.1,0,0.2-0.1,0.2-0.1c0.5-0.4,0.9-0.4,1.1,0c0.3,0.6,0.9,1,1.7,1.3c0.8,0.2,1.7,0.2,2.6-0.1
		c0.8-0.3,0.9-1,0.3-1.9c-0.1-0.2-0.2-0.4-0.5-0.6c-0.3-0.2-0.6-0.5-0.8-0.7c-0.4-0.2-0.8-0.4-1.3-0.6s-1-0.6-1.5-1
		c-0.5-0.4-0.9-0.8-1.1-1.2c-0.4-0.4-0.6-1-0.5-1.7c0-0.7,0.2-1.4,0.5-2.1c0.2-0.4,0.7-1.1,1.4-2.1s1.3-1.5,1.7-1.7l0.8-0.7
		c0,0,0.1-0.1,0.3-0.1c0.4-0.2,0.8-0.4,1.2-0.8C261.7,240.2,263.2,239.7,264.5,239.7z"/>
	<path class="st1" d="M271.2,251.1c-0.2,0.3-0.4,0.4-0.5,0.4c-0.2,0-0.2,0-0.2,0.1s-0.1,0.1-0.3,0.1c-0.2,0-0.4,0-0.5-0.1
		s-0.3-0.2-0.3-0.3c0-0.1,0.1-0.4,0.2-0.9c0.1-0.5,0.1-0.9,0-1c-0.1-0.2-0.3-0.2-0.6,0c-0.6,0.3-1.1,0.8-1.4,1.4
		c-0.3,0.6-0.6,1.3-0.8,2.1c-0.2,0.9-0.3,1.4-0.3,1.6c0,0.3,0.1,0.5,0.2,0.6c0.5,0.1,0.9,0.1,1.3-0.1c0.4-0.2,0.9-0.5,1.5-1
		c0,0,0.1-0.1,0.2-0.3s0.2-0.3,0.3-0.3c0.1-0.2,0.3-0.3,0.6-0.3h0.5c0.3,0.1,0.5,0.3,0.7,0.6c0.1,0.1,0.1,0.2,0,0.3l-0.1,0.1
		c0.1,0.1-0.2,0.5-0.9,1.2c-0.6,0.7-1.1,1-1.2,1s-0.3,0-0.3,0.1c0,0.1-0.3,0.2-0.8,0.5s-0.9,0.4-1.2,0.5c-0.8,0.1-1.5,0-2.1-0.5
		c-0.6-0.4-1-1.1-1-1.8c-0.1-0.8,0.1-1.7,0.4-2.9c0.4-1.1,0.8-2.1,1.4-2.8c0.8-1,1.5-1.6,2-1.8c0.5-0.2,1-0.3,1.5-0.3
		c0.9,0.2,1.4,0.5,1.4,0.8l0.1,0.1c0.1,0,0.3,0.3,0.5,0.8c0.2,0.5,0.2,0.9,0.1,1.1C271.5,250.5,271.3,250.8,271.2,251.1z"/>
	<path class="st1" d="M273.2,256c0-0.1-0.1-0.4-0.3-0.6c-0.2-0.2,0.3-1.5,1.5-3.9c0.1-0.1,0.2-0.3,0.4-0.5c0.2-0.2,0.3-0.4,0.3-0.4
		c0-0.1,0-0.1,0.1-0.2c0-0.1,0.1-0.1,0.2-0.1l0.2-0.4c0.1-0.1,0.4-0.5,1-1.1s1-1,1.4-1.2c0.3-0.2,0.7-0.3,1.1-0.3
		c0.4,0,0.7,0.1,0.9,0.3c0,0,0.1,0.1,0.3,0.3c0.3,0.2,1,0.9,2.1,1.8l-0.4,1.2c-0.4,1.1-0.3,2.1,0.3,3c0.2,0.3,0.4,0.6,0.8,0.6
		c0.4,0.1,0.6,0.2,0.6,0.5c0,0.7-0.2,1.1-0.7,1.2c-1.3,0.2-2.3-0.3-2.9-1.6c-0.2-0.3-0.4-0.7-0.4-1.1c-0.1,0.2-0.3,0.4-0.6,0.6
		c-2.3,2.3-4,3.1-5.1,2.3c0-0.1-0.2-0.2-0.4-0.4S273.2,256,273.2,256z M279,249.5c-0.6,0-1.6,1.2-3,3.6c-0.2,0.4-0.5,0.9-0.7,1.6
		c0.3,0,0.8-0.3,1.5-0.9c0.1-0.1,0.4-0.3,0.6-0.5c0.3-0.2,0.4-0.4,0.6-0.5c0.1-0.1,0.3-0.2,0.4-0.4c0.3-0.3,0.6-0.7,0.8-1l0.5-0.9
		C279.6,249.8,279.3,249.5,279,249.5z"/>
	<path class="st1" d="M286,248.9l0.2-0.9c0.3-0.5,0.7-1.7,1.4-3.5c0.7-1.8,1-2.8,1-2.9c0-0.2,0-0.3,0.1-0.4s0.2-0.2,0.3-0.2
		c0.1-0.1,0.3-0.1,0.7-0.1l0.4,0.4c0.4,0.3,0.6,0.7,0.6,0.9s-0.1,0.6-0.2,0.9c-0.1,0.3-0.4,1-0.9,2.1c-0.1,0.2-0.2,0.4-0.3,0.6
		c-0.1,0.2-0.2,0.4-0.3,0.6c-0.1,0.1-0.1,0.2-0.1,0.3s0,0.1,0,0.2c0,0.1-0.1,0.2-0.1,0.3c0,0.1-0.1,0.3-0.2,0.5
		c-0.7,1.5-1,2.3-1,2.4s0,0.3-0.1,0.4c-0.1,0-0.1,0.1-0.1,0.2v0.1c0,0.2-0.1,0.6-0.4,1.3c-0.7,2.4-1.1,3.9-1.1,4.5
		c0,0.6-0.2,1-0.6,1.2c-0.5,0.1-0.9-0.1-1.2-0.7c-0.3-0.6-0.3-1.4-0.1-2.3c0.2-0.5,0.3-0.8,0.3-1c0-0.3,0.2-0.9,0.5-1.7
		c0.3-0.8,0.5-1.3,0.6-1.5c0.2,0,0.2-0.2,0.2-0.5C285.7,249.3,285.8,249,286,248.9z"/>
	<path class="st1" d="M288.7,254.8l0.1-0.5c0-0.1,0-0.4,0.2-0.8c0.4-0.8,0.8-2.2,1.4-4.1c0-0.2,0.1-0.3,0.4-0.3
		c0.2-0.1,0.4,0,0.7,0.2c0.3,0.2,0.5,0.5,0.7,0.8c0.2,0.2,0.2,0.6-0.1,1.2c-0.3,0.6-0.4,1.1-0.5,1.7c-0.2,0.4-0.3,0.8-0.4,1
		c-0.1,0.2-0.1,0.5-0.2,1c-0.1,0.5-0.2,0.8-0.3,0.9c-0.1,0.6-0.4,1-0.8,1.2c-0.4,0.1-0.7,0-1-0.3c-0.2-0.2-0.3-0.5-0.3-1
		C288.5,255.3,288.6,255,288.7,254.8z M291.2,246.3c-0.1-0.2-0.2-0.4-0.2-0.5s0-0.2,0.1-0.3c0.1-0.1,0.2-0.3,0.4-0.7
		c0.4-0.7,0.6-1.1,0.7-1.1c0.2-0.1,0.5-0.1,0.8,0s0.6,0.4,0.8,0.6c0.3,0.7,0.2,1.3-0.4,2c-0.2,0.3-0.6,0.5-0.9,0.6
		c-0.4,0.1-0.7,0.1-0.9-0.1C291.5,246.7,291.3,246.5,291.2,246.3z"/>
	<path class="st1" d="M300.7,254.8l0.1-1.7v-0.4c0-0.3-0.2-0.5-0.3-0.5c-0.3,0-0.9,0.3-1.7,0.9c-1.5,1-2.6,2-3.3,3
		c-0.1,0.2-0.3,0.3-0.4,0.3c-0.1,0-0.2,0-0.4,0c-0.2,0-0.4-0.2-0.7-0.5c-0.3-0.3-0.5-0.6-0.6-0.8c0-0.7,0.3-1.6,1-2.9
		c0.1-0.3,0.3-0.8,0.7-1.7c0.4-0.9,0.6-1.6,0.6-2.1l0,0c0-0.2,0.1-0.2,0.2-0.2c0,0,0.2-0.1,0.5-0.1c0.3,0,0.6,0.1,0.9,0.3
		c0.3,0.2,0.5,0.6,0.5,1c0,0.4-0.2,1.1-0.6,1.9c-0.4,0.9-0.6,1.3-0.6,1.3c0.3-0.2,0.8-0.6,1.5-1.1c1.7-1.4,2.8-2.1,3.2-2.1
		c0.2,0,0.5,0.1,0.9,0.4s0.6,0.5,0.7,0.7l-0.1,1.1l0,1.4c0,0.5,0,0.9-0.1,1.1l0.1,0.1c-0.1,0.1,0,0.3,0.2,0.7
		c0.2,0.4,0.3,0.7,0.3,0.8c0,0.1-0.1,0.3-0.4,0.5c-0.2,0.2-0.5,0.4-0.7,0.4C301.2,256.6,300.7,256,300.7,254.8z"/>
	<path class="st1" d="M308.7,247.6c0.6-0.3,1.2-0.4,1.6-0.2c0.4,0,0.9,0.3,1.4,0.7c0.8,0.8,1.3,1.4,1.4,1.7c0.2,0.5,0.1,1-0.3,1.6
		c-0.2,0.2-0.4,0.5-0.6,0.8c-0.2,0.3-0.3,0.6-0.3,0.9c0,0.3-0.2,0.8-0.5,1.6c-0.3,0.9-0.6,1.9-0.9,3.2c-0.4,1.3-0.8,2.2-1.3,2.9
		c-0.5,0.7-0.9,1.1-1.3,1.4c-0.4,0.2-0.9,0.2-1.4-0.1s-1-0.6-1.3-1.1c-0.2-0.2-0.4-0.7-0.7-1.4c-0.3-0.7-0.4-1.1-0.3-1.1
		c0.1-0.2,0.4-0.4,0.8-0.3c0.4,0,0.7,0.1,0.7,0.3c0.1,0.4,0.3,0.8,0.5,1c0.2,0.3,0.4,0.5,0.6,0.6c0.2,0.1,0.4,0.1,0.5,0
		c0.3-0.2,0.5-0.4,0.6-0.7c0.1-0.3,0.3-0.8,0.6-1.6c0.6-2,1-3.2,1.1-3.5c-0.1,0.1-0.3,0.2-0.5,0.4c-0.5,0.4-0.8,0.6-1.1,0.7
		c-0.1,0.1-0.3,0.2-0.7,0.2c-0.8,0-1.5-0.2-1.8-0.7c-0.1-0.2-0.3-0.5-0.4-0.8c-0.3-0.7-0.1-1.7,0.4-3.1c0.3-0.6,0.8-1.3,1.5-2.1
		S308.2,247.8,308.7,247.6z M310.5,249.9c0-0.5-0.3-0.7-0.8-0.6s-1.1,0.5-1.7,1.3c-0.2,0.3-0.5,0.7-0.6,1.2c-0.3,1-0.3,1.6,0.1,1.7
		c0.5,0,0.9-0.1,1.2-0.3c0.3-0.2,0.6-0.6,1-1.2C310.3,251.4,310.5,250.6,310.5,249.9z"/>
	<path class="st1" d="M320,256c0-0.1-0.1-0.4-0.3-0.6c-0.2-0.2,0.3-1.5,1.5-3.9c0.1-0.1,0.2-0.3,0.4-0.5c0.2-0.2,0.3-0.4,0.3-0.4
		c0-0.1,0-0.1,0.1-0.2c0-0.1,0.1-0.1,0.2-0.1l0.2-0.4c0.1-0.1,0.4-0.5,1-1.1s1-1,1.4-1.2c0.3-0.2,0.7-0.3,1.1-0.3
		c0.4,0,0.7,0.1,0.9,0.3c0,0,0.1,0.1,0.3,0.3c0.3,0.2,1,0.9,2.1,1.8l-0.4,1.2c-0.4,1.1-0.3,2.1,0.3,3c0.2,0.3,0.4,0.6,0.8,0.6
		c0.4,0.1,0.6,0.2,0.6,0.5c0,0.7-0.2,1.1-0.7,1.2c-1.3,0.2-2.3-0.3-2.9-1.6c-0.2-0.3-0.4-0.7-0.4-1.1c-0.1,0.2-0.3,0.4-0.6,0.6
		c-2.3,2.3-4,3.1-5.1,2.3c0-0.1-0.2-0.2-0.4-0.4S320,256,320,256z M325.9,249.5c-0.6,0-1.6,1.2-3,3.6c-0.2,0.4-0.5,0.9-0.7,1.6
		c0.3,0,0.8-0.3,1.5-0.9c0.1-0.1,0.4-0.3,0.6-0.5c0.3-0.2,0.4-0.4,0.6-0.5c0.1-0.1,0.3-0.2,0.4-0.4c0.3-0.3,0.6-0.7,0.8-1l0.5-0.9
		C326.4,249.8,326.2,249.5,325.9,249.5z"/>
	<path class="st1" d="M338.2,254.8l0.1-1.7v-0.4c0-0.3-0.2-0.5-0.3-0.5c-0.3,0-0.9,0.3-1.7,0.9c-1.5,1-2.6,2-3.3,3
		c-0.1,0.2-0.3,0.3-0.4,0.3c-0.1,0-0.2,0-0.4,0c-0.2,0-0.4-0.2-0.7-0.5c-0.3-0.3-0.5-0.6-0.6-0.8c0-0.7,0.3-1.6,1-2.9
		c0.1-0.3,0.3-0.8,0.7-1.7c0.4-0.9,0.6-1.6,0.6-2.1l0,0c0-0.2,0.1-0.2,0.2-0.2c0,0,0.2-0.1,0.5-0.1c0.3,0,0.6,0.1,0.9,0.3
		c0.3,0.2,0.5,0.6,0.5,1c0,0.4-0.2,1.1-0.6,1.9c-0.4,0.9-0.6,1.3-0.6,1.3c0.3-0.2,0.8-0.6,1.5-1.1c1.7-1.4,2.8-2.1,3.2-2.1
		c0.2,0,0.5,0.1,0.9,0.4s0.6,0.5,0.7,0.7l-0.1,1.1l0,1.4c0,0.5,0,0.9-0.1,1.1l0.1,0.1c-0.1,0.1,0,0.3,0.2,0.7
		c0.2,0.4,0.3,0.7,0.3,0.8c0,0.1-0.1,0.3-0.4,0.5c-0.2,0.2-0.5,0.4-0.7,0.4C338.8,256.6,338.2,256,338.2,254.8z"/>
	<path class="st1" d="M350.3,257.4c-0.1,0.1-0.3,0.1-0.4,0.2c-0.1,0-0.3,0.1-0.4,0.1s-0.4,0-0.6-0.2c-0.2-0.1-0.3-0.3-0.4-0.5
		c-0.1-0.4-0.2-1.2-0.3-2.4l-1,0.9c-1,1-2,1.5-2.9,1.5c-0.3,0-0.6-0.3-1-0.7c-0.4-0.4-0.7-0.7-0.8-1c-0.2-0.5-0.1-1.3,0.2-2.4
		c0.3-1.1,0.8-2,1.4-2.7c0.5-0.8,1.2-1.3,2-1.6s1.6-0.2,2.2,0.2c0.5,0.3,0.8,0.2,0.9-0.1c0-0.1,0.2-0.8,0.7-2.1s1-2.9,1.8-4.5
		c0.3-0.7,0.7-1,1-1c0.2,0,0.5,0.1,0.7,0.2c0.3,0.1,0.4,0.3,0.5,0.6s0.1,0.6-0.1,0.9c-0.4,0.7-1,2-1.6,3.7c-0.6,1.7-1.1,3-1.3,4
		c-0.3,1-0.4,2.1-0.5,3.6c-0.1,1.4,0,2.2,0.1,2.4c0,0.3,0,0.5,0,0.6C350.5,257.2,350.5,257.3,350.3,257.4z M344.7,254.7
		c0.1,0.1,0.4,0,0.7-0.1c0.3-0.1,0.8-0.4,1.2-0.7c0.5-0.4,0.8-0.7,1.1-1c0.2-0.3,0.4-0.6,0.5-1.1s0-0.8-0.4-1.2
		c-0.5-0.4-1-0.2-1.7,0.3c-0.8,0.8-1.4,1.9-1.7,3.3C344.5,254.6,344.6,254.7,344.7,254.7z"/>
	<path class="st1" d="M370.8,239.7c0.6,0,1.3,0.3,1.8,0.7c1.2,0.9,1.3,2.1,0.4,3.7c-0.5,0.9-1.1,1.5-1.7,1.9
		c-0.5,0.2-0.9,0.2-1.2,0.1c-0.3-0.1-0.5-0.4-0.5-0.7c0-0.3,0.3-0.8,0.9-1.5c0.9-1.3,1.1-2.1,0.5-2.2c-0.3,0-0.8,0-1.6,0.2
		c-0.8,0.2-1.2,0.3-1.2,0.4l-0.1,0.1c-0.1,0-0.5,0.3-1.4,0.8s-1.3,0.9-1.4,1c0,0.2-0.2,0.3-0.6,0.5c-0.3,0.2-0.6,0.4-0.8,0.7
		c-0.2,0.3-0.6,0.8-0.9,1.5c-0.3,0.4-0.5,0.8-0.6,1.2c-0.2,0.7,0,1.3,0.6,1.8c0.6,0.4,1.1,0.8,1.7,1c0.8,0.5,1.6,1,2.3,1.5
		c0.7,0.5,1.1,1,1.2,1.3c0.5,0.7,0.5,1.6,0.2,2.9c-0.1,0.3-0.3,0.6-0.6,0.9s-0.4,0.4-0.6,0.4c-0.1,0-0.3,0.1-0.5,0.2
		c-0.2,0.1-0.3,0.2-0.4,0.2c-0.1,0.1-0.6,0.2-1.4,0.3c-0.8,0.1-1.5,0.2-2.1,0.2l-1-0.3c0-0.1,0-0.2,0-0.2c-0.1-0.1-0.2-0.1-0.3-0.1
		c-0.3-0.2-0.7-0.6-1.1-1.1c-0.4-0.5-0.6-0.9-0.7-1.1c-0.1-0.2-0.1-0.3-0.1-0.4c0-0.1,0-0.1,0-0.2c0,0,0.1-0.1,0.1-0.1
		c0,0,0.1,0,0.2-0.1c0.1,0,0.2-0.1,0.2-0.1c0.5-0.4,0.9-0.4,1.1,0c0.3,0.6,0.9,1,1.7,1.3c0.8,0.2,1.7,0.2,2.6-0.1
		c0.8-0.3,0.9-1,0.3-1.9c-0.1-0.2-0.2-0.4-0.5-0.6c-0.3-0.2-0.6-0.5-0.8-0.7c-0.4-0.2-0.8-0.4-1.3-0.6s-1-0.6-1.5-1
		c-0.5-0.4-0.9-0.8-1.1-1.2c-0.4-0.4-0.6-1-0.5-1.7c0-0.7,0.2-1.4,0.5-2.1c0.2-0.4,0.7-1.1,1.4-2.1s1.3-1.5,1.7-1.7l0.8-0.7
		c0,0,0.1-0.1,0.3-0.1c0.4-0.2,0.8-0.4,1.2-0.8C368,240.2,369.5,239.7,370.8,239.7z"/>
	<path class="st1" d="M372,248.1c-0.1-0.1-0.1-0.2-0.1-0.3s0.1-0.3,0.2-0.5c0.1-0.2,0.3-0.4,0.4-0.4c0.1,0,0.4,0,0.7,0
		c0.4,0,0.7,0,0.8-0.1c0.1,0,0.2-0.2,0.3-0.3c0.1-0.2,0.2-0.5,0.5-0.9c0.6-1.1,1-1.8,1.2-2c0.2-0.2,0.5-0.3,0.8-0.3
		c0.3,0,0.6,0,0.9,0.2c0.2,0.3,0.3,0.7,0,1c-0.1,0.2-0.3,0.5-0.5,0.8c-0.2,0.3-0.4,0.6-0.5,0.7c-0.3,0.4-0.3,0.6-0.1,0.6
		s0.7,0,1.5-0.1c0.8-0.1,1.2,0.2,1.3,0.9c0,0.4,0,0.6-0.1,0.7s-0.5,0.1-1.1,0.1c-0.5,0.1-1,0.1-1.5,0.1c-0.5,0-0.8,0-0.9,0.1
		c-0.2,0-0.4,0.2-0.5,0.5c0,0-0.1,0.1-0.2,0.3c-0.1,0.2-0.3,0.6-0.6,1.2c-0.4,1.3-0.8,2.6-1,3.9c0,0.3,0,0.6,0,0.7s0.3,0.2,0.8,0.3
		c0.8,0.1,1.7-0.2,2.6-0.7l0.7-0.4c0.1-0.2,0.3-0.1,0.5,0.3c0.1,0.1,0.1,0.2,0.1,0.3c0,0.6-0.3,1.2-1,1.6c-0.7,0.4-1.4,0.7-2.1,0.8
		c-0.7,0.1-1.3,0.1-1.7,0.1c-0.4-0.1-0.7-0.3-1.1-0.7s-0.5-0.7-0.6-1l-0.1-0.2c-0.1-0.1-0.1-0.5-0.1-1.3c0-0.8,0.1-1.3,0.2-1.6
		c0.1-0.4,0.4-1.2,0.8-2.5l0.7-1.4l-1-0.3C372.2,248.3,372.1,248.2,372,248.1z"/>
	<path class="st1" d="M382.8,247.3c0.4,0,0.6,0.1,0.7,0.2c0.4,0.3,0.1,1.3-0.8,3c-0.3,0.6-0.4,0.8-0.3,0.8c0.2-0.3,0.6-0.7,1.3-1.3
		c0.7-0.5,1.1-0.9,1.3-1c0.2-0.1,0.4-0.2,0.6-0.3s0.3-0.1,0.4-0.1c0.4-0.2,0.8-0.3,1.2-0.2c0.5,0,0.7,0.2,0.8,0.4
		c0,0.2,0.1,0.3,0.3,0.4l0.1,0.1c0,0.1-0.1,0.3-0.3,0.5c-0.2,0.2-0.5,0.3-0.7,0.3c-0.2,0-0.5,0.1-0.9,0.3s-0.7,0.3-1,0.5
		c-0.3,0.2-0.6,0.3-0.7,0.4c-0.2,0.1-0.4,0.2-0.6,0.4c-0.5,0.3-0.9,0.7-1.2,1.1c-0.4,0.4-0.7,0.7-0.8,0.9c-0.1,0.1-0.2,0.4-0.4,0.9
		c-0.1,0.5-0.2,0.8-0.2,0.9c-0.1,0.3-0.2,0.5-0.4,0.8c-0.2,0.2-0.4,0.4-0.5,0.4s-0.4,0-0.7-0.3c-0.5-0.4-0.7-0.8-0.7-1.2
		c0.1-0.4,0.2-1.3,0.5-2.5c0-0.4,0.3-1.3,0.8-2.6s0.9-2.2,1.2-2.7C382.2,247.3,382.5,247.3,382.8,247.3z"/>
	<path class="st1" d="M393.7,247.3c1,0,1.7,0.2,2.1,0.7c0.4,0.5,0.7,0.9,0.7,1.3v0.2c0,0.3-0.2,0.9-0.7,1.7
		c-0.2,0.4-0.6,0.8-1.1,1.1c-0.5,0.3-1,0.5-1.4,0.5c-0.5,0-0.9,0-1.4-0.1c-0.4-0.1-0.7-0.1-0.8-0.1s-0.2,0.1-0.3,0.2
		c-0.1,0.2-0.2,0.5-0.2,1c0,0.5,0.2,0.8,0.4,1s0.5,0.3,0.8,0.3c0.3,0,0.6-0.1,0.8-0.2c0.3-0.1,0.6-0.3,0.9-0.6
		c0.4-0.3,0.6-0.4,0.8-0.4s0.4,0.1,0.6,0.3c0.2,0.2,0.3,0.4,0.3,0.6c0,0.4-0.4,0.9-1.2,1.5c-0.7,0.6-1.5,0.9-2.5,0.9
		c-0.9,0-1.7-0.3-2.2-0.8c-0.6-0.5-0.9-1.3-0.9-2.3c0-0.4,0-0.8,0.1-1.2c0-0.4,0.2-1,0.4-1.6c0.2-0.6,0.6-1.3,1.2-2
		c0.5-0.7,1.1-1.2,1.8-1.5S393.3,247.3,393.7,247.3z M393.5,249.1c-0.2,0-0.5,0.2-0.9,0.5s-0.8,0.8-1.1,1.2c0,0.2,0.3,0.3,0.8,0.3
		s0.8,0,1-0.1c0.1-0.1,0.4-0.3,0.7-0.6s0.5-0.6,0.5-0.7c0-0.4-0.3-0.6-0.8-0.6H393.5z"/>
	<path class="st1" d="M397.5,248.1c-0.1-0.1-0.1-0.2-0.1-0.3s0.1-0.3,0.2-0.5c0.1-0.2,0.3-0.4,0.4-0.4c0.1,0,0.4,0,0.7,0
		c0.4,0,0.7,0,0.8-0.1c0.1,0,0.2-0.2,0.3-0.3c0.1-0.2,0.2-0.5,0.5-0.9c0.6-1.1,1-1.8,1.2-2c0.2-0.2,0.5-0.3,0.8-0.3
		c0.3,0,0.6,0,0.9,0.2c0.2,0.3,0.3,0.7,0,1c-0.1,0.2-0.3,0.5-0.5,0.8c-0.2,0.3-0.4,0.6-0.5,0.7c-0.3,0.4-0.3,0.6-0.1,0.6
		s0.7,0,1.5-0.1c0.8-0.1,1.2,0.2,1.3,0.9c0,0.4,0,0.6-0.1,0.7s-0.5,0.1-1.1,0.1c-0.5,0.1-1,0.1-1.5,0.1c-0.5,0-0.8,0-0.9,0.1
		c-0.2,0-0.4,0.2-0.5,0.5c0,0-0.1,0.1-0.2,0.3c-0.1,0.2-0.3,0.6-0.6,1.2c-0.4,1.3-0.8,2.6-1,3.9c0,0.3,0,0.6,0,0.7s0.3,0.2,0.8,0.3
		c0.8,0.1,1.7-0.2,2.6-0.7l0.7-0.4c0.1-0.2,0.3-0.1,0.5,0.3c0.1,0.1,0.1,0.2,0.1,0.3c0,0.6-0.3,1.2-1,1.6c-0.7,0.4-1.4,0.7-2.1,0.8
		c-0.7,0.1-1.3,0.1-1.7,0.1c-0.4-0.1-0.7-0.3-1.1-0.7s-0.5-0.7-0.6-1l-0.1-0.2c-0.1-0.1-0.1-0.5-0.1-1.3c0-0.8,0.1-1.3,0.2-1.6
		c0.1-0.4,0.4-1.2,0.8-2.5l0.7-1.4l-1-0.3C397.6,248.3,397.5,248.2,397.5,248.1z"/>
	<path class="st1" d="M412.1,251.1c-0.2,0.3-0.4,0.4-0.5,0.4c-0.2,0-0.2,0-0.2,0.1s-0.1,0.1-0.3,0.1c-0.2,0-0.4,0-0.5-0.1
		s-0.3-0.2-0.3-0.3c0-0.1,0.1-0.4,0.2-0.9c0.1-0.5,0.1-0.9,0-1c-0.1-0.2-0.3-0.2-0.6,0c-0.6,0.3-1.1,0.8-1.4,1.4
		c-0.3,0.6-0.6,1.3-0.8,2.1c-0.2,0.9-0.3,1.4-0.3,1.6c0,0.3,0.1,0.5,0.2,0.6c0.5,0.1,0.9,0.1,1.3-0.1c0.4-0.2,0.9-0.5,1.5-1
		c0,0,0.1-0.1,0.2-0.3s0.2-0.3,0.3-0.3c0.1-0.2,0.3-0.3,0.6-0.3h0.5c0.3,0.1,0.5,0.3,0.7,0.6c0.1,0.1,0.1,0.2,0,0.3l-0.1,0.1
		c0.1,0.1-0.2,0.5-0.9,1.2c-0.6,0.7-1.1,1-1.2,1s-0.3,0-0.3,0.1c0,0.1-0.3,0.2-0.8,0.5s-0.9,0.4-1.2,0.5c-0.8,0.1-1.5,0-2.1-0.5
		c-0.6-0.4-1-1.1-1-1.8c-0.1-0.8,0.1-1.7,0.4-2.9c0.4-1.1,0.8-2.1,1.4-2.8c0.8-1,1.5-1.6,2-1.8c0.5-0.2,1-0.3,1.5-0.3
		c0.9,0.2,1.4,0.5,1.4,0.8l0.1,0.1c0.1,0,0.3,0.3,0.5,0.8c0.2,0.5,0.2,0.9,0.1,1.1C412.5,250.5,412.3,250.8,412.1,251.1z"/>
	<path class="st1" d="M421.1,254.3l0.1-1.9c0-0.4-0.1-0.5-0.3-0.5c-0.3,0-0.9,0.3-1.7,0.9c-0.8,0.6-1.7,1.4-2.5,2.4
		c-0.5,0.8-1,1.2-1.5,1.2c-0.3,0-0.6-0.2-0.8-0.5c-0.2-0.3-0.4-0.6-0.4-1c0-0.4,0.2-1.4,0.7-3c0-0.4,0.2-0.8,0.4-1.3
		c0.2-0.5,0.4-0.9,0.5-1.4c0.1-0.4,0.4-1.3,0.9-2.7c0.5-1.3,0.8-2.3,1-2.8c0.2-0.5,0.3-0.9,0.4-1.2c0.1-0.3,0.3-0.7,0.4-1
		c0-0.1,0.1-0.3,0.3-0.4c0.2-0.1,0.4-0.2,0.6-0.2c0.2,0,0.4,0.2,0.7,0.5c0.4,0.6,0.5,1.2,0.2,1.8s-0.7,1.8-1.4,3.7
		c-0.6,1.9-1.1,3-1.3,3.5l-0.3,0.5l-0.4,1.5c0,0,0,0.1,0,0.1c0.8-0.8,1.4-1.4,2-1.8c0.6-0.4,0.9-0.7,1-0.8c0.1-0.1,0.3-0.3,0.7-0.5
		s0.9-0.4,1.5-0.4c0.3,0,0.6,0.2,1,0.6c0.4,0.4,0.5,0.9,0.5,1.4v0.4c0,0.4-0.2,1.3-0.5,2.8c0.1,0,0.2,0,0.4,0c0.3,0,0.6,0.1,0.8,0.2
		c0.2,0.1,0.3,0.2,0.3,0.2c0,0,0,0.1,0,0.1c0,0.4-0.2,0.7-0.6,1c-0.4,0.3-0.8,0.4-1.2,0.5c-0.5,0-0.8-0.2-1.1-0.5
		C421.3,255.2,421.1,254.8,421.1,254.3z"/>
	<path class="st1" d="M425.9,254.8l0.1-0.5c0-0.1,0-0.4,0.2-0.8c0.4-0.8,0.8-2.2,1.4-4.1c0-0.2,0.1-0.3,0.4-0.3
		c0.2-0.1,0.4,0,0.7,0.2c0.3,0.2,0.5,0.5,0.7,0.8c0.2,0.2,0.2,0.6-0.1,1.2c-0.3,0.6-0.4,1.1-0.5,1.7c-0.2,0.4-0.3,0.8-0.4,1
		c-0.1,0.2-0.1,0.5-0.2,1c-0.1,0.5-0.2,0.8-0.3,0.9c-0.1,0.6-0.4,1-0.8,1.2c-0.4,0.1-0.7,0-1-0.3c-0.2-0.2-0.3-0.5-0.3-1
		C425.8,255.3,425.8,255,425.9,254.8z M428.4,246.3c-0.1-0.2-0.2-0.4-0.2-0.5s0-0.2,0.1-0.3c0.1-0.1,0.2-0.3,0.4-0.7
		c0.4-0.7,0.6-1.1,0.7-1.1c0.2-0.1,0.5-0.1,0.8,0s0.6,0.4,0.8,0.6c0.3,0.7,0.2,1.3-0.4,2c-0.2,0.3-0.6,0.5-0.9,0.6
		c-0.4,0.1-0.7,0.1-0.9-0.1C428.7,246.7,428.5,246.5,428.4,246.3z"/>
	<path class="st1" d="M437.9,254.8l0.1-1.7v-0.4c0-0.3-0.2-0.5-0.3-0.5c-0.3,0-0.9,0.3-1.7,0.9c-1.5,1-2.6,2-3.3,3
		c-0.1,0.2-0.3,0.3-0.4,0.3c-0.1,0-0.2,0-0.4,0c-0.2,0-0.4-0.2-0.7-0.5c-0.3-0.3-0.5-0.6-0.6-0.8c0-0.7,0.3-1.6,1-2.9
		c0.1-0.3,0.3-0.8,0.7-1.7c0.4-0.9,0.6-1.6,0.6-2.1l0,0c0-0.2,0.1-0.2,0.2-0.2c0,0,0.2-0.1,0.5-0.1c0.3,0,0.6,0.1,0.9,0.3
		c0.3,0.2,0.5,0.6,0.5,1c0,0.4-0.2,1.1-0.6,1.9c-0.4,0.9-0.6,1.3-0.6,1.3c0.3-0.2,0.8-0.6,1.5-1.1c1.7-1.4,2.8-2.1,3.2-2.1
		c0.2,0,0.5,0.1,0.9,0.4s0.6,0.5,0.7,0.7l-0.1,1.1l0,1.4c0,0.5,0,0.9-0.1,1.1l0.1,0.1c-0.1,0.1,0,0.3,0.2,0.7
		c0.2,0.4,0.3,0.7,0.3,0.8c0,0.1-0.1,0.3-0.4,0.5c-0.2,0.2-0.5,0.4-0.7,0.4C438.4,256.6,437.9,256,437.9,254.8z"/>
	<path class="st1" d="M446,247.6c0.6-0.3,1.2-0.4,1.6-0.2c0.4,0,0.9,0.3,1.4,0.7c0.8,0.8,1.3,1.4,1.4,1.7c0.2,0.5,0.1,1-0.3,1.6
		c-0.2,0.2-0.4,0.5-0.6,0.8c-0.2,0.3-0.3,0.6-0.3,0.9c0,0.3-0.2,0.8-0.5,1.6c-0.3,0.9-0.6,1.9-0.9,3.2c-0.4,1.3-0.8,2.2-1.3,2.9
		c-0.5,0.7-0.9,1.1-1.3,1.4c-0.4,0.2-0.9,0.2-1.4-0.1s-1-0.6-1.3-1.1c-0.2-0.2-0.4-0.7-0.7-1.4c-0.3-0.7-0.4-1.1-0.3-1.1
		c0.1-0.2,0.4-0.4,0.8-0.3c0.4,0,0.7,0.1,0.7,0.3c0.1,0.4,0.3,0.8,0.5,1c0.2,0.3,0.4,0.5,0.6,0.6c0.2,0.1,0.4,0.1,0.5,0
		c0.3-0.2,0.5-0.4,0.6-0.7c0.1-0.3,0.3-0.8,0.6-1.6c0.6-2,1-3.2,1.1-3.5c-0.1,0.1-0.3,0.2-0.5,0.4c-0.5,0.4-0.8,0.6-1.1,0.7
		c-0.1,0.1-0.3,0.2-0.7,0.2c-0.8,0-1.5-0.2-1.8-0.7c-0.1-0.2-0.3-0.5-0.4-0.8c-0.3-0.7-0.1-1.7,0.4-3.1c0.3-0.6,0.8-1.3,1.5-2.1
		S445.5,247.8,446,247.6z M447.7,249.9c0-0.5-0.3-0.7-0.8-0.6s-1.1,0.5-1.7,1.3c-0.2,0.3-0.5,0.7-0.6,1.2c-0.3,1-0.3,1.6,0.1,1.7
		c0.5,0,0.9-0.1,1.2-0.3c0.3-0.2,0.6-0.6,1-1.2C447.5,251.4,447.8,250.6,447.7,249.9z"/>
</g>
<g>
	<g>
		<path class="st2" d="M217.6,121.1c5-0.6,10-1.2,15-1c1.9,0.1,1.9-2.9,0-3c-5-0.2-10,0.4-15,1C215.7,118.3,215.6,121.3,217.6,121.1
			L217.6,121.1z"/>
	</g>
</g>
<g>
	<g>
		<path class="st2" d="M223.1,110.4c1.2,5.6,1.1,11.6,0.9,17.3c-0.1,1.9,2.9,1.9,3,0c0.2-6,0.3-12.2-1-18.1
			C225.6,107.7,222.7,108.5,223.1,110.4L223.1,110.4z"/>
	</g>
</g>
<g>
	<g>
		<path class="st2" d="M217.6,160.6c5-0.6,10-1.2,15-1c1.9,0.1,1.9-2.9,0-3c-5-0.2-10,0.4-15,1C215.7,157.9,215.6,160.9,217.6,160.6
			L217.6,160.6z"/>
	</g>
</g>
<g>
	<g>
		<path class="st2" d="M223.1,150c1.2,5.6,1.1,11.6,0.9,17.3c-0.1,1.9,2.9,1.9,3,0c0.2-6,0.3-12.2-1-18.1
			C225.6,147.3,222.7,148.1,223.1,150L223.1,150z"/>
	</g>
</g>
<g>
	<g>
		<path class="st2" d="M219.6,208.3c5-0.6,10-1.2,15-1c1.9,0.1,1.9-2.9,0-3c-5-0.2-10,0.4-15,1C217.7,205.5,217.6,208.5,219.6,208.3
			L219.6,208.3z"/>
	</g>
</g>
<g>
	<g>
		<path class="st2" d="M225.1,197.6c1.2,5.6,1.1,11.6,0.9,17.3c-0.1,1.9,2.9,1.9,3,0c0.2-6,0.3-12.2-1-18.1
			C227.6,194.9,224.7,195.7,225.1,197.6L225.1,197.6z"/>
	</g>
</g>
<g>
	<g>
		<path class="st2" d="M219.6,251.6c5-0.6,10-1.2,15-1c1.9,0.1,1.9-2.9,0-3c-5-0.2-10,0.4-15,1C217.7,248.8,217.6,251.8,219.6,251.6
			L219.6,251.6z"/>
	</g>
</g>
<g>
	<g>
		<path class="st2" d="M225.1,240.9c1.2,5.6,1.1,11.6,0.9,17.3c-0.1,1.9,2.9,1.9,3,0c0.2-6,0.3-12.2-1-18.1
			C227.6,238.2,224.7,239,225.1,240.9L225.1,240.9z"/>
	</g>
</g>
</svg>
