<?xml version="1.0" encoding="utf-8"?>
<!-- Generator: Adobe Illustrator 21.0.2, SVG Export Plug-In . SVG Version: 6.00 Build 0)  -->
<svg version="1.1" id="图层_1" xmlns="http://www.w3.org/2000/svg" xmlns:xlink="http://www.w3.org/1999/xlink" x="0px" y="0px"
	 width="500px" height="310px" viewBox="0 0 500 310" style="enable-background:new 0 0 500 310;" xml:space="preserve">
<style type="text/css">
	.st0{fill:none;stroke:#263248;stroke-width:2;stroke-linecap:round;stroke-linejoin:round;stroke-miterlimit:10;}
	.st1{enable-background:new    ;}
	.st2{fill:#263248;}
	.st3{fill:none;stroke:#263248;stroke-width:0.5;stroke-miterlimit:10;}
	.st4{fill:none;stroke:#263248;stroke-width:3;stroke-linecap:round;stroke-linejoin:round;stroke-miterlimit:10;}
</style>
<g>
	<g>
		<path class="st0" d="M35.6,66.2c0,73.4-3,230.7,2.7,236.2c7.7,7.3,278.2,7.8,404.3,2.7"/>
		<path class="st0" d="M37.8,62c51.2-7,407.4-9.9,412,4.1c2.9,8.7,0.2,174.4-4.2,236.2"/>
		<path class="st0" d="M34.7,231.3c133.6-1.4,280.6-1.4,414.3-0.1"/>
		<path class="st0" d="M199.9,58.9c-1.4,16.4-2.7,134.1,0,171.3"/>
		<path class="st0" d="M285.8,57.9c-2.1,57.3-1.6,115,1.2,172.3"/>
		<path class="st0" d="M113.3,58.9c-1.5,58.2-1.9,113.1-0.9,171.4"/>
		<path class="st0" d="M372.3,57.9c1.7,24.4-0.5,139.8,0.6,172.9"/>
		<path class="st0" d="M238.6,230.8c-0.5,28.5-0.4,49.1,0.2,77.6"/>
		<path class="st0" d="M112.2,138c26.9-1,59.2-0.5,86.1,1"/>
		<path class="st0" d="M284.6,139.3c29.1,0,59.1,0,87.8,0"/>
	</g>
</g>
<g class="st1">
	<path class="st2" d="M73.8,41.1c0.1,0,0.1-0.1,0.1-0.2c0-0.1,0-0.2,0.1-0.4c0-0.1,0.1-0.3,0.1-0.5c0.1-0.3,0.2-0.6,0.3-0.8
		c0.2-0.4,0.3-0.7,0.3-0.8s0.1-0.3,0.2-0.5c0.1-0.3,0.2-0.6,0.2-0.9c0.2-0.5,0.4-0.9,0.4-1s0.1-0.3,0.2-0.6c0.1-0.3,0.2-0.5,0.3-0.8
		c0.1-0.3,0.2-0.5,0.3-0.7c0.1-0.2,0.2-0.4,0.3-0.8c0.3-0.6,0.4-1,0.5-1V32c0,0,0-0.1,0.1-0.2c0-0.1,0.1-0.2,0.2-0.4
		c0.1-0.1,0.1-0.3,0.2-0.4c0.1-0.2,0.2-0.5,0.3-0.7c0.1-0.1,0.1-0.2,0.2-0.3c0.3-0.2,0.6-0.3,0.8-0.3c0.2,0,0.4,0.1,0.4,0.2
		c0.2,0.5,0.3,0.8,0.1,1.1c-0.8,1.7-1.4,2.9-1.7,3.7l0.1-0.1c0.3-0.3,0.8-0.7,1.5-1.2l2.2-1.8c0.2-0.1,0.6-0.3,1-0.6
		c0.9-0.7,1.4-1,1.5-1c0.1-0.1,0.3,0.1,0.5,0.4c0.2,0.3,0.3,0.5,0.3,0.7c0,0.1,0,0.2-0.1,0.3c-0.1,0.1-0.3,0.2-0.7,0.4
		c-0.4,0.2-0.6,0.4-0.7,0.5c-0.3,0.3-0.7,0.6-1.2,0.9c-1,0.7-1.7,1.2-1.9,1.5c0,0-0.1,0-0.1,0.1c-0.1,0-0.1,0-0.1,0
		c-0.2,0.1-0.3,0.2-0.3,0.3c-0.1,0.3-0.3,0.4-0.5,0.4c-0.2,0.1-0.5,0.3-0.9,0.7c0.1,0.8,0.3,1.6,0.7,2.2c0.3,0.8,0.7,1.3,1.1,1.7
		c0.5,0.6,0.9,0.9,1.2,0.9c0.1,0,0.3,0.1,0.5,0.3s0.3,0.2,0.3,0.4c0,0.1,0,0.3,0,0.5c0,0.2-0.2,0.4-0.3,0.5c-0.2,0.2-0.5,0.2-0.9,0
		c-0.2,0-0.5-0.2-1-0.5c-0.5-0.4-0.8-0.7-1.1-1c-0.7-1-1.2-1.9-1.4-2.5c-0.1-0.3-0.1-0.5-0.2-0.8c-0.1-0.3-0.2-0.5-0.2-0.6l-0.1,0.1
		c0,0,0,0.1-0.1,0.3c-0.2,0.5-0.4,1.2-0.7,2.2c-0.6,1.8-0.9,2.7-1,2.9c-0.1,0.2-0.3,0.2-0.6,0c-0.5-0.3-0.6-0.6-0.5-0.9
		C73.7,41.7,73.8,41.4,73.8,41.1z"/>
	<path class="st2" d="M86.1,34.7c0.7,0,1.2,0.2,1.5,0.5s0.5,0.7,0.5,1v0.1c0,0.3-0.2,0.7-0.5,1.2c-0.2,0.3-0.4,0.6-0.8,0.8
		c-0.3,0.2-0.7,0.4-1,0.4c-0.3,0-0.7,0-1-0.1c-0.3-0.1-0.5-0.1-0.6-0.1c-0.1,0-0.1,0-0.2,0.1c-0.1,0.1-0.1,0.4-0.1,0.7
		c0,0.3,0.1,0.6,0.3,0.7c0.1,0.1,0.3,0.2,0.5,0.2c0.2,0,0.4,0,0.6-0.1c0.2-0.1,0.4-0.2,0.7-0.5c0.3-0.2,0.5-0.3,0.6-0.3
		s0.3,0.1,0.4,0.2c0.1,0.1,0.2,0.3,0.2,0.4c0,0.3-0.3,0.6-0.8,1.1c-0.5,0.5-1.1,0.7-1.8,0.7s-1.2-0.2-1.6-0.6
		c-0.4-0.4-0.6-0.9-0.6-1.6c0-0.3,0-0.6,0-0.9c0-0.3,0.1-0.7,0.3-1.2c0.2-0.5,0.5-0.9,0.9-1.5s0.8-0.9,1.3-1.1
		C85.4,34.8,85.8,34.7,86.1,34.7z M86,36c-0.2,0-0.4,0.1-0.7,0.4c-0.3,0.3-0.5,0.6-0.8,0.9c0,0.1,0.2,0.2,0.6,0.2s0.6,0,0.7-0.1
		s0.3-0.2,0.5-0.5s0.4-0.4,0.4-0.5c0-0.3-0.2-0.4-0.6-0.5H86z"/>
	<path class="st2" d="M85.7,44.2c0.1-0.2,0.3-0.2,0.5-0.2s0.3,0,0.4,0.1c0.5,0.3,0.9,0.4,1.3,0.4c0.4-0.1,0.8-0.4,1.3-1
		c0.5-0.8,0.9-1.4,1.2-1.9c-0.3-0.1-0.5-0.4-0.7-0.7c-0.2-0.3-0.3-0.6-0.3-0.7v-0.2c-0.1,0-0.2-0.4-0.3-1.1c0-0.7,0-1.3,0-1.6
		c0-0.3,0.1-0.9,0.1-1.6c0-0.3,0.1-0.5,0.3-0.7c0.4-0.2,0.8-0.1,1,0.3c0.2,0.4,0.3,1,0.2,1.9c-0.1,1.6,0,2.6,0.3,3
		c0.1-0.3,0.2-0.5,0.3-0.5c0.2-0.3,0.3-0.6,0.3-0.6c0-0.1,0-0.1,0.1-0.2s0.2-0.3,0.4-0.7c0.3-0.9,0.5-1.4,0.6-1.5
		c0.1-0.1,0.1-0.2,0.2-0.3s0.1-0.2,0.1-0.2s0.1-0.1,0.1-0.2c0-0.1,0.1-0.1,0.1-0.2c0,0,0.1-0.1,0.1-0.1c0-0.1,0.1-0.1,0.2-0.1
		c0.2-0.1,0.4-0.1,0.6,0c0.2,0.2,0.3,0.3,0.4,0.4c0.2,0.3,0.1,0.7-0.2,1.3c-0.2,0.6-0.4,1.1-0.6,1.2c-0.4,0.9-0.8,1.7-1.1,2.3
		c-0.3,0.6-0.5,1.1-0.7,1.5c-0.8,1.2-1.3,2-1.6,2.4c-0.8,0.7-1.4,1.1-1.8,1.2c-0.6,0.1-1.2,0.1-1.8-0.1s-0.9-0.4-1-0.7
		C85.5,44.5,85.5,44.3,85.7,44.2z"/>
	<path class="st2" d="M104.7,29.9c0.3-0.4,0.6-0.5,0.9-0.5c0.3,0,0.7,0.1,1.1,0.4c0.5,0.4,0.8,0.7,0.8,1.1c0,0.1,0,0.2,0,0.3
		c0,0.1,0,0.3,0,0.4c0,0.1,0,0.3,0,0.5c0,0.2,0,0.4,0,0.5c0,0.2,0,0.4-0.1,0.6s0,0.5-0.1,0.7c0,0.2-0.1,0.9-0.2,2.2
		c-0.3,2.6-0.4,4.4-0.3,5.5c0,0.1,0,0.2,0,0.3c0,0.1,0,0.2,0,0.2c-0.1,0.1-0.4,0.1-0.8,0.1c-0.4-0.1-0.7-0.2-0.7-0.4
		c-0.1,0-0.1-0.1-0.1-0.2l0.2-4.2l-0.2,0c-0.2,0-0.7,0-1.5,0.1c-0.8,0.1-1.3,0.2-1.5,0.2c-0.3,0-0.5,0.3-0.8,0.8
		c-0.1,0.2-0.2,0.4-0.3,0.6c-0.1,0.2-0.2,0.3-0.2,0.3l-0.3,0.3c0,0.1-0.1,0.5-0.4,1s-0.5,1-0.7,1.3L99,42.9l-0.6-0.5
		c-0.2-0.1-0.3-0.2-0.3-0.3c0-0.1,0-0.3,0.1-0.5c0.1-0.2,0.3-0.6,0.5-1c0.2-0.4,0.4-0.7,0.5-1c0.5-1,0.8-1.7,0.8-2.2
		c0-0.2,0-0.3,0.3-0.4c0,0,0.1-0.1,0.2-0.2c0.3-0.3,0.6-0.5,0.7-0.7c0.3-0.6,0.9-1.7,1.8-3.3C103.5,31.7,104.1,30.7,104.7,29.9z
		 M105.4,36L105.4,36c0.1-0.1,0.2-0.7,0.3-1.8c0.2-1.1,0.2-1.8,0.3-2.2l-0.1-0.9c-0.1,0-0.4,0.3-0.7,0.9c-0.4,0.6-0.8,1.2-1.1,1.9
		c-0.3,0.5-0.5,0.7-0.6,0.7c-0.1,0.1-0.3,0.4-0.5,0.8c-0.3,0.5-0.4,0.7-0.3,0.8c0.5-0.1,0.9-0.1,1.2-0.2c0.8-0.2,1.2-0.3,1.4-0.2
		C105.3,36,105.4,36,105.4,36z"/>
	<path class="st2" d="M113.2,37.4c-0.1,0.2-0.3,0.3-0.4,0.3c-0.1,0-0.2,0-0.2,0.1c0,0.1-0.1,0.1-0.2,0.1c-0.1,0-0.3,0-0.4-0.1
		c-0.1-0.1-0.2-0.1-0.2-0.2c0-0.1,0-0.3,0.1-0.7s0.1-0.6,0-0.7s-0.2-0.1-0.4,0c-0.4,0.3-0.8,0.6-1,1c-0.2,0.4-0.4,0.9-0.6,1.5
		s-0.2,1-0.2,1.1c0,0.2,0.1,0.4,0.2,0.4c0.4,0.1,0.7,0.1,1-0.1c0.3-0.1,0.6-0.4,1.1-0.7c0,0,0.1-0.1,0.2-0.2s0.2-0.2,0.2-0.2
		c0.1-0.2,0.2-0.2,0.4-0.2h0.4c0.2,0.1,0.4,0.2,0.5,0.4c0,0.1,0,0.2,0,0.2l-0.1,0.1c0,0.1-0.2,0.4-0.6,0.9c-0.5,0.5-0.8,0.7-0.9,0.7
		c-0.1,0-0.2,0-0.2,0.1c0,0-0.2,0.2-0.5,0.3c-0.4,0.2-0.7,0.3-0.9,0.3c-0.6,0.1-1.1,0-1.5-0.3c-0.5-0.3-0.7-0.8-0.7-1.3
		c-0.1-0.6,0-1.2,0.3-2.1c0.3-0.8,0.6-1.5,1-2c0.6-0.7,1.1-1.2,1.4-1.3c0.3-0.1,0.7-0.2,1.1-0.2c0.7,0.2,1,0.4,1,0.6l0.1,0.1
		c0.1,0,0.2,0.2,0.4,0.6c0.1,0.4,0.1,0.6,0.1,0.8C113.5,37,113.4,37.2,113.2,37.4z"/>
	<path class="st2" d="M115.1,35.3c-0.1-0.1-0.1-0.1-0.1-0.2s0.1-0.2,0.2-0.4c0.1-0.2,0.2-0.3,0.3-0.3c0.1,0,0.3,0,0.5,0
		c0.3,0,0.5,0,0.6-0.1s0.2-0.1,0.2-0.2c0-0.1,0.2-0.4,0.4-0.7c0.4-0.8,0.7-1.3,0.9-1.4c0.2-0.1,0.4-0.2,0.6-0.2c0.2,0,0.4,0,0.6,0.2
		c0.2,0.3,0.2,0.5,0,0.8c-0.1,0.1-0.2,0.3-0.3,0.6c-0.2,0.2-0.3,0.4-0.3,0.5c-0.2,0.3-0.2,0.4-0.1,0.5s0.5,0,1.1-0.1
		c0.6-0.1,0.9,0.1,1,0.6c0,0.3,0,0.5-0.1,0.5c-0.1,0.1-0.4,0.1-0.8,0.1c-0.4,0.1-0.7,0.1-1.1,0.1c-0.3,0-0.5,0-0.6,0
		c-0.1,0-0.3,0.2-0.3,0.3c0,0-0.1,0.1-0.1,0.2c-0.1,0.1-0.2,0.4-0.5,0.8c-0.3,0.9-0.6,1.9-0.7,2.8c0,0.2,0,0.4,0,0.5
		c0.1,0.1,0.3,0.2,0.6,0.2c0.6,0.1,1.2-0.1,1.9-0.5l0.5-0.3c0.1-0.1,0.2-0.1,0.4,0.2c0,0.1,0.1,0.1,0.1,0.2c0,0.5-0.3,0.8-0.8,1.1
		c-0.5,0.3-1,0.5-1.5,0.6c-0.5,0.1-0.9,0.1-1.2,0.1c-0.3-0.1-0.5-0.2-0.8-0.5c-0.2-0.3-0.4-0.5-0.5-0.7l-0.1-0.1
		c-0.1-0.1-0.1-0.4-0.1-0.9c0-0.6,0.1-1,0.1-1.2c0.1-0.3,0.3-0.9,0.6-1.8l0.5-1l-0.7-0.2C115.2,35.4,115.2,35.3,115.1,35.3z"/>
	<path class="st2" d="M120.8,40.1l0.1-0.4c0-0.1,0-0.3,0.1-0.6c0.3-0.6,0.6-1.6,1-2.9c0-0.1,0.1-0.2,0.3-0.2c0.1,0,0.3,0,0.5,0.2
		s0.4,0.3,0.5,0.5c0.2,0.2,0.1,0.4,0,0.9s-0.3,0.8-0.4,1.2c-0.1,0.3-0.2,0.6-0.3,0.7c0,0.2-0.1,0.4-0.2,0.7
		c-0.1,0.3-0.1,0.6-0.2,0.7c-0.1,0.5-0.3,0.8-0.6,0.9c-0.3,0.1-0.5,0-0.7-0.2c-0.1-0.1-0.2-0.4-0.2-0.7
		C120.6,40.5,120.7,40.2,120.8,40.1z M122.6,33.9c-0.1-0.2-0.1-0.3-0.1-0.4c0-0.1,0-0.2,0.1-0.3c0.1-0.1,0.1-0.3,0.3-0.5
		c0.3-0.5,0.4-0.8,0.5-0.8c0.1-0.1,0.3-0.1,0.6,0c0.3,0.1,0.4,0.3,0.6,0.5c0.2,0.5,0.1,1-0.3,1.5c-0.2,0.2-0.4,0.4-0.7,0.5
		c-0.3,0.1-0.5,0-0.6-0.1C122.8,34.2,122.6,34.1,122.6,33.9z"/>
	<path class="st2" d="M125.1,35.4c0,0,0.2-0.1,0.3-0.1s0.3,0,0.3,0c0.3,0.1,0.5,0.8,0.7,2.2c0,0.2,0,0.4,0.1,0.6
		c0.1,0.3,0.1,0.5,0.1,0.5c0,0,0,0.1,0.1,0.3s0.1,0.2,0.1,0.2c0.1,0,0.6-0.5,1.3-1.6c0.4-0.6,0.8-1,1-1.3c0.3-0.3,0.5-0.4,0.6-0.5
		c0.3,0,0.5,0.1,0.5,0.3c0.1,0.3,0,0.6-0.3,0.9c-0.1,0.1-0.1,0.2-0.2,0.4s-0.2,0.3-0.2,0.5c-0.1,0.1-0.3,0.5-0.6,0.9
		c-0.4,0.5-0.6,0.8-0.6,0.8c-0.1,0.1-0.1,0.1-0.2,0.2c-0.3,0.3-0.5,0.5-0.6,0.6c-0.3,0.3-0.6,0.4-0.8,0.5c-0.3,0.1-0.5,0-0.6-0.1
		c-0.1-0.1-0.3-0.5-0.5-1.2c-0.2-0.7-0.4-1.3-0.5-1.7c-0.1-0.4-0.2-0.9-0.3-1.3c-0.1-0.2,0-0.4,0.1-0.7
		C124.8,35.7,125,35.5,125.1,35.4z"/>
	<path class="st2" d="M130.6,40.1l0.1-0.4c0-0.1,0-0.3,0.1-0.6c0.3-0.6,0.6-1.6,1-2.9c0-0.1,0.1-0.2,0.3-0.2c0.1,0,0.3,0,0.5,0.2
		s0.4,0.3,0.5,0.5c0.2,0.2,0.1,0.4,0,0.9s-0.3,0.8-0.4,1.2c-0.1,0.3-0.2,0.6-0.3,0.7c0,0.2-0.1,0.4-0.2,0.7
		c-0.1,0.3-0.1,0.6-0.2,0.7c-0.1,0.5-0.3,0.8-0.6,0.9c-0.3,0.1-0.5,0-0.7-0.2c-0.1-0.1-0.2-0.4-0.2-0.7
		C130.5,40.5,130.5,40.2,130.6,40.1z M132.4,33.9c-0.1-0.2-0.1-0.3-0.1-0.4c0-0.1,0-0.2,0.1-0.3c0.1-0.1,0.1-0.3,0.3-0.5
		c0.3-0.5,0.4-0.8,0.5-0.8c0.1-0.1,0.3-0.1,0.6,0c0.3,0.1,0.4,0.3,0.6,0.5c0.2,0.5,0.1,1-0.3,1.5c-0.2,0.2-0.4,0.4-0.7,0.5
		c-0.3,0.1-0.5,0-0.6-0.1C132.6,34.2,132.5,34.1,132.4,33.9z"/>
	<path class="st2" d="M134.6,35.3c-0.1-0.1-0.1-0.1-0.1-0.2s0.1-0.2,0.2-0.4c0.1-0.2,0.2-0.3,0.3-0.3c0.1,0,0.3,0,0.5,0
		c0.3,0,0.5,0,0.6-0.1s0.2-0.1,0.2-0.2c0-0.1,0.2-0.4,0.4-0.7c0.4-0.8,0.7-1.3,0.9-1.4c0.2-0.1,0.4-0.2,0.6-0.2c0.2,0,0.4,0,0.6,0.2
		c0.2,0.3,0.2,0.5,0,0.8c-0.1,0.1-0.2,0.3-0.3,0.6c-0.2,0.2-0.3,0.4-0.3,0.5c-0.2,0.3-0.2,0.4-0.1,0.5s0.5,0,1.1-0.1
		c0.6-0.1,0.9,0.1,1,0.6c0,0.3,0,0.5-0.1,0.5c-0.1,0.1-0.4,0.1-0.8,0.1c-0.4,0.1-0.7,0.1-1.1,0.1c-0.3,0-0.5,0-0.6,0
		c-0.1,0-0.3,0.2-0.3,0.3c0,0-0.1,0.1-0.1,0.2c-0.1,0.1-0.2,0.4-0.5,0.8c-0.3,0.9-0.6,1.9-0.7,2.8c0,0.2,0,0.4,0,0.5
		c0.1,0.1,0.3,0.2,0.6,0.2c0.6,0.1,1.2-0.1,1.9-0.5l0.5-0.3c0.1-0.1,0.2-0.1,0.4,0.2c0,0.1,0.1,0.1,0.1,0.2c0,0.5-0.3,0.8-0.8,1.1
		c-0.5,0.3-1,0.5-1.5,0.6c-0.5,0.1-0.9,0.1-1.2,0.1c-0.3-0.1-0.5-0.2-0.8-0.5c-0.2-0.3-0.4-0.5-0.5-0.7l-0.1-0.1
		c-0.1-0.1-0.1-0.4-0.1-0.9c0-0.6,0.1-1,0.1-1.2c0.1-0.3,0.3-0.9,0.6-1.8l0.5-1l-0.7-0.2C134.7,35.4,134.6,35.3,134.6,35.3z"/>
	<path class="st2" d="M140.2,40.1l0.1-0.4c0-0.1,0-0.3,0.1-0.6c0.3-0.6,0.6-1.6,1-2.9c0-0.1,0.1-0.2,0.3-0.2c0.1,0,0.3,0,0.5,0.2
		s0.4,0.3,0.5,0.5c0.2,0.2,0.1,0.4,0,0.9s-0.3,0.8-0.4,1.2c-0.1,0.3-0.2,0.6-0.3,0.7c0,0.2-0.1,0.4-0.2,0.7
		c-0.1,0.3-0.1,0.6-0.2,0.7c-0.1,0.5-0.3,0.8-0.6,0.9c-0.3,0.1-0.5,0-0.7-0.2c-0.1-0.1-0.2-0.4-0.2-0.7
		C140.1,40.5,140.1,40.2,140.2,40.1z M142,33.9c-0.1-0.2-0.1-0.3-0.1-0.4c0-0.1,0-0.2,0.1-0.3c0.1-0.1,0.1-0.3,0.3-0.5
		c0.3-0.5,0.4-0.8,0.5-0.8c0.1-0.1,0.3-0.1,0.6,0c0.3,0.1,0.4,0.3,0.6,0.5c0.2,0.5,0.1,1-0.3,1.5c-0.2,0.2-0.4,0.4-0.7,0.5
		c-0.3,0.1-0.5,0-0.6-0.1C142.2,34.2,142.1,34.1,142,33.9z"/>
	<path class="st2" d="M147.4,34.7c0.7,0,1.2,0.2,1.5,0.5s0.5,0.7,0.5,1v0.1c0,0.3-0.2,0.7-0.5,1.2c-0.2,0.3-0.4,0.6-0.8,0.8
		c-0.3,0.2-0.7,0.4-1,0.4c-0.3,0-0.7,0-1-0.1c-0.3-0.1-0.5-0.1-0.6-0.1c-0.1,0-0.1,0-0.2,0.1c-0.1,0.1-0.1,0.4-0.1,0.7
		c0,0.3,0.1,0.6,0.3,0.7c0.1,0.1,0.3,0.2,0.5,0.2c0.2,0,0.4,0,0.6-0.1c0.2-0.1,0.4-0.2,0.7-0.5c0.3-0.2,0.5-0.3,0.6-0.3
		s0.3,0.1,0.4,0.2c0.1,0.1,0.2,0.3,0.2,0.4c0,0.3-0.3,0.6-0.8,1.1c-0.5,0.5-1.1,0.7-1.8,0.7s-1.2-0.2-1.6-0.6
		c-0.4-0.4-0.6-0.9-0.6-1.6c0-0.3,0-0.6,0-0.9c0-0.3,0.1-0.7,0.3-1.2c0.2-0.5,0.5-0.9,0.9-1.5s0.8-0.9,1.3-1.1
		C146.7,34.8,147.1,34.7,147.4,34.7z M147.3,36c-0.2,0-0.4,0.1-0.7,0.4c-0.3,0.3-0.5,0.6-0.8,0.9c0,0.1,0.2,0.2,0.6,0.2
		s0.6,0,0.7-0.1s0.3-0.2,0.5-0.5s0.4-0.4,0.4-0.5c0-0.3-0.2-0.4-0.6-0.5H147.3z"/>
	<path class="st2" d="M153.5,34.3c0.2-0.1,0.4-0.1,0.7-0.1s0.5,0,0.6,0.1c0.1,0,0.1,0,0.1,0c0.1,0,0.3,0.1,0.6,0.4s0.4,0.4,0.4,0.6
		c0,0.9-0.1,1.3-0.2,1.3c-0.1,0-0.1,0-0.1,0.1c0,0.2-0.1,0.4-0.4,0.6c-0.3,0.2-0.6,0.3-0.8,0.3c-0.1,0-0.3-0.1-0.4-0.2
		s-0.2-0.3-0.2-0.4c0,0,0.1-0.2,0.4-0.5c0.2-0.3,0.4-0.5,0.4-0.8c0-0.1-0.1-0.1-0.3-0.1c-0.7,0.3-1.1,0.6-1.4,0.8
		c-0.1,0.1-0.1,0.2-0.2,0.2c0,0,0,0,0,0c0,0-0.1,0.1-0.2,0.2s-0.2,0.3-0.4,0.5c-0.1,0.2-0.2,0.4-0.2,0.5l0,0.1v0.1c0,0,0,0.1,0,0.1
		c0,0.2,0.3,0.5,0.8,0.9s0.9,0.7,1.1,0.9c0.2,0.2,0.3,0.4,0.4,0.5c0.1,0.2,0.2,0.4,0.2,0.6c0,0.4-0.2,0.7-0.6,0.9
		c-0.4,0.2-0.9,0.3-1.5,0.3s-1.1-0.1-1.5-0.4c-0.4-0.3-0.7-0.5-0.7-0.7c0-0.2,0.1-0.3,0.2-0.3c0.1-0.1,0.3-0.1,0.5-0.1
		c0.3,0,0.6,0.1,0.9,0.1c0.2,0,0.5,0,0.7-0.1s0.3-0.1,0.3-0.1s0-0.1-0.1-0.2s-0.2-0.1-0.3-0.1c0,0-0.2-0.2-0.7-0.6
		c-0.5-0.4-0.7-0.6-0.7-0.7c0,0,0,0,0,0v-0.1c-0.1,0-0.2-0.1-0.2-0.3c-0.1-0.2-0.1-0.5-0.1-0.7c0-0.6,0.4-1.3,1.1-2
		C152,35,152.7,34.6,153.5,34.3z"/>
</g>
<g class="st1">
	<path class="st3" d="M73.8,41.1c0.1,0,0.1-0.1,0.1-0.2c0-0.1,0-0.2,0.1-0.4c0-0.1,0.1-0.3,0.1-0.5c0.1-0.3,0.2-0.6,0.3-0.8
		c0.2-0.4,0.3-0.7,0.3-0.8s0.1-0.3,0.2-0.5c0.1-0.3,0.2-0.6,0.2-0.9c0.2-0.5,0.4-0.9,0.4-1s0.1-0.3,0.2-0.6c0.1-0.3,0.2-0.5,0.3-0.8
		c0.1-0.3,0.2-0.5,0.3-0.7c0.1-0.2,0.2-0.4,0.3-0.8c0.3-0.6,0.4-1,0.5-1V32c0,0,0-0.1,0.1-0.2c0-0.1,0.1-0.2,0.2-0.4
		c0.1-0.1,0.1-0.3,0.2-0.4c0.1-0.2,0.2-0.5,0.3-0.7c0.1-0.1,0.1-0.2,0.2-0.3c0.3-0.2,0.6-0.3,0.8-0.3c0.2,0,0.4,0.1,0.4,0.2
		c0.2,0.5,0.3,0.8,0.1,1.1c-0.8,1.7-1.4,2.9-1.7,3.7l0.1-0.1c0.3-0.3,0.8-0.7,1.5-1.2l2.2-1.8c0.2-0.1,0.6-0.3,1-0.6
		c0.9-0.7,1.4-1,1.5-1c0.1-0.1,0.3,0.1,0.5,0.4c0.2,0.3,0.3,0.5,0.3,0.7c0,0.1,0,0.2-0.1,0.3c-0.1,0.1-0.3,0.2-0.7,0.4
		c-0.4,0.2-0.6,0.4-0.7,0.5c-0.3,0.3-0.7,0.6-1.2,0.9c-1,0.7-1.7,1.2-1.9,1.5c0,0-0.1,0-0.1,0.1c-0.1,0-0.1,0-0.1,0
		c-0.2,0.1-0.3,0.2-0.3,0.3c-0.1,0.3-0.3,0.4-0.5,0.4c-0.2,0.1-0.5,0.3-0.9,0.7c0.1,0.8,0.3,1.6,0.7,2.2c0.3,0.8,0.7,1.3,1.1,1.7
		c0.5,0.6,0.9,0.9,1.2,0.9c0.1,0,0.3,0.1,0.5,0.3s0.3,0.2,0.3,0.4c0,0.1,0,0.3,0,0.5c0,0.2-0.2,0.4-0.3,0.5c-0.2,0.2-0.5,0.2-0.9,0
		c-0.2,0-0.5-0.2-1-0.5c-0.5-0.4-0.8-0.7-1.1-1c-0.7-1-1.2-1.9-1.4-2.5c-0.1-0.3-0.1-0.5-0.2-0.8c-0.1-0.3-0.2-0.5-0.2-0.6l-0.1,0.1
		c0,0,0,0.1-0.1,0.3c-0.2,0.5-0.4,1.2-0.7,2.2c-0.6,1.8-0.9,2.7-1,2.9c-0.1,0.2-0.3,0.2-0.6,0c-0.5-0.3-0.6-0.6-0.5-0.9
		C73.7,41.7,73.8,41.4,73.8,41.1z"/>
	<path class="st3" d="M86.1,34.7c0.7,0,1.2,0.2,1.5,0.5s0.5,0.7,0.5,1v0.1c0,0.3-0.2,0.7-0.5,1.2c-0.2,0.3-0.4,0.6-0.8,0.8
		c-0.3,0.2-0.7,0.4-1,0.4c-0.3,0-0.7,0-1-0.1c-0.3-0.1-0.5-0.1-0.6-0.1c-0.1,0-0.1,0-0.2,0.1c-0.1,0.1-0.1,0.4-0.1,0.7
		c0,0.3,0.1,0.6,0.3,0.7c0.1,0.1,0.3,0.2,0.5,0.2c0.2,0,0.4,0,0.6-0.1c0.2-0.1,0.4-0.2,0.7-0.5c0.3-0.2,0.5-0.3,0.6-0.3
		s0.3,0.1,0.4,0.2c0.1,0.1,0.2,0.3,0.2,0.4c0,0.3-0.3,0.6-0.8,1.1c-0.5,0.5-1.1,0.7-1.8,0.7s-1.2-0.2-1.6-0.6
		c-0.4-0.4-0.6-0.9-0.6-1.6c0-0.3,0-0.6,0-0.9c0-0.3,0.1-0.7,0.3-1.2c0.2-0.5,0.5-0.9,0.9-1.5s0.8-0.9,1.3-1.1
		C85.4,34.8,85.8,34.7,86.1,34.7z M86,36c-0.2,0-0.4,0.1-0.7,0.4c-0.3,0.3-0.5,0.6-0.8,0.9c0,0.1,0.2,0.2,0.6,0.2s0.6,0,0.7-0.1
		s0.3-0.2,0.5-0.5s0.4-0.4,0.4-0.5c0-0.3-0.2-0.4-0.6-0.5H86z"/>
	<path class="st3" d="M85.7,44.2c0.1-0.2,0.3-0.2,0.5-0.2s0.3,0,0.4,0.1c0.5,0.3,0.9,0.4,1.3,0.4c0.4-0.1,0.8-0.4,1.3-1
		c0.5-0.8,0.9-1.4,1.2-1.9c-0.3-0.1-0.5-0.4-0.7-0.7c-0.2-0.3-0.3-0.6-0.3-0.7v-0.2c-0.1,0-0.2-0.4-0.3-1.1c0-0.7,0-1.3,0-1.6
		c0-0.3,0.1-0.9,0.1-1.6c0-0.3,0.1-0.5,0.3-0.7c0.4-0.2,0.8-0.1,1,0.3c0.2,0.4,0.3,1,0.2,1.9c-0.1,1.6,0,2.6,0.3,3
		c0.1-0.3,0.2-0.5,0.3-0.5c0.2-0.3,0.3-0.6,0.3-0.6c0-0.1,0-0.1,0.1-0.2s0.2-0.3,0.4-0.7c0.3-0.9,0.5-1.4,0.6-1.5
		c0.1-0.1,0.1-0.2,0.2-0.3s0.1-0.2,0.1-0.2s0.1-0.1,0.1-0.2c0-0.1,0.1-0.1,0.1-0.2c0,0,0.1-0.1,0.1-0.1c0-0.1,0.1-0.1,0.2-0.1
		c0.2-0.1,0.4-0.1,0.6,0c0.2,0.2,0.3,0.3,0.4,0.4c0.2,0.3,0.1,0.7-0.2,1.3c-0.2,0.6-0.4,1.1-0.6,1.2c-0.4,0.9-0.8,1.7-1.1,2.3
		c-0.3,0.6-0.5,1.1-0.7,1.5c-0.8,1.2-1.3,2-1.6,2.4c-0.8,0.7-1.4,1.1-1.8,1.2c-0.6,0.1-1.2,0.1-1.8-0.1s-0.9-0.4-1-0.7
		C85.5,44.5,85.5,44.3,85.7,44.2z"/>
	<path class="st3" d="M104.7,29.9c0.3-0.4,0.6-0.5,0.9-0.5c0.3,0,0.7,0.1,1.1,0.4c0.5,0.4,0.8,0.7,0.8,1.1c0,0.1,0,0.2,0,0.3
		c0,0.1,0,0.3,0,0.4c0,0.1,0,0.3,0,0.5c0,0.2,0,0.4,0,0.5c0,0.2,0,0.4-0.1,0.6s0,0.5-0.1,0.7c0,0.2-0.1,0.9-0.2,2.2
		c-0.3,2.6-0.4,4.4-0.3,5.5c0,0.1,0,0.2,0,0.3c0,0.1,0,0.2,0,0.2c-0.1,0.1-0.4,0.1-0.8,0.1c-0.4-0.1-0.7-0.2-0.7-0.4
		c-0.1,0-0.1-0.1-0.1-0.2l0.2-4.2l-0.2,0c-0.2,0-0.7,0-1.5,0.1c-0.8,0.1-1.3,0.2-1.5,0.2c-0.3,0-0.5,0.3-0.8,0.8
		c-0.1,0.2-0.2,0.4-0.3,0.6c-0.1,0.2-0.2,0.3-0.2,0.3l-0.3,0.3c0,0.1-0.1,0.5-0.4,1s-0.5,1-0.7,1.3L99,42.9l-0.6-0.5
		c-0.2-0.1-0.3-0.2-0.3-0.3c0-0.1,0-0.3,0.1-0.5c0.1-0.2,0.3-0.6,0.5-1c0.2-0.4,0.4-0.7,0.5-1c0.5-1,0.8-1.7,0.8-2.2
		c0-0.2,0-0.3,0.3-0.4c0,0,0.1-0.1,0.2-0.2c0.3-0.3,0.6-0.5,0.7-0.7c0.3-0.6,0.9-1.7,1.8-3.3C103.5,31.7,104.1,30.7,104.7,29.9z
		 M105.4,36L105.4,36c0.1-0.1,0.2-0.7,0.3-1.8c0.2-1.1,0.2-1.8,0.3-2.2l-0.1-0.9c-0.1,0-0.4,0.3-0.7,0.9c-0.4,0.6-0.8,1.2-1.1,1.9
		c-0.3,0.5-0.5,0.7-0.6,0.7c-0.1,0.1-0.3,0.4-0.5,0.8c-0.3,0.5-0.4,0.7-0.3,0.8c0.5-0.1,0.9-0.1,1.2-0.2c0.8-0.2,1.2-0.3,1.4-0.2
		C105.3,36,105.4,36,105.4,36z"/>
	<path class="st3" d="M113.2,37.4c-0.1,0.2-0.3,0.3-0.4,0.3c-0.1,0-0.2,0-0.2,0.1c0,0.1-0.1,0.1-0.2,0.1c-0.1,0-0.3,0-0.4-0.1
		c-0.1-0.1-0.2-0.1-0.2-0.2c0-0.1,0-0.3,0.1-0.7s0.1-0.6,0-0.7s-0.2-0.1-0.4,0c-0.4,0.3-0.8,0.6-1,1c-0.2,0.4-0.4,0.9-0.6,1.5
		s-0.2,1-0.2,1.1c0,0.2,0.1,0.4,0.2,0.4c0.4,0.1,0.7,0.1,1-0.1c0.3-0.1,0.6-0.4,1.1-0.7c0,0,0.1-0.1,0.2-0.2s0.2-0.2,0.2-0.2
		c0.1-0.2,0.2-0.2,0.4-0.2h0.4c0.2,0.1,0.4,0.2,0.5,0.4c0,0.1,0,0.2,0,0.2l-0.1,0.1c0,0.1-0.2,0.4-0.6,0.9c-0.5,0.5-0.8,0.7-0.9,0.7
		c-0.1,0-0.2,0-0.2,0.1c0,0-0.2,0.2-0.5,0.3c-0.4,0.2-0.7,0.3-0.9,0.3c-0.6,0.1-1.1,0-1.5-0.3c-0.5-0.3-0.7-0.8-0.7-1.3
		c-0.1-0.6,0-1.2,0.3-2.1c0.3-0.8,0.6-1.5,1-2c0.6-0.7,1.1-1.2,1.4-1.3c0.3-0.1,0.7-0.2,1.1-0.2c0.7,0.2,1,0.4,1,0.6l0.1,0.1
		c0.1,0,0.2,0.2,0.4,0.6c0.1,0.4,0.1,0.6,0.1,0.8C113.5,37,113.4,37.2,113.2,37.4z"/>
	<path class="st3" d="M115.1,35.3c-0.1-0.1-0.1-0.1-0.1-0.2s0.1-0.2,0.2-0.4c0.1-0.2,0.2-0.3,0.3-0.3c0.1,0,0.3,0,0.5,0
		c0.3,0,0.5,0,0.6-0.1s0.2-0.1,0.2-0.2c0-0.1,0.2-0.4,0.4-0.7c0.4-0.8,0.7-1.3,0.9-1.4c0.2-0.1,0.4-0.2,0.6-0.2c0.2,0,0.4,0,0.6,0.2
		c0.2,0.3,0.2,0.5,0,0.8c-0.1,0.1-0.2,0.3-0.3,0.6c-0.2,0.2-0.3,0.4-0.3,0.5c-0.2,0.3-0.2,0.4-0.1,0.5s0.5,0,1.1-0.1
		c0.6-0.1,0.9,0.1,1,0.6c0,0.3,0,0.5-0.1,0.5c-0.1,0.1-0.4,0.1-0.8,0.1c-0.4,0.1-0.7,0.1-1.1,0.1c-0.3,0-0.5,0-0.6,0
		c-0.1,0-0.3,0.2-0.3,0.3c0,0-0.1,0.1-0.1,0.2c-0.1,0.1-0.2,0.4-0.5,0.8c-0.3,0.9-0.6,1.9-0.7,2.8c0,0.2,0,0.4,0,0.5
		c0.1,0.1,0.3,0.2,0.6,0.2c0.6,0.1,1.2-0.1,1.9-0.5l0.5-0.3c0.1-0.1,0.2-0.1,0.4,0.2c0,0.1,0.1,0.1,0.1,0.2c0,0.5-0.3,0.8-0.8,1.1
		c-0.5,0.3-1,0.5-1.5,0.6c-0.5,0.1-0.9,0.1-1.2,0.1c-0.3-0.1-0.5-0.2-0.8-0.5c-0.2-0.3-0.4-0.5-0.5-0.7l-0.1-0.1
		c-0.1-0.1-0.1-0.4-0.1-0.9c0-0.6,0.1-1,0.1-1.2c0.1-0.3,0.3-0.9,0.6-1.8l0.5-1l-0.7-0.2C115.2,35.4,115.2,35.3,115.1,35.3z"/>
	<path class="st3" d="M120.8,40.1l0.1-0.4c0-0.1,0-0.3,0.1-0.6c0.3-0.6,0.6-1.6,1-2.9c0-0.1,0.1-0.2,0.3-0.2c0.1,0,0.3,0,0.5,0.2
		s0.4,0.3,0.5,0.5c0.2,0.2,0.1,0.4,0,0.9s-0.3,0.8-0.4,1.2c-0.1,0.3-0.2,0.6-0.3,0.7c0,0.2-0.1,0.4-0.2,0.7
		c-0.1,0.3-0.1,0.6-0.2,0.7c-0.1,0.5-0.3,0.8-0.6,0.9c-0.3,0.1-0.5,0-0.7-0.2c-0.1-0.1-0.2-0.4-0.2-0.7
		C120.6,40.5,120.7,40.2,120.8,40.1z M122.6,33.9c-0.1-0.2-0.1-0.3-0.1-0.4c0-0.1,0-0.2,0.1-0.3c0.1-0.1,0.1-0.3,0.3-0.5
		c0.3-0.5,0.4-0.8,0.5-0.8c0.1-0.1,0.3-0.1,0.6,0c0.3,0.1,0.4,0.3,0.6,0.5c0.2,0.5,0.1,1-0.3,1.5c-0.2,0.2-0.4,0.4-0.7,0.5
		c-0.3,0.1-0.5,0-0.6-0.1C122.8,34.2,122.6,34.1,122.6,33.9z"/>
	<path class="st3" d="M125.1,35.4c0,0,0.2-0.1,0.3-0.1s0.3,0,0.3,0c0.3,0.1,0.5,0.8,0.7,2.2c0,0.2,0,0.4,0.1,0.6
		c0.1,0.3,0.1,0.5,0.1,0.5c0,0,0,0.1,0.1,0.3s0.1,0.2,0.1,0.2c0.1,0,0.6-0.5,1.3-1.6c0.4-0.6,0.8-1,1-1.3c0.3-0.3,0.5-0.4,0.6-0.5
		c0.3,0,0.5,0.1,0.5,0.3c0.1,0.3,0,0.6-0.3,0.9c-0.1,0.1-0.1,0.2-0.2,0.4s-0.2,0.3-0.2,0.5c-0.1,0.1-0.3,0.5-0.6,0.9
		c-0.4,0.5-0.6,0.8-0.6,0.8c-0.1,0.1-0.1,0.1-0.2,0.2c-0.3,0.3-0.5,0.5-0.6,0.6c-0.3,0.3-0.6,0.4-0.8,0.5c-0.3,0.1-0.5,0-0.6-0.1
		c-0.1-0.1-0.3-0.5-0.5-1.2c-0.2-0.7-0.4-1.3-0.5-1.7c-0.1-0.4-0.2-0.9-0.3-1.3c-0.1-0.2,0-0.4,0.1-0.7
		C124.8,35.7,125,35.5,125.1,35.4z"/>
	<path class="st3" d="M130.6,40.1l0.1-0.4c0-0.1,0-0.3,0.1-0.6c0.3-0.6,0.6-1.6,1-2.9c0-0.1,0.1-0.2,0.3-0.2c0.1,0,0.3,0,0.5,0.2
		s0.4,0.3,0.5,0.5c0.2,0.2,0.1,0.4,0,0.9s-0.3,0.8-0.4,1.2c-0.1,0.3-0.2,0.6-0.3,0.7c0,0.2-0.1,0.4-0.2,0.7
		c-0.1,0.3-0.1,0.6-0.2,0.7c-0.1,0.5-0.3,0.8-0.6,0.9c-0.3,0.1-0.5,0-0.7-0.2c-0.1-0.1-0.2-0.4-0.2-0.7
		C130.5,40.5,130.5,40.2,130.6,40.1z M132.4,33.9c-0.1-0.2-0.1-0.3-0.1-0.4c0-0.1,0-0.2,0.1-0.3c0.1-0.1,0.1-0.3,0.3-0.5
		c0.3-0.5,0.4-0.8,0.5-0.8c0.1-0.1,0.3-0.1,0.6,0c0.3,0.1,0.4,0.3,0.6,0.5c0.2,0.5,0.1,1-0.3,1.5c-0.2,0.2-0.4,0.4-0.7,0.5
		c-0.3,0.1-0.5,0-0.6-0.1C132.6,34.2,132.5,34.1,132.4,33.9z"/>
	<path class="st3" d="M134.6,35.3c-0.1-0.1-0.1-0.1-0.1-0.2s0.1-0.2,0.2-0.4c0.1-0.2,0.2-0.3,0.3-0.3c0.1,0,0.3,0,0.5,0
		c0.3,0,0.5,0,0.6-0.1s0.2-0.1,0.2-0.2c0-0.1,0.2-0.4,0.4-0.7c0.4-0.8,0.7-1.3,0.9-1.4c0.2-0.1,0.4-0.2,0.6-0.2c0.2,0,0.4,0,0.6,0.2
		c0.2,0.3,0.2,0.5,0,0.8c-0.1,0.1-0.2,0.3-0.3,0.6c-0.2,0.2-0.3,0.4-0.3,0.5c-0.2,0.3-0.2,0.4-0.1,0.5s0.5,0,1.1-0.1
		c0.6-0.1,0.9,0.1,1,0.6c0,0.3,0,0.5-0.1,0.5c-0.1,0.1-0.4,0.1-0.8,0.1c-0.4,0.1-0.7,0.1-1.1,0.1c-0.3,0-0.5,0-0.6,0
		c-0.1,0-0.3,0.2-0.3,0.3c0,0-0.1,0.1-0.1,0.2c-0.1,0.1-0.2,0.4-0.5,0.8c-0.3,0.9-0.6,1.9-0.7,2.8c0,0.2,0,0.4,0,0.5
		c0.1,0.1,0.3,0.2,0.6,0.2c0.6,0.1,1.2-0.1,1.9-0.5l0.5-0.3c0.1-0.1,0.2-0.1,0.4,0.2c0,0.1,0.1,0.1,0.1,0.2c0,0.5-0.3,0.8-0.8,1.1
		c-0.5,0.3-1,0.5-1.5,0.6c-0.5,0.1-0.9,0.1-1.2,0.1c-0.3-0.1-0.5-0.2-0.8-0.5c-0.2-0.3-0.4-0.5-0.5-0.7l-0.1-0.1
		c-0.1-0.1-0.1-0.4-0.1-0.9c0-0.6,0.1-1,0.1-1.2c0.1-0.3,0.3-0.9,0.6-1.8l0.5-1l-0.7-0.2C134.7,35.4,134.6,35.3,134.6,35.3z"/>
	<path class="st3" d="M140.2,40.1l0.1-0.4c0-0.1,0-0.3,0.1-0.6c0.3-0.6,0.6-1.6,1-2.9c0-0.1,0.1-0.2,0.3-0.2c0.1,0,0.3,0,0.5,0.2
		s0.4,0.3,0.5,0.5c0.2,0.2,0.1,0.4,0,0.9s-0.3,0.8-0.4,1.2c-0.1,0.3-0.2,0.6-0.3,0.7c0,0.2-0.1,0.4-0.2,0.7
		c-0.1,0.3-0.1,0.6-0.2,0.7c-0.1,0.5-0.3,0.8-0.6,0.9c-0.3,0.1-0.5,0-0.7-0.2c-0.1-0.1-0.2-0.4-0.2-0.7
		C140.1,40.5,140.1,40.2,140.2,40.1z M142,33.9c-0.1-0.2-0.1-0.3-0.1-0.4c0-0.1,0-0.2,0.1-0.3c0.1-0.1,0.1-0.3,0.3-0.5
		c0.3-0.5,0.4-0.8,0.5-0.8c0.1-0.1,0.3-0.1,0.6,0c0.3,0.1,0.4,0.3,0.6,0.5c0.2,0.5,0.1,1-0.3,1.5c-0.2,0.2-0.4,0.4-0.7,0.5
		c-0.3,0.1-0.5,0-0.6-0.1C142.2,34.2,142.1,34.1,142,33.9z"/>
	<path class="st3" d="M147.4,34.7c0.7,0,1.2,0.2,1.5,0.5s0.5,0.7,0.5,1v0.1c0,0.3-0.2,0.7-0.5,1.2c-0.2,0.3-0.4,0.6-0.8,0.8
		c-0.3,0.2-0.7,0.4-1,0.4c-0.3,0-0.7,0-1-0.1c-0.3-0.1-0.5-0.1-0.6-0.1c-0.1,0-0.1,0-0.2,0.1c-0.1,0.1-0.1,0.4-0.1,0.7
		c0,0.3,0.1,0.6,0.3,0.7c0.1,0.1,0.3,0.2,0.5,0.2c0.2,0,0.4,0,0.6-0.1c0.2-0.1,0.4-0.2,0.7-0.5c0.3-0.2,0.5-0.3,0.6-0.3
		s0.3,0.1,0.4,0.2c0.1,0.1,0.2,0.3,0.2,0.4c0,0.3-0.3,0.6-0.8,1.1c-0.5,0.5-1.1,0.7-1.8,0.7s-1.2-0.2-1.6-0.6
		c-0.4-0.4-0.6-0.9-0.6-1.6c0-0.3,0-0.6,0-0.9c0-0.3,0.1-0.7,0.3-1.2c0.2-0.5,0.5-0.9,0.9-1.5s0.8-0.9,1.3-1.1
		C146.7,34.8,147.1,34.7,147.4,34.7z M147.3,36c-0.2,0-0.4,0.1-0.7,0.4c-0.3,0.3-0.5,0.6-0.8,0.9c0,0.1,0.2,0.2,0.6,0.2
		s0.6,0,0.7-0.1s0.3-0.2,0.5-0.5s0.4-0.4,0.4-0.5c0-0.3-0.2-0.4-0.6-0.5H147.3z"/>
	<path class="st3" d="M153.5,34.3c0.2-0.1,0.4-0.1,0.7-0.1s0.5,0,0.6,0.1c0.1,0,0.1,0,0.1,0c0.1,0,0.3,0.1,0.6,0.4s0.4,0.4,0.4,0.6
		c0,0.9-0.1,1.3-0.2,1.3c-0.1,0-0.1,0-0.1,0.1c0,0.2-0.1,0.4-0.4,0.6c-0.3,0.2-0.6,0.3-0.8,0.3c-0.1,0-0.3-0.1-0.4-0.2
		s-0.2-0.3-0.2-0.4c0,0,0.1-0.2,0.4-0.5c0.2-0.3,0.4-0.5,0.4-0.8c0-0.1-0.1-0.1-0.3-0.1c-0.7,0.3-1.1,0.6-1.4,0.8
		c-0.1,0.1-0.1,0.2-0.2,0.2c0,0,0,0,0,0c0,0-0.1,0.1-0.2,0.2s-0.2,0.3-0.4,0.5c-0.1,0.2-0.2,0.4-0.2,0.5l0,0.1v0.1c0,0,0,0.1,0,0.1
		c0,0.2,0.3,0.5,0.8,0.9s0.9,0.7,1.1,0.9c0.2,0.2,0.3,0.4,0.4,0.5c0.1,0.2,0.2,0.4,0.2,0.6c0,0.4-0.2,0.7-0.6,0.9
		c-0.4,0.2-0.9,0.3-1.5,0.3s-1.1-0.1-1.5-0.4c-0.4-0.3-0.7-0.5-0.7-0.7c0-0.2,0.1-0.3,0.2-0.3c0.1-0.1,0.3-0.1,0.5-0.1
		c0.3,0,0.6,0.1,0.9,0.1c0.2,0,0.5,0,0.7-0.1s0.3-0.1,0.3-0.1s0-0.1-0.1-0.2s-0.2-0.1-0.3-0.1c0,0-0.2-0.2-0.7-0.6
		c-0.5-0.4-0.7-0.6-0.7-0.7c0,0,0,0,0,0v-0.1c-0.1,0-0.2-0.1-0.2-0.3c-0.1-0.2-0.1-0.5-0.1-0.7c0-0.6,0.4-1.3,1.1-2
		C152,35,152.7,34.6,153.5,34.3z"/>
</g>
<g class="st1">
	<path class="st3" d="M73.8,41.1c0.1,0,0.1-0.1,0.1-0.2c0-0.1,0-0.2,0.1-0.4c0-0.1,0.1-0.3,0.1-0.5c0.1-0.3,0.2-0.6,0.3-0.8
		c0.2-0.4,0.3-0.7,0.3-0.8s0.1-0.3,0.2-0.5c0.1-0.3,0.2-0.6,0.2-0.9c0.2-0.5,0.4-0.9,0.4-1s0.1-0.3,0.2-0.6c0.1-0.3,0.2-0.5,0.3-0.8
		c0.1-0.3,0.2-0.5,0.3-0.7c0.1-0.2,0.2-0.4,0.3-0.8c0.3-0.6,0.4-1,0.5-1V32c0,0,0-0.1,0.1-0.2c0-0.1,0.1-0.2,0.2-0.4
		c0.1-0.1,0.1-0.3,0.2-0.4c0.1-0.2,0.2-0.5,0.3-0.7c0.1-0.1,0.1-0.2,0.2-0.3c0.3-0.2,0.6-0.3,0.8-0.3c0.2,0,0.4,0.1,0.4,0.2
		c0.2,0.5,0.3,0.8,0.1,1.1c-0.8,1.7-1.4,2.9-1.7,3.7l0.1-0.1c0.3-0.3,0.8-0.7,1.5-1.2l2.2-1.8c0.2-0.1,0.6-0.3,1-0.6
		c0.9-0.7,1.4-1,1.5-1c0.1-0.1,0.3,0.1,0.5,0.4c0.2,0.3,0.3,0.5,0.3,0.7c0,0.1,0,0.2-0.1,0.3c-0.1,0.1-0.3,0.2-0.7,0.4
		c-0.4,0.2-0.6,0.4-0.7,0.5c-0.3,0.3-0.7,0.6-1.2,0.9c-1,0.7-1.7,1.2-1.9,1.5c0,0-0.1,0-0.1,0.1c-0.1,0-0.1,0-0.1,0
		c-0.2,0.1-0.3,0.2-0.3,0.3c-0.1,0.3-0.3,0.4-0.5,0.4c-0.2,0.1-0.5,0.3-0.9,0.7c0.1,0.8,0.3,1.6,0.7,2.2c0.3,0.8,0.7,1.3,1.1,1.7
		c0.5,0.6,0.9,0.9,1.2,0.9c0.1,0,0.3,0.1,0.5,0.3s0.3,0.2,0.3,0.4c0,0.1,0,0.3,0,0.5c0,0.2-0.2,0.4-0.3,0.5c-0.2,0.2-0.5,0.2-0.9,0
		c-0.2,0-0.5-0.2-1-0.5c-0.5-0.4-0.8-0.7-1.1-1c-0.7-1-1.2-1.9-1.4-2.5c-0.1-0.3-0.1-0.5-0.2-0.8c-0.1-0.3-0.2-0.5-0.2-0.6l-0.1,0.1
		c0,0,0,0.1-0.1,0.3c-0.2,0.5-0.4,1.2-0.7,2.2c-0.6,1.8-0.9,2.7-1,2.9c-0.1,0.2-0.3,0.2-0.6,0c-0.5-0.3-0.6-0.6-0.5-0.9
		C73.7,41.7,73.8,41.4,73.8,41.1z"/>
	<path class="st3" d="M86.1,34.7c0.7,0,1.2,0.2,1.5,0.5s0.5,0.7,0.5,1v0.1c0,0.3-0.2,0.7-0.5,1.2c-0.2,0.3-0.4,0.6-0.8,0.8
		c-0.3,0.2-0.7,0.4-1,0.4c-0.3,0-0.7,0-1-0.1c-0.3-0.1-0.5-0.1-0.6-0.1c-0.1,0-0.1,0-0.2,0.1c-0.1,0.1-0.1,0.4-0.1,0.7
		c0,0.3,0.1,0.6,0.3,0.7c0.1,0.1,0.3,0.2,0.5,0.2c0.2,0,0.4,0,0.6-0.1c0.2-0.1,0.4-0.2,0.7-0.5c0.3-0.2,0.5-0.3,0.6-0.3
		s0.3,0.1,0.4,0.2c0.1,0.1,0.2,0.3,0.2,0.4c0,0.3-0.3,0.6-0.8,1.1c-0.5,0.5-1.1,0.7-1.8,0.7s-1.2-0.2-1.6-0.6
		c-0.4-0.4-0.6-0.9-0.6-1.6c0-0.3,0-0.6,0-0.9c0-0.3,0.1-0.7,0.3-1.2c0.2-0.5,0.5-0.9,0.9-1.5s0.8-0.9,1.3-1.1
		C85.4,34.8,85.8,34.7,86.1,34.7z M86,36c-0.2,0-0.4,0.1-0.7,0.4c-0.3,0.3-0.5,0.6-0.8,0.9c0,0.1,0.2,0.2,0.6,0.2s0.6,0,0.7-0.1
		s0.3-0.2,0.5-0.5s0.4-0.4,0.4-0.5c0-0.3-0.2-0.4-0.6-0.5H86z"/>
	<path class="st3" d="M85.7,44.2c0.1-0.2,0.3-0.2,0.5-0.2s0.3,0,0.4,0.1c0.5,0.3,0.9,0.4,1.3,0.4c0.4-0.1,0.8-0.4,1.3-1
		c0.5-0.8,0.9-1.4,1.2-1.9c-0.3-0.1-0.5-0.4-0.7-0.7c-0.2-0.3-0.3-0.6-0.3-0.7v-0.2c-0.1,0-0.2-0.4-0.3-1.1c0-0.7,0-1.3,0-1.6
		c0-0.3,0.1-0.9,0.1-1.6c0-0.3,0.1-0.5,0.3-0.7c0.4-0.2,0.8-0.1,1,0.3c0.2,0.4,0.3,1,0.2,1.9c-0.1,1.6,0,2.6,0.3,3
		c0.1-0.3,0.2-0.5,0.3-0.5c0.2-0.3,0.3-0.6,0.3-0.6c0-0.1,0-0.1,0.1-0.2s0.2-0.3,0.4-0.7c0.3-0.9,0.5-1.4,0.6-1.5
		c0.1-0.1,0.1-0.2,0.2-0.3s0.1-0.2,0.1-0.2s0.1-0.1,0.1-0.2c0-0.1,0.1-0.1,0.1-0.2c0,0,0.1-0.1,0.1-0.1c0-0.1,0.1-0.1,0.2-0.1
		c0.2-0.1,0.4-0.1,0.6,0c0.2,0.2,0.3,0.3,0.4,0.4c0.2,0.3,0.1,0.7-0.2,1.3c-0.2,0.6-0.4,1.1-0.6,1.2c-0.4,0.9-0.8,1.7-1.1,2.3
		c-0.3,0.6-0.5,1.1-0.7,1.5c-0.8,1.2-1.3,2-1.6,2.4c-0.8,0.7-1.4,1.1-1.8,1.2c-0.6,0.1-1.2,0.1-1.8-0.1s-0.9-0.4-1-0.7
		C85.5,44.5,85.5,44.3,85.7,44.2z"/>
	<path class="st3" d="M104.7,29.9c0.3-0.4,0.6-0.5,0.9-0.5c0.3,0,0.7,0.1,1.1,0.4c0.5,0.4,0.8,0.7,0.8,1.1c0,0.1,0,0.2,0,0.3
		c0,0.1,0,0.3,0,0.4c0,0.1,0,0.3,0,0.5c0,0.2,0,0.4,0,0.5c0,0.2,0,0.4-0.1,0.6s0,0.5-0.1,0.7c0,0.2-0.1,0.9-0.2,2.2
		c-0.3,2.6-0.4,4.4-0.3,5.5c0,0.1,0,0.2,0,0.3c0,0.1,0,0.2,0,0.2c-0.1,0.1-0.4,0.1-0.8,0.1c-0.4-0.1-0.7-0.2-0.7-0.4
		c-0.1,0-0.1-0.1-0.1-0.2l0.2-4.2l-0.2,0c-0.2,0-0.7,0-1.5,0.1c-0.8,0.1-1.3,0.2-1.5,0.2c-0.3,0-0.5,0.3-0.8,0.8
		c-0.1,0.2-0.2,0.4-0.3,0.6c-0.1,0.2-0.2,0.3-0.2,0.3l-0.3,0.3c0,0.1-0.1,0.5-0.4,1s-0.5,1-0.7,1.3L99,42.9l-0.6-0.5
		c-0.2-0.1-0.3-0.2-0.3-0.3c0-0.1,0-0.3,0.1-0.5c0.1-0.2,0.3-0.6,0.5-1c0.2-0.4,0.4-0.7,0.5-1c0.5-1,0.8-1.7,0.8-2.2
		c0-0.2,0-0.3,0.3-0.4c0,0,0.1-0.1,0.2-0.2c0.3-0.3,0.6-0.5,0.7-0.7c0.3-0.6,0.9-1.7,1.8-3.3C103.5,31.7,104.1,30.7,104.7,29.9z
		 M105.4,36L105.4,36c0.1-0.1,0.2-0.7,0.3-1.8c0.2-1.1,0.2-1.8,0.3-2.2l-0.1-0.9c-0.1,0-0.4,0.3-0.7,0.9c-0.4,0.6-0.8,1.2-1.1,1.9
		c-0.3,0.5-0.5,0.7-0.6,0.7c-0.1,0.1-0.3,0.4-0.5,0.8c-0.3,0.5-0.4,0.7-0.3,0.8c0.5-0.1,0.9-0.1,1.2-0.2c0.8-0.2,1.2-0.3,1.4-0.2
		C105.3,36,105.4,36,105.4,36z"/>
	<path class="st3" d="M113.2,37.4c-0.1,0.2-0.3,0.3-0.4,0.3c-0.1,0-0.2,0-0.2,0.1c0,0.1-0.1,0.1-0.2,0.1c-0.1,0-0.3,0-0.4-0.1
		c-0.1-0.1-0.2-0.1-0.2-0.2c0-0.1,0-0.3,0.1-0.7s0.1-0.6,0-0.7s-0.2-0.1-0.4,0c-0.4,0.3-0.8,0.6-1,1c-0.2,0.4-0.4,0.9-0.6,1.5
		s-0.2,1-0.2,1.1c0,0.2,0.1,0.4,0.2,0.4c0.4,0.1,0.7,0.1,1-0.1c0.3-0.1,0.6-0.4,1.1-0.7c0,0,0.1-0.1,0.2-0.2s0.2-0.2,0.2-0.2
		c0.1-0.2,0.2-0.2,0.4-0.2h0.4c0.2,0.1,0.4,0.2,0.5,0.4c0,0.1,0,0.2,0,0.2l-0.1,0.1c0,0.1-0.2,0.4-0.6,0.9c-0.5,0.5-0.8,0.7-0.9,0.7
		c-0.1,0-0.2,0-0.2,0.1c0,0-0.2,0.2-0.5,0.3c-0.4,0.2-0.7,0.3-0.9,0.3c-0.6,0.1-1.1,0-1.5-0.3c-0.5-0.3-0.7-0.8-0.7-1.3
		c-0.1-0.6,0-1.2,0.3-2.1c0.3-0.8,0.6-1.5,1-2c0.6-0.7,1.1-1.2,1.4-1.3c0.3-0.1,0.7-0.2,1.1-0.2c0.7,0.2,1,0.4,1,0.6l0.1,0.1
		c0.1,0,0.2,0.2,0.4,0.6c0.1,0.4,0.1,0.6,0.1,0.8C113.5,37,113.4,37.2,113.2,37.4z"/>
	<path class="st3" d="M115.1,35.3c-0.1-0.1-0.1-0.1-0.1-0.2s0.1-0.2,0.2-0.4c0.1-0.2,0.2-0.3,0.3-0.3c0.1,0,0.3,0,0.5,0
		c0.3,0,0.5,0,0.6-0.1s0.2-0.1,0.2-0.2c0-0.1,0.2-0.4,0.4-0.7c0.4-0.8,0.7-1.3,0.9-1.4c0.2-0.1,0.4-0.2,0.6-0.2c0.2,0,0.4,0,0.6,0.2
		c0.2,0.3,0.2,0.5,0,0.8c-0.1,0.1-0.2,0.3-0.3,0.6c-0.2,0.2-0.3,0.4-0.3,0.5c-0.2,0.3-0.2,0.4-0.1,0.5s0.5,0,1.1-0.1
		c0.6-0.1,0.9,0.1,1,0.6c0,0.3,0,0.5-0.1,0.5c-0.1,0.1-0.4,0.1-0.8,0.1c-0.4,0.1-0.7,0.1-1.1,0.1c-0.3,0-0.5,0-0.6,0
		c-0.1,0-0.3,0.2-0.3,0.3c0,0-0.1,0.1-0.1,0.2c-0.1,0.1-0.2,0.4-0.5,0.8c-0.3,0.9-0.6,1.9-0.7,2.8c0,0.2,0,0.4,0,0.5
		c0.1,0.1,0.3,0.2,0.6,0.2c0.6,0.1,1.2-0.1,1.9-0.5l0.5-0.3c0.1-0.1,0.2-0.1,0.4,0.2c0,0.1,0.1,0.1,0.1,0.2c0,0.5-0.3,0.8-0.8,1.1
		c-0.5,0.3-1,0.5-1.5,0.6c-0.5,0.1-0.9,0.1-1.2,0.1c-0.3-0.1-0.5-0.2-0.8-0.5c-0.2-0.3-0.4-0.5-0.5-0.7l-0.1-0.1
		c-0.1-0.1-0.1-0.4-0.1-0.9c0-0.6,0.1-1,0.1-1.2c0.1-0.3,0.3-0.9,0.6-1.8l0.5-1l-0.7-0.2C115.2,35.4,115.2,35.3,115.1,35.3z"/>
	<path class="st3" d="M120.8,40.1l0.1-0.4c0-0.1,0-0.3,0.1-0.6c0.3-0.6,0.6-1.6,1-2.9c0-0.1,0.1-0.2,0.3-0.2c0.1,0,0.3,0,0.5,0.2
		s0.4,0.3,0.5,0.5c0.2,0.2,0.1,0.4,0,0.9s-0.3,0.8-0.4,1.2c-0.1,0.3-0.2,0.6-0.3,0.7c0,0.2-0.1,0.4-0.2,0.7
		c-0.1,0.3-0.1,0.6-0.2,0.7c-0.1,0.5-0.3,0.8-0.6,0.9c-0.3,0.1-0.5,0-0.7-0.2c-0.1-0.1-0.2-0.4-0.2-0.7
		C120.6,40.5,120.7,40.2,120.8,40.1z M122.6,33.9c-0.1-0.2-0.1-0.3-0.1-0.4c0-0.1,0-0.2,0.1-0.3c0.1-0.1,0.1-0.3,0.3-0.5
		c0.3-0.5,0.4-0.8,0.5-0.8c0.1-0.1,0.3-0.1,0.6,0c0.3,0.1,0.4,0.3,0.6,0.5c0.2,0.5,0.1,1-0.3,1.5c-0.2,0.2-0.4,0.4-0.7,0.5
		c-0.3,0.1-0.5,0-0.6-0.1C122.8,34.2,122.6,34.1,122.6,33.9z"/>
	<path class="st3" d="M125.1,35.4c0,0,0.2-0.1,0.3-0.1s0.3,0,0.3,0c0.3,0.1,0.5,0.8,0.7,2.2c0,0.2,0,0.4,0.1,0.6
		c0.1,0.3,0.1,0.5,0.1,0.5c0,0,0,0.1,0.1,0.3s0.1,0.2,0.1,0.2c0.1,0,0.6-0.5,1.3-1.6c0.4-0.6,0.8-1,1-1.3c0.3-0.3,0.5-0.4,0.6-0.5
		c0.3,0,0.5,0.1,0.5,0.3c0.1,0.3,0,0.6-0.3,0.9c-0.1,0.1-0.1,0.2-0.2,0.4s-0.2,0.3-0.2,0.5c-0.1,0.1-0.3,0.5-0.6,0.9
		c-0.4,0.5-0.6,0.8-0.6,0.8c-0.1,0.1-0.1,0.1-0.2,0.2c-0.3,0.3-0.5,0.5-0.6,0.6c-0.3,0.3-0.6,0.4-0.8,0.5c-0.3,0.1-0.5,0-0.6-0.1
		c-0.1-0.1-0.3-0.5-0.5-1.2c-0.2-0.7-0.4-1.3-0.5-1.7c-0.1-0.4-0.2-0.9-0.3-1.3c-0.1-0.2,0-0.4,0.1-0.7
		C124.8,35.7,125,35.5,125.1,35.4z"/>
	<path class="st3" d="M130.6,40.1l0.1-0.4c0-0.1,0-0.3,0.1-0.6c0.3-0.6,0.6-1.6,1-2.9c0-0.1,0.1-0.2,0.3-0.2c0.1,0,0.3,0,0.5,0.2
		s0.4,0.3,0.5,0.5c0.2,0.2,0.1,0.4,0,0.9s-0.3,0.8-0.4,1.2c-0.1,0.3-0.2,0.6-0.3,0.7c0,0.2-0.1,0.4-0.2,0.7
		c-0.1,0.3-0.1,0.6-0.2,0.7c-0.1,0.5-0.3,0.8-0.6,0.9c-0.3,0.1-0.5,0-0.7-0.2c-0.1-0.1-0.2-0.4-0.2-0.7
		C130.5,40.5,130.5,40.2,130.6,40.1z M132.4,33.9c-0.1-0.2-0.1-0.3-0.1-0.4c0-0.1,0-0.2,0.1-0.3c0.1-0.1,0.1-0.3,0.3-0.5
		c0.3-0.5,0.4-0.8,0.5-0.8c0.1-0.1,0.3-0.1,0.6,0c0.3,0.1,0.4,0.3,0.6,0.5c0.2,0.5,0.1,1-0.3,1.5c-0.2,0.2-0.4,0.4-0.7,0.5
		c-0.3,0.1-0.5,0-0.6-0.1C132.6,34.2,132.5,34.1,132.4,33.9z"/>
	<path class="st3" d="M134.6,35.3c-0.1-0.1-0.1-0.1-0.1-0.2s0.1-0.2,0.2-0.4c0.1-0.2,0.2-0.3,0.3-0.3c0.1,0,0.3,0,0.5,0
		c0.3,0,0.5,0,0.6-0.1s0.2-0.1,0.2-0.2c0-0.1,0.2-0.4,0.4-0.7c0.4-0.8,0.7-1.3,0.9-1.4c0.2-0.1,0.4-0.2,0.6-0.2c0.2,0,0.4,0,0.6,0.2
		c0.2,0.3,0.2,0.5,0,0.8c-0.1,0.1-0.2,0.3-0.3,0.6c-0.2,0.2-0.3,0.4-0.3,0.5c-0.2,0.3-0.2,0.4-0.1,0.5s0.5,0,1.1-0.1
		c0.6-0.1,0.9,0.1,1,0.6c0,0.3,0,0.5-0.1,0.5c-0.1,0.1-0.4,0.1-0.8,0.1c-0.4,0.1-0.7,0.1-1.1,0.1c-0.3,0-0.5,0-0.6,0
		c-0.1,0-0.3,0.2-0.3,0.3c0,0-0.1,0.1-0.1,0.2c-0.1,0.1-0.2,0.4-0.5,0.8c-0.3,0.9-0.6,1.9-0.7,2.8c0,0.2,0,0.4,0,0.5
		c0.1,0.1,0.3,0.2,0.6,0.2c0.6,0.1,1.2-0.1,1.9-0.5l0.5-0.3c0.1-0.1,0.2-0.1,0.4,0.2c0,0.1,0.1,0.1,0.1,0.2c0,0.5-0.3,0.8-0.8,1.1
		c-0.5,0.3-1,0.5-1.5,0.6c-0.5,0.1-0.9,0.1-1.2,0.1c-0.3-0.1-0.5-0.2-0.8-0.5c-0.2-0.3-0.4-0.5-0.5-0.7l-0.1-0.1
		c-0.1-0.1-0.1-0.4-0.1-0.9c0-0.6,0.1-1,0.1-1.2c0.1-0.3,0.3-0.9,0.6-1.8l0.5-1l-0.7-0.2C134.7,35.4,134.6,35.3,134.6,35.3z"/>
	<path class="st3" d="M140.2,40.1l0.1-0.4c0-0.1,0-0.3,0.1-0.6c0.3-0.6,0.6-1.6,1-2.9c0-0.1,0.1-0.2,0.3-0.2c0.1,0,0.3,0,0.5,0.2
		s0.4,0.3,0.5,0.5c0.2,0.2,0.1,0.4,0,0.9s-0.3,0.8-0.4,1.2c-0.1,0.3-0.2,0.6-0.3,0.7c0,0.2-0.1,0.4-0.2,0.7
		c-0.1,0.3-0.1,0.6-0.2,0.7c-0.1,0.5-0.3,0.8-0.6,0.9c-0.3,0.1-0.5,0-0.7-0.2c-0.1-0.1-0.2-0.4-0.2-0.7
		C140.1,40.5,140.1,40.2,140.2,40.1z M142,33.9c-0.1-0.2-0.1-0.3-0.1-0.4c0-0.1,0-0.2,0.1-0.3c0.1-0.1,0.1-0.3,0.3-0.5
		c0.3-0.5,0.4-0.8,0.5-0.8c0.1-0.1,0.3-0.1,0.6,0c0.3,0.1,0.4,0.3,0.6,0.5c0.2,0.5,0.1,1-0.3,1.5c-0.2,0.2-0.4,0.4-0.7,0.5
		c-0.3,0.1-0.5,0-0.6-0.1C142.2,34.2,142.1,34.1,142,33.9z"/>
	<path class="st3" d="M147.4,34.7c0.7,0,1.2,0.2,1.5,0.5s0.5,0.7,0.5,1v0.1c0,0.3-0.2,0.7-0.5,1.2c-0.2,0.3-0.4,0.6-0.8,0.8
		c-0.3,0.2-0.7,0.4-1,0.4c-0.3,0-0.7,0-1-0.1c-0.3-0.1-0.5-0.1-0.6-0.1c-0.1,0-0.1,0-0.2,0.1c-0.1,0.1-0.1,0.4-0.1,0.7
		c0,0.3,0.1,0.6,0.3,0.7c0.1,0.1,0.3,0.2,0.5,0.2c0.2,0,0.4,0,0.6-0.1c0.2-0.1,0.4-0.2,0.7-0.5c0.3-0.2,0.5-0.3,0.6-0.3
		s0.3,0.1,0.4,0.2c0.1,0.1,0.2,0.3,0.2,0.4c0,0.3-0.3,0.6-0.8,1.1c-0.5,0.5-1.1,0.7-1.8,0.7s-1.2-0.2-1.6-0.6
		c-0.4-0.4-0.6-0.9-0.6-1.6c0-0.3,0-0.6,0-0.9c0-0.3,0.1-0.7,0.3-1.2c0.2-0.5,0.5-0.9,0.9-1.5s0.8-0.9,1.3-1.1
		C146.7,34.8,147.1,34.7,147.4,34.7z M147.3,36c-0.2,0-0.4,0.1-0.7,0.4c-0.3,0.3-0.5,0.6-0.8,0.9c0,0.1,0.2,0.2,0.6,0.2
		s0.6,0,0.7-0.1s0.3-0.2,0.5-0.5s0.4-0.4,0.4-0.5c0-0.3-0.2-0.4-0.6-0.5H147.3z"/>
	<path class="st3" d="M153.5,34.3c0.2-0.1,0.4-0.1,0.7-0.1s0.5,0,0.6,0.1c0.1,0,0.1,0,0.1,0c0.1,0,0.3,0.1,0.6,0.4s0.4,0.4,0.4,0.6
		c0,0.9-0.1,1.3-0.2,1.3c-0.1,0-0.1,0-0.1,0.1c0,0.2-0.1,0.4-0.4,0.6c-0.3,0.2-0.6,0.3-0.8,0.3c-0.1,0-0.3-0.1-0.4-0.2
		s-0.2-0.3-0.2-0.4c0,0,0.1-0.2,0.4-0.5c0.2-0.3,0.4-0.5,0.4-0.8c0-0.1-0.1-0.1-0.3-0.1c-0.7,0.3-1.1,0.6-1.4,0.8
		c-0.1,0.1-0.1,0.2-0.2,0.2c0,0,0,0,0,0c0,0-0.1,0.1-0.2,0.2s-0.2,0.3-0.4,0.5c-0.1,0.2-0.2,0.4-0.2,0.5l0,0.1v0.1c0,0,0,0.1,0,0.1
		c0,0.2,0.3,0.5,0.8,0.9s0.9,0.7,1.1,0.9c0.2,0.2,0.3,0.4,0.4,0.5c0.1,0.2,0.2,0.4,0.2,0.6c0,0.4-0.2,0.7-0.6,0.9
		c-0.4,0.2-0.9,0.3-1.5,0.3s-1.1-0.1-1.5-0.4c-0.4-0.3-0.7-0.5-0.7-0.7c0-0.2,0.1-0.3,0.2-0.3c0.1-0.1,0.3-0.1,0.5-0.1
		c0.3,0,0.6,0.1,0.9,0.1c0.2,0,0.5,0,0.7-0.1s0.3-0.1,0.3-0.1s0-0.1-0.1-0.2s-0.2-0.1-0.3-0.1c0,0-0.2-0.2-0.7-0.6
		c-0.5-0.4-0.7-0.6-0.7-0.7c0,0,0,0,0,0v-0.1c-0.1,0-0.2-0.1-0.2-0.3c-0.1-0.2-0.1-0.5-0.1-0.7c0-0.6,0.4-1.3,1.1-2
		C152,35,152.7,34.6,153.5,34.3z"/>
</g>
<path class="st4" d="M125.1,48c9.7-0.7,28.7-2.2,30.6-0.7c3.4,2.5-8.5,28.7-14.3,40.8"/>
</svg>
