<?xml version="1.0" encoding="utf-8"?>
<!-- Generator: Adobe Illustrator 21.0.2, SVG Export Plug-In . SVG Version: 6.00 Build 0)  -->
<svg version="1.1" id="图层_1" xmlns="http://www.w3.org/2000/svg" xmlns:xlink="http://www.w3.org/1999/xlink" x="0px" y="0px"
	 width="755px" height="27.8px" viewBox="0 0 755 27.8" style="enable-background:new 0 0 755 27.8;" xml:space="preserve">
<style type="text/css">
	.st0{fill:none;stroke:#9BC36C;stroke-width:16;stroke-linecap:round;stroke-linejoin:round;stroke-miterlimit:10;}
</style>
<path class="st0" d="M16.6,9.2c-3.3,3.1-5.7,6.5-7.3,10c5.7-4.3,12.3-8.3,19.5-11.8c-2.4,4-4.8,8-7.3,12c5.4-5,12.4-8.8,20.9-11.7
	c-3.1,4.2-5.8,8-8.9,12.2c6.5-4.4,13.9-8.2,22-11.5c-2.3,3.5-4.5,7-6.8,10.5C54.8,15.2,60.9,11.6,67,8c-2,3.5-4,7-6,10.4
	c5.5-4.5,12.5-8.2,20.4-11c-2.7,3.6-5.4,7.2-8.1,10.8c6.8-3.1,13.5-6.2,20.2-9.3c-2.7,3.8-5.3,6.8-7.9,10.6
	c5-4.4,11.2-7.2,18.3-10.3c-1.9,3.2-3.9,6.3-5.8,9.5c4.5-4.1,8.6-7.5,16.7-11.3c-1.4,2-3.7,9-5.1,11c5.4-3.7,9.4-6.8,18-10.4
	c-1.2,2.7-5,8.9-7.3,11.3c5.3-2.4,14.2-7.8,19.5-10.3c-2,3.5-3.9,7-5.9,10.5c3.8-3.7,9.6-7.9,16.1-9.8c-1.4,2.9-3.1,7-4.5,9.9
	c5.8-4.1,14.2-8.7,22.1-11.3c-2.7,3.6-6.9,8-9.6,11.5c6-4,14.6-8.8,22.4-11.3c-2.1,2.8-6.6,8-8.7,10.9c5.3-3.3,14.3-7.5,20.4-10.4
	c0.4,2-3.4,8.7-6.6,10.6l15.9-10.7c0,0-3.7,7.8-5.9,10.9c0,0,10.2-8.4,17.5-11.9c-2.4,4-4.9,8-7.3,12c5.4-4.9,12.7-9.4,21.3-12.3
	c-3.1,4.2-6.1,8.7-9.2,12.9c6.5-4.4,13.9-8.5,22-11.8c-2.3,3.5-4.5,7-6.8,10.5c6.1-3.7,12.2-7.3,18.3-10.9c-2,3.5-4,7-6,10.4
	c5.5-4.5,12.5-8.2,20.4-11c-2.7,3.6-5.4,7.2-8.1,10.8c6.8-3.1,13.5-6.2,20.2-9.3c-2.7,3.8-5.3,6.8-7.9,10.6c5-4.4,8-7.5,15-10.6
	c-1.9,3.2-0.6,6.6-2.5,9.8c4.5-4.1,6-5.5,14.9-9.8c-1.4,2-1.9,7.6-3.2,9.6c6-4.9,11.1-7.5,16.8-10.3c-1.2,2.7-3.8,8.8-6.1,11.2
	c5.3-2.4,14.2-7.8,19.5-10.3c-2,3.5-3.9,7-5.9,10.5c3.8-3.7,9.6-8.3,16.1-10.1c-1.4,2.9-3.1,7.3-4.5,10.2
	c5.8-4.1,14.2-8.7,22.1-11.3c-2.7,3.6-6.9,7.7-9.6,11.2c6-4,14.6-8.5,22.4-11c-2.1,2.8-4.7,6.3-6.9,9.1c5.4-3.3,12.6-5.7,18.6-8.6
	c0.4,2-5.4,7.7-7.4,9.3l18.2-8.2c-3.3,3.1-5.7,6.5-7.3,10c5.7-4.3,12.3-8.3,19.5-11.8c-2.4,4-4.8,8-7.3,12c5.4-5,12.4-9.8,20.9-12.7
	c-3.1,4.2-5.8,8-8.9,12.2c6.5-4.4,13.9-8.2,22-11.5c-2.3,3.5-4.5,7-6.8,10.5c6.1-3.7,12.2-7.3,18.3-10.9c-2,3.5-4,7-6,10.4
	c5.5-4.5,12.5-8.2,20.4-11c-2.7,3.6-5.4,7.2-8.1,10.8c6.8-3.1,13.5-6.2,20.2-9.3c-2.7,3.8-5.3,6.8-7.9,10.6
	c5-4.4,11.2-7.2,18.3-10.3c-1.9,3.2-3.9,6.3-5.8,9.5c4.5-4.1,8.6-7.5,16.7-11.3c-1.4,2-3.7,9-5.1,11c5.4-3.7,9.4-6.8,18-10.4
	c-1.2,2.7-5,8.9-7.3,11.3c5.3-2.4,14.2-7.8,19.5-10.3c-2,3.5-3.9,7-5.9,10.5c3.8-3.7,9.6-7.9,16.1-9.8c-1.4,2.9-3.1,7-4.5,9.9
	c5.8-4.1,14.2-8.7,22.1-11.3c-2.7,3.6-6.9,8-9.6,11.5c6-4,14.6-8.8,22.4-11.3c-2.1,2.8-6.6,8-8.7,10.9c5.3-3.3,14.3-7.5,20.4-10.4
	c0.4,2-3.4,8.7-6.6,10.6l15.9-10.7c0,0-3.7,7.8-5.9,10.9c0,0,10.2-8.4,17.5-11.9c-2.4,4-4.9,8-7.3,12c5.4-4.9,12.7-9.4,21.3-12.3
	c-3.1,4.2-6.1,8.7-9.2,12.9c6.5-4.4,13.9-8.5,22-11.8c-2.3,3.5-4.5,7-6.8,10.5c6.1-3.7,12.2-7.3,18.3-10.9c-2,3.5-4,7-6,10.4
	c5.5-4.5,12.5-8.2,20.4-11c-2.7,3.6-5.4,7.2-8.1,10.8c6.8-3.1,13.5-6.2,20.2-9.3c-2.7,3.8-5.3,6.8-7.9,10.6c5-4.4,8-7.5,15-10.6
	c-1.9,3.2-0.6,6.6-2.5,9.8c4.5-4.1,6-6.5,14.9-10.8c-1.4,2-1.9,8.6-3.2,10.6c6-4.9,11.1-8.5,16.8-11.3c-1.2,2.7-3.8,8.8-6.1,11.2
	c5.3-2.4,14.2-7.8,19.5-10.3c-2,3.5-3.9,7-5.9,10.5c3.8-3.7,9.6-8.3,16.1-10.1c-1.4,2.9-3.1,7.3-4.5,10.2
	c5.8-4.1,14.2-8.7,22.1-11.3c-2.7,3.6-6.9,7.7-9.6,11.2c6-4,14.6-8.5,22.4-11c-2.1,2.8-4.7,6.3-6.9,9.1c5.4-3.3,12.6-5.7,18.6-8.6
	c0.4,2-5.4,7.7-7.4,9.3"/>
</svg>
