<?xml version="1.0" encoding="utf-8"?>
<!-- Generator: Adobe Illustrator 21.0.2, SVG Export Plug-In . SVG Version: 6.00 Build 0)  -->
<svg version="1.1" id="图层_1" xmlns="http://www.w3.org/2000/svg" xmlns:xlink="http://www.w3.org/1999/xlink" x="0px" y="0px"
	 width="28.3px" height="28.3px" viewBox="0 0 28.3 28.3" style="enable-background:new 0 0 28.3 28.3;" xml:space="preserve">
<style type="text/css">
	.st0{fill:#4D4D4D;}
</style>
<path class="st0" d="M2.9,28.3c-0.7,0-1.5-0.3-2.1-0.9c-1.1-1.1-1.1-3,0-4.1L23.4,0.9c1.1-1.1,3-1.1,4.1,0c1.1,1.1,1.1,3,0,4.1
	L5,27.5C4.4,28.1,3.7,28.3,2.9,28.3z"/>
<path class="st0" d="M25.4,28.3c-0.7,0-1.5-0.3-2.1-0.9L0.9,5c-1.1-1.1-1.1-3,0-4.1s3-1.1,4.1,0l22.5,22.5c1.1,1.1,1.1,3,0,4.1
	C26.9,28.1,26.2,28.3,25.4,28.3z"/>
</svg>
