<?xml version="1.0" encoding="utf-8"?>
<!-- Generator: Adobe Illustrator 21.0.2, SVG Export Plug-In . SVG Version: 6.00 Build 0)  -->
<svg version="1.1" id="图层_1" xmlns="http://www.w3.org/2000/svg" xmlns:xlink="http://www.w3.org/1999/xlink" x="0px" y="0px"
	 width="500px" height="310px" viewBox="0 0 500 310" style="enable-background:new 0 0 500 310;" xml:space="preserve">
<style type="text/css">
	.st0{fill:none;stroke:#263248;stroke-width:3;stroke-linecap:round;stroke-linejoin:round;stroke-miterlimit:10;}
</style>
<g>
	<path class="st0" d="M207.1,150.7c8.3-0.2,12.9,7.7,12.9,12.2c0,6.5-8,10.2-12.2,10.5c-6.7,0.5-11.8-2.4-12.2-11.7
		C195.3,154.6,202.4,150.8,207.1,150.7z"/>
	<path class="st0" d="M207.5,173.2c1.8,0,2.7,1.4,2.7,2.3c0,1.2-1.2,2-2.6,2c-1.4,0-2.5-0.4-2.6-2.2
		C205,174,206.5,173.2,207.5,173.2z"/>
	<path class="st0" d="M199,170.8c-4.3,8.9-8.1,32-3.9,37.4c3.5,4.6,24,3.4,25.6-0.9c3.5-9.5-0.5-29.5-3.7-38.2"/>
	<path class="st0" d="M206.4,178.1c-0.2,2.2-1.3,6.2-1.3,8.5c0,2.4,2.6,8.5,3.5,10.7c1.4-3.1,2.5-9.2,2.5-10.8c0-1.9-1.4-6.2-2-8.9"
		/>
</g>
<path class="st0" d="M200.4,100.6c84,0,104.8,37,104.8,76.9c0,47.8-54.2,62.4-102.4,64.6c-30.2,1.4-55-25.9-55-54.7
	C147.7,136.3,163.6,100.6,200.4,100.6z"/>
<path class="st0" d="M249,41.5C414.2,57.3,420.1,125.9,397.2,199c-23.8,75.7-136.3,104.4-245.1,64.4
	C74.6,234.8,88.4,162,109.9,109.8C137,44.3,176.5,34.6,249,41.5z"/>
<path class="st0" d="M186.6,82.9c46.3-21.2,191.4-12.7,191.4,88.5c0,52.8-160,101.9-212,83.3c-37.1-13.3-50-38.8-48.3-71
	S133.7,107.2,186.6,82.9z"/>
</svg>
