<?xml version="1.0" encoding="utf-8"?>
<!-- Generator: Adobe Illustrator 21.0.2, SVG Export Plug-In . SVG Version: 6.00 Build 0)  -->
<svg version="1.1" id="图层_1" xmlns="http://www.w3.org/2000/svg" xmlns:xlink="http://www.w3.org/1999/xlink" x="0px" y="0px"
	 width="35.6px" height="28.3px" viewBox="0 0 35.6 28.3" style="enable-background:new 0 0 35.6 28.3;" xml:space="preserve">
<style type="text/css">
	.st0{fill:#4D4D4D;}
</style>
<path class="st0" d="M0.9,0.9C1.4,0.3,2.1,0,2.9,0l29.9,0c1.6,0,2.9,1.3,2.9,2.9s-1.3,2.9-2.9,2.9l-29.9,0C1.3,5.8,0,4.5,0,2.9
	C0,2.1,0.3,1.4,0.9,0.9z"/>
<path class="st0" d="M0.9,23.4c0.5-0.5,1.3-0.9,2.1-0.9l29.9,0c1.6,0,2.9,1.3,2.9,2.9c0,1.6-1.3,2.9-2.9,2.9l-29.9,0
	C1.3,28.3,0,27,0,25.4C0,24.6,0.3,23.9,0.9,23.4z"/>
<path class="st0" d="M0.9,12.1c0.5-0.5,1.3-0.9,2.1-0.9l29.9,0c1.6,0,2.9,1.3,2.9,2.9s-1.3,2.9-2.9,2.9l-29.9,0
	c-1.6,0-2.9-1.3-2.9-2.9C0,13.4,0.3,12.6,0.9,12.1z"/>
</svg>
