<?xml version="1.0" encoding="utf-8"?>
<!-- Generator: Adobe Illustrator 21.0.2, SVG Export Plug-In . SVG Version: 6.00 Build 0)  -->
<svg version="1.1" id="图层_1" xmlns="http://www.w3.org/2000/svg" xmlns:xlink="http://www.w3.org/1999/xlink" x="0px" y="0px"
	 width="66.6px" height="65.9px" viewBox="0 0 66.6 65.9" style="enable-background:new 0 0 66.6 65.9;" xml:space="preserve">
<style type="text/css">
	.st0{fill:#FFFFFF;stroke:#263248;stroke-linecap:round;stroke-linejoin:round;stroke-miterlimit:10;}
</style>
<path class="st0" d="M45.7,18c6,0,12.5,1.3,14.8,12.4c2.5,12-8.2,19.3-14.6,19.3c-8.5,0-16.5-4.5-16.5-16.2S38.1,18,45.7,18z"/>
<path class="st0" d="M4.7,45.2c3.2-2.7,22.2-8.4,24.6-9.3c2.4-0.9,3.9,5.3,3.9,5.3s-21.4,8-25.6,8.5C3.6,50.2,2.8,46.8,4.7,45.2z"/>
<path class="st0" d="M43.7,14.1c6,0,15,4.7,15,15.5s-7.1,17.1-13.5,17.1s-17-4.2-17-15.9S36.1,14.1,43.7,14.1z"/>
<path class="st0" d="M40.9,29.4c0,0,5.7-7.5,2.6-8.7c-3-1.2-9.5,10.8-7.9,13.7c1.4,2.6,16.5,1.3,15.8-3.3
	C50.7,26.6,40.9,29.4,40.9,29.4z"/>
</svg>
