<?xml version="1.0" encoding="utf-8"?>
<!-- Generator: Adobe Illustrator 21.0.2, SVG Export Plug-In . SVG Version: 6.00 Build 0)  -->
<svg version="1.1" id="图层_1" xmlns="http://www.w3.org/2000/svg" xmlns:xlink="http://www.w3.org/1999/xlink" x="0px" y="0px"
	 width="66.6px" height="65.9px" viewBox="0 0 66.6 65.9" style="enable-background:new 0 0 66.6 65.9;" xml:space="preserve">
<style type="text/css">
	.st0{fill:#263248;stroke:#263248;stroke-width:1.5;stroke-linecap:round;stroke-linejoin:round;stroke-miterlimit:10;}
	.st1{fill:#FFFFFF;stroke:#263248;stroke-linecap:round;stroke-linejoin:round;stroke-miterlimit:10;}
	.st2{fill:none;stroke:#263248;stroke-width:1.5;stroke-linecap:round;stroke-linejoin:round;stroke-miterlimit:10;}
</style>
<path class="st0" d="M6.6,28.1c1.7,0,3.2,1.5,3.2,3.2c0,1.6-1.4,3.3-2.8,3.3c-1.8,0-3.3-1.3-3.3-3.2C3.7,29.6,5.2,28.1,6.6,28.1z"/>
<path class="st0" d="M15.5,22.5c1.7,0,3.2,1.5,3.2,3.2c0,1.6-1.4,3.3-2.8,3.3c-1.8,0-3.3-1.3-3.3-3.2C12.5,24,14,22.5,15.5,22.5z"/>
<path class="st0" d="M27.9,14.6c1.7,0,3.2,1.5,3.2,3.2c0,1.6-1.4,3.3-2.8,3.3c-1.8,0-3.3-1.3-3.3-3.2C24.9,16.1,26.4,14.6,27.9,14.6
	z"/>
<path class="st1" d="M30.9,45.1c0,0-12.4-6.6-16.3-6.6c-4,0-3.9,2.7-2.3,3.8c1.7,1.2,16.6,6.9,16.6,6.9L30.9,45.1z"/>
<path class="st1" d="M40.6,50.2c0,0,10.9-8.9,12.4-12.5c1.5-3.7-0.9-4.6-2.7-3.6c-1.7,1.1-12.8,12.6-12.8,12.6L40.6,50.2z"/>
<line class="st2" x1="51.8" y1="36.1" x2="64" y2="29"/>
<polyline class="st2" points="9.5,29.9 4.1,16.9 13.4,13 18.4,24.6 "/>
<path class="st2" d="M30.9,16.9c0-0.3-5.5-12.8-5.5-12.8s1.3,1.9,3.7,2.7"/>
<path class="st1" d="M25,62h18.8c0,0-1-14.1-5.6-19.6c-1.7-2-5.8-1.8-7.5,0C28.4,44.8,24.6,53.5,25,62z"/>
<path class="st1" d="M34,25.3c4.4,0,8.4,4,8.4,8.4s-3.8,8.7-7.6,8.7c-4.7,0-8.8-3.4-8.8-8.5C26.1,29.3,30.1,25.3,34,25.3z"/>
</svg>
