<?xml version="1.0" encoding="utf-8"?>
<!-- Generator: Adobe Illustrator 21.0.2, SVG Export Plug-In . SVG Version: 6.00 Build 0)  -->
<svg version="1.1" id="图层_1" xmlns="http://www.w3.org/2000/svg" xmlns:xlink="http://www.w3.org/1999/xlink" x="0px" y="0px"
	 width="500px" height="310px" viewBox="0 0 500 310" style="enable-background:new 0 0 500 310;" xml:space="preserve">
<style type="text/css">
	
		.st0{opacity:0.72;fill:none;stroke:#303030;stroke-width:21;stroke-linecap:round;stroke-linejoin:round;stroke-miterlimit:10;enable-background:new    ;}
</style>
<path class="st0" d="M54.9,65.4c-7,8.6-9.7,13.6-15.3,22.9c12.4-8,18.5-14.9,31-22.9c-10.4,16.3-21,32.6-31.6,48.8
	C54.9,96.6,70,81.6,89.7,68.3c-17.3,28-28.9,53.1-48.9,79.1c22.9-21.9,41.4-46.3,61.3-70.9c-20.5,35.8-38.2,69.9-60.7,104.3
	c22.1-23.5,41.5-53.4,63.7-76.9c-8,19.8-23.3,46.5-34.5,64.5c-9,14.4-18.3,25.5-27.2,39.9c22.6-25.5,35.8-49.1,60.9-72.1
	C85.2,165,71,194.1,51.9,222.9c16-15.4,35.6-35.6,51.6-51C95,189,83,208.1,74.4,225.2c6.6-10.1,21.9-18.4,30.5-26.7
	c-1.5,8.1-4.2,18.8-6.5,23.3"/>
</svg>
