<?xml version="1.0" encoding="utf-8"?>
<!-- Generator: Adobe Illustrator 21.0.2, SVG Export Plug-In . SVG Version: 6.00 Build 0)  -->
<svg version="1.1" id="图层_1" xmlns="http://www.w3.org/2000/svg" xmlns:xlink="http://www.w3.org/1999/xlink" x="0px" y="0px"
	 width="500px" height="310px" viewBox="0 0 500 310" style="enable-background:new 0 0 500 310;" xml:space="preserve">
<style type="text/css">
	
		.st0{opacity:0.72;fill:none;stroke:#303030;stroke-width:21;stroke-linecap:round;stroke-linejoin:round;stroke-miterlimit:10;enable-background:new    ;}
</style>
<path class="st0" d="M218.5,65.4c-7.1,9.1-10.7,17.2-17.3,26.5C217,79.8,224.1,72.5,241.9,63c-17.7,23.6-20.3,38.7-40.7,60.1
	c26.5-24.6,38.4-42.7,70.1-60.1c-26.1,32.2-38.7,54.5-64.8,86.7c28.9-25.4,41-41.8,73.9-61.7c-25.5,39.6-50.5,59.4-73,94.9
	c23.4-24,42.3-37.1,70.4-55.3c-24,37.4-49.3,54.7-70.4,89.7c24.6-24.8,38.3-38.2,67.8-56.8c-14.9,21.9-30.8,42.8-47.9,63.1
	c15.9-15.3,29.5-26.2,49.3-36.1c-7,13.1-19,25.6-22.9,37.9c4.7-2.5,17.5-7.6,21.5-11.2"/>
</svg>
