<?xml version="1.0" encoding="utf-8"?>
<!-- Generator: Adobe Illustrator 21.0.2, SVG Export Plug-In . SVG Version: 6.00 Build 0)  -->
<svg version="1.1" id="图层_1" xmlns="http://www.w3.org/2000/svg" xmlns:xlink="http://www.w3.org/1999/xlink" x="0px" y="0px"
	 width="500px" height="310px" viewBox="0 0 500 310" style="enable-background:new 0 0 500 310;" xml:space="preserve">
<style type="text/css">
	.st0{fill:none;stroke:#263248;stroke-width:2;stroke-linecap:round;stroke-linejoin:round;stroke-miterlimit:10;}
	.st1{enable-background:new    ;}
	.st2{fill:#263248;}
	.st3{fill:none;stroke:#263248;stroke-width:0.5;stroke-miterlimit:10;}
	.st4{fill:none;stroke:#263248;stroke-width:3;stroke-linecap:round;stroke-linejoin:round;stroke-miterlimit:10;}
</style>
<g>
	<g>
		<path class="st0" d="M35.6,66.2c0,73.4-3,230.7,2.7,236.2c7.7,7.3,278.2,7.8,404.3,2.7"/>
		<path class="st0" d="M37.8,62c51.2-7,407.4-9.9,412,4.1c2.9,8.7,0.2,174.4-4.2,236.2"/>
		<path class="st0" d="M34.7,231.3c133.6-1.4,280.6-1.4,414.3-0.1"/>
		<path class="st0" d="M199.9,58.9c-1.4,16.4-2.7,134.1,0,171.3"/>
		<path class="st0" d="M285.8,57.9c-2.1,57.3-1.6,115,1.2,172.3"/>
		<path class="st0" d="M113.3,58.9c-1.5,58.2-1.9,113.1-0.9,171.4"/>
		<path class="st0" d="M372.3,57.9c1.7,24.4-0.5,139.8,0.6,172.9"/>
		<path class="st0" d="M238.6,230.8c-0.5,28.5-0.4,49.1,0.2,77.6"/>
		<path class="st0" d="M112.2,138c26.9-1,59.2-0.5,86.1,1"/>
		<path class="st0" d="M284.6,139.3c29.1,0,59.1,0,87.8,0"/>
	</g>
</g>
<g class="st1">
	<path class="st2" d="M317.8,14.7c0.1,0,0.2,0,0.2,0c0.1,0,0.2,0,0.3-0.1s0.2-0.1,0.3-0.1c0.1,0,0.2-0.1,0.3-0.1
		c0.1,0,0.2-0.1,0.3-0.1c0.1,0,0.2-0.1,0.3-0.2c0.8-0.3,1.4-0.7,1.7-0.9c0.3-0.2,0.6-0.3,0.8-0.3c0.2,0,0.3,0,0.4,0.1
		c0.1,0.1,0.1,0.3,0.1,0.5s-0.1,0.4-0.3,0.7c-0.2,0.2-0.5,0.4-0.8,0.6c-0.1,0.1-0.4,0.3-0.9,0.5c-0.4,0.3-1,0.6-1.6,0.8
		c-0.6,0.2-1.1,0.3-1.5,0.2c-0.9-0.3-1.5-0.8-1.8-1.5s-0.3-1.4-0.3-2.3c0-1.1,0.2-2.1,0.6-3c0,0,0.1-0.2,0.3-0.6s0.3-0.6,0.3-0.7
		c0.2-0.5,0.6-1.1,1.1-1.8c0.7-1,1.2-1.7,1.6-2.1c0.4-0.4,1-0.8,1.8-1.4c0.3-0.2,0.6-0.3,1-0.4c0.4,0,0.8,0,1.2,0.2s0.7,0.5,0.9,1
		c0.3,0.5,0.3,1.2,0,2.1s-0.7,1.6-1.2,2.1c-0.4,0.2-0.8,0.1-1.3-0.3c-0.1-0.3-0.2-0.4-0.2-0.4c0,0,0,0,0.1,0
		c0.1-0.1,0.3-0.4,0.5-0.8c0.2-0.4,0.3-0.7,0.4-0.8c0-0.2,0.1-0.3,0.1-0.5c0-0.1,0.1-0.2,0.1-0.3s0-0.1,0-0.2c0-0.1,0-0.1,0-0.2
		c0,0,0-0.1,0-0.1c0-0.1,0-0.1-0.1-0.2s-0.3,0-0.6,0.1c-0.6,0.3-1.3,0.9-2.1,2c-1,1.4-1.7,2.4-1.9,3.2l-0.2,0.5c0,0.2,0,0.5-0.2,0.8
		c-0.2,0.8-0.3,1.6-0.2,2.3c0.1,0.9,0.3,1.4,0.6,1.5C317.7,14.7,317.8,14.7,317.8,14.7z"/>
	<path class="st2" d="M327.3,13.6v-0.3c-0.1,0.3-0.3,0.5-0.4,0.6c-0.3,0.3-0.6,0.5-0.8,0.6c-0.8,0.5-1.4,0.5-1.9-0.1
		c-0.5-0.4-0.7-0.9-0.5-1.5c0-0.8,0.3-1.8,0.8-2.8c0.5-1.1,0.8-1.6,0.8-1.6c0.2-0.1,0.4-0.1,0.7,0c0.3,0.1,0.4,0.2,0.4,0.4
		c0.1,0.1,0.1,0.4,0,0.7c-0.1,0.3-0.2,0.7-0.4,1.1c-0.5,1.2-0.7,1.9-0.7,2.2c0,0.3,0.1,0.4,0.2,0.5c0.1,0.1,0.3,0.1,0.5,0
		c0.2-0.1,0.4-0.3,0.7-0.7s0.6-0.9,0.8-1.4c0.2-0.6,0.4-1.1,0.4-1.5c0-0.1,0-0.3,0.1-0.4c0.1-0.2,0.2-0.3,0.4-0.4
		c0-0.1,0.1-0.1,0.2-0.2s0.1,0,0.2,0l0.3,0c0,0,0.1,0.1,0.2,0.2s0.1,0.2,0.2,0.2c0.3,0.3,0.3,1-0.3,2.2c-0.7,1.4-0.8,2.4-0.2,2.9
		c0.2,0.1,0.3,0.4,0.2,0.9c0,0.2-0.2,0.3-0.5,0.3c-0.3,0-0.5,0-0.7-0.2c-0.2-0.2-0.3-0.6-0.5-1.2C327.3,13.8,327.3,13.7,327.3,13.6z
		"/>
	<path class="st2" d="M333.9,7.7c0.2-0.1,0.4-0.1,0.7-0.1s0.5,0,0.6,0.1c0.1,0,0.1,0,0.1,0c0.1,0,0.3,0.1,0.6,0.4
		c0.2,0.2,0.4,0.4,0.4,0.6c0,0.9-0.1,1.3-0.2,1.3c-0.1,0-0.1,0-0.1,0.1c0,0.2-0.1,0.4-0.4,0.6s-0.6,0.3-0.8,0.3
		c-0.1,0-0.3-0.1-0.4-0.2c-0.1-0.1-0.2-0.3-0.2-0.4c0,0,0.1-0.2,0.4-0.5s0.4-0.5,0.4-0.8c0-0.1-0.1-0.1-0.3-0.1
		c-0.7,0.3-1.1,0.6-1.4,0.8c-0.1,0.1-0.1,0.2-0.2,0.2c0,0,0,0,0,0c0,0-0.1,0.1-0.2,0.2c-0.1,0.1-0.2,0.3-0.4,0.5
		c-0.1,0.2-0.2,0.4-0.2,0.5l0,0.1v0.1c0,0,0,0.1,0,0.1c0,0.2,0.3,0.5,0.8,0.9c0.5,0.4,0.9,0.7,1.1,0.9c0.2,0.2,0.3,0.4,0.4,0.5
		c0.1,0.2,0.2,0.4,0.2,0.6c0,0.4-0.2,0.7-0.6,0.9c-0.4,0.2-0.9,0.3-1.5,0.3c-0.6,0-1.1-0.1-1.5-0.4c-0.4-0.3-0.7-0.5-0.7-0.7
		c0-0.2,0.1-0.3,0.2-0.3c0.1-0.1,0.3-0.1,0.5-0.1c0.3,0,0.6,0.1,0.9,0.1c0.2,0,0.5,0,0.7-0.1c0.2,0,0.3-0.1,0.3-0.1s0-0.1-0.1-0.2
		c-0.1-0.1-0.2-0.1-0.3-0.1c0,0-0.2-0.2-0.7-0.6c-0.5-0.4-0.7-0.6-0.7-0.7c0,0,0,0,0,0v-0.1c-0.1,0-0.2-0.1-0.2-0.3
		c-0.1-0.2-0.1-0.5-0.1-0.7c0-0.6,0.4-1.3,1.1-2C332.4,8.4,333.1,7.9,333.9,7.7z"/>
	<path class="st2" d="M337,8.6C337,8.5,337,8.4,337,8.4s0.1-0.2,0.2-0.4c0.1-0.2,0.2-0.3,0.3-0.3c0.1,0,0.3,0,0.5,0
		c0.3,0,0.5,0,0.6-0.1c0.1,0,0.2-0.1,0.2-0.2c0-0.1,0.2-0.4,0.4-0.7c0.4-0.8,0.7-1.3,0.9-1.4s0.4-0.2,0.6-0.2c0.2,0,0.4,0,0.6,0.2
		c0.2,0.3,0.2,0.5,0,0.8c-0.1,0.1-0.2,0.3-0.3,0.6c-0.2,0.2-0.3,0.4-0.3,0.5c-0.2,0.3-0.2,0.4-0.1,0.5c0.1,0,0.5,0,1.1-0.1
		c0.6-0.1,0.9,0.1,1,0.6c0,0.3,0,0.5-0.1,0.5c-0.1,0.1-0.4,0.1-0.8,0.1c-0.4,0.1-0.7,0.1-1.1,0.1s-0.5,0-0.6,0
		c-0.1,0-0.3,0.2-0.3,0.3c0,0-0.1,0.1-0.1,0.2c-0.1,0.1-0.2,0.4-0.5,0.8c-0.3,0.9-0.6,1.9-0.7,2.8c0,0.2,0,0.4,0,0.5
		c0.1,0.1,0.3,0.2,0.6,0.2c0.6,0.1,1.2-0.1,1.9-0.5l0.5-0.3c0.1-0.1,0.2-0.1,0.4,0.2c0,0.1,0.1,0.1,0.1,0.2c0,0.5-0.3,0.8-0.8,1.1
		c-0.5,0.3-1,0.5-1.5,0.6c-0.5,0.1-0.9,0.1-1.2,0.1c-0.3-0.1-0.5-0.2-0.8-0.5c-0.2-0.3-0.4-0.5-0.5-0.7l-0.1-0.1
		c-0.1-0.1-0.1-0.4-0.1-0.9c0-0.6,0.1-1,0.1-1.2c0.1-0.3,0.3-0.9,0.6-1.8l0.5-1l-0.7-0.2C337.2,8.7,337.1,8.7,337,8.6z"/>
	<path class="st2" d="M344.5,9.3c0.6-0.5,1.1-0.8,1.6-0.9c0.7-0.2,1.2-0.1,1.5,0.2c0.5,0.2,0.7,0.6,0.8,1.3c0.1,1-0.2,2-1,3.1
		c-0.4,0.6-1.1,1.2-1.8,1.7c-0.3,0.2-0.9,0.3-1.7,0.4c-0.2,0-0.4-0.1-0.7-0.3c-0.5-0.6-0.8-1.1-0.7-1.5l0-0.4
		c-0.1-0.1-0.1-0.1,0-0.1c0,0,0.1-0.1,0.1-0.1c0.1,0,0.1-0.1,0.1-0.2s0-0.3,0.1-0.7c0.1-0.3,0.2-0.6,0.4-0.9
		C343.6,10.2,344,9.7,344.5,9.3z M346.5,11.6c0,0,0.1-0.1,0.1-0.3c0-0.1,0.1-0.2,0.1-0.3s0.1-0.3,0.1-0.5c0-0.3,0-0.5-0.1-0.5
		c-0.1-0.1-0.2-0.1-0.3-0.1c-0.1,0-0.2,0.1-0.4,0.2c-0.9,0.8-1.5,1.6-1.6,2.5c0,0.3,0,0.5,0.1,0.7c0.1,0.1,0.3,0.2,0.5,0.1
		c0.2-0.1,0.5-0.2,0.6-0.4c0.2-0.2,0.3-0.3,0.4-0.4c0.1-0.1,0.1-0.1,0.2-0.2c0,0,0.1-0.1,0.1-0.2c0-0.1,0.1-0.2,0.1-0.2
		c0,0,0.1-0.1,0.1-0.2C346.5,11.8,346.5,11.7,346.5,11.6z"/>
	<path class="st2" d="M350.2,9.1l0-0.4c0-0.2,0.1-0.3,0.3-0.5c0.2-0.1,0.4-0.2,0.7-0.2c0.3,0,0.5,0.1,0.6,0.3
		c0.2,0.2,0.2,0.4,0.2,0.7c0,0.2,0,0.4-0.1,0.6l-0.6,1.6c0,0,0,0.1,0,0.1c0,0,0.2-0.1,0.5-0.3c0.3-0.3,0.7-0.6,1.2-1
		c0.5-0.4,0.9-0.6,1.2-0.7c0.2,0,0.4,0.1,0.6,0.3c0.2,0.2,0.4,0.5,0.4,0.7c-0.2,0.8-0.3,1.3-0.4,1.4c0.2-0.3,0.6-0.6,1.2-1
		c0.6-0.4,1-0.6,1.2-0.6c0.4,0,0.6,0.2,0.8,0.5c0.1,0.4,0.2,0.8,0.3,1.4s0.1,1,0.2,1.2c0,0.1,0.1,0.1,0.2,0.2c0.1,0,0.2,0.1,0.4,0.2
		c0.1,0.1,0.2,0.2,0.2,0.4c0,0.5-0.4,0.7-1.2,0.7c-0.3,0-0.7-0.2-0.9-0.5c-0.3-0.4-0.4-0.8-0.4-1.3c0-0.2,0-0.4,0-0.6
		c0-0.2,0-0.3,0-0.4s0-0.1-0.1-0.1c-0.3,0-1,0.6-2,1.7c0,0-0.1,0.1-0.1,0.1c-0.1,0.1-0.2,0.2-0.4,0.3c-0.4,0.3-0.6,0.5-0.8,0.5
		s-0.3,0-0.3-0.1l-0.2-0.2c-0.2-0.1-0.2-0.3-0.2-0.5v-0.1l0.4-1.2c0.3-0.7,0.5-1,0.5-1.1c0-0.1,0-0.1,0-0.1c-0.2,0-0.5,0.3-1,0.8
		c-0.5,0.6-0.9,1-1.1,1.1c-0.2,0.2-0.4,0.4-0.6,0.6c-0.2,0.2-0.4,0.4-0.5,0.6s-0.2,0.2-0.2,0.2c-0.3,0-0.5-0.1-0.7-0.3
		c-0.2-0.2-0.3-0.4-0.3-0.6c0-0.2,0-0.4,0.1-0.6c0-0.2,0.1-0.5,0.2-0.8c0.1-0.3,0.1-0.6,0.2-0.7c0-0.1,0.1-0.3,0.1-0.4
		c0-0.1,0-0.2,0-0.2s0-0.1,0.1-0.2c0-0.1,0.1-0.3,0.2-0.4c0.1-0.1,0.2-0.4,0.3-0.7C350.1,9.5,350.2,9.3,350.2,9.1z"/>
	<path class="st2" d="M363.1,8c0.7,0,1.2,0.2,1.5,0.5s0.5,0.7,0.5,1v0.1c0,0.3-0.2,0.7-0.5,1.2c-0.2,0.3-0.4,0.6-0.8,0.8
		c-0.3,0.2-0.7,0.4-1,0.4c-0.3,0-0.7,0-1-0.1c-0.3-0.1-0.5-0.1-0.6-0.1c-0.1,0-0.1,0-0.2,0.1c-0.1,0.1-0.1,0.4-0.1,0.7
		c0,0.3,0.1,0.6,0.3,0.7s0.3,0.2,0.5,0.2s0.4,0,0.6-0.1c0.2-0.1,0.4-0.2,0.7-0.5c0.3-0.2,0.5-0.3,0.6-0.3s0.3,0.1,0.4,0.2
		c0.1,0.1,0.2,0.3,0.2,0.4c0,0.3-0.3,0.6-0.8,1.1c-0.5,0.5-1.1,0.7-1.8,0.7s-1.2-0.2-1.6-0.6c-0.4-0.4-0.6-0.9-0.6-1.6
		c0-0.3,0-0.6,0-0.9c0-0.3,0.1-0.7,0.3-1.2c0.2-0.5,0.5-0.9,0.9-1.5c0.4-0.5,0.8-0.9,1.3-1.1C362.3,8.1,362.7,8,363.1,8z M362.9,9.3
		c-0.2,0-0.4,0.1-0.7,0.4c-0.3,0.3-0.5,0.6-0.8,0.9c0,0.1,0.2,0.2,0.6,0.2c0.4,0,0.6,0,0.7-0.1s0.3-0.2,0.5-0.5s0.4-0.4,0.4-0.5
		c0-0.3-0.2-0.4-0.6-0.5H362.9z"/>
	<path class="st2" d="M367.7,8c0.3,0,0.4,0,0.5,0.1c0.3,0.2,0.1,1-0.6,2.2c-0.2,0.4-0.3,0.6-0.2,0.6c0.1-0.2,0.5-0.5,1-0.9
		c0.5-0.4,0.8-0.6,1-0.7c0.1-0.1,0.3-0.1,0.4-0.2c0.2-0.1,0.2-0.1,0.3-0.1c0.3-0.1,0.6-0.2,0.9-0.2s0.5,0.1,0.6,0.3
		c0,0.1,0.1,0.2,0.2,0.3l0.1,0.1c0,0.1-0.1,0.2-0.3,0.4c-0.2,0.2-0.3,0.2-0.5,0.2c-0.2,0-0.4,0.1-0.6,0.2c-0.2,0.1-0.5,0.2-0.7,0.4
		c-0.2,0.1-0.4,0.2-0.5,0.3c-0.1,0.1-0.3,0.2-0.4,0.3c-0.3,0.2-0.6,0.5-0.9,0.8c-0.3,0.3-0.5,0.5-0.6,0.6c-0.1,0.1-0.2,0.3-0.3,0.7
		c-0.1,0.4-0.1,0.6-0.1,0.7c0,0.2-0.1,0.4-0.3,0.5c-0.1,0.2-0.3,0.3-0.4,0.3c-0.1,0-0.3,0-0.5-0.2c-0.4-0.3-0.5-0.6-0.5-0.9
		c0-0.3,0.2-0.9,0.4-1.8c0-0.3,0.2-1,0.6-1.9c0.3-1,0.6-1.6,0.9-1.9C367.2,8,367.4,8,367.7,8z"/>
</g>
<g class="st1">
	<path class="st3" d="M317.8,14.7c0.1,0,0.2,0,0.2,0c0.1,0,0.2,0,0.3-0.1s0.2-0.1,0.3-0.1c0.1,0,0.2-0.1,0.3-0.1
		c0.1,0,0.2-0.1,0.3-0.1c0.1,0,0.2-0.1,0.3-0.2c0.8-0.3,1.4-0.7,1.7-0.9c0.3-0.2,0.6-0.3,0.8-0.3c0.2,0,0.3,0,0.4,0.1
		c0.1,0.1,0.1,0.3,0.1,0.5s-0.1,0.4-0.3,0.7c-0.2,0.2-0.5,0.4-0.8,0.6c-0.1,0.1-0.4,0.3-0.9,0.5c-0.4,0.3-1,0.6-1.6,0.8
		c-0.6,0.2-1.1,0.3-1.5,0.2c-0.9-0.3-1.5-0.8-1.8-1.5s-0.3-1.4-0.3-2.3c0-1.1,0.2-2.1,0.6-3c0,0,0.1-0.2,0.3-0.6s0.3-0.6,0.3-0.7
		c0.2-0.5,0.6-1.1,1.1-1.8c0.7-1,1.2-1.7,1.6-2.1c0.4-0.4,1-0.8,1.8-1.4c0.3-0.2,0.6-0.3,1-0.4c0.4,0,0.8,0,1.2,0.2s0.7,0.5,0.9,1
		c0.3,0.5,0.3,1.2,0,2.1s-0.7,1.6-1.2,2.1c-0.4,0.2-0.8,0.1-1.3-0.3c-0.1-0.3-0.2-0.4-0.2-0.4c0,0,0,0,0.1,0
		c0.1-0.1,0.3-0.4,0.5-0.8c0.2-0.4,0.3-0.7,0.4-0.8c0-0.2,0.1-0.3,0.1-0.5c0-0.1,0.1-0.2,0.1-0.3s0-0.1,0-0.2c0-0.1,0-0.1,0-0.2
		c0,0,0-0.1,0-0.1c0-0.1,0-0.1-0.1-0.2s-0.3,0-0.6,0.1c-0.6,0.3-1.3,0.9-2.1,2c-1,1.4-1.7,2.4-1.9,3.2l-0.2,0.5c0,0.2,0,0.5-0.2,0.8
		c-0.2,0.8-0.3,1.6-0.2,2.3c0.1,0.9,0.3,1.4,0.6,1.5C317.7,14.7,317.8,14.7,317.8,14.7z"/>
	<path class="st3" d="M327.3,13.6v-0.3c-0.1,0.3-0.3,0.5-0.4,0.6c-0.3,0.3-0.6,0.5-0.8,0.6c-0.8,0.5-1.4,0.5-1.9-0.1
		c-0.5-0.4-0.7-0.9-0.5-1.5c0-0.8,0.3-1.8,0.8-2.8c0.5-1.1,0.8-1.6,0.8-1.6c0.2-0.1,0.4-0.1,0.7,0c0.3,0.1,0.4,0.2,0.4,0.4
		c0.1,0.1,0.1,0.4,0,0.7c-0.1,0.3-0.2,0.7-0.4,1.1c-0.5,1.2-0.7,1.9-0.7,2.2c0,0.3,0.1,0.4,0.2,0.5c0.1,0.1,0.3,0.1,0.5,0
		c0.2-0.1,0.4-0.3,0.7-0.7s0.6-0.9,0.8-1.4c0.2-0.6,0.4-1.1,0.4-1.5c0-0.1,0-0.3,0.1-0.4c0.1-0.2,0.2-0.3,0.4-0.4
		c0-0.1,0.1-0.1,0.2-0.2s0.1,0,0.2,0l0.3,0c0,0,0.1,0.1,0.2,0.2s0.1,0.2,0.2,0.2c0.3,0.3,0.3,1-0.3,2.2c-0.7,1.4-0.8,2.4-0.2,2.9
		c0.2,0.1,0.3,0.4,0.2,0.9c0,0.2-0.2,0.3-0.5,0.3c-0.3,0-0.5,0-0.7-0.2c-0.2-0.2-0.3-0.6-0.5-1.2C327.3,13.8,327.3,13.7,327.3,13.6z
		"/>
	<path class="st3" d="M333.9,7.7c0.2-0.1,0.4-0.1,0.7-0.1s0.5,0,0.6,0.1c0.1,0,0.1,0,0.1,0c0.1,0,0.3,0.1,0.6,0.4
		c0.2,0.2,0.4,0.4,0.4,0.6c0,0.9-0.1,1.3-0.2,1.3c-0.1,0-0.1,0-0.1,0.1c0,0.2-0.1,0.4-0.4,0.6s-0.6,0.3-0.8,0.3
		c-0.1,0-0.3-0.1-0.4-0.2c-0.1-0.1-0.2-0.3-0.2-0.4c0,0,0.1-0.2,0.4-0.5s0.4-0.5,0.4-0.8c0-0.1-0.1-0.1-0.3-0.1
		c-0.7,0.3-1.1,0.6-1.4,0.8c-0.1,0.1-0.1,0.2-0.2,0.2c0,0,0,0,0,0c0,0-0.1,0.1-0.2,0.2c-0.1,0.1-0.2,0.3-0.4,0.5
		c-0.1,0.2-0.2,0.4-0.2,0.5l0,0.1v0.1c0,0,0,0.1,0,0.1c0,0.2,0.3,0.5,0.8,0.9c0.5,0.4,0.9,0.7,1.1,0.9c0.2,0.2,0.3,0.4,0.4,0.5
		c0.1,0.2,0.2,0.4,0.2,0.6c0,0.4-0.2,0.7-0.6,0.9c-0.4,0.2-0.9,0.3-1.5,0.3c-0.6,0-1.1-0.1-1.5-0.4c-0.4-0.3-0.7-0.5-0.7-0.7
		c0-0.2,0.1-0.3,0.2-0.3c0.1-0.1,0.3-0.1,0.5-0.1c0.3,0,0.6,0.1,0.9,0.1c0.2,0,0.5,0,0.7-0.1c0.2,0,0.3-0.1,0.3-0.1s0-0.1-0.1-0.2
		c-0.1-0.1-0.2-0.1-0.3-0.1c0,0-0.2-0.2-0.7-0.6c-0.5-0.4-0.7-0.6-0.7-0.7c0,0,0,0,0,0v-0.1c-0.1,0-0.2-0.1-0.2-0.3
		c-0.1-0.2-0.1-0.5-0.1-0.7c0-0.6,0.4-1.3,1.1-2C332.4,8.4,333.1,7.9,333.9,7.7z"/>
	<path class="st3" d="M337,8.6C337,8.5,337,8.4,337,8.4s0.1-0.2,0.2-0.4c0.1-0.2,0.2-0.3,0.3-0.3c0.1,0,0.3,0,0.5,0
		c0.3,0,0.5,0,0.6-0.1c0.1,0,0.2-0.1,0.2-0.2c0-0.1,0.2-0.4,0.4-0.7c0.4-0.8,0.7-1.3,0.9-1.4s0.4-0.2,0.6-0.2c0.2,0,0.4,0,0.6,0.2
		c0.2,0.3,0.2,0.5,0,0.8c-0.1,0.1-0.2,0.3-0.3,0.6c-0.2,0.2-0.3,0.4-0.3,0.5c-0.2,0.3-0.2,0.4-0.1,0.5c0.1,0,0.5,0,1.1-0.1
		c0.6-0.1,0.9,0.1,1,0.6c0,0.3,0,0.5-0.1,0.5c-0.1,0.1-0.4,0.1-0.8,0.1c-0.4,0.1-0.7,0.1-1.1,0.1s-0.5,0-0.6,0
		c-0.1,0-0.3,0.2-0.3,0.3c0,0-0.1,0.1-0.1,0.2c-0.1,0.1-0.2,0.4-0.5,0.8c-0.3,0.9-0.6,1.9-0.7,2.8c0,0.2,0,0.4,0,0.5
		c0.1,0.1,0.3,0.2,0.6,0.2c0.6,0.1,1.2-0.1,1.9-0.5l0.5-0.3c0.1-0.1,0.2-0.1,0.4,0.2c0,0.1,0.1,0.1,0.1,0.2c0,0.5-0.3,0.8-0.8,1.1
		c-0.5,0.3-1,0.5-1.5,0.6c-0.5,0.1-0.9,0.1-1.2,0.1c-0.3-0.1-0.5-0.2-0.8-0.5c-0.2-0.3-0.4-0.5-0.5-0.7l-0.1-0.1
		c-0.1-0.1-0.1-0.4-0.1-0.9c0-0.6,0.1-1,0.1-1.2c0.1-0.3,0.3-0.9,0.6-1.8l0.5-1l-0.7-0.2C337.2,8.7,337.1,8.7,337,8.6z"/>
	<path class="st3" d="M344.5,9.3c0.6-0.5,1.1-0.8,1.6-0.9c0.7-0.2,1.2-0.1,1.5,0.2c0.5,0.2,0.7,0.6,0.8,1.3c0.1,1-0.2,2-1,3.1
		c-0.4,0.6-1.1,1.2-1.8,1.7c-0.3,0.2-0.9,0.3-1.7,0.4c-0.2,0-0.4-0.1-0.7-0.3c-0.5-0.6-0.8-1.1-0.7-1.5l0-0.4
		c-0.1-0.1-0.1-0.1,0-0.1c0,0,0.1-0.1,0.1-0.1c0.1,0,0.1-0.1,0.1-0.2s0-0.3,0.1-0.7c0.1-0.3,0.2-0.6,0.4-0.9
		C343.6,10.2,344,9.7,344.5,9.3z M346.5,11.6c0,0,0.1-0.1,0.1-0.3c0-0.1,0.1-0.2,0.1-0.3s0.1-0.3,0.1-0.5c0-0.3,0-0.5-0.1-0.5
		c-0.1-0.1-0.2-0.1-0.3-0.1c-0.1,0-0.2,0.1-0.4,0.2c-0.9,0.8-1.5,1.6-1.6,2.5c0,0.3,0,0.5,0.1,0.7c0.1,0.1,0.3,0.2,0.5,0.1
		c0.2-0.1,0.5-0.2,0.6-0.4c0.2-0.2,0.3-0.3,0.4-0.4c0.1-0.1,0.1-0.1,0.2-0.2c0,0,0.1-0.1,0.1-0.2c0-0.1,0.1-0.2,0.1-0.2
		c0,0,0.1-0.1,0.1-0.2C346.5,11.8,346.5,11.7,346.5,11.6z"/>
	<path class="st3" d="M350.2,9.1l0-0.4c0-0.2,0.1-0.3,0.3-0.5c0.2-0.1,0.4-0.2,0.7-0.2c0.3,0,0.5,0.1,0.6,0.3
		c0.2,0.2,0.2,0.4,0.2,0.7c0,0.2,0,0.4-0.1,0.6l-0.6,1.6c0,0,0,0.1,0,0.1c0,0,0.2-0.1,0.5-0.3c0.3-0.3,0.7-0.6,1.2-1
		c0.5-0.4,0.9-0.6,1.2-0.7c0.2,0,0.4,0.1,0.6,0.3c0.2,0.2,0.4,0.5,0.4,0.7c-0.2,0.8-0.3,1.3-0.4,1.4c0.2-0.3,0.6-0.6,1.2-1
		c0.6-0.4,1-0.6,1.2-0.6c0.4,0,0.6,0.2,0.8,0.5c0.1,0.4,0.2,0.8,0.3,1.4s0.1,1,0.2,1.2c0,0.1,0.1,0.1,0.2,0.2c0.1,0,0.2,0.1,0.4,0.2
		c0.1,0.1,0.2,0.2,0.2,0.4c0,0.5-0.4,0.7-1.2,0.7c-0.3,0-0.7-0.2-0.9-0.5c-0.3-0.4-0.4-0.8-0.4-1.3c0-0.2,0-0.4,0-0.6
		c0-0.2,0-0.3,0-0.4s0-0.1-0.1-0.1c-0.3,0-1,0.6-2,1.7c0,0-0.1,0.1-0.1,0.1c-0.1,0.1-0.2,0.2-0.4,0.3c-0.4,0.3-0.6,0.5-0.8,0.5
		s-0.3,0-0.3-0.1l-0.2-0.2c-0.2-0.1-0.2-0.3-0.2-0.5v-0.1l0.4-1.2c0.3-0.7,0.5-1,0.5-1.1c0-0.1,0-0.1,0-0.1c-0.2,0-0.5,0.3-1,0.8
		c-0.5,0.6-0.9,1-1.1,1.1c-0.2,0.2-0.4,0.4-0.6,0.6c-0.2,0.2-0.4,0.4-0.5,0.6s-0.2,0.2-0.2,0.2c-0.3,0-0.5-0.1-0.7-0.3
		c-0.2-0.2-0.3-0.4-0.3-0.6c0-0.2,0-0.4,0.1-0.6c0-0.2,0.1-0.5,0.2-0.8c0.1-0.3,0.1-0.6,0.2-0.7c0-0.1,0.1-0.3,0.1-0.4
		c0-0.1,0-0.2,0-0.2s0-0.1,0.1-0.2c0-0.1,0.1-0.3,0.2-0.4c0.1-0.1,0.2-0.4,0.3-0.7C350.1,9.5,350.2,9.3,350.2,9.1z"/>
	<path class="st3" d="M363.1,8c0.7,0,1.2,0.2,1.5,0.5s0.5,0.7,0.5,1v0.1c0,0.3-0.2,0.7-0.5,1.2c-0.2,0.3-0.4,0.6-0.8,0.8
		c-0.3,0.2-0.7,0.4-1,0.4c-0.3,0-0.7,0-1-0.1c-0.3-0.1-0.5-0.1-0.6-0.1c-0.1,0-0.1,0-0.2,0.1c-0.1,0.1-0.1,0.4-0.1,0.7
		c0,0.3,0.1,0.6,0.3,0.7s0.3,0.2,0.5,0.2s0.4,0,0.6-0.1c0.2-0.1,0.4-0.2,0.7-0.5c0.3-0.2,0.5-0.3,0.6-0.3s0.3,0.1,0.4,0.2
		c0.1,0.1,0.2,0.3,0.2,0.4c0,0.3-0.3,0.6-0.8,1.1c-0.5,0.5-1.1,0.7-1.8,0.7s-1.2-0.2-1.6-0.6c-0.4-0.4-0.6-0.9-0.6-1.6
		c0-0.3,0-0.6,0-0.9c0-0.3,0.1-0.7,0.3-1.2c0.2-0.5,0.5-0.9,0.9-1.5c0.4-0.5,0.8-0.9,1.3-1.1C362.3,8.1,362.7,8,363.1,8z M362.9,9.3
		c-0.2,0-0.4,0.1-0.7,0.4c-0.3,0.3-0.5,0.6-0.8,0.9c0,0.1,0.2,0.2,0.6,0.2c0.4,0,0.6,0,0.7-0.1s0.3-0.2,0.5-0.5s0.4-0.4,0.4-0.5
		c0-0.3-0.2-0.4-0.6-0.5H362.9z"/>
	<path class="st3" d="M367.7,8c0.3,0,0.4,0,0.5,0.1c0.3,0.2,0.1,1-0.6,2.2c-0.2,0.4-0.3,0.6-0.2,0.6c0.1-0.2,0.5-0.5,1-0.9
		c0.5-0.4,0.8-0.6,1-0.7c0.1-0.1,0.3-0.1,0.4-0.2c0.2-0.1,0.2-0.1,0.3-0.1c0.3-0.1,0.6-0.2,0.9-0.2s0.5,0.1,0.6,0.3
		c0,0.1,0.1,0.2,0.2,0.3l0.1,0.1c0,0.1-0.1,0.2-0.3,0.4c-0.2,0.2-0.3,0.2-0.5,0.2c-0.2,0-0.4,0.1-0.6,0.2c-0.2,0.1-0.5,0.2-0.7,0.4
		c-0.2,0.1-0.4,0.2-0.5,0.3c-0.1,0.1-0.3,0.2-0.4,0.3c-0.3,0.2-0.6,0.5-0.9,0.8c-0.3,0.3-0.5,0.5-0.6,0.6c-0.1,0.1-0.2,0.3-0.3,0.7
		c-0.1,0.4-0.1,0.6-0.1,0.7c0,0.2-0.1,0.4-0.3,0.5c-0.1,0.2-0.3,0.3-0.4,0.3c-0.1,0-0.3,0-0.5-0.2c-0.4-0.3-0.5-0.6-0.5-0.9
		c0-0.3,0.2-0.9,0.4-1.8c0-0.3,0.2-1,0.6-1.9c0.3-1,0.6-1.6,0.9-1.9C367.2,8,367.4,8,367.7,8z"/>
</g>
<g class="st1">
	<path class="st3" d="M317.8,14.7c0.1,0,0.2,0,0.2,0c0.1,0,0.2,0,0.3-0.1s0.2-0.1,0.3-0.1c0.1,0,0.2-0.1,0.3-0.1
		c0.1,0,0.2-0.1,0.3-0.1c0.1,0,0.2-0.1,0.3-0.2c0.8-0.3,1.4-0.7,1.7-0.9c0.3-0.2,0.6-0.3,0.8-0.3c0.2,0,0.3,0,0.4,0.1
		c0.1,0.1,0.1,0.3,0.1,0.5s-0.1,0.4-0.3,0.7c-0.2,0.2-0.5,0.4-0.8,0.6c-0.1,0.1-0.4,0.3-0.9,0.5c-0.4,0.3-1,0.6-1.6,0.8
		c-0.6,0.2-1.1,0.3-1.5,0.2c-0.9-0.3-1.5-0.8-1.8-1.5s-0.3-1.4-0.3-2.3c0-1.1,0.2-2.1,0.6-3c0,0,0.1-0.2,0.3-0.6s0.3-0.6,0.3-0.7
		c0.2-0.5,0.6-1.1,1.1-1.8c0.7-1,1.2-1.7,1.6-2.1c0.4-0.4,1-0.8,1.8-1.4c0.3-0.2,0.6-0.3,1-0.4c0.4,0,0.8,0,1.2,0.2s0.7,0.5,0.9,1
		c0.3,0.5,0.3,1.2,0,2.1s-0.7,1.6-1.2,2.1c-0.4,0.2-0.8,0.1-1.3-0.3c-0.1-0.3-0.2-0.4-0.2-0.4c0,0,0,0,0.1,0
		c0.1-0.1,0.3-0.4,0.5-0.8c0.2-0.4,0.3-0.7,0.4-0.8c0-0.2,0.1-0.3,0.1-0.5c0-0.1,0.1-0.2,0.1-0.3s0-0.1,0-0.2c0-0.1,0-0.1,0-0.2
		c0,0,0-0.1,0-0.1c0-0.1,0-0.1-0.1-0.2s-0.3,0-0.6,0.1c-0.6,0.3-1.3,0.9-2.1,2c-1,1.4-1.7,2.4-1.9,3.2l-0.2,0.5c0,0.2,0,0.5-0.2,0.8
		c-0.2,0.8-0.3,1.6-0.2,2.3c0.1,0.9,0.3,1.4,0.6,1.5C317.7,14.7,317.8,14.7,317.8,14.7z"/>
	<path class="st3" d="M327.3,13.6v-0.3c-0.1,0.3-0.3,0.5-0.4,0.6c-0.3,0.3-0.6,0.5-0.8,0.6c-0.8,0.5-1.4,0.5-1.9-0.1
		c-0.5-0.4-0.7-0.9-0.5-1.5c0-0.8,0.3-1.8,0.8-2.8c0.5-1.1,0.8-1.6,0.8-1.6c0.2-0.1,0.4-0.1,0.7,0c0.3,0.1,0.4,0.2,0.4,0.4
		c0.1,0.1,0.1,0.4,0,0.7c-0.1,0.3-0.2,0.7-0.4,1.1c-0.5,1.2-0.7,1.9-0.7,2.2c0,0.3,0.1,0.4,0.2,0.5c0.1,0.1,0.3,0.1,0.5,0
		c0.2-0.1,0.4-0.3,0.7-0.7s0.6-0.9,0.8-1.4c0.2-0.6,0.4-1.1,0.4-1.5c0-0.1,0-0.3,0.1-0.4c0.1-0.2,0.2-0.3,0.4-0.4
		c0-0.1,0.1-0.1,0.2-0.2s0.1,0,0.2,0l0.3,0c0,0,0.1,0.1,0.2,0.2s0.1,0.2,0.2,0.2c0.3,0.3,0.3,1-0.3,2.2c-0.7,1.4-0.8,2.4-0.2,2.9
		c0.2,0.1,0.3,0.4,0.2,0.9c0,0.2-0.2,0.3-0.5,0.3c-0.3,0-0.5,0-0.7-0.2c-0.2-0.2-0.3-0.6-0.5-1.2C327.3,13.8,327.3,13.7,327.3,13.6z
		"/>
	<path class="st3" d="M333.9,7.7c0.2-0.1,0.4-0.1,0.7-0.1s0.5,0,0.6,0.1c0.1,0,0.1,0,0.1,0c0.1,0,0.3,0.1,0.6,0.4
		c0.2,0.2,0.4,0.4,0.4,0.6c0,0.9-0.1,1.3-0.2,1.3c-0.1,0-0.1,0-0.1,0.1c0,0.2-0.1,0.4-0.4,0.6s-0.6,0.3-0.8,0.3
		c-0.1,0-0.3-0.1-0.4-0.2c-0.1-0.1-0.2-0.3-0.2-0.4c0,0,0.1-0.2,0.4-0.5s0.4-0.5,0.4-0.8c0-0.1-0.1-0.1-0.3-0.1
		c-0.7,0.3-1.1,0.6-1.4,0.8c-0.1,0.1-0.1,0.2-0.2,0.2c0,0,0,0,0,0c0,0-0.1,0.1-0.2,0.2c-0.1,0.1-0.2,0.3-0.4,0.5
		c-0.1,0.2-0.2,0.4-0.2,0.5l0,0.1v0.1c0,0,0,0.1,0,0.1c0,0.2,0.3,0.5,0.8,0.9c0.5,0.4,0.9,0.7,1.1,0.9c0.2,0.2,0.3,0.4,0.4,0.5
		c0.1,0.2,0.2,0.4,0.2,0.6c0,0.4-0.2,0.7-0.6,0.9c-0.4,0.2-0.9,0.3-1.5,0.3c-0.6,0-1.1-0.1-1.5-0.4c-0.4-0.3-0.7-0.5-0.7-0.7
		c0-0.2,0.1-0.3,0.2-0.3c0.1-0.1,0.3-0.1,0.5-0.1c0.3,0,0.6,0.1,0.9,0.1c0.2,0,0.5,0,0.7-0.1c0.2,0,0.3-0.1,0.3-0.1s0-0.1-0.1-0.2
		c-0.1-0.1-0.2-0.1-0.3-0.1c0,0-0.2-0.2-0.7-0.6c-0.5-0.4-0.7-0.6-0.7-0.7c0,0,0,0,0,0v-0.1c-0.1,0-0.2-0.1-0.2-0.3
		c-0.1-0.2-0.1-0.5-0.1-0.7c0-0.6,0.4-1.3,1.1-2C332.4,8.4,333.1,7.9,333.9,7.7z"/>
	<path class="st3" d="M337,8.6C337,8.5,337,8.4,337,8.4s0.1-0.2,0.2-0.4c0.1-0.2,0.2-0.3,0.3-0.3c0.1,0,0.3,0,0.5,0
		c0.3,0,0.5,0,0.6-0.1c0.1,0,0.2-0.1,0.2-0.2c0-0.1,0.2-0.4,0.4-0.7c0.4-0.8,0.7-1.3,0.9-1.4s0.4-0.2,0.6-0.2c0.2,0,0.4,0,0.6,0.2
		c0.2,0.3,0.2,0.5,0,0.8c-0.1,0.1-0.2,0.3-0.3,0.6c-0.2,0.2-0.3,0.4-0.3,0.5c-0.2,0.3-0.2,0.4-0.1,0.5c0.1,0,0.5,0,1.1-0.1
		c0.6-0.1,0.9,0.1,1,0.6c0,0.3,0,0.5-0.1,0.5c-0.1,0.1-0.4,0.1-0.8,0.1c-0.4,0.1-0.7,0.1-1.1,0.1s-0.5,0-0.6,0
		c-0.1,0-0.3,0.2-0.3,0.3c0,0-0.1,0.1-0.1,0.2c-0.1,0.1-0.2,0.4-0.5,0.8c-0.3,0.9-0.6,1.9-0.7,2.8c0,0.2,0,0.4,0,0.5
		c0.1,0.1,0.3,0.2,0.6,0.2c0.6,0.1,1.2-0.1,1.9-0.5l0.5-0.3c0.1-0.1,0.2-0.1,0.4,0.2c0,0.1,0.1,0.1,0.1,0.2c0,0.5-0.3,0.8-0.8,1.1
		c-0.5,0.3-1,0.5-1.5,0.6c-0.5,0.1-0.9,0.1-1.2,0.1c-0.3-0.1-0.5-0.2-0.8-0.5c-0.2-0.3-0.4-0.5-0.5-0.7l-0.1-0.1
		c-0.1-0.1-0.1-0.4-0.1-0.9c0-0.6,0.1-1,0.1-1.2c0.1-0.3,0.3-0.9,0.6-1.8l0.5-1l-0.7-0.2C337.2,8.7,337.1,8.7,337,8.6z"/>
	<path class="st3" d="M344.5,9.3c0.6-0.5,1.1-0.8,1.6-0.9c0.7-0.2,1.2-0.1,1.5,0.2c0.5,0.2,0.7,0.6,0.8,1.3c0.1,1-0.2,2-1,3.1
		c-0.4,0.6-1.1,1.2-1.8,1.7c-0.3,0.2-0.9,0.3-1.7,0.4c-0.2,0-0.4-0.1-0.7-0.3c-0.5-0.6-0.8-1.1-0.7-1.5l0-0.4
		c-0.1-0.1-0.1-0.1,0-0.1c0,0,0.1-0.1,0.1-0.1c0.1,0,0.1-0.1,0.1-0.2s0-0.3,0.1-0.7c0.1-0.3,0.2-0.6,0.4-0.9
		C343.6,10.2,344,9.7,344.5,9.3z M346.5,11.6c0,0,0.1-0.1,0.1-0.3c0-0.1,0.1-0.2,0.1-0.3s0.1-0.3,0.1-0.5c0-0.3,0-0.5-0.1-0.5
		c-0.1-0.1-0.2-0.1-0.3-0.1c-0.1,0-0.2,0.1-0.4,0.2c-0.9,0.8-1.5,1.6-1.6,2.5c0,0.3,0,0.5,0.1,0.7c0.1,0.1,0.3,0.2,0.5,0.1
		c0.2-0.1,0.5-0.2,0.6-0.4c0.2-0.2,0.3-0.3,0.4-0.4c0.1-0.1,0.1-0.1,0.2-0.2c0,0,0.1-0.1,0.1-0.2c0-0.1,0.1-0.2,0.1-0.2
		c0,0,0.1-0.1,0.1-0.2C346.5,11.8,346.5,11.7,346.5,11.6z"/>
	<path class="st3" d="M350.2,9.1l0-0.4c0-0.2,0.1-0.3,0.3-0.5c0.2-0.1,0.4-0.2,0.7-0.2c0.3,0,0.5,0.1,0.6,0.3
		c0.2,0.2,0.2,0.4,0.2,0.7c0,0.2,0,0.4-0.1,0.6l-0.6,1.6c0,0,0,0.1,0,0.1c0,0,0.2-0.1,0.5-0.3c0.3-0.3,0.7-0.6,1.2-1
		c0.5-0.4,0.9-0.6,1.2-0.7c0.2,0,0.4,0.1,0.6,0.3c0.2,0.2,0.4,0.5,0.4,0.7c-0.2,0.8-0.3,1.3-0.4,1.4c0.2-0.3,0.6-0.6,1.2-1
		c0.6-0.4,1-0.6,1.2-0.6c0.4,0,0.6,0.2,0.8,0.5c0.1,0.4,0.2,0.8,0.3,1.4s0.1,1,0.2,1.2c0,0.1,0.1,0.1,0.2,0.2c0.1,0,0.2,0.1,0.4,0.2
		c0.1,0.1,0.2,0.2,0.2,0.4c0,0.5-0.4,0.7-1.2,0.7c-0.3,0-0.7-0.2-0.9-0.5c-0.3-0.4-0.4-0.8-0.4-1.3c0-0.2,0-0.4,0-0.6
		c0-0.2,0-0.3,0-0.4s0-0.1-0.1-0.1c-0.3,0-1,0.6-2,1.7c0,0-0.1,0.1-0.1,0.1c-0.1,0.1-0.2,0.2-0.4,0.3c-0.4,0.3-0.6,0.5-0.8,0.5
		s-0.3,0-0.3-0.1l-0.2-0.2c-0.2-0.1-0.2-0.3-0.2-0.5v-0.1l0.4-1.2c0.3-0.7,0.5-1,0.5-1.1c0-0.1,0-0.1,0-0.1c-0.2,0-0.5,0.3-1,0.8
		c-0.5,0.6-0.9,1-1.1,1.1c-0.2,0.2-0.4,0.4-0.6,0.6c-0.2,0.2-0.4,0.4-0.5,0.6s-0.2,0.2-0.2,0.2c-0.3,0-0.5-0.1-0.7-0.3
		c-0.2-0.2-0.3-0.4-0.3-0.6c0-0.2,0-0.4,0.1-0.6c0-0.2,0.1-0.5,0.2-0.8c0.1-0.3,0.1-0.6,0.2-0.7c0-0.1,0.1-0.3,0.1-0.4
		c0-0.1,0-0.2,0-0.2s0-0.1,0.1-0.2c0-0.1,0.1-0.3,0.2-0.4c0.1-0.1,0.2-0.4,0.3-0.7C350.1,9.5,350.2,9.3,350.2,9.1z"/>
	<path class="st3" d="M363.1,8c0.7,0,1.2,0.2,1.5,0.5s0.5,0.7,0.5,1v0.1c0,0.3-0.2,0.7-0.5,1.2c-0.2,0.3-0.4,0.6-0.8,0.8
		c-0.3,0.2-0.7,0.4-1,0.4c-0.3,0-0.7,0-1-0.1c-0.3-0.1-0.5-0.1-0.6-0.1c-0.1,0-0.1,0-0.2,0.1c-0.1,0.1-0.1,0.4-0.1,0.7
		c0,0.3,0.1,0.6,0.3,0.7s0.3,0.2,0.5,0.2s0.4,0,0.6-0.1c0.2-0.1,0.4-0.2,0.7-0.5c0.3-0.2,0.5-0.3,0.6-0.3s0.3,0.1,0.4,0.2
		c0.1,0.1,0.2,0.3,0.2,0.4c0,0.3-0.3,0.6-0.8,1.1c-0.5,0.5-1.1,0.7-1.8,0.7s-1.2-0.2-1.6-0.6c-0.4-0.4-0.6-0.9-0.6-1.6
		c0-0.3,0-0.6,0-0.9c0-0.3,0.1-0.7,0.3-1.2c0.2-0.5,0.5-0.9,0.9-1.5c0.4-0.5,0.8-0.9,1.3-1.1C362.3,8.1,362.7,8,363.1,8z M362.9,9.3
		c-0.2,0-0.4,0.1-0.7,0.4c-0.3,0.3-0.5,0.6-0.8,0.9c0,0.1,0.2,0.2,0.6,0.2c0.4,0,0.6,0,0.7-0.1s0.3-0.2,0.5-0.5s0.4-0.4,0.4-0.5
		c0-0.3-0.2-0.4-0.6-0.5H362.9z"/>
	<path class="st3" d="M367.7,8c0.3,0,0.4,0,0.5,0.1c0.3,0.2,0.1,1-0.6,2.2c-0.2,0.4-0.3,0.6-0.2,0.6c0.1-0.2,0.5-0.5,1-0.9
		c0.5-0.4,0.8-0.6,1-0.7c0.1-0.1,0.3-0.1,0.4-0.2c0.2-0.1,0.2-0.1,0.3-0.1c0.3-0.1,0.6-0.2,0.9-0.2s0.5,0.1,0.6,0.3
		c0,0.1,0.1,0.2,0.2,0.3l0.1,0.1c0,0.1-0.1,0.2-0.3,0.4c-0.2,0.2-0.3,0.2-0.5,0.2c-0.2,0-0.4,0.1-0.6,0.2c-0.2,0.1-0.5,0.2-0.7,0.4
		c-0.2,0.1-0.4,0.2-0.5,0.3c-0.1,0.1-0.3,0.2-0.4,0.3c-0.3,0.2-0.6,0.5-0.9,0.8c-0.3,0.3-0.5,0.5-0.6,0.6c-0.1,0.1-0.2,0.3-0.3,0.7
		c-0.1,0.4-0.1,0.6-0.1,0.7c0,0.2-0.1,0.4-0.3,0.5c-0.1,0.2-0.3,0.3-0.4,0.3c-0.1,0-0.3,0-0.5-0.2c-0.4-0.3-0.5-0.6-0.5-0.9
		c0-0.3,0.2-0.9,0.4-1.8c0-0.3,0.2-1,0.6-1.9c0.3-1,0.6-1.6,0.9-1.9C367.2,8,367.4,8,367.7,8z"/>
</g>
<g class="st1">
	<path class="st2" d="M319.1,24.8c1.3-0.3,2.4-0.2,3.4,0.4c0.5,0.3,1,0.7,1.3,1.1c0.3,0.4,0.4,0.8,0.5,1.2c0,0.4,0,0.8-0.2,1.1
		c-0.2,0.5-0.7,1-1.5,1.7s-1.5,1.1-2.2,1.4c-1,0.5-1.8,0.8-2.4,0.9c0.6,1.1,1.5,2.2,2.8,3.3c0.6,0.6,1.2,1,1.7,1.2
		c0.1,0.1,0.1,0.3,0,0.6c-0.1,0.3-0.2,0.5-0.3,0.5c-0.4,0.1-0.8,0-1.2-0.3c-1.1-0.7-2.3-1.7-3.4-2.9c-0.2-0.2-0.3-0.4-0.4-0.6
		c-0.1-0.2-0.2-0.3-0.2-0.4c-0.1-0.2-0.2-0.5-0.3-0.8c-0.4,1.2-0.9,2.8-1.6,4.6c0,0.1-0.2,0.2-0.5,0.2c-0.3,0-0.5-0.1-0.7-0.2
		c-0.2-0.2-0.3-0.3-0.3-0.4c0-0.1,0.2-0.5,0.5-1.3c0.1-0.4,0.2-0.9,0.5-1.5c0.1-0.2,0.5-1.4,1.4-3.5c0.9-2.2,1.5-3.6,1.9-4.4
		c0-0.1,0-0.3-0.1-0.4c-0.1-0.1-0.2-0.2-0.4-0.2c-0.1-0.1-0.2-0.3-0.2-0.4c0-0.1,0.1-0.2,0.2-0.3L319.1,24.8z M321.6,26.3
		c-0.7-0.2-1.2-0.2-1.4-0.2s-0.4,0.2-0.5,0.6c0,0,0,0.1-0.1,0.3c-0.3,0.6-0.6,1.2-0.8,1.7c-0.7,1.4-1.1,2.2-1.1,2.3s0,0.1,0,0.2
		c0.3,0,1-0.2,2-0.6c2-0.9,2.9-1.9,2.8-2.9c0-0.2-0.1-0.5-0.3-0.8C322.1,26.6,321.8,26.4,321.6,26.3z"/>
	<path class="st2" d="M327.3,29.7c0.7,0,1.2,0.2,1.5,0.5s0.5,0.7,0.5,1v0.1c0,0.3-0.2,0.7-0.5,1.2c-0.2,0.3-0.4,0.6-0.8,0.8
		c-0.3,0.2-0.7,0.4-1,0.4c-0.3,0-0.7,0-1-0.1c-0.3-0.1-0.5-0.1-0.6-0.1c-0.1,0-0.1,0-0.2,0.1c-0.1,0.1-0.1,0.4-0.1,0.7
		c0,0.3,0.1,0.6,0.3,0.7c0.1,0.1,0.3,0.2,0.5,0.2c0.2,0,0.4,0,0.6-0.1c0.2-0.1,0.4-0.2,0.7-0.5c0.3-0.2,0.5-0.3,0.6-0.3
		c0.1,0,0.3,0.1,0.4,0.2c0.1,0.1,0.2,0.3,0.2,0.4c0,0.3-0.3,0.6-0.8,1.1c-0.5,0.5-1.1,0.7-1.8,0.7s-1.2-0.2-1.6-0.6
		c-0.4-0.4-0.6-0.9-0.6-1.6c0-0.3,0-0.6,0-0.9c0-0.3,0.1-0.7,0.3-1.2c0.2-0.5,0.5-0.9,0.9-1.5s0.8-0.9,1.3-1.1
		C326.6,29.8,327,29.7,327.3,29.7z M327.2,31c-0.2,0-0.4,0.1-0.7,0.4c-0.3,0.3-0.5,0.6-0.8,0.9c0,0.1,0.2,0.2,0.6,0.2s0.6,0,0.7-0.1
		c0.1-0.1,0.3-0.2,0.5-0.5c0.2-0.2,0.4-0.4,0.4-0.5c0-0.3-0.2-0.4-0.6-0.5H327.2z"/>
	<path class="st2" d="M331.1,30.8l0.2-0.7c0.2-0.4,0.5-1.2,1-2.5s0.7-2,0.7-2.1s0-0.2,0.1-0.3c0.1-0.1,0.2-0.1,0.3-0.1
		c0.1-0.1,0.2-0.1,0.5-0.1l0.3,0.3c0.3,0.3,0.4,0.5,0.4,0.7s0,0.4-0.1,0.6c-0.1,0.2-0.3,0.7-0.7,1.5c0,0.1-0.1,0.3-0.2,0.5
		s-0.1,0.3-0.2,0.4c0,0.1-0.1,0.2-0.1,0.2c0,0,0,0.1,0,0.1c0,0.1,0,0.1-0.1,0.2s-0.1,0.2-0.1,0.3c-0.5,1.1-0.7,1.6-0.7,1.8
		s0,0.2-0.1,0.3c-0.1,0-0.1,0-0.1,0.1v0.1c0,0.1-0.1,0.4-0.3,1c-0.5,1.7-0.8,2.8-0.8,3.3s-0.1,0.7-0.4,0.9c-0.3,0.1-0.6-0.1-0.8-0.5
		c-0.2-0.5-0.3-1-0.1-1.7c0.1-0.3,0.2-0.6,0.2-0.8c0-0.2,0.2-0.6,0.4-1.2c0.2-0.6,0.3-1,0.4-1.1c0.1,0,0.2-0.1,0.2-0.4
		C330.9,31.1,330.9,30.9,331.1,30.8z"/>
	<path class="st2" d="M333,35.9c0-0.1-0.1-0.3-0.2-0.5c-0.2-0.2,0.2-1.1,1.1-2.8c0.1-0.1,0.2-0.2,0.3-0.4c0.1-0.2,0.2-0.3,0.2-0.3
		c0,0,0-0.1,0.1-0.1s0.1-0.1,0.1-0.1l0.1-0.3c0-0.1,0.3-0.4,0.7-0.8c0.4-0.4,0.8-0.7,1-0.8s0.5-0.2,0.8-0.2c0.3,0,0.5,0.1,0.7,0.3
		c0,0,0.1,0.1,0.2,0.2c0.2,0.2,0.7,0.6,1.5,1.3l-0.3,0.9c-0.3,0.8-0.2,1.5,0.2,2.2c0.1,0.3,0.3,0.4,0.6,0.5s0.4,0.2,0.4,0.4
		c0,0.5-0.2,0.8-0.5,0.8c-0.9,0.1-1.6-0.3-2.1-1.2c-0.2-0.2-0.3-0.5-0.3-0.8c-0.1,0.1-0.2,0.3-0.4,0.5c-1.6,1.7-2.9,2.2-3.7,1.7
		c0-0.1-0.1-0.2-0.3-0.3C333.1,36,333,35.9,333,35.9z M337.2,31.2c-0.4,0-1.2,0.9-2.2,2.6c-0.2,0.3-0.3,0.7-0.5,1.1
		c0.2,0,0.6-0.2,1.1-0.6c0.1-0.1,0.3-0.2,0.4-0.4c0.2-0.2,0.3-0.3,0.4-0.3s0.2-0.2,0.3-0.3c0.2-0.2,0.4-0.5,0.6-0.7l0.4-0.6
		C337.6,31.4,337.4,31.2,337.2,31.2z"/>
	<path class="st2" d="M341.5,30.2c-0.1-0.1-0.1-0.1-0.1-0.2s0.1-0.2,0.2-0.4c0.1-0.2,0.2-0.3,0.3-0.3c0.1,0,0.3,0,0.5,0
		c0.3,0,0.5,0,0.6-0.1s0.2-0.1,0.2-0.2c0-0.1,0.2-0.4,0.4-0.7c0.4-0.8,0.7-1.3,0.9-1.4s0.4-0.2,0.6-0.2c0.2,0,0.4,0,0.6,0.2
		c0.2,0.3,0.2,0.5,0,0.8c-0.1,0.1-0.2,0.3-0.3,0.6c-0.2,0.2-0.3,0.4-0.3,0.5c-0.2,0.3-0.2,0.4-0.1,0.5s0.5,0,1.1-0.1
		c0.6-0.1,0.9,0.1,1,0.6c0,0.3,0,0.5-0.1,0.5c-0.1,0.1-0.4,0.1-0.8,0.1c-0.4,0.1-0.7,0.1-1.1,0.1c-0.3,0-0.5,0-0.6,0
		c-0.1,0-0.3,0.2-0.3,0.3c0,0-0.1,0.1-0.1,0.2c-0.1,0.1-0.2,0.4-0.5,0.8c-0.3,0.9-0.6,1.9-0.7,2.8c0,0.2,0,0.4,0,0.5
		c0.1,0.1,0.3,0.2,0.6,0.2c0.6,0.1,1.2-0.1,1.9-0.5l0.5-0.3c0.1-0.1,0.2-0.1,0.4,0.2c0,0.1,0.1,0.1,0.1,0.2c0,0.5-0.3,0.8-0.8,1.1
		c-0.5,0.3-1,0.5-1.5,0.6c-0.5,0.1-0.9,0.1-1.2,0.1c-0.3-0.1-0.5-0.2-0.8-0.5c-0.2-0.3-0.4-0.5-0.5-0.7l-0.1-0.1
		c-0.1-0.1-0.1-0.4-0.1-0.9c0-0.6,0.1-1,0.1-1.2c0.1-0.3,0.3-0.9,0.6-1.8l0.5-1l-0.7-0.2C341.6,30.3,341.5,30.3,341.5,30.2z"/>
	<path class="st2" d="M347.1,35.1l0.1-0.4c0-0.1,0-0.3,0.1-0.6c0.3-0.6,0.6-1.6,1-2.9c0-0.1,0.1-0.2,0.3-0.2c0.1,0,0.3,0,0.5,0.2
		s0.4,0.3,0.5,0.5c0.2,0.2,0.1,0.4,0,0.9s-0.3,0.8-0.4,1.2c-0.1,0.3-0.2,0.6-0.3,0.7c0,0.2-0.1,0.4-0.2,0.7
		c-0.1,0.3-0.1,0.6-0.2,0.7c-0.1,0.5-0.3,0.8-0.6,0.9c-0.3,0.1-0.5,0-0.7-0.2c-0.1-0.1-0.2-0.4-0.2-0.7
		C347,35.4,347,35.2,347.1,35.1z M348.9,28.9c-0.1-0.2-0.1-0.3-0.1-0.4c0-0.1,0-0.2,0.1-0.3c0.1-0.1,0.1-0.3,0.3-0.5
		c0.3-0.5,0.4-0.8,0.5-0.8c0.1-0.1,0.3-0.1,0.6,0c0.3,0.1,0.4,0.3,0.6,0.5c0.2,0.5,0.1,1-0.3,1.5c-0.2,0.2-0.4,0.4-0.7,0.5
		c-0.3,0.1-0.5,0-0.6-0.1C349.1,29.2,349,29.1,348.9,28.9z"/>
	<path class="st2" d="M352.5,30.9c0.6-0.5,1.1-0.8,1.6-0.9c0.7-0.2,1.2-0.1,1.5,0.2c0.5,0.2,0.7,0.6,0.8,1.3c0.1,1-0.2,2-1,3.1
		c-0.4,0.6-1.1,1.2-1.8,1.7c-0.3,0.2-0.9,0.3-1.7,0.4c-0.2,0-0.4-0.1-0.7-0.3c-0.5-0.6-0.8-1.1-0.7-1.5l0-0.4
		c-0.1-0.1-0.1-0.1,0-0.1c0,0,0.1-0.1,0.1-0.1c0.1,0,0.1-0.1,0.1-0.2s0-0.3,0.1-0.7c0.1-0.3,0.2-0.6,0.4-0.9
		C351.6,31.8,352,31.3,352.5,30.9z M354.5,33.3c0,0,0.1-0.1,0.1-0.3c0-0.1,0.1-0.2,0.1-0.3s0.1-0.3,0.1-0.5c0-0.3,0-0.5-0.1-0.5
		c-0.1-0.1-0.2-0.1-0.3-0.1c-0.1,0-0.2,0.1-0.4,0.2c-0.9,0.8-1.5,1.6-1.6,2.5c0,0.3,0,0.5,0.1,0.7c0.1,0.1,0.3,0.2,0.5,0.1
		c0.2-0.1,0.5-0.2,0.6-0.4c0.2-0.2,0.3-0.3,0.4-0.4c0.1-0.1,0.1-0.1,0.2-0.2c0,0,0.1-0.1,0.1-0.2c0-0.1,0.1-0.2,0.1-0.2
		c0,0,0.1-0.1,0.1-0.2C354.5,33.4,354.5,33.3,354.5,33.3z"/>
	<path class="st2" d="M362.3,35.1l0.1-1.2v-0.3c0-0.2-0.1-0.4-0.2-0.4c-0.2,0-0.6,0.2-1.2,0.6c-1.1,0.8-1.8,1.5-2.4,2.2
		c-0.1,0.1-0.2,0.2-0.3,0.2c-0.1,0-0.2,0-0.3,0c-0.1,0-0.3-0.1-0.5-0.4c-0.2-0.2-0.4-0.4-0.4-0.6c0-0.5,0.2-1.2,0.7-2.1
		c0.1-0.2,0.2-0.6,0.5-1.3c0.3-0.6,0.4-1.1,0.5-1.5l0,0c0-0.1,0.1-0.2,0.2-0.2c0,0,0.1-0.1,0.4-0.1s0.4,0.1,0.7,0.3
		c0.2,0.2,0.3,0.4,0.3,0.7s-0.2,0.8-0.5,1.4c-0.3,0.6-0.5,0.9-0.5,1c0.2-0.1,0.6-0.4,1.1-0.8c1.2-1,2-1.5,2.3-1.5
		c0.2,0,0.4,0.1,0.7,0.3c0.3,0.2,0.4,0.3,0.5,0.5l-0.1,0.8l0,1c0,0.4,0,0.7-0.1,0.8l0.1,0.1c0,0,0,0.2,0.1,0.5
		c0.1,0.3,0.2,0.5,0.2,0.6s-0.1,0.2-0.3,0.4s-0.3,0.3-0.5,0.3C362.6,36.3,362.3,35.9,362.3,35.1z"/>
	<path class="st2" d="M369.1,29.3c0.2-0.1,0.4-0.1,0.7-0.1c0.3,0,0.5,0,0.6,0.1c0.1,0,0.1,0,0.1,0c0.1,0,0.3,0.1,0.6,0.4
		s0.4,0.4,0.4,0.6c0,0.9-0.1,1.3-0.2,1.3c-0.1,0-0.1,0-0.1,0.1c0,0.2-0.1,0.4-0.4,0.6c-0.3,0.2-0.6,0.3-0.8,0.3
		c-0.1,0-0.3-0.1-0.4-0.2s-0.2-0.3-0.2-0.4c0,0,0.1-0.2,0.4-0.5c0.2-0.3,0.4-0.5,0.4-0.8c0-0.1-0.1-0.1-0.3-0.1
		c-0.7,0.3-1.1,0.6-1.4,0.8c-0.1,0.1-0.1,0.2-0.2,0.2c0,0,0,0,0,0s-0.1,0.1-0.2,0.2s-0.2,0.3-0.4,0.5c-0.1,0.2-0.2,0.4-0.2,0.5
		l0,0.1v0.1c0,0,0,0.1,0,0.1c0,0.2,0.3,0.5,0.8,0.9s0.9,0.7,1.1,0.9c0.2,0.2,0.3,0.4,0.4,0.5c0.1,0.2,0.2,0.4,0.2,0.6
		c0,0.4-0.2,0.7-0.6,0.9c-0.4,0.2-0.9,0.3-1.5,0.3s-1.1-0.1-1.5-0.4c-0.4-0.3-0.7-0.5-0.7-0.7c0-0.2,0.1-0.3,0.2-0.3
		c0.1-0.1,0.3-0.1,0.5-0.1c0.3,0,0.6,0.1,0.9,0.1c0.2,0,0.5,0,0.7-0.1s0.3-0.1,0.3-0.1s0-0.1-0.1-0.2s-0.2-0.1-0.3-0.1
		c0,0-0.2-0.2-0.7-0.6c-0.5-0.4-0.7-0.6-0.7-0.7c0,0,0,0,0,0v-0.1c-0.1,0-0.2-0.1-0.2-0.3c-0.1-0.2-0.1-0.5-0.1-0.7
		c0-0.6,0.4-1.3,1.1-2S368.3,29.5,369.1,29.3z"/>
	<path class="st2" d="M376.7,34.7l0.1-1.4c0-0.3-0.1-0.4-0.2-0.4c-0.2,0-0.7,0.2-1.3,0.7c-0.6,0.4-1.2,1-1.8,1.7
		c-0.4,0.6-0.8,0.8-1.1,0.8c-0.2,0-0.4-0.2-0.6-0.4s-0.3-0.4-0.3-0.7s0.2-1,0.5-2.2c0-0.3,0.1-0.6,0.3-1c0.2-0.3,0.3-0.7,0.4-1
		c0.1-0.3,0.3-1,0.7-1.9c0.3-1,0.6-1.6,0.7-2c0.1-0.4,0.2-0.7,0.3-0.9c0.1-0.3,0.2-0.5,0.3-0.7c0-0.1,0.1-0.2,0.2-0.3
		c0.1-0.1,0.3-0.1,0.4-0.1s0.3,0.1,0.5,0.4c0.3,0.4,0.4,0.9,0.2,1.3c-0.2,0.4-0.5,1.3-1,2.7c-0.5,1.4-0.8,2.2-1,2.5l-0.2,0.4
		l-0.3,1.1c0,0,0,0.1,0,0.1c0.6-0.6,1-1,1.5-1.3c0.4-0.3,0.7-0.5,0.7-0.5c0-0.1,0.2-0.2,0.5-0.4c0.3-0.2,0.6-0.3,1.1-0.3
		c0.2,0,0.5,0.2,0.7,0.5c0.3,0.3,0.4,0.6,0.4,1v0.3c0,0.3-0.1,0.9-0.4,2c0.1,0,0.2,0,0.3,0c0.2,0,0.4,0.1,0.5,0.2
		c0.1,0.1,0.2,0.2,0.2,0.2c0,0,0,0.1,0,0.1c0,0.3-0.2,0.5-0.5,0.7c-0.3,0.2-0.6,0.3-0.9,0.3c-0.3,0-0.6-0.1-0.8-0.4
		C376.8,35.4,376.7,35.1,376.7,34.7z"/>
	<path class="st2" d="M380.1,35.1l0.1-0.4c0-0.1,0-0.3,0.1-0.6c0.3-0.6,0.6-1.6,1-2.9c0-0.1,0.1-0.2,0.3-0.2c0.1,0,0.3,0,0.5,0.2
		s0.4,0.3,0.5,0.5c0.2,0.2,0.1,0.4,0,0.9s-0.3,0.8-0.4,1.2c-0.1,0.3-0.2,0.6-0.3,0.7c0,0.2-0.1,0.4-0.2,0.7
		c-0.1,0.3-0.1,0.6-0.2,0.7c-0.1,0.5-0.3,0.8-0.6,0.9c-0.3,0.1-0.5,0-0.7-0.2c-0.1-0.1-0.2-0.4-0.2-0.7
		C380,35.4,380,35.2,380.1,35.1z M381.9,28.9c-0.1-0.2-0.1-0.3-0.1-0.4c0-0.1,0-0.2,0.1-0.3c0.1-0.1,0.1-0.3,0.3-0.5
		c0.3-0.5,0.4-0.8,0.5-0.8c0.1-0.1,0.3-0.1,0.6,0c0.3,0.1,0.4,0.3,0.6,0.5c0.2,0.5,0.1,1-0.3,1.5c-0.2,0.2-0.4,0.4-0.7,0.5
		c-0.3,0.1-0.5,0-0.6-0.1C382.1,29.2,382,29.1,381.9,28.9z"/>
	<path class="st2" d="M383.1,36.9l0.1-0.6c0.1-0.3,0.3-1.1,0.7-2.3c0.4-1.2,0.8-2.2,1-2.9c0.3-0.8,0.5-1.3,0.5-1.5
		c0-0.1,0.1-0.2,0.2-0.3c0.1-0.1,0.3-0.2,0.5-0.1c0.2,0,0.4,0.1,0.5,0.2c0.2,0.3,0.3,0.6,0.2,1c0,0.2-0.1,0.6-0.4,0.9c0,0,0,0,0,0
		c0.7-0.4,1.3-0.6,1.8-0.5c0.5,0.1,0.9,0.3,1.2,0.6c0.3,0.4,0.4,0.8,0.4,1.3c0,0.2-0.1,0.5-0.3,0.9s-0.3,0.7-0.5,0.8
		c-0.1,0-0.2,0.1-0.3,0.4c-0.1,0.2-0.4,0.4-0.8,0.6s-0.7,0.3-0.8,0.2c-0.1,0-0.1,0.1-0.1,0.2c0,0.1-0.2,0.2-0.6,0.3
		c-0.4,0.1-0.7,0.2-0.9,0.2c-0.2,0-0.4,0-0.5-0.1c-0.1,0.1-0.1,0.2-0.1,0.3c0,0.1-0.1,0.3-0.2,0.5c-0.1,0.3-0.2,0.4-0.3,0.4
		c-0.1,0.1-0.1,0.1,0,0.2c0,0.3,0,0.4-0.1,0.6c0,0.3-0.1,0.6-0.2,0.9c0,0.1,0,0.3-0.1,0.4c0,0.1-0.1,0.2-0.1,0.2
		c-0.1,0-0.1,0.2-0.1,0.5c0,0.3-0.1,0.6-0.3,0.8c-0.2,0.2-0.3,0.3-0.5,0.3c-0.2,0-0.4,0-0.4-0.1c-0.3-0.4-0.3-0.7-0.3-1.1
		c0.1-0.5,0.2-0.9,0.2-1l0.1-0.6c0.1-0.2,0.2-0.5,0.2-0.8C382.8,37.2,382.9,37,383.1,36.9z M385.4,34.7c0.2,0,0.5-0.1,0.9-0.3
		c0.5-0.2,0.8-0.4,1-0.5s0.4-0.3,0.5-0.4c0.1-0.1,0.2-0.2,0.3-0.4c0.2-0.3,0.2-0.6,0-0.9c-0.3-0.4-1-0.2-1.9,0.7
		c-0.4,0.4-0.6,0.8-0.7,1.2C385.2,34.5,385.3,34.7,385.4,34.7z"/>
	<path class="st2" d="M394.2,29.3c0.2-0.1,0.4-0.1,0.7-0.1s0.5,0,0.6,0.1c0.1,0,0.1,0,0.1,0c0.1,0,0.3,0.1,0.6,0.4
		c0.2,0.2,0.4,0.4,0.4,0.6c0,0.9-0.1,1.3-0.2,1.3c-0.1,0-0.1,0-0.1,0.1c0,0.2-0.1,0.4-0.4,0.6c-0.3,0.2-0.6,0.3-0.8,0.3
		c-0.1,0-0.3-0.1-0.4-0.2c-0.1-0.1-0.2-0.3-0.2-0.4c0,0,0.1-0.2,0.4-0.5c0.2-0.3,0.4-0.5,0.4-0.8c0-0.1-0.1-0.1-0.3-0.1
		c-0.7,0.3-1.1,0.6-1.4,0.8c-0.1,0.1-0.1,0.2-0.2,0.2c0,0,0,0,0,0s-0.1,0.1-0.2,0.2c-0.1,0.1-0.2,0.3-0.4,0.5
		c-0.1,0.2-0.2,0.4-0.2,0.5l0,0.1v0.1c0,0,0,0.1,0,0.1c0,0.2,0.3,0.5,0.8,0.9c0.5,0.4,0.9,0.7,1.1,0.9c0.2,0.2,0.3,0.4,0.4,0.5
		c0.1,0.2,0.2,0.4,0.2,0.6c0,0.4-0.2,0.7-0.6,0.9c-0.4,0.2-0.9,0.3-1.5,0.3c-0.6,0-1.1-0.1-1.5-0.4c-0.4-0.3-0.7-0.5-0.7-0.7
		c0-0.2,0.1-0.3,0.2-0.3c0.1-0.1,0.3-0.1,0.5-0.1c0.3,0,0.6,0.1,0.9,0.1c0.2,0,0.5,0,0.7-0.1c0.2,0,0.3-0.1,0.3-0.1s0-0.1-0.1-0.2
		c-0.1-0.1-0.2-0.1-0.3-0.1c0,0-0.2-0.2-0.7-0.6c-0.5-0.4-0.7-0.6-0.7-0.7c0,0,0,0,0,0v-0.1c-0.1,0-0.2-0.1-0.2-0.3
		c-0.1-0.2-0.1-0.5-0.1-0.7c0-0.6,0.4-1.3,1.1-2S393.5,29.5,394.2,29.3z"/>
</g>
<g class="st1">
	<path class="st3" d="M319.1,24.8c1.3-0.3,2.4-0.2,3.4,0.4c0.5,0.3,1,0.7,1.3,1.1c0.3,0.4,0.4,0.8,0.5,1.2c0,0.4,0,0.8-0.2,1.1
		c-0.2,0.5-0.7,1-1.5,1.7s-1.5,1.1-2.2,1.4c-1,0.5-1.8,0.8-2.4,0.9c0.6,1.1,1.5,2.2,2.8,3.3c0.6,0.6,1.2,1,1.7,1.2
		c0.1,0.1,0.1,0.3,0,0.6c-0.1,0.3-0.2,0.5-0.3,0.5c-0.4,0.1-0.8,0-1.2-0.3c-1.1-0.7-2.3-1.7-3.4-2.9c-0.2-0.2-0.3-0.4-0.4-0.6
		c-0.1-0.2-0.2-0.3-0.2-0.4c-0.1-0.2-0.2-0.5-0.3-0.8c-0.4,1.2-0.9,2.8-1.6,4.6c0,0.1-0.2,0.2-0.5,0.2c-0.3,0-0.5-0.1-0.7-0.2
		c-0.2-0.2-0.3-0.3-0.3-0.4c0-0.1,0.2-0.5,0.5-1.3c0.1-0.4,0.2-0.9,0.5-1.5c0.1-0.2,0.5-1.4,1.4-3.5c0.9-2.2,1.5-3.6,1.9-4.4
		c0-0.1,0-0.3-0.1-0.4c-0.1-0.1-0.2-0.2-0.4-0.2c-0.1-0.1-0.2-0.3-0.2-0.4c0-0.1,0.1-0.2,0.2-0.3L319.1,24.8z M321.6,26.3
		c-0.7-0.2-1.2-0.2-1.4-0.2s-0.4,0.2-0.5,0.6c0,0,0,0.1-0.1,0.3c-0.3,0.6-0.6,1.2-0.8,1.7c-0.7,1.4-1.1,2.2-1.1,2.3s0,0.1,0,0.2
		c0.3,0,1-0.2,2-0.6c2-0.9,2.9-1.9,2.8-2.9c0-0.2-0.1-0.5-0.3-0.8C322.1,26.6,321.8,26.4,321.6,26.3z"/>
	<path class="st3" d="M327.3,29.7c0.7,0,1.2,0.2,1.5,0.5s0.5,0.7,0.5,1v0.1c0,0.3-0.2,0.7-0.5,1.2c-0.2,0.3-0.4,0.6-0.8,0.8
		c-0.3,0.2-0.7,0.4-1,0.4c-0.3,0-0.7,0-1-0.1c-0.3-0.1-0.5-0.1-0.6-0.1c-0.1,0-0.1,0-0.2,0.1c-0.1,0.1-0.1,0.4-0.1,0.7
		c0,0.3,0.1,0.6,0.3,0.7c0.1,0.1,0.3,0.2,0.5,0.2c0.2,0,0.4,0,0.6-0.1c0.2-0.1,0.4-0.2,0.7-0.5c0.3-0.2,0.5-0.3,0.6-0.3
		c0.1,0,0.3,0.1,0.4,0.2c0.1,0.1,0.2,0.3,0.2,0.4c0,0.3-0.3,0.6-0.8,1.1c-0.5,0.5-1.1,0.7-1.8,0.7s-1.2-0.2-1.6-0.6
		c-0.4-0.4-0.6-0.9-0.6-1.6c0-0.3,0-0.6,0-0.9c0-0.3,0.1-0.7,0.3-1.2c0.2-0.5,0.5-0.9,0.9-1.5s0.8-0.9,1.3-1.1
		C326.6,29.8,327,29.7,327.3,29.7z M327.2,31c-0.2,0-0.4,0.1-0.7,0.4c-0.3,0.3-0.5,0.6-0.8,0.9c0,0.1,0.2,0.2,0.6,0.2s0.6,0,0.7-0.1
		c0.1-0.1,0.3-0.2,0.5-0.5c0.2-0.2,0.4-0.4,0.4-0.5c0-0.3-0.2-0.4-0.6-0.5H327.2z"/>
	<path class="st3" d="M331.1,30.8l0.2-0.7c0.2-0.4,0.5-1.2,1-2.5s0.7-2,0.7-2.1s0-0.2,0.1-0.3c0.1-0.1,0.2-0.1,0.3-0.1
		c0.1-0.1,0.2-0.1,0.5-0.1l0.3,0.3c0.3,0.3,0.4,0.5,0.4,0.7s0,0.4-0.1,0.6c-0.1,0.2-0.3,0.7-0.7,1.5c0,0.1-0.1,0.3-0.2,0.5
		s-0.1,0.3-0.2,0.4c0,0.1-0.1,0.2-0.1,0.2c0,0,0,0.1,0,0.1c0,0.1,0,0.1-0.1,0.2s-0.1,0.2-0.1,0.3c-0.5,1.1-0.7,1.6-0.7,1.8
		s0,0.2-0.1,0.3c-0.1,0-0.1,0-0.1,0.1v0.1c0,0.1-0.1,0.4-0.3,1c-0.5,1.7-0.8,2.8-0.8,3.3s-0.1,0.7-0.4,0.9c-0.3,0.1-0.6-0.1-0.8-0.5
		c-0.2-0.5-0.3-1-0.1-1.7c0.1-0.3,0.2-0.6,0.2-0.8c0-0.2,0.2-0.6,0.4-1.2c0.2-0.6,0.3-1,0.4-1.1c0.1,0,0.2-0.1,0.2-0.4
		C330.9,31.1,330.9,30.9,331.1,30.8z"/>
	<path class="st3" d="M333,35.9c0-0.1-0.1-0.3-0.2-0.5c-0.2-0.2,0.2-1.1,1.1-2.8c0.1-0.1,0.2-0.2,0.3-0.4c0.1-0.2,0.2-0.3,0.2-0.3
		c0,0,0-0.1,0.1-0.1s0.1-0.1,0.1-0.1l0.1-0.3c0-0.1,0.3-0.4,0.7-0.8c0.4-0.4,0.8-0.7,1-0.8s0.5-0.2,0.8-0.2c0.3,0,0.5,0.1,0.7,0.3
		c0,0,0.1,0.1,0.2,0.2c0.2,0.2,0.7,0.6,1.5,1.3l-0.3,0.9c-0.3,0.8-0.2,1.5,0.2,2.2c0.1,0.3,0.3,0.4,0.6,0.5s0.4,0.2,0.4,0.4
		c0,0.5-0.2,0.8-0.5,0.8c-0.9,0.1-1.6-0.3-2.1-1.2c-0.2-0.2-0.3-0.5-0.3-0.8c-0.1,0.1-0.2,0.3-0.4,0.5c-1.6,1.7-2.9,2.2-3.7,1.7
		c0-0.1-0.1-0.2-0.3-0.3C333.1,36,333,35.9,333,35.9z M337.2,31.2c-0.4,0-1.2,0.9-2.2,2.6c-0.2,0.3-0.3,0.7-0.5,1.1
		c0.2,0,0.6-0.2,1.1-0.6c0.1-0.1,0.3-0.2,0.4-0.4c0.2-0.2,0.3-0.3,0.4-0.3s0.2-0.2,0.3-0.3c0.2-0.2,0.4-0.5,0.6-0.7l0.4-0.6
		C337.6,31.4,337.4,31.2,337.2,31.2z"/>
	<path class="st3" d="M341.5,30.2c-0.1-0.1-0.1-0.1-0.1-0.2s0.1-0.2,0.2-0.4c0.1-0.2,0.2-0.3,0.3-0.3c0.1,0,0.3,0,0.5,0
		c0.3,0,0.5,0,0.6-0.1s0.2-0.1,0.2-0.2c0-0.1,0.2-0.4,0.4-0.7c0.4-0.8,0.7-1.3,0.9-1.4s0.4-0.2,0.6-0.2c0.2,0,0.4,0,0.6,0.2
		c0.2,0.3,0.2,0.5,0,0.8c-0.1,0.1-0.2,0.3-0.3,0.6c-0.2,0.2-0.3,0.4-0.3,0.5c-0.2,0.3-0.2,0.4-0.1,0.5s0.5,0,1.1-0.1
		c0.6-0.1,0.9,0.1,1,0.6c0,0.3,0,0.5-0.1,0.5c-0.1,0.1-0.4,0.1-0.8,0.1c-0.4,0.1-0.7,0.1-1.1,0.1c-0.3,0-0.5,0-0.6,0
		c-0.1,0-0.3,0.2-0.3,0.3c0,0-0.1,0.1-0.1,0.2c-0.1,0.1-0.2,0.4-0.5,0.8c-0.3,0.9-0.6,1.9-0.7,2.8c0,0.2,0,0.4,0,0.5
		c0.1,0.1,0.3,0.2,0.6,0.2c0.6,0.1,1.2-0.1,1.9-0.5l0.5-0.3c0.1-0.1,0.2-0.1,0.4,0.2c0,0.1,0.1,0.1,0.1,0.2c0,0.5-0.3,0.8-0.8,1.1
		c-0.5,0.3-1,0.5-1.5,0.6c-0.5,0.1-0.9,0.1-1.2,0.1c-0.3-0.1-0.5-0.2-0.8-0.5c-0.2-0.3-0.4-0.5-0.5-0.7l-0.1-0.1
		c-0.1-0.1-0.1-0.4-0.1-0.9c0-0.6,0.1-1,0.1-1.2c0.1-0.3,0.3-0.9,0.6-1.8l0.5-1l-0.7-0.2C341.6,30.3,341.5,30.3,341.5,30.2z"/>
	<path class="st3" d="M347.1,35.1l0.1-0.4c0-0.1,0-0.3,0.1-0.6c0.3-0.6,0.6-1.6,1-2.9c0-0.1,0.1-0.2,0.3-0.2c0.1,0,0.3,0,0.5,0.2
		s0.4,0.3,0.5,0.5c0.2,0.2,0.1,0.4,0,0.9s-0.3,0.8-0.4,1.2c-0.1,0.3-0.2,0.6-0.3,0.7c0,0.2-0.1,0.4-0.2,0.7
		c-0.1,0.3-0.1,0.6-0.2,0.7c-0.1,0.5-0.3,0.8-0.6,0.9c-0.3,0.1-0.5,0-0.7-0.2c-0.1-0.1-0.2-0.4-0.2-0.7
		C347,35.4,347,35.2,347.1,35.1z M348.9,28.9c-0.1-0.2-0.1-0.3-0.1-0.4c0-0.1,0-0.2,0.1-0.3c0.1-0.1,0.1-0.3,0.3-0.5
		c0.3-0.5,0.4-0.8,0.5-0.8c0.1-0.1,0.3-0.1,0.6,0c0.3,0.1,0.4,0.3,0.6,0.5c0.2,0.5,0.1,1-0.3,1.5c-0.2,0.2-0.4,0.4-0.7,0.5
		c-0.3,0.1-0.5,0-0.6-0.1C349.1,29.2,349,29.1,348.9,28.9z"/>
	<path class="st3" d="M352.5,30.9c0.6-0.5,1.1-0.8,1.6-0.9c0.7-0.2,1.2-0.1,1.5,0.2c0.5,0.2,0.7,0.6,0.8,1.3c0.1,1-0.2,2-1,3.1
		c-0.4,0.6-1.1,1.2-1.8,1.7c-0.3,0.2-0.9,0.3-1.7,0.4c-0.2,0-0.4-0.1-0.7-0.3c-0.5-0.6-0.8-1.1-0.7-1.5l0-0.4
		c-0.1-0.1-0.1-0.1,0-0.1c0,0,0.1-0.1,0.1-0.1c0.1,0,0.1-0.1,0.1-0.2s0-0.3,0.1-0.7c0.1-0.3,0.2-0.6,0.4-0.9
		C351.6,31.8,352,31.3,352.5,30.9z M354.5,33.3c0,0,0.1-0.1,0.1-0.3c0-0.1,0.1-0.2,0.1-0.3s0.1-0.3,0.1-0.5c0-0.3,0-0.5-0.1-0.5
		c-0.1-0.1-0.2-0.1-0.3-0.1c-0.1,0-0.2,0.1-0.4,0.2c-0.9,0.8-1.5,1.6-1.6,2.5c0,0.3,0,0.5,0.1,0.7c0.1,0.1,0.3,0.2,0.5,0.1
		c0.2-0.1,0.5-0.2,0.6-0.4c0.2-0.2,0.3-0.3,0.4-0.4c0.1-0.1,0.1-0.1,0.2-0.2c0,0,0.1-0.1,0.1-0.2c0-0.1,0.1-0.2,0.1-0.2
		c0,0,0.1-0.1,0.1-0.2C354.5,33.4,354.5,33.3,354.5,33.3z"/>
	<path class="st3" d="M362.3,35.1l0.1-1.2v-0.3c0-0.2-0.1-0.4-0.2-0.4c-0.2,0-0.6,0.2-1.2,0.6c-1.1,0.8-1.8,1.5-2.4,2.2
		c-0.1,0.1-0.2,0.2-0.3,0.2c-0.1,0-0.2,0-0.3,0c-0.1,0-0.3-0.1-0.5-0.4c-0.2-0.2-0.4-0.4-0.4-0.6c0-0.5,0.2-1.2,0.7-2.1
		c0.1-0.2,0.2-0.6,0.5-1.3c0.3-0.6,0.4-1.1,0.5-1.5l0,0c0-0.1,0.1-0.2,0.2-0.2c0,0,0.1-0.1,0.4-0.1s0.4,0.1,0.7,0.3
		c0.2,0.2,0.3,0.4,0.3,0.7s-0.2,0.8-0.5,1.4c-0.3,0.6-0.5,0.9-0.5,1c0.2-0.1,0.6-0.4,1.1-0.8c1.2-1,2-1.5,2.3-1.5
		c0.2,0,0.4,0.1,0.7,0.3c0.3,0.2,0.4,0.3,0.5,0.5l-0.1,0.8l0,1c0,0.4,0,0.7-0.1,0.8l0.1,0.1c0,0,0,0.2,0.1,0.5
		c0.1,0.3,0.2,0.5,0.2,0.6s-0.1,0.2-0.3,0.4s-0.3,0.3-0.5,0.3C362.6,36.3,362.3,35.9,362.3,35.1z"/>
	<path class="st3" d="M369.1,29.3c0.2-0.1,0.4-0.1,0.7-0.1c0.3,0,0.5,0,0.6,0.1c0.1,0,0.1,0,0.1,0c0.1,0,0.3,0.1,0.6,0.4
		s0.4,0.4,0.4,0.6c0,0.9-0.1,1.3-0.2,1.3c-0.1,0-0.1,0-0.1,0.1c0,0.2-0.1,0.4-0.4,0.6c-0.3,0.2-0.6,0.3-0.8,0.3
		c-0.1,0-0.3-0.1-0.4-0.2s-0.2-0.3-0.2-0.4c0,0,0.1-0.2,0.4-0.5c0.2-0.3,0.4-0.5,0.4-0.8c0-0.1-0.1-0.1-0.3-0.1
		c-0.7,0.3-1.1,0.6-1.4,0.8c-0.1,0.1-0.1,0.2-0.2,0.2c0,0,0,0,0,0s-0.1,0.1-0.2,0.2s-0.2,0.3-0.4,0.5c-0.1,0.2-0.2,0.4-0.2,0.5
		l0,0.1v0.1c0,0,0,0.1,0,0.1c0,0.2,0.3,0.5,0.8,0.9s0.9,0.7,1.1,0.9c0.2,0.2,0.3,0.4,0.4,0.5c0.1,0.2,0.2,0.4,0.2,0.6
		c0,0.4-0.2,0.7-0.6,0.9c-0.4,0.2-0.9,0.3-1.5,0.3s-1.1-0.1-1.5-0.4c-0.4-0.3-0.7-0.5-0.7-0.7c0-0.2,0.1-0.3,0.2-0.3
		c0.1-0.1,0.3-0.1,0.5-0.1c0.3,0,0.6,0.1,0.9,0.1c0.2,0,0.5,0,0.7-0.1s0.3-0.1,0.3-0.1s0-0.1-0.1-0.2s-0.2-0.1-0.3-0.1
		c0,0-0.2-0.2-0.7-0.6c-0.5-0.4-0.7-0.6-0.7-0.7c0,0,0,0,0,0v-0.1c-0.1,0-0.2-0.1-0.2-0.3c-0.1-0.2-0.1-0.5-0.1-0.7
		c0-0.6,0.4-1.3,1.1-2S368.3,29.5,369.1,29.3z"/>
	<path class="st3" d="M376.7,34.7l0.1-1.4c0-0.3-0.1-0.4-0.2-0.4c-0.2,0-0.7,0.2-1.3,0.7c-0.6,0.4-1.2,1-1.8,1.7
		c-0.4,0.6-0.8,0.8-1.1,0.8c-0.2,0-0.4-0.2-0.6-0.4s-0.3-0.4-0.3-0.7s0.2-1,0.5-2.2c0-0.3,0.1-0.6,0.3-1c0.2-0.3,0.3-0.7,0.4-1
		c0.1-0.3,0.3-1,0.7-1.9c0.3-1,0.6-1.6,0.7-2c0.1-0.4,0.2-0.7,0.3-0.9c0.1-0.3,0.2-0.5,0.3-0.7c0-0.1,0.1-0.2,0.2-0.3
		c0.1-0.1,0.3-0.1,0.4-0.1s0.3,0.1,0.5,0.4c0.3,0.4,0.4,0.9,0.2,1.3c-0.2,0.4-0.5,1.3-1,2.7c-0.5,1.4-0.8,2.2-1,2.5l-0.2,0.4
		l-0.3,1.1c0,0,0,0.1,0,0.1c0.6-0.6,1-1,1.5-1.3c0.4-0.3,0.7-0.5,0.7-0.5c0-0.1,0.2-0.2,0.5-0.4c0.3-0.2,0.6-0.3,1.1-0.3
		c0.2,0,0.5,0.2,0.7,0.5c0.3,0.3,0.4,0.6,0.4,1v0.3c0,0.3-0.1,0.9-0.4,2c0.1,0,0.2,0,0.3,0c0.2,0,0.4,0.1,0.5,0.2
		c0.1,0.1,0.2,0.2,0.2,0.2c0,0,0,0.1,0,0.1c0,0.3-0.2,0.5-0.5,0.7c-0.3,0.2-0.6,0.3-0.9,0.3c-0.3,0-0.6-0.1-0.8-0.4
		C376.8,35.4,376.7,35.1,376.7,34.7z"/>
	<path class="st3" d="M380.1,35.1l0.1-0.4c0-0.1,0-0.3,0.1-0.6c0.3-0.6,0.6-1.6,1-2.9c0-0.1,0.1-0.2,0.3-0.2c0.1,0,0.3,0,0.5,0.2
		s0.4,0.3,0.5,0.5c0.2,0.2,0.1,0.4,0,0.9s-0.3,0.8-0.4,1.2c-0.1,0.3-0.2,0.6-0.3,0.7c0,0.2-0.1,0.4-0.2,0.7
		c-0.1,0.3-0.1,0.6-0.2,0.7c-0.1,0.5-0.3,0.8-0.6,0.9c-0.3,0.1-0.5,0-0.7-0.2c-0.1-0.1-0.2-0.4-0.2-0.7
		C380,35.4,380,35.2,380.1,35.1z M381.9,28.9c-0.1-0.2-0.1-0.3-0.1-0.4c0-0.1,0-0.2,0.1-0.3c0.1-0.1,0.1-0.3,0.3-0.5
		c0.3-0.5,0.4-0.8,0.5-0.8c0.1-0.1,0.3-0.1,0.6,0c0.3,0.1,0.4,0.3,0.6,0.5c0.2,0.5,0.1,1-0.3,1.5c-0.2,0.2-0.4,0.4-0.7,0.5
		c-0.3,0.1-0.5,0-0.6-0.1C382.1,29.2,382,29.1,381.9,28.9z"/>
	<path class="st3" d="M383.1,36.9l0.1-0.6c0.1-0.3,0.3-1.1,0.7-2.3c0.4-1.2,0.8-2.2,1-2.9c0.3-0.8,0.5-1.3,0.5-1.5
		c0-0.1,0.1-0.2,0.2-0.3c0.1-0.1,0.3-0.2,0.5-0.1c0.2,0,0.4,0.1,0.5,0.2c0.2,0.3,0.3,0.6,0.2,1c0,0.2-0.1,0.6-0.4,0.9c0,0,0,0,0,0
		c0.7-0.4,1.3-0.6,1.8-0.5c0.5,0.1,0.9,0.3,1.2,0.6c0.3,0.4,0.4,0.8,0.4,1.3c0,0.2-0.1,0.5-0.3,0.9s-0.3,0.7-0.5,0.8
		c-0.1,0-0.2,0.1-0.3,0.4c-0.1,0.2-0.4,0.4-0.8,0.6s-0.7,0.3-0.8,0.2c-0.1,0-0.1,0.1-0.1,0.2c0,0.1-0.2,0.2-0.6,0.3
		c-0.4,0.1-0.7,0.2-0.9,0.2c-0.2,0-0.4,0-0.5-0.1c-0.1,0.1-0.1,0.2-0.1,0.3c0,0.1-0.1,0.3-0.2,0.5c-0.1,0.3-0.2,0.4-0.3,0.4
		c-0.1,0.1-0.1,0.1,0,0.2c0,0.3,0,0.4-0.1,0.6c0,0.3-0.1,0.6-0.2,0.9c0,0.1,0,0.3-0.1,0.4c0,0.1-0.1,0.2-0.1,0.2
		c-0.1,0-0.1,0.2-0.1,0.5c0,0.3-0.1,0.6-0.3,0.8c-0.2,0.2-0.3,0.3-0.5,0.3c-0.2,0-0.4,0-0.4-0.1c-0.3-0.4-0.3-0.7-0.3-1.1
		c0.1-0.5,0.2-0.9,0.2-1l0.1-0.6c0.1-0.2,0.2-0.5,0.2-0.8C382.8,37.2,382.9,37,383.1,36.9z M385.4,34.7c0.2,0,0.5-0.1,0.9-0.3
		c0.5-0.2,0.8-0.4,1-0.5s0.4-0.3,0.5-0.4c0.1-0.1,0.2-0.2,0.3-0.4c0.2-0.3,0.2-0.6,0-0.9c-0.3-0.4-1-0.2-1.9,0.7
		c-0.4,0.4-0.6,0.8-0.7,1.2C385.2,34.5,385.3,34.7,385.4,34.7z"/>
	<path class="st3" d="M394.2,29.3c0.2-0.1,0.4-0.1,0.7-0.1s0.5,0,0.6,0.1c0.1,0,0.1,0,0.1,0c0.1,0,0.3,0.1,0.6,0.4
		c0.2,0.2,0.4,0.4,0.4,0.6c0,0.9-0.1,1.3-0.2,1.3c-0.1,0-0.1,0-0.1,0.1c0,0.2-0.1,0.4-0.4,0.6c-0.3,0.2-0.6,0.3-0.8,0.3
		c-0.1,0-0.3-0.1-0.4-0.2c-0.1-0.1-0.2-0.3-0.2-0.4c0,0,0.1-0.2,0.4-0.5c0.2-0.3,0.4-0.5,0.4-0.8c0-0.1-0.1-0.1-0.3-0.1
		c-0.7,0.3-1.1,0.6-1.4,0.8c-0.1,0.1-0.1,0.2-0.2,0.2c0,0,0,0,0,0s-0.1,0.1-0.2,0.2c-0.1,0.1-0.2,0.3-0.4,0.5
		c-0.1,0.2-0.2,0.4-0.2,0.5l0,0.1v0.1c0,0,0,0.1,0,0.1c0,0.2,0.3,0.5,0.8,0.9c0.5,0.4,0.9,0.7,1.1,0.9c0.2,0.2,0.3,0.4,0.4,0.5
		c0.1,0.2,0.2,0.4,0.2,0.6c0,0.4-0.2,0.7-0.6,0.9c-0.4,0.2-0.9,0.3-1.5,0.3c-0.6,0-1.1-0.1-1.5-0.4c-0.4-0.3-0.7-0.5-0.7-0.7
		c0-0.2,0.1-0.3,0.2-0.3c0.1-0.1,0.3-0.1,0.5-0.1c0.3,0,0.6,0.1,0.9,0.1c0.2,0,0.5,0,0.7-0.1c0.2,0,0.3-0.1,0.3-0.1s0-0.1-0.1-0.2
		c-0.1-0.1-0.2-0.1-0.3-0.1c0,0-0.2-0.2-0.7-0.6c-0.5-0.4-0.7-0.6-0.7-0.7c0,0,0,0,0,0v-0.1c-0.1,0-0.2-0.1-0.2-0.3
		c-0.1-0.2-0.1-0.5-0.1-0.7c0-0.6,0.4-1.3,1.1-2S393.5,29.5,394.2,29.3z"/>
</g>
<g class="st1">
	<path class="st3" d="M319.1,24.8c1.3-0.3,2.4-0.2,3.4,0.4c0.5,0.3,1,0.7,1.3,1.1c0.3,0.4,0.4,0.8,0.5,1.2c0,0.4,0,0.8-0.2,1.1
		c-0.2,0.5-0.7,1-1.5,1.7s-1.5,1.1-2.2,1.4c-1,0.5-1.8,0.8-2.4,0.9c0.6,1.1,1.5,2.2,2.8,3.3c0.6,0.6,1.2,1,1.7,1.2
		c0.1,0.1,0.1,0.3,0,0.6c-0.1,0.3-0.2,0.5-0.3,0.5c-0.4,0.1-0.8,0-1.2-0.3c-1.1-0.7-2.3-1.7-3.4-2.9c-0.2-0.2-0.3-0.4-0.4-0.6
		c-0.1-0.2-0.2-0.3-0.2-0.4c-0.1-0.2-0.2-0.5-0.3-0.8c-0.4,1.2-0.9,2.8-1.6,4.6c0,0.1-0.2,0.2-0.5,0.2c-0.3,0-0.5-0.1-0.7-0.2
		c-0.2-0.2-0.3-0.3-0.3-0.4c0-0.1,0.2-0.5,0.5-1.3c0.1-0.4,0.2-0.9,0.5-1.5c0.1-0.2,0.5-1.4,1.4-3.5c0.9-2.2,1.5-3.6,1.9-4.4
		c0-0.1,0-0.3-0.1-0.4c-0.1-0.1-0.2-0.2-0.4-0.2c-0.1-0.1-0.2-0.3-0.2-0.4c0-0.1,0.1-0.2,0.2-0.3L319.1,24.8z M321.6,26.3
		c-0.7-0.2-1.2-0.2-1.4-0.2s-0.4,0.2-0.5,0.6c0,0,0,0.1-0.1,0.3c-0.3,0.6-0.6,1.2-0.8,1.7c-0.7,1.4-1.1,2.2-1.1,2.3s0,0.1,0,0.2
		c0.3,0,1-0.2,2-0.6c2-0.9,2.9-1.9,2.8-2.9c0-0.2-0.1-0.5-0.3-0.8C322.1,26.6,321.8,26.4,321.6,26.3z"/>
	<path class="st3" d="M327.3,29.7c0.7,0,1.2,0.2,1.5,0.5s0.5,0.7,0.5,1v0.1c0,0.3-0.2,0.7-0.5,1.2c-0.2,0.3-0.4,0.6-0.8,0.8
		c-0.3,0.2-0.7,0.4-1,0.4c-0.3,0-0.7,0-1-0.1c-0.3-0.1-0.5-0.1-0.6-0.1c-0.1,0-0.1,0-0.2,0.1c-0.1,0.1-0.1,0.4-0.1,0.7
		c0,0.3,0.1,0.6,0.3,0.7c0.1,0.1,0.3,0.2,0.5,0.2c0.2,0,0.4,0,0.6-0.1c0.2-0.1,0.4-0.2,0.7-0.5c0.3-0.2,0.5-0.3,0.6-0.3
		c0.1,0,0.3,0.1,0.4,0.2c0.1,0.1,0.2,0.3,0.2,0.4c0,0.3-0.3,0.6-0.8,1.1c-0.5,0.5-1.1,0.7-1.8,0.7s-1.2-0.2-1.6-0.6
		c-0.4-0.4-0.6-0.9-0.6-1.6c0-0.3,0-0.6,0-0.9c0-0.3,0.1-0.7,0.3-1.2c0.2-0.5,0.5-0.9,0.9-1.5s0.8-0.9,1.3-1.1
		C326.6,29.8,327,29.7,327.3,29.7z M327.2,31c-0.2,0-0.4,0.1-0.7,0.4c-0.3,0.3-0.5,0.6-0.8,0.9c0,0.1,0.2,0.2,0.6,0.2s0.6,0,0.7-0.1
		c0.1-0.1,0.3-0.2,0.5-0.5c0.2-0.2,0.4-0.4,0.4-0.5c0-0.3-0.2-0.4-0.6-0.5H327.2z"/>
	<path class="st3" d="M331.1,30.8l0.2-0.7c0.2-0.4,0.5-1.2,1-2.5s0.7-2,0.7-2.1s0-0.2,0.1-0.3c0.1-0.1,0.2-0.1,0.3-0.1
		c0.1-0.1,0.2-0.1,0.5-0.1l0.3,0.3c0.3,0.3,0.4,0.5,0.4,0.7s0,0.4-0.1,0.6c-0.1,0.2-0.3,0.7-0.7,1.5c0,0.1-0.1,0.3-0.2,0.5
		s-0.1,0.3-0.2,0.4c0,0.1-0.1,0.2-0.1,0.2c0,0,0,0.1,0,0.1c0,0.1,0,0.1-0.1,0.2s-0.1,0.2-0.1,0.3c-0.5,1.1-0.7,1.6-0.7,1.8
		s0,0.2-0.1,0.3c-0.1,0-0.1,0-0.1,0.1v0.1c0,0.1-0.1,0.4-0.3,1c-0.5,1.7-0.8,2.8-0.8,3.3s-0.1,0.7-0.4,0.9c-0.3,0.1-0.6-0.1-0.8-0.5
		c-0.2-0.5-0.3-1-0.1-1.7c0.1-0.3,0.2-0.6,0.2-0.8c0-0.2,0.2-0.6,0.4-1.2c0.2-0.6,0.3-1,0.4-1.1c0.1,0,0.2-0.1,0.2-0.4
		C330.9,31.1,330.9,30.9,331.1,30.8z"/>
	<path class="st3" d="M333,35.9c0-0.1-0.1-0.3-0.2-0.5c-0.2-0.2,0.2-1.1,1.1-2.8c0.1-0.1,0.2-0.2,0.3-0.4c0.1-0.2,0.2-0.3,0.2-0.3
		c0,0,0-0.1,0.1-0.1s0.1-0.1,0.1-0.1l0.1-0.3c0-0.1,0.3-0.4,0.7-0.8c0.4-0.4,0.8-0.7,1-0.8s0.5-0.2,0.8-0.2c0.3,0,0.5,0.1,0.7,0.3
		c0,0,0.1,0.1,0.2,0.2c0.2,0.2,0.7,0.6,1.5,1.3l-0.3,0.9c-0.3,0.8-0.2,1.5,0.2,2.2c0.1,0.3,0.3,0.4,0.6,0.5s0.4,0.2,0.4,0.4
		c0,0.5-0.2,0.8-0.5,0.8c-0.9,0.1-1.6-0.3-2.1-1.2c-0.2-0.2-0.3-0.5-0.3-0.8c-0.1,0.1-0.2,0.3-0.4,0.5c-1.6,1.7-2.9,2.2-3.7,1.7
		c0-0.1-0.1-0.2-0.3-0.3C333.1,36,333,35.9,333,35.9z M337.2,31.2c-0.4,0-1.2,0.9-2.2,2.6c-0.2,0.3-0.3,0.7-0.5,1.1
		c0.2,0,0.6-0.2,1.1-0.6c0.1-0.1,0.3-0.2,0.4-0.4c0.2-0.2,0.3-0.3,0.4-0.3s0.2-0.2,0.3-0.3c0.2-0.2,0.4-0.5,0.6-0.7l0.4-0.6
		C337.6,31.4,337.4,31.2,337.2,31.2z"/>
	<path class="st3" d="M341.5,30.2c-0.1-0.1-0.1-0.1-0.1-0.2s0.1-0.2,0.2-0.4c0.1-0.2,0.2-0.3,0.3-0.3c0.1,0,0.3,0,0.5,0
		c0.3,0,0.5,0,0.6-0.1s0.2-0.1,0.2-0.2c0-0.1,0.2-0.4,0.4-0.7c0.4-0.8,0.7-1.3,0.9-1.4s0.4-0.2,0.6-0.2c0.2,0,0.4,0,0.6,0.2
		c0.2,0.3,0.2,0.5,0,0.8c-0.1,0.1-0.2,0.3-0.3,0.6c-0.2,0.2-0.3,0.4-0.3,0.5c-0.2,0.3-0.2,0.4-0.1,0.5s0.5,0,1.1-0.1
		c0.6-0.1,0.9,0.1,1,0.6c0,0.3,0,0.5-0.1,0.5c-0.1,0.1-0.4,0.1-0.8,0.1c-0.4,0.1-0.7,0.1-1.1,0.1c-0.3,0-0.5,0-0.6,0
		c-0.1,0-0.3,0.2-0.3,0.3c0,0-0.1,0.1-0.1,0.2c-0.1,0.1-0.2,0.4-0.5,0.8c-0.3,0.9-0.6,1.9-0.7,2.8c0,0.2,0,0.4,0,0.5
		c0.1,0.1,0.3,0.2,0.6,0.2c0.6,0.1,1.2-0.1,1.9-0.5l0.5-0.3c0.1-0.1,0.2-0.1,0.4,0.2c0,0.1,0.1,0.1,0.1,0.2c0,0.5-0.3,0.8-0.8,1.1
		c-0.5,0.3-1,0.5-1.5,0.6c-0.5,0.1-0.9,0.1-1.2,0.1c-0.3-0.1-0.5-0.2-0.8-0.5c-0.2-0.3-0.4-0.5-0.5-0.7l-0.1-0.1
		c-0.1-0.1-0.1-0.4-0.1-0.9c0-0.6,0.1-1,0.1-1.2c0.1-0.3,0.3-0.9,0.6-1.8l0.5-1l-0.7-0.2C341.6,30.3,341.5,30.3,341.5,30.2z"/>
	<path class="st3" d="M347.1,35.1l0.1-0.4c0-0.1,0-0.3,0.1-0.6c0.3-0.6,0.6-1.6,1-2.9c0-0.1,0.1-0.2,0.3-0.2c0.1,0,0.3,0,0.5,0.2
		s0.4,0.3,0.5,0.5c0.2,0.2,0.1,0.4,0,0.9s-0.3,0.8-0.4,1.2c-0.1,0.3-0.2,0.6-0.3,0.7c0,0.2-0.1,0.4-0.2,0.7
		c-0.1,0.3-0.1,0.6-0.2,0.7c-0.1,0.5-0.3,0.8-0.6,0.9c-0.3,0.1-0.5,0-0.7-0.2c-0.1-0.1-0.2-0.4-0.2-0.7
		C347,35.4,347,35.2,347.1,35.1z M348.9,28.9c-0.1-0.2-0.1-0.3-0.1-0.4c0-0.1,0-0.2,0.1-0.3c0.1-0.1,0.1-0.3,0.3-0.5
		c0.3-0.5,0.4-0.8,0.5-0.8c0.1-0.1,0.3-0.1,0.6,0c0.3,0.1,0.4,0.3,0.6,0.5c0.2,0.5,0.1,1-0.3,1.5c-0.2,0.2-0.4,0.4-0.7,0.5
		c-0.3,0.1-0.5,0-0.6-0.1C349.1,29.2,349,29.1,348.9,28.9z"/>
	<path class="st3" d="M352.5,30.9c0.6-0.5,1.1-0.8,1.6-0.9c0.7-0.2,1.2-0.1,1.5,0.2c0.5,0.2,0.7,0.6,0.8,1.3c0.1,1-0.2,2-1,3.1
		c-0.4,0.6-1.1,1.2-1.8,1.7c-0.3,0.2-0.9,0.3-1.7,0.4c-0.2,0-0.4-0.1-0.7-0.3c-0.5-0.6-0.8-1.1-0.7-1.5l0-0.4
		c-0.1-0.1-0.1-0.1,0-0.1c0,0,0.1-0.1,0.1-0.1c0.1,0,0.1-0.1,0.1-0.2s0-0.3,0.1-0.7c0.1-0.3,0.2-0.6,0.4-0.9
		C351.6,31.8,352,31.3,352.5,30.9z M354.5,33.3c0,0,0.1-0.1,0.1-0.3c0-0.1,0.1-0.2,0.1-0.3s0.1-0.3,0.1-0.5c0-0.3,0-0.5-0.1-0.5
		c-0.1-0.1-0.2-0.1-0.3-0.1c-0.1,0-0.2,0.1-0.4,0.2c-0.9,0.8-1.5,1.6-1.6,2.5c0,0.3,0,0.5,0.1,0.7c0.1,0.1,0.3,0.2,0.5,0.1
		c0.2-0.1,0.5-0.2,0.6-0.4c0.2-0.2,0.3-0.3,0.4-0.4c0.1-0.1,0.1-0.1,0.2-0.2c0,0,0.1-0.1,0.1-0.2c0-0.1,0.1-0.2,0.1-0.2
		c0,0,0.1-0.1,0.1-0.2C354.5,33.4,354.5,33.3,354.5,33.3z"/>
	<path class="st3" d="M362.3,35.1l0.1-1.2v-0.3c0-0.2-0.1-0.4-0.2-0.4c-0.2,0-0.6,0.2-1.2,0.6c-1.1,0.8-1.8,1.5-2.4,2.2
		c-0.1,0.1-0.2,0.2-0.3,0.2c-0.1,0-0.2,0-0.3,0c-0.1,0-0.3-0.1-0.5-0.4c-0.2-0.2-0.4-0.4-0.4-0.6c0-0.5,0.2-1.2,0.7-2.1
		c0.1-0.2,0.2-0.6,0.5-1.3c0.3-0.6,0.4-1.1,0.5-1.5l0,0c0-0.1,0.1-0.2,0.2-0.2c0,0,0.1-0.1,0.4-0.1s0.4,0.1,0.7,0.3
		c0.2,0.2,0.3,0.4,0.3,0.7s-0.2,0.8-0.5,1.4c-0.3,0.6-0.5,0.9-0.5,1c0.2-0.1,0.6-0.4,1.1-0.8c1.2-1,2-1.5,2.3-1.5
		c0.2,0,0.4,0.1,0.7,0.3c0.3,0.2,0.4,0.3,0.5,0.5l-0.1,0.8l0,1c0,0.4,0,0.7-0.1,0.8l0.1,0.1c0,0,0,0.2,0.1,0.5
		c0.1,0.3,0.2,0.5,0.2,0.6s-0.1,0.2-0.3,0.4s-0.3,0.3-0.5,0.3C362.6,36.3,362.3,35.9,362.3,35.1z"/>
	<path class="st3" d="M369.1,29.3c0.2-0.1,0.4-0.1,0.7-0.1c0.3,0,0.5,0,0.6,0.1c0.1,0,0.1,0,0.1,0c0.1,0,0.3,0.1,0.6,0.4
		s0.4,0.4,0.4,0.6c0,0.9-0.1,1.3-0.2,1.3c-0.1,0-0.1,0-0.1,0.1c0,0.2-0.1,0.4-0.4,0.6c-0.3,0.2-0.6,0.3-0.8,0.3
		c-0.1,0-0.3-0.1-0.4-0.2s-0.2-0.3-0.2-0.4c0,0,0.1-0.2,0.4-0.5c0.2-0.3,0.4-0.5,0.4-0.8c0-0.1-0.1-0.1-0.3-0.1
		c-0.7,0.3-1.1,0.6-1.4,0.8c-0.1,0.1-0.1,0.2-0.2,0.2c0,0,0,0,0,0s-0.1,0.1-0.2,0.2s-0.2,0.3-0.4,0.5c-0.1,0.2-0.2,0.4-0.2,0.5
		l0,0.1v0.1c0,0,0,0.1,0,0.1c0,0.2,0.3,0.5,0.8,0.9s0.9,0.7,1.1,0.9c0.2,0.2,0.3,0.4,0.4,0.5c0.1,0.2,0.2,0.4,0.2,0.6
		c0,0.4-0.2,0.7-0.6,0.9c-0.4,0.2-0.9,0.3-1.5,0.3s-1.1-0.1-1.5-0.4c-0.4-0.3-0.7-0.5-0.7-0.7c0-0.2,0.1-0.3,0.2-0.3
		c0.1-0.1,0.3-0.1,0.5-0.1c0.3,0,0.6,0.1,0.9,0.1c0.2,0,0.5,0,0.7-0.1s0.3-0.1,0.3-0.1s0-0.1-0.1-0.2s-0.2-0.1-0.3-0.1
		c0,0-0.2-0.2-0.7-0.6c-0.5-0.4-0.7-0.6-0.7-0.7c0,0,0,0,0,0v-0.1c-0.1,0-0.2-0.1-0.2-0.3c-0.1-0.2-0.1-0.5-0.1-0.7
		c0-0.6,0.4-1.3,1.1-2S368.3,29.5,369.1,29.3z"/>
	<path class="st3" d="M376.7,34.7l0.1-1.4c0-0.3-0.1-0.4-0.2-0.4c-0.2,0-0.7,0.2-1.3,0.7c-0.6,0.4-1.2,1-1.8,1.7
		c-0.4,0.6-0.8,0.8-1.1,0.8c-0.2,0-0.4-0.2-0.6-0.4s-0.3-0.4-0.3-0.7s0.2-1,0.5-2.2c0-0.3,0.1-0.6,0.3-1c0.2-0.3,0.3-0.7,0.4-1
		c0.1-0.3,0.3-1,0.7-1.9c0.3-1,0.6-1.6,0.7-2c0.1-0.4,0.2-0.7,0.3-0.9c0.1-0.3,0.2-0.5,0.3-0.7c0-0.1,0.1-0.2,0.2-0.3
		c0.1-0.1,0.3-0.1,0.4-0.1s0.3,0.1,0.5,0.4c0.3,0.4,0.4,0.9,0.2,1.3c-0.2,0.4-0.5,1.3-1,2.7c-0.5,1.4-0.8,2.2-1,2.5l-0.2,0.4
		l-0.3,1.1c0,0,0,0.1,0,0.1c0.6-0.6,1-1,1.5-1.3c0.4-0.3,0.7-0.5,0.7-0.5c0-0.1,0.2-0.2,0.5-0.4c0.3-0.2,0.6-0.3,1.1-0.3
		c0.2,0,0.5,0.2,0.7,0.5c0.3,0.3,0.4,0.6,0.4,1v0.3c0,0.3-0.1,0.9-0.4,2c0.1,0,0.2,0,0.3,0c0.2,0,0.4,0.1,0.5,0.2
		c0.1,0.1,0.2,0.2,0.2,0.2c0,0,0,0.1,0,0.1c0,0.3-0.2,0.5-0.5,0.7c-0.3,0.2-0.6,0.3-0.9,0.3c-0.3,0-0.6-0.1-0.8-0.4
		C376.8,35.4,376.7,35.1,376.7,34.7z"/>
	<path class="st3" d="M380.1,35.1l0.1-0.4c0-0.1,0-0.3,0.1-0.6c0.3-0.6,0.6-1.6,1-2.9c0-0.1,0.1-0.2,0.3-0.2c0.1,0,0.3,0,0.5,0.2
		s0.4,0.3,0.5,0.5c0.2,0.2,0.1,0.4,0,0.9s-0.3,0.8-0.4,1.2c-0.1,0.3-0.2,0.6-0.3,0.7c0,0.2-0.1,0.4-0.2,0.7
		c-0.1,0.3-0.1,0.6-0.2,0.7c-0.1,0.5-0.3,0.8-0.6,0.9c-0.3,0.1-0.5,0-0.7-0.2c-0.1-0.1-0.2-0.4-0.2-0.7
		C380,35.4,380,35.2,380.1,35.1z M381.9,28.9c-0.1-0.2-0.1-0.3-0.1-0.4c0-0.1,0-0.2,0.1-0.3c0.1-0.1,0.1-0.3,0.3-0.5
		c0.3-0.5,0.4-0.8,0.5-0.8c0.1-0.1,0.3-0.1,0.6,0c0.3,0.1,0.4,0.3,0.6,0.5c0.2,0.5,0.1,1-0.3,1.5c-0.2,0.2-0.4,0.4-0.7,0.5
		c-0.3,0.1-0.5,0-0.6-0.1C382.1,29.2,382,29.1,381.9,28.9z"/>
	<path class="st3" d="M383.1,36.9l0.1-0.6c0.1-0.3,0.3-1.1,0.7-2.3c0.4-1.2,0.8-2.2,1-2.9c0.3-0.8,0.5-1.3,0.5-1.5
		c0-0.1,0.1-0.2,0.2-0.3c0.1-0.1,0.3-0.2,0.5-0.1c0.2,0,0.4,0.1,0.5,0.2c0.2,0.3,0.3,0.6,0.2,1c0,0.2-0.1,0.6-0.4,0.9c0,0,0,0,0,0
		c0.7-0.4,1.3-0.6,1.8-0.5c0.5,0.1,0.9,0.3,1.2,0.6c0.3,0.4,0.4,0.8,0.4,1.3c0,0.2-0.1,0.5-0.3,0.9s-0.3,0.7-0.5,0.8
		c-0.1,0-0.2,0.1-0.3,0.4c-0.1,0.2-0.4,0.4-0.8,0.6s-0.7,0.3-0.8,0.2c-0.1,0-0.1,0.1-0.1,0.2c0,0.1-0.2,0.2-0.6,0.3
		c-0.4,0.1-0.7,0.2-0.9,0.2c-0.2,0-0.4,0-0.5-0.1c-0.1,0.1-0.1,0.2-0.1,0.3c0,0.1-0.1,0.3-0.2,0.5c-0.1,0.3-0.2,0.4-0.3,0.4
		c-0.1,0.1-0.1,0.1,0,0.2c0,0.3,0,0.4-0.1,0.6c0,0.3-0.1,0.6-0.2,0.9c0,0.1,0,0.3-0.1,0.4c0,0.1-0.1,0.2-0.1,0.2
		c-0.1,0-0.1,0.2-0.1,0.5c0,0.3-0.1,0.6-0.3,0.8c-0.2,0.2-0.3,0.3-0.5,0.3c-0.2,0-0.4,0-0.4-0.1c-0.3-0.4-0.3-0.7-0.3-1.1
		c0.1-0.5,0.2-0.9,0.2-1l0.1-0.6c0.1-0.2,0.2-0.5,0.2-0.8C382.8,37.2,382.9,37,383.1,36.9z M385.4,34.7c0.2,0,0.5-0.1,0.9-0.3
		c0.5-0.2,0.8-0.4,1-0.5s0.4-0.3,0.5-0.4c0.1-0.1,0.2-0.2,0.3-0.4c0.2-0.3,0.2-0.6,0-0.9c-0.3-0.4-1-0.2-1.9,0.7
		c-0.4,0.4-0.6,0.8-0.7,1.2C385.2,34.5,385.3,34.7,385.4,34.7z"/>
	<path class="st3" d="M394.2,29.3c0.2-0.1,0.4-0.1,0.7-0.1s0.5,0,0.6,0.1c0.1,0,0.1,0,0.1,0c0.1,0,0.3,0.1,0.6,0.4
		c0.2,0.2,0.4,0.4,0.4,0.6c0,0.9-0.1,1.3-0.2,1.3c-0.1,0-0.1,0-0.1,0.1c0,0.2-0.1,0.4-0.4,0.6c-0.3,0.2-0.6,0.3-0.8,0.3
		c-0.1,0-0.3-0.1-0.4-0.2c-0.1-0.1-0.2-0.3-0.2-0.4c0,0,0.1-0.2,0.4-0.5c0.2-0.3,0.4-0.5,0.4-0.8c0-0.1-0.1-0.1-0.3-0.1
		c-0.7,0.3-1.1,0.6-1.4,0.8c-0.1,0.1-0.1,0.2-0.2,0.2c0,0,0,0,0,0s-0.1,0.1-0.2,0.2c-0.1,0.1-0.2,0.3-0.4,0.5
		c-0.1,0.2-0.2,0.4-0.2,0.5l0,0.1v0.1c0,0,0,0.1,0,0.1c0,0.2,0.3,0.5,0.8,0.9c0.5,0.4,0.9,0.7,1.1,0.9c0.2,0.2,0.3,0.4,0.4,0.5
		c0.1,0.2,0.2,0.4,0.2,0.6c0,0.4-0.2,0.7-0.6,0.9c-0.4,0.2-0.9,0.3-1.5,0.3c-0.6,0-1.1-0.1-1.5-0.4c-0.4-0.3-0.7-0.5-0.7-0.7
		c0-0.2,0.1-0.3,0.2-0.3c0.1-0.1,0.3-0.1,0.5-0.1c0.3,0,0.6,0.1,0.9,0.1c0.2,0,0.5,0,0.7-0.1c0.2,0,0.3-0.1,0.3-0.1s0-0.1-0.1-0.2
		c-0.1-0.1-0.2-0.1-0.3-0.1c0,0-0.2-0.2-0.7-0.6c-0.5-0.4-0.7-0.6-0.7-0.7c0,0,0,0,0,0v-0.1c-0.1,0-0.2-0.1-0.2-0.3
		c-0.1-0.2-0.1-0.5-0.1-0.7c0-0.6,0.4-1.3,1.1-2S393.5,29.5,394.2,29.3z"/>
</g>
<path class="st4" d="M325.2,44.1c13.3-1,32.1-2.4,33.8-1c3.6,2.7-13.7,39.2-17.9,45.3"/>
</svg>
