<?xml version="1.0" encoding="utf-8"?>
<!-- Generator: Adobe Illustrator 21.0.2, SVG Export Plug-In . SVG Version: 6.00 Build 0)  -->
<svg version="1.1" id="图层_1" xmlns="http://www.w3.org/2000/svg" xmlns:xlink="http://www.w3.org/1999/xlink" x="0px" y="0px"
	 width="45.4px" height="45.1px" viewBox="0 0 45.4 45.1" style="enable-background:new 0 0 45.4 45.1;" xml:space="preserve">
<style type="text/css">
	.st0{fill:#FFFFFF;}
	.st1{fill:#D5EBD1;}
	.st2{enable-background:new    ;}
</style>
<ellipse class="st0" cx="22.7" cy="22.5" rx="22.7" ry="22.5"/>
<polygon class="st1" points="14.2,23.8 22.7,32.2 31.1,23.8 34,26.6 22.7,37.8 11.4,26.6 "/>
<g class="st2">
	<path class="st1" d="M7.9,18.6c0.3,0,0.5,0,0.6-0.1c0.2,0,0.3-0.1,0.4-0.2c0.1-0.1,0.2-0.2,0.2-0.3c0-0.1,0.1-0.2,0.1-0.3
		c0-0.3-0.1-0.5-0.4-0.6c-0.2-0.2-0.7-0.4-1.3-0.6c-0.3-0.1-0.5-0.2-0.8-0.3S6.3,16,6.1,15.8c-0.2-0.2-0.4-0.4-0.5-0.7
		c-0.1-0.3-0.2-0.6-0.2-0.9c0-0.4,0.1-0.7,0.2-1c0.1-0.3,0.3-0.5,0.6-0.8c0.3-0.2,0.6-0.4,0.9-0.5c0.4-0.1,0.8-0.2,1.2-0.2
		c0.5,0,1,0.1,1.4,0.2c0.4,0.1,0.7,0.2,1,0.4l-0.5,1.4c-0.2-0.1-0.5-0.2-0.7-0.3c-0.3-0.1-0.6-0.1-1-0.1c-0.4,0-0.7,0.1-0.9,0.2
		c-0.2,0.1-0.3,0.3-0.3,0.5c0,0.1,0,0.3,0.1,0.4c0.1,0.1,0.2,0.2,0.3,0.3c0.1,0.1,0.3,0.2,0.4,0.2c0.2,0.1,0.3,0.1,0.5,0.2
		c0.4,0.2,0.8,0.3,1.1,0.5c0.3,0.2,0.6,0.3,0.8,0.5c0.2,0.2,0.4,0.4,0.5,0.7c0.1,0.3,0.1,0.6,0.1,1c0,0.7-0.3,1.3-0.8,1.7
		C9.8,20,9,20.2,7.9,20.2c-0.4,0-0.7,0-1-0.1c-0.3,0-0.5-0.1-0.8-0.2c-0.2-0.1-0.4-0.1-0.6-0.2c-0.2-0.1-0.3-0.1-0.4-0.2l0.5-1.4
		c0.2,0.1,0.5,0.2,0.9,0.3C7,18.6,7.4,18.6,7.9,18.6z"/>
	<path class="st1" d="M18.1,12v1.5h-2.4V20h-1.8v-6.4h-2.4V12H18.1z"/>
	<path class="st1" d="M23.7,20c-0.1-0.3-0.2-0.6-0.3-0.9c-0.1-0.3-0.2-0.6-0.3-0.9H20c-0.1,0.3-0.2,0.6-0.3,0.9
		c-0.1,0.3-0.2,0.6-0.3,0.9h-1.9c0.3-0.9,0.6-1.7,0.9-2.4c0.3-0.7,0.5-1.4,0.8-2.1c0.3-0.6,0.5-1.3,0.8-1.8c0.3-0.6,0.5-1.1,0.8-1.7
		h1.7c0.3,0.6,0.5,1.1,0.8,1.7c0.3,0.6,0.5,1.2,0.8,1.8c0.3,0.6,0.5,1.3,0.8,2.1c0.3,0.7,0.6,1.5,0.9,2.4H23.7z M21.5,13.8
		c0,0.1-0.1,0.3-0.2,0.5c-0.1,0.2-0.2,0.4-0.3,0.7s-0.2,0.5-0.3,0.9c-0.1,0.3-0.2,0.6-0.4,1h2.3c-0.1-0.3-0.2-0.7-0.4-1
		c-0.1-0.3-0.2-0.6-0.3-0.9c-0.1-0.3-0.2-0.5-0.3-0.7C21.6,14.1,21.6,13.9,21.5,13.8z"/>
	<path class="st1" d="M29,11.9c1.2,0,2.1,0.2,2.7,0.6s1,1.1,1,2c0,0.6-0.1,1-0.4,1.4c-0.3,0.3-0.6,0.6-1.1,0.8
		c0.2,0.2,0.3,0.4,0.5,0.7s0.4,0.5,0.5,0.8c0.2,0.3,0.3,0.6,0.5,0.9c0.2,0.3,0.3,0.6,0.4,0.9h-2c-0.1-0.3-0.3-0.5-0.4-0.8
		c-0.2-0.3-0.3-0.5-0.5-0.8c-0.2-0.3-0.3-0.5-0.5-0.7s-0.3-0.4-0.5-0.6h-0.9V20h-1.8v-7.9c0.4-0.1,0.8-0.1,1.2-0.2
		C28.3,12,28.6,11.9,29,11.9z M29.1,13.5c-0.1,0-0.2,0-0.3,0c-0.1,0-0.2,0-0.3,0v2.2h0.5c0.7,0,1.2-0.1,1.4-0.3
		c0.3-0.2,0.4-0.5,0.4-0.9c0-0.4-0.1-0.7-0.4-0.8C30.1,13.6,29.6,13.5,29.1,13.5z"/>
	<path class="st1" d="M40.1,12v1.5h-2.4V20h-1.8v-6.4h-2.4V12H40.1z"/>
</g>
</svg>
